999
"DXF R12 Output" (www.mydxf.blogspot.com)
 0 
SECTION
 2 
HEADER
 9 
$ACADVER
 1 
AC1009
 9 
$EXTMIN
 10 
 0 
 20 
 0 
 9 
$EXTMAX
 10 
 8.5 
 20 
 11 
 0 
ENDSEC
 0 
SECTION
 2 
ENTITIES
0
LINE
8
Layer 1
10
20.953000
20
3.049799
11
20.866556
21
2.621629
0
LINE
8
Layer 1
10
20.866556
20
2.621629
11
20.630816
21
2.271982
0
LINE
8
Layer 1
10
20.630816
20
2.271982
11
20.281168
21
2.036242
0
LINE
8
Layer 1
10
20.281168
20
2.036242
11
19.853000
21
1.949799
0
LINE
8
Layer 1
10
19.853000
20
1.949799
11
19.424832
21
2.036242
0
LINE
8
Layer 1
10
19.424832
20
2.036242
11
19.075184
21
2.271982
0
LINE
8
Layer 1
10
19.075184
20
2.271982
11
18.839444
21
2.621629
0
LINE
8
Layer 1
10
18.839444
20
2.621629
11
18.753000
21
3.049799
0
LINE
8
Layer 1
10
18.753000
20
3.049799
11
18.839444
21
3.477969
0
LINE
8
Layer 1
10
18.839444
20
3.477969
11
19.075184
21
3.827616
0
LINE
8
Layer 1
10
19.075184
20
3.827616
11
19.424832
21
4.063356
0
LINE
8
Layer 1
10
19.424832
20
4.063356
11
19.853000
21
4.149799
0
LINE
8
Layer 1
10
19.853000
20
4.149799
11
20.281168
21
4.063356
0
LINE
8
Layer 1
10
20.281168
20
4.063356
11
20.630816
21
3.827616
0
LINE
8
Layer 1
10
20.630816
20
3.827616
11
20.866556
21
3.477969
0
LINE
8
Layer 1
10
20.866556
20
3.477969
11
20.953000
21
3.049799
0
LINE
8
Layer 1
10
20.953000
20
3.049799
11
20.953000
21
3.049799
0
LINE
8
Layer 1
10
4.150000
20
3.049799
11
4.063556
21
2.621629
0
LINE
8
Layer 1
10
4.063556
20
2.621629
11
3.827816
21
2.271982
0
LINE
8
Layer 1
10
3.827816
20
2.271982
11
3.478168
21
2.036242
0
LINE
8
Layer 1
10
3.478168
20
2.036242
11
3.050000
21
1.949799
0
LINE
8
Layer 1
10
3.050000
20
1.949799
11
2.621832
21
2.036242
0
LINE
8
Layer 1
10
2.621832
20
2.036242
11
2.272184
21
2.271982
0
LINE
8
Layer 1
10
2.272184
20
2.271982
11
2.036444
21
2.621629
0
LINE
8
Layer 1
10
2.036444
20
2.621629
11
1.950000
21
3.049799
0
LINE
8
Layer 1
10
1.950000
20
3.049799
11
2.036444
21
3.477969
0
LINE
8
Layer 1
10
2.036444
20
3.477969
11
2.272184
21
3.827616
0
LINE
8
Layer 1
10
2.272184
20
3.827616
11
2.621832
21
4.063356
0
LINE
8
Layer 1
10
2.621832
20
4.063356
11
3.050000
21
4.149799
0
LINE
8
Layer 1
10
3.050000
20
4.149799
11
3.478168
21
4.063356
0
LINE
8
Layer 1
10
3.478168
20
4.063356
11
3.827816
21
3.827616
0
LINE
8
Layer 1
10
3.827816
20
3.827616
11
4.063556
21
3.477969
0
LINE
8
Layer 1
10
4.063556
20
3.477969
11
4.150000
21
3.049799
0
LINE
8
Layer 1
10
4.150000
20
3.049799
11
4.150000
21
3.049799
0
LINE
8
Layer 1
10
1.050090
20
15.679278
11
21.852930
21
15.679278
0
LINE
8
Layer 1
10
21.852930
20
15.679278
11
22.235613
21
15.603158
0
LINE
8
Layer 1
10
22.235613
20
15.603158
11
22.560037
21
15.386385
0
LINE
8
Layer 1
10
22.560037
20
15.386385
11
22.776810
21
15.061961
0
LINE
8
Layer 1
10
22.776810
20
15.061961
11
22.852930
21
14.679278
0
LINE
8
Layer 1
10
22.852930
20
14.679278
11
22.852930
21
1.049970
0
LINE
8
Layer 1
10
22.852930
20
1.049970
11
22.776810
21
0.667287
0
LINE
8
Layer 1
10
22.776810
20
0.667287
11
22.560037
21
0.342863
0
LINE
8
Layer 1
10
22.560037
20
0.342863
11
22.235613
21
0.126090
0
LINE
8
Layer 1
10
22.235613
20
0.126090
11
21.852930
21
0.049970
0
LINE
8
Layer 1
10
21.852930
20
0.049970
11
1.050090
21
0.049970
0
LINE
8
Layer 1
10
1.050090
20
0.049970
11
0.667407
21
0.126090
0
LINE
8
Layer 1
10
0.667407
20
0.126090
11
0.342983
21
0.342863
0
LINE
8
Layer 1
10
0.342983
20
0.342863
11
0.126210
21
0.667287
0
LINE
8
Layer 1
10
0.126210
20
0.667287
11
0.050090
21
1.049970
0
LINE
8
Layer 1
10
0.050090
20
1.049970
11
0.050090
21
14.679278
0
LINE
8
Layer 1
10
0.050090
20
14.679278
11
0.126210
21
15.061961
0
LINE
8
Layer 1
10
0.126210
20
15.061961
11
0.342983
21
15.386385
0
LINE
8
Layer 1
10
0.342983
20
15.386385
11
0.667407
21
15.603158
0
LINE
8
Layer 1
10
0.667407
20
15.603158
11
1.050090
21
15.679278
0
LINE
8
Layer 1
10
1.050090
20
15.679278
11
1.050090
21
15.679278
 0 
ENDSEC
 0 
EOF