<?xml version="1.0" encoding="UTF-8" standalone="no"?>
<svg
   version="1.1"
   width="594.0044mm"
   height="419.9890mm"
   viewBox="0.0000 0.0000 594.0044 419.9890"
   id="svg6853"
   sodipodi:docname="pcb-for-eco-user.svg"
   inkscape:version="1.3.2 (091e20e, 2023-11-25, custom)"
   xmlns:inkscape="http://www.inkscape.org/namespaces/inkscape"
   xmlns:sodipodi="http://sodipodi.sourceforge.net/DTD/sodipodi-0.dtd"
   xmlns="http://www.w3.org/2000/svg"
   xmlns:svg="http://www.w3.org/2000/svg">
  <defs
     id="defs6853">
    <inkscape:path-effect
       effect="fillet_chamfer"
       id="path-effect2"
       is_visible="true"
       lpeversion="1"
       nodesatellites_param="F,0,1,1,0,1,0,1 @ F,0,1,1,0,1,0,1 @ F,0,1,1,0,1,0,1 @ F,0,1,1,0,1,0,1 | F,0,0,1,0,0,0,1 @ F,0,0,1,0,0,0,1 @ F,0,0,1,0,0,0,1 @ F,0,0,1,0,0,0,1 | F,0,0,1,0,0,0,1 @ F,0,0,1,0,0,0,1 @ F,0,0,1,0,0,0,1 @ F,0,0,1,0,0,0,1 | F,0,0,1,0,0,0,1 @ F,0,0,1,0,0,0,1 @ F,0,0,1,0,0,0,1 @ F,0,0,1,0,0,0,1 | F,0,0,1,0,0,0,1 @ F,0,0,1,0,0,0,1 @ F,0,0,1,0,0,0,1 @ F,0,0,1,0,0,0,1"
       radius="1"
       unit="mm"
       method="auto"
       mode="F"
       chamfer_steps="1"
       flexible="false"
       use_knot_distance="true"
       apply_no_radius="true"
       apply_with_radius="true"
       only_selected="true"
       hide_knots="false" />
    <inkscape:path-effect
       effect="fillet_chamfer"
       id="path-effect1"
       is_visible="true"
       lpeversion="1"
       nodesatellites_param="F,0,1,1,0,1,0,1 @ F,0,1,1,0,1,0,1 @ F,0,1,1,0,1,0,1 @ F,0,1,1,0,1,0,1 | F,0,0,1,0,0,0,1 @ F,0,0,1,0,0,0,1 @ F,0,0,1,0,0,0,1 @ F,0,0,1,0,0,0,1 | F,0,0,1,0,0,0,1 @ F,0,0,1,0,0,0,1 @ F,0,0,1,0,0,0,1 @ F,0,0,1,0,0,0,1 | F,0,0,1,0,0,0,1 @ F,0,0,1,0,0,0,1 @ F,0,0,1,0,0,0,1 @ F,0,0,1,0,0,0,1 | F,0,0,1,0,0,0,1 @ F,0,0,1,0,0,0,1 @ F,0,0,1,0,0,0,1 @ F,0,0,1,0,0,0,1 | F,0,0,1,0,0,0,1 @ F,0,0,1,0,0,0,1 @ F,0,0,1,0,0,0,1 @ F,0,0,1,0,0,0,1"
       radius="1"
       unit="mm"
       method="auto"
       mode="F"
       chamfer_steps="1"
       flexible="false"
       use_knot_distance="true"
       apply_no_radius="true"
       apply_with_radius="true"
       only_selected="true"
       hide_knots="false" />
    <inkscape:path-effect
       effect="fillet_chamfer"
       id="path-effect19"
       is_visible="true"
       lpeversion="1"
       nodesatellites_param="F,0,0,1,0,0,0,1 @ F,0,0,1,0,0,0,1 @ F,0,0,1,0,0,0,1 @ F,0,0,1,0,0,0,1 | F,0,0,1,0,0,0,1 @ F,0,0,1,0,0,0,1 @ F,0,0,1,0,0,0,1 @ F,0,0,1,0,0,0,1 | F,0,0,1,0,0,0,1 @ F,0,0,1,0,0,0,1 @ F,0,0,1,0,0,0,1 @ F,0,0,1,0,0,0,1 | F,0,0,1,0,0,0,1 @ F,0,0,1,0,0,0,1 @ F,0,0,1,0,0,0,1 @ F,0,0,1,0,0,0,1 | F,0,0,1,0,0,0,1 @ F,0,0,1,0,0,0,1 @ F,0,0,1,0,0,0,1 @ F,0,0,1,0,0,0,1 | F,0,0,1,0,0,0,1 @ F,0,0,1,0,0,0,1 @ F,0,0,1,0,0,0,1 @ F,0,0,1,0,0,0,1 | F,0,0,1,0,0,0,1 @ F,0,0,1,0,0,0,1 @ F,0,0,1,0,0,0,1 @ F,0,0,1,0,0,0,1 | F,0,0,1,0,0,0,1 @ F,0,0,1,0,0,0,1 @ F,0,0,1,0,0,0,1 @ F,0,0,1,0,0,0,1 | F,0,0,1,0,0,0,1 @ F,0,0,1,0,0,0,1 @ F,0,0,1,0,0,0,1 @ F,0,0,1,0,0,0,1 | F,0,0,1,0,0,0,1 @ F,0,0,1,0,0,0,1 @ F,0,0,1,0,0,0,1 @ F,0,0,1,0,0,0,1 | F,0,0,1,0,0,0,1 @ F,0,0,1,0,0,0,1 @ F,0,0,1,0,0,0,1 @ F,0,0,1,0,0,0,1 | F,0,0,1,0,0,0,1 @ F,0,0,1,0,0,0,1 @ F,0,0,1,0,0,0,1 @ F,0,0,1,0,0,0,1 | F,0,0,1,0,0,0,1 @ F,0,0,1,0,0,0,1 @ F,0,0,1,0,0,0,1 @ F,0,0,1,0,0,0,1 | F,0,0,1,0,0,0,1 @ F,0,0,1,0,0,0,1 @ F,0,0,1,0,0,0,1 @ F,0,0,1,0,0,0,1 | F,0,0,1,0,0,0,1 @ F,0,0,1,0,0,0,1 @ F,0,0,1,0,0,0,1 @ F,0,0,1,0,0,0,1 | F,0,0,1,0,0,0,1 @ F,0,0,1,0,0,0,1 @ F,0,0,1,0,0,0,1 @ F,0,0,1,0,0,0,1 | F,0,0,1,0,0,0,1 @ F,0,0,1,0,0,0,1 @ F,0,0,1,0,0,0,1 @ F,0,0,1,0,0,0,1 | F,0,0,1,0,0,0,1 @ F,0,0,1,0,0,0,1 @ F,0,0,1,0,0,0,1 @ F,0,0,1,0,0,0,1 | F,0,0,1,0,0,0,1 @ F,0,0,1,0,0,0,1 @ F,0,0,1,0,0,0,1 @ F,0,0,1,0,0,0,1 | F,0,0,1,0,0,0,1 @ F,0,0,1,0,0,0,1 @ F,0,0,1,0,0,0,1 @ F,0,0,1,0,0,0,1 | F,0,0,1,0,0,0,1 @ F,0,0,1,0,0,0,1 @ F,0,0,1,0,0,0,1 @ F,0,0,1,0,0,0,1 | F,0,0,1,0,0,0,1 @ F,0,0,1,0,0,0,1 @ F,0,0,1,0,0,0,1 @ F,0,0,1,0,0,0,1 | F,0,0,1,0,0,0,1 @ F,0,0,1,0,0,0,1 @ F,0,0,1,0,0,0,1 @ F,0,0,1,0,0,0,1 | F,0,0,1,0,0,0,1 @ F,0,0,1,0,0,0,1 @ F,0,0,1,0,0,0,1 @ F,0,0,1,0,0,0,1 | F,0,0,1,0,0,0,1 @ F,0,0,1,0,0,0,1 @ F,0,0,1,0,0,0,1 @ F,0,0,1,0,0,0,1 | F,0,0,1,0,0,0,1 @ F,0,0,1,0,0,0,1 @ F,0,0,1,0,0,0,1 @ F,0,0,1,0,0,0,1 | F,0,0,1,0,0,0,1 @ F,0,0,1,0,0,0,1 @ F,0,0,1,0,0,0,1 @ F,0,0,1,0,0,0,1 | F,0,0,1,0,0,0,1 @ F,0,0,1,0,0,0,1 @ F,0,0,1,0,0,0,1 @ F,0,0,1,0,0,0,1 | F,0,0,1,0,0,0,1 @ F,0,0,1,0,0,0,1 @ F,0,0,1,0,0,0,1 @ F,0,0,1,0,0,0,1 | F,0,0,1,0,0,0,1 @ F,0,0,1,0,0,0,1 @ F,0,0,1,0,0,0,1 @ F,0,0,1,0,0,0,1 | F,0,0,1,0,0,0,1 @ F,0,0,1,0,0,0,1 @ F,0,0,1,0,0,0,1 @ F,0,0,1,0,0,0,1 | F,0,0,1,0,0,0,1 @ F,0,0,1,0,0,0,1 @ F,0,0,1,0,0,0,1 @ F,0,0,1,0,0,0,1 | F,0,0,1,0,0,0,1 @ F,0,0,1,0,0,0,1 @ F,0,0,1,0,0,0,1 @ F,0,0,1,0,0,0,1 | F,0,0,1,0,0,0,1 @ F,0,0,1,0,0,0,1 @ F,0,0,1,0,0,0,1 @ F,0,0,1,0,0,0,1 | F,0,0,1,0,0,0,1 @ F,0,0,1,0,0,0,1 @ F,0,0,1,0,0,0,1 @ F,0,0,1,0,0,0,1 | F,0,0,1,0,0,0,1 @ F,0,0,1,0,0,0,1 @ F,0,0,1,0,0,0,1 @ F,0,0,1,0,0,0,1 | F,0,0,1,0,0,0,1 @ F,0,0,1,0,0,0,1 @ F,0,0,1,0,0,0,1 @ F,0,0,1,0,0,0,1 | F,0,0,1,0,0,0,1 @ F,0,0,1,0,0,0,1 @ F,0,0,1,0,0,0,1 @ F,0,0,1,0,0,0,1 | F,0,0,1,0,0,0,1 @ F,0,0,1,0,0,0,1 @ F,0,0,1,0,0,0,1 @ F,0,0,1,0,0,0,1 | F,0,0,1,0,0,0,1 @ F,0,0,1,0,0,0,1 @ F,0,0,1,0,0,0,1 @ F,0,0,1,0,0,0,1 | F,0,0,1,0,0,0,1 @ F,0,0,1,0,0,0,1 @ F,0,0,1,0,0,0,1 @ F,0,0,1,0,0,0,1 | F,0,0,1,0,0,0,1 @ F,0,0,1,0,0,0,1 @ F,0,0,1,0,0,0,1 @ F,0,0,1,0,0,0,1 | F,0,0,1,0,0,0,1 @ F,0,0,1,0,0,0,1 @ F,0,0,1,0,0,0,1 @ F,0,0,1,0,0,0,1 | F,0,0,1,0,0,0,1 @ F,0,0,1,0,0,0,1 @ F,0,0,1,0,0,0,1 @ F,0,0,1,0,0,0,1 | F,0,0,1,0,0,0,1 @ F,0,0,1,0,0,0,1 @ F,0,0,1,0,0,0,1 @ F,0,0,1,0,0,0,1 | F,0,0,1,0,0,0,1 @ F,0,0,1,0,0,0,1 @ F,0,0,1,0,0,0,1 @ F,0,0,1,0,0,0,1 | F,0,0,1,0,0,0,1 @ F,0,0,1,0,0,0,1 @ F,0,0,1,0,0,0,1 @ F,0,0,1,0,0,0,1 | F,0,0,1,0,0,0,1 @ F,0,0,1,0,0,0,1 @ F,0,0,1,0,0,0,1 @ F,0,0,1,0,0,0,1 | F,0,0,1,0,0,0,1 @ F,0,0,1,0,0,0,1 @ F,0,0,1,0,0,0,1 @ F,0,0,1,0,0,0,1 | F,0,0,1,0,0,0,1 @ F,0,0,1,0,0,0,1 @ F,0,0,1,0,0,0,1 @ F,0,0,1,0,0,0,1 | F,0,0,1,0,0,0,1 @ F,0,0,1,0,0,0,1 @ F,0,0,1,0,0,0,1 @ F,0,0,1,0,0,0,1 | F,0,0,1,0,0,0,1 @ F,0,0,1,0,0,0,1 @ F,0,0,1,0,0,0,1 @ F,0,0,1,0,0,0,1 | F,0,0,1,0,0,0,1 @ F,0,0,1,0,0,0,1 @ F,0,0,1,0,0,0,1 @ F,0,0,1,0,0,0,1 | F,0,0,1,0,0,0,1 @ F,0,0,1,0,0,0,1 @ F,0,0,1,0,0,0,1 @ F,0,0,1,0,0,0,1 | F,0,0,1,0,0,0,1 @ F,0,0,1,0,0,0,1 @ F,0,0,1,0,0,0,1 @ F,0,0,1,0,0,0,1 | F,0,0,1,0,0,0,1 @ F,0,0,1,0,0,0,1 @ F,0,0,1,0,0,0,1 @ F,0,0,1,0,0,0,1 | F,0,0,1,0,0,0,1 @ F,0,0,1,0,0,0,1 @ F,0,0,1,0,0,0,1 @ F,0,0,1,0,0,0,1 | F,0,0,1,0,0,0,1 @ F,0,0,1,0,0,0,1 @ F,0,0,1,0,0,0,1 @ F,0,0,1,0,0,0,1 | F,0,0,1,0,0,0,1 @ F,0,0,1,0,0,0,1 @ F,0,0,1,0,0,0,1 @ F,0,0,1,0,0,0,1 | F,0,0,1,0,0,0,1 @ F,0,0,1,0,0,0,1 @ F,0,0,1,0,0,0,1 @ F,0,0,1,0,0,0,1 | F,0,0,1,0,0,0,1 @ F,0,0,1,0,0,0,1 @ F,0,0,1,0,0,0,1 @ F,0,0,1,0,0,0,1 | F,0,0,1,0,0,0,1 @ F,0,0,1,0,0,0,1 @ F,0,0,1,0,0,0,1 @ F,0,0,1,0,0,0,1 | F,0,0,1,0,0,0,1 @ F,0,0,1,0,0,0,1 @ F,0,0,1,0,0,0,1 @ F,0,0,1,0,0,0,1 | F,0,0,1,0,0,0,1 @ F,0,0,1,0,0,0,1 @ F,0,0,1,0,0,0,1 @ F,0,0,1,0,0,0,1"
       radius="2"
       unit="mm"
       method="auto"
       mode="F"
       chamfer_steps="1"
       flexible="false"
       use_knot_distance="true"
       apply_no_radius="true"
       apply_with_radius="true"
       only_selected="true"
       hide_knots="false" />
    <inkscape:path-effect
       effect="fillet_chamfer"
       id="path-effect18"
       is_visible="true"
       lpeversion="1"
       nodesatellites_param="F,0,1,1,0,2,0,1 @ F,0,1,1,0,2,0,1 @ F,0,1,1,0,2,0,1 @ F,0,1,1,0,2,0,1 | F,0,0,1,0,0,0,1 @ F,0,0,1,0,0,0,1 @ F,0,0,1,0,0,0,1 @ F,0,0,1,0,0,0,1 | F,0,0,1,0,0,0,1 @ F,0,0,1,0,0,0,1 @ F,0,0,1,0,0,0,1 @ F,0,0,1,0,0,0,1 | F,0,0,1,0,0,0,1 @ F,0,0,1,0,0,0,1 @ F,0,0,1,0,0,0,1 @ F,0,0,1,0,0,0,1 | F,0,0,1,0,0,0,1 @ F,0,0,1,0,0,0,1 @ F,0,0,1,0,0,0,1 @ F,0,0,1,0,0,0,1 | F,0,0,1,0,0,0,1 @ F,0,0,1,0,0,0,1 @ F,0,0,1,0,0,0,1 @ F,0,0,1,0,0,0,1"
       radius="2"
       unit="mm"
       method="auto"
       mode="F"
       chamfer_steps="1"
       flexible="false"
       use_knot_distance="true"
       apply_no_radius="true"
       apply_with_radius="true"
       only_selected="true"
       hide_knots="false" />
    <inkscape:path-effect
       effect="fillet_chamfer"
       id="path-effect17"
       is_visible="true"
       lpeversion="1"
       nodesatellites_param="F,0,1,1,0,2,0,1 @ F,0,1,1,0,2,0,1 @ F,0,1,1,0,2,0,1 @ F,0,1,1,0,2,0,1 | F,0,0,1,0,0,0,1 @ F,0,0,1,0,0,0,1 @ F,0,0,1,0,0,0,1 @ F,0,0,1,0,0,0,1 | F,0,0,1,0,0,0,1 @ F,0,0,1,0,0,0,1 @ F,0,0,1,0,0,0,1 @ F,0,0,1,0,0,0,1 | F,0,0,1,0,0,0,1 @ F,0,0,1,0,0,0,1 @ F,0,0,1,0,0,0,1 @ F,0,0,1,0,0,0,1 | F,0,0,1,0,0,0,1 @ F,0,0,1,0,0,0,1 @ F,0,0,1,0,0,0,1 @ F,0,0,1,0,0,0,1"
       radius="2"
       unit="mm"
       method="auto"
       mode="F"
       chamfer_steps="1"
       flexible="false"
       use_knot_distance="true"
       apply_no_radius="true"
       apply_with_radius="true"
       only_selected="true"
       hide_knots="false" />
  </defs>
  <sodipodi:namedview
     id="namedview6853"
     pagecolor="#ffffff"
     bordercolor="#000000"
     borderopacity="0.25"
     inkscape:showpageshadow="2"
     inkscape:pageopacity="0.0"
     inkscape:pagecheckerboard="0"
     inkscape:deskcolor="#d1d1d1"
     inkscape:document-units="mm"
     inkscape:zoom="0.99999999"
     inkscape:cx="783.00001"
     inkscape:cy="819.50001"
     inkscape:window-width="2560"
     inkscape:window-height="1369"
     inkscape:window-x="2552"
     inkscape:window-y="-8"
     inkscape:window-maximized="1"
     inkscape:current-layer="svg6853"
     showguides="false" />
  <title
     id="title1">SVG Image created as laser-keyboard-brd.svg date 2024/11/08 13:29:10 </title>
  <desc
     id="desc1">Image generated by PCBNEW </desc>
  <path
     id="rect1"
     style="display:inline;fill:none;stroke:#000000;stroke-width:0.1"
     inkscape:label="pcb-for-eco-user"
     d="m 128.643,171.70999 334.76199,0 a 1,1 45 0 1 1,1 V 259.82 a 1,1 135 0 1 -1,1 l -334.76199,0 a 1,1 45 0 1 -1,-1 v -87.11001 a 1,1 135 0 1 1,-1 z M 429.26501,231.77 c 0,0.60751 -0.49249,1.1 -1.1,1.1 -0.60751,0 -1.1,-0.49249 -1.1,-1.1 0,-0.60751 0.49249,-1.1 1.1,-1.1 0.60751,0 1.1,0.49249 1.1,1.1 z m 0,-31 c 0,0.60751 -0.49249,1.1 -1.1,1.1 -0.60751,0 -1.1,-0.49249 -1.1,-1.1 0,-0.60751 0.49249,-1.1 1.1,-1.1 0.60751,0 1.1,0.49249 1.1,1.1 z m 31,0 c 0,0.60751 -0.49249,1.1 -1.1,1.1 -0.60751,0 -1.1,-0.49249 -1.1,-1.1 0,-0.60751 0.49249,-1.1 1.1,-1.1 0.60751,0 1.1,0.49249 1.1,1.1 z m 0,31 c 0,0.60751 -0.49249,1.1 -1.1,1.1 -0.60751,0 -1.1,-0.49249 -1.1,-1.1 0,-0.60751 0.49249,-1.1 1.1,-1.1 0.60751,0 1.1,0.49249 1.1,1.1 z m -21.95,-24.59 v 17.25998 h 10.69998 V 207.18 Z M 443.66,192.4598 h -19.05 m 19.05,-19.05 v 19.05 m -19.05,0 v -19.05 m 0,0 h 19.05 M 272.215,197.225 h -19.05 m 19.05,-19.05 v 19.05 m -19.05,0 v -19.05 m 0,0 h 19.05 m -100.0337,57.16 h -42.8626 m 42.8626,-19.05 v 19.05 m -42.8626,0 v -19.05 m 0,0 h 42.8626 m 152.4237,19.05 h -19.05 m 19.05,-19.05 v 19.05 m -19.05,0 v -19.05 m 0,0 h 19.05 M 210.3,235.3398 h -19.05 m 19.05,-19.05 v 19.05 m -19.05,0 v -19.05 m 0,0 h 19.05 m 33.3112,38.0952 h -42.8624 m 42.8624,-19.05 v 19.05 m -42.8624,0 v -19.05 m 0,0 h 42.8624 m -85.6937,-38.12 h -28.575 m 28.575,-19.05 v 19.05 m -28.575,0 v -19.05 m 0,0 h 28.575 m 23.8175,38.13 h -19.05 m 19.05,-19.05 v 19.05 m -19.05,0 v -19.05 m 0,0 h 19.05 m -19.0663,19.02 h -33.3375 m 33.3375,-19.05 v 19.05 m -33.3375,0 v -19.05 m 0,0 h 33.3375 m 152.3963,19.06 h -19.05 m 19.05,-19.05 v 19.05 m -19.05,0 v -19.05 m 0,0 h 19.05 m -38.1,19.04 h -19.05 m 19.05,-19.05 v 19.05 m -19.05,0 v -19.05 m 0,0 h 19.05 m 109.565,0.005 h -19.05 m 19.05,-19.05 v 19.05 m -19.05,0 v -19.05 m 0,0 h 19.05 m 52.38,80.96 h -19.05 m 19.05,-19.05 v 19.05 m -19.05,0 v -19.05 m 0,0 h 19.05 m -95.2488,14.32 h -23.8125 m 23.8125,-19.05 v 19.05 m -23.8125,0 v -19.05 m 0,0 h 23.8125 M 234.115,197.235 h -19.05 m 19.05,-19.05 v 19.05 m -19.05,0 v -19.05 m 0,0 h 19.05 m 100.01,38.1 h -19.05 m 19.05,-19.05 v 19.05 m -19.05,0 v -19.05 m 0,0 h 19.05 m -76.205,19.0348 h -19.05 m 19.05,-19.05 v 19.05 m -19.05,0 v -19.05 m 0,0 h 19.05 m -61.915,0.0152 h -19.05 m 19.05,-19.05 v 19.05 m -19.05,0 v -19.05 m 0,0 h 19.05 m 23.82,38.09 h -19.05 m 19.05,-19.05 v 19.05 m -19.05,0 v -19.05 m 0,0 h 19.05 M 348.4,197.23 h -19.05 m 19.05,-19.05 v 19.05 m -19.05,0 v -19.05 m 0,0 h 19.05 m 52.39,80.94 h -19.05 m 19.05,-19.05 v 19.05 m -19.05,0 v -19.05 m 0,0 h 19.05 m -200.0338,14.295 h -23.8125 m 23.8125,-19.05 v 19.05 m -23.8125,0 v -19.05 m 0,0 h 23.8125 M 215.06,197.2298 h -19.05 m 19.05,-19.05 v 19.05 m -19.05,0 v -19.05 m 0,0 h 19.05 m 138.11,38.1 h -19.05 m 19.05,-19.05 v 19.05 m -19.05,0 v -19.05 m 0,0 h 19.05 m -23.8,0 h -19.05 m 19.05,-19.05 v 19.05 m -19.05,0 v -19.05 m 0,0 h 19.05 m -61.905,57.1452 h -19.05 m 19.05,-19.05 v 19.05 m -19.05,0 v -19.05 m 0,0 h 19.05 m 147.6225,-19.06 h -28.575 m 28.575,-19.05 v 19.05 m -28.575,0 v -19.05 m 0,0 h 28.575 m -176.2125,38.11 h -19.05 m 19.05,-19.05 v 19.05 m -19.05,0 v -19.05 m 0,0 h 19.05 m 123.815,38.0848 h -19.05 m 19.05,-19.05 v 19.05 m -19.05,0 v -19.05 m 0,0 h 19.05 M 229.355,235.335 h -19.05 m 19.05,-19.05 v 19.05 m -19.05,0 v -19.05 m 0,0 h 19.05 M 343.65,235.3298 H 324.6 m 19.05,-19.05 v 19.05 m -19.05,0 v -19.05 m 0,0 h 19.05 m -33.36,-19.06 h -19.05 m 19.05,-19.05 v 19.05 m -19.05,0 v -19.05 m 0,0 h 19.05 m 61.935,38.1152 h -19.05 m 19.05,-19.05 v 19.05 m -19.05,0 v -19.05 m 0,0 h 19.05 m -80.97,-0.02 h -19.05 m 19.05,-19.05 v 19.05 m -19.05,0 v -19.05 m 0,0 h 19.05 m -42.84,57.16 h -19.05 m 19.05,-19.05 v 19.05 m -19.05,0 v -19.05 m 0,0 h 19.05 m 4.74,-19.05 h -19.05 m 19.05,-19.05 v 19.05 m -19.05,0 v -19.05 m 0,0 h 19.05 m 114.3,19.06 h -19.05 m 19.05,-19.05 v 19.05 m -19.05,0 v -19.05 m 0,0 h 19.05 m -80.96,57.14 h -19.05 m 19.05,-19.05 v 19.05 m -19.05,0 v -19.05 m 0,0 h 19.05 m 128.5963,0.03 h -42.8626 m 42.8626,-19.05 v 19.05 m -42.8626,0 v -19.05 m 0,0 h 42.8626 m -214.3263,19.01 h -19.05 m 19.05,-19.05 v 19.05 m -19.05,0 v -19.05 m 0,0 h 19.05 m 66.6913,57.15 h -23.8126 m 23.8126,-19.05 v 19.05 m -23.8126,0 v -19.05 m 0,0 h 23.8126 m 195.2487,-42.86 h -19.05 m 19.05,-19.05 v 19.05 m -19.05,0 v -19.05 m 0,0 h 19.05 M 191.25,235.3298 H 172.2 m 19.05,-19.05 v 19.05 m -19.05,0 v -19.05 m 0,0 h 19.05 m 104.77,-0.01 h -19.05 m 19.05,-19.05 v 19.05 m -19.05,0 v -19.05 m 0,0 h 19.05 m -119.0588,57.16 h -23.8124 m 23.8124,-19.05 v 19.05 m -23.8124,0 v -19.05 m 0,0 h 23.8124 m 142.8826,19.0352 h -52.3875 m 52.3875,-19.05 v 19.05 m -52.3875,0 v -19.05 m 0,0 h 52.3875 m 47.6324,19.06 h -23.8125 m 23.8125,-19.05 v 19.05 m -23.8125,0 v -19.05 m 0,0 h 23.8125 M 419.85,259.1298 H 400.8 m 19.05,-19.05 v 19.05 m -19.05,0 v -19.05 m 0,0 h 19.05 M 176.965,197.215 h -19.05 m 19.05,-19.05 v 19.05 m -19.05,0 v -19.05 m 0,0 h 19.05 m 128.56,57.17 h -19.05 m 19.05,-19.05 v 19.05 m -19.05,0 v -19.05 m 0,0 h 19.05 m -152.3938,38.1 h -23.8125 m 23.8125,-19.05 v 19.05 m -23.8125,0 v -19.05 m 0,0 h 23.8125 m 247.6488,4.7548 v -19.05 m 19.05,19.05 h -19.05 m 19.05,-19.05 v 19.05 m -19.05,-19.05 h 19.05 m -57.1688,-4.7248 h 33.3375 m 0,0 v 19.05 m 0,0 h -33.3375 m 0,0 v -19.05 m 81.0038,42.82 v -19.05 m 19.05,19.05 h -19.05 m 19.05,-19.05 v 19.05 m -19.05,-19.05 h 19.05 m -19.05,-4.76 h -19.05 m 19.05,-19.05 v 19.05 m -19.05,0 v -19.05 m 0,0 h 19.05 m 19.05,19.05 h -19.05 m 19.05,-19.05 v 19.05 m -19.05,0 v -19.05 m 0,0 h 19.05 m 0,-0.01 h -19.05 m 19.05,-19.05 v 19.05 m -19.05,0 v -19.05 m 0,0 h 19.05 m -19.04,19.06 h -19.05 m 19.05,-19.05 v 19.05 m -19.05,0 v -19.05 m 0,0 h 19.05" />
</svg>
