999
"DXF R12 Output" (www.mydxf.blogspot.com)
 0 
SECTION
 2 
HEADER
 9 
$ACADVER
 1 
AC1009
 9 
$EXTMIN
 10 
 0 
 20 
 0 
 9 
$EXTMAX
 10 
 8.5 
 20 
 11 
 0 
ENDSEC
 0 
SECTION
 2 
ENTITIES
0
LINE
8
Layer 1
10
128.643000
20
248.279010
11
463.404990
21
248.279010
0
LINE
8
Layer 1
10
463.404990
20
248.279010
11
463.787673
21
248.202890
0
LINE
8
Layer 1
10
463.787673
20
248.202890
11
464.112097
21
247.986117
0
LINE
8
Layer 1
10
464.112097
20
247.986117
11
464.328870
21
247.661693
0
LINE
8
Layer 1
10
464.328870
20
247.661693
11
464.404990
21
247.279010
0
LINE
8
Layer 1
10
464.404990
20
247.279010
11
464.404990
21
160.169000
0
LINE
8
Layer 1
10
464.404990
20
160.169000
11
464.328870
21
159.786317
0
LINE
8
Layer 1
10
464.328870
20
159.786317
11
464.112097
21
159.461893
0
LINE
8
Layer 1
10
464.112097
20
159.461893
11
463.787673
21
159.245120
0
LINE
8
Layer 1
10
463.787673
20
159.245120
11
463.404990
21
159.169000
0
LINE
8
Layer 1
10
463.404990
20
159.169000
11
128.643000
21
159.169000
0
LINE
8
Layer 1
10
128.643000
20
159.169000
11
128.260317
21
159.245120
0
LINE
8
Layer 1
10
128.260317
20
159.245120
11
127.935893
21
159.461893
0
LINE
8
Layer 1
10
127.935893
20
159.461893
11
127.719120
21
159.786317
0
LINE
8
Layer 1
10
127.719120
20
159.786317
11
127.643000
21
160.169000
0
LINE
8
Layer 1
10
127.643000
20
160.169000
11
127.643000
21
247.279010
0
LINE
8
Layer 1
10
127.643000
20
247.279010
11
127.719120
21
247.661693
0
LINE
8
Layer 1
10
127.719120
20
247.661693
11
127.935893
21
247.986117
0
LINE
8
Layer 1
10
127.935893
20
247.986117
11
128.260317
21
248.202890
0
LINE
8
Layer 1
10
128.260317
20
248.202890
11
128.643000
21
248.279010
0
LINE
8
Layer 1
10
128.643000
20
248.279010
11
128.643000
21
248.279010
0
LINE
8
Layer 1
10
429.265010
20
188.219000
11
429.178566
21
187.790832
0
LINE
8
Layer 1
10
429.178566
20
187.790832
11
428.942826
21
187.441184
0
LINE
8
Layer 1
10
428.942826
20
187.441184
11
428.593178
21
187.205444
0
LINE
8
Layer 1
10
428.593178
20
187.205444
11
428.165010
21
187.119000
0
LINE
8
Layer 1
10
428.165010
20
187.119000
11
427.736842
21
187.205444
0
LINE
8
Layer 1
10
427.736842
20
187.205444
11
427.387194
21
187.441184
0
LINE
8
Layer 1
10
427.387194
20
187.441184
11
427.151454
21
187.790832
0
LINE
8
Layer 1
10
427.151454
20
187.790832
11
427.065010
21
188.219000
0
LINE
8
Layer 1
10
427.065010
20
188.219000
11
427.151454
21
188.647168
0
LINE
8
Layer 1
10
427.151454
20
188.647168
11
427.387194
21
188.996816
0
LINE
8
Layer 1
10
427.387194
20
188.996816
11
427.736842
21
189.232556
0
LINE
8
Layer 1
10
427.736842
20
189.232556
11
428.165010
21
189.319000
0
LINE
8
Layer 1
10
428.165010
20
189.319000
11
428.593178
21
189.232556
0
LINE
8
Layer 1
10
428.593178
20
189.232556
11
428.942826
21
188.996816
0
LINE
8
Layer 1
10
428.942826
20
188.996816
11
429.178566
21
188.647168
0
LINE
8
Layer 1
10
429.178566
20
188.647168
11
429.265010
21
188.219000
0
LINE
8
Layer 1
10
429.265010
20
188.219000
11
429.265010
21
188.219000
0
LINE
8
Layer 1
10
429.265010
20
219.219000
11
429.178566
21
218.790832
0
LINE
8
Layer 1
10
429.178566
20
218.790832
11
428.942826
21
218.441184
0
LINE
8
Layer 1
10
428.942826
20
218.441184
11
428.593178
21
218.205444
0
LINE
8
Layer 1
10
428.593178
20
218.205444
11
428.165010
21
218.119000
0
LINE
8
Layer 1
10
428.165010
20
218.119000
11
427.736842
21
218.205444
0
LINE
8
Layer 1
10
427.736842
20
218.205444
11
427.387194
21
218.441184
0
LINE
8
Layer 1
10
427.387194
20
218.441184
11
427.151454
21
218.790832
0
LINE
8
Layer 1
10
427.151454
20
218.790832
11
427.065010
21
219.219000
0
LINE
8
Layer 1
10
427.065010
20
219.219000
11
427.151454
21
219.647168
0
LINE
8
Layer 1
10
427.151454
20
219.647168
11
427.387194
21
219.996816
0
LINE
8
Layer 1
10
427.387194
20
219.996816
11
427.736842
21
220.232556
0
LINE
8
Layer 1
10
427.736842
20
220.232556
11
428.165010
21
220.319000
0
LINE
8
Layer 1
10
428.165010
20
220.319000
11
428.593178
21
220.232556
0
LINE
8
Layer 1
10
428.593178
20
220.232556
11
428.942826
21
219.996816
0
LINE
8
Layer 1
10
428.942826
20
219.996816
11
429.178566
21
219.647168
0
LINE
8
Layer 1
10
429.178566
20
219.647168
11
429.265010
21
219.219000
0
LINE
8
Layer 1
10
429.265010
20
219.219000
11
429.265010
21
219.219000
0
LINE
8
Layer 1
10
460.265010
20
219.219000
11
460.178566
21
218.790832
0
LINE
8
Layer 1
10
460.178566
20
218.790832
11
459.942826
21
218.441184
0
LINE
8
Layer 1
10
459.942826
20
218.441184
11
459.593178
21
218.205444
0
LINE
8
Layer 1
10
459.593178
20
218.205444
11
459.165010
21
218.119000
0
LINE
8
Layer 1
10
459.165010
20
218.119000
11
458.736842
21
218.205444
0
LINE
8
Layer 1
10
458.736842
20
218.205444
11
458.387194
21
218.441184
0
LINE
8
Layer 1
10
458.387194
20
218.441184
11
458.151454
21
218.790832
0
LINE
8
Layer 1
10
458.151454
20
218.790832
11
458.065010
21
219.219000
0
LINE
8
Layer 1
10
458.065010
20
219.219000
11
458.151454
21
219.647168
0
LINE
8
Layer 1
10
458.151454
20
219.647168
11
458.387194
21
219.996816
0
LINE
8
Layer 1
10
458.387194
20
219.996816
11
458.736842
21
220.232556
0
LINE
8
Layer 1
10
458.736842
20
220.232556
11
459.165010
21
220.319000
0
LINE
8
Layer 1
10
459.165010
20
220.319000
11
459.593178
21
220.232556
0
LINE
8
Layer 1
10
459.593178
20
220.232556
11
459.942826
21
219.996816
0
LINE
8
Layer 1
10
459.942826
20
219.996816
11
460.178566
21
219.647168
0
LINE
8
Layer 1
10
460.178566
20
219.647168
11
460.265010
21
219.219000
0
LINE
8
Layer 1
10
460.265010
20
219.219000
11
460.265010
21
219.219000
0
LINE
8
Layer 1
10
460.265010
20
188.219000
11
460.178566
21
187.790832
0
LINE
8
Layer 1
10
460.178566
20
187.790832
11
459.942826
21
187.441184
0
LINE
8
Layer 1
10
459.942826
20
187.441184
11
459.593178
21
187.205444
0
LINE
8
Layer 1
10
459.593178
20
187.205444
11
459.165010
21
187.119000
0
LINE
8
Layer 1
10
459.165010
20
187.119000
11
458.736842
21
187.205444
0
LINE
8
Layer 1
10
458.736842
20
187.205444
11
458.387194
21
187.441184
0
LINE
8
Layer 1
10
458.387194
20
187.441184
11
458.151454
21
187.790832
0
LINE
8
Layer 1
10
458.151454
20
187.790832
11
458.065010
21
188.219000
0
LINE
8
Layer 1
10
458.065010
20
188.219000
11
458.151454
21
188.647168
0
LINE
8
Layer 1
10
458.151454
20
188.647168
11
458.387194
21
188.996816
0
LINE
8
Layer 1
10
458.387194
20
188.996816
11
458.736842
21
189.232556
0
LINE
8
Layer 1
10
458.736842
20
189.232556
11
459.165010
21
189.319000
0
LINE
8
Layer 1
10
459.165010
20
189.319000
11
459.593178
21
189.232556
0
LINE
8
Layer 1
10
459.593178
20
189.232556
11
459.942826
21
188.996816
0
LINE
8
Layer 1
10
459.942826
20
188.996816
11
460.178566
21
188.647168
0
LINE
8
Layer 1
10
460.178566
20
188.647168
11
460.265010
21
188.219000
0
LINE
8
Layer 1
10
460.265010
20
188.219000
11
460.265010
21
188.219000
0
LINE
8
Layer 1
10
438.315010
20
212.809000
11
438.315010
21
195.549020
0
LINE
8
Layer 1
10
438.315010
20
195.549020
11
449.014990
21
195.549020
0
LINE
8
Layer 1
10
449.014990
20
195.549020
11
449.014990
21
212.809000
0
LINE
8
Layer 1
10
449.014990
20
212.809000
11
438.315010
21
212.809000
0
LINE
8
Layer 1
10
443.660000
20
227.529200
11
424.610000
21
227.529200
0
LINE
8
Layer 1
10
443.660000
20
246.579200
11
443.660000
21
227.529200
0
LINE
8
Layer 1
10
424.610000
20
227.529200
11
424.610000
21
246.579200
0
LINE
8
Layer 1
10
424.610000
20
246.579200
11
443.660000
21
246.579200
0
LINE
8
Layer 1
10
272.215000
20
222.764000
11
253.165000
21
222.764000
0
LINE
8
Layer 1
10
272.215000
20
241.814000
11
272.215000
21
222.764000
0
LINE
8
Layer 1
10
253.165000
20
222.764000
11
253.165000
21
241.814000
0
LINE
8
Layer 1
10
253.165000
20
241.814000
11
272.215000
21
241.814000
0
LINE
8
Layer 1
10
172.181300
20
184.654000
11
129.318700
21
184.654000
0
LINE
8
Layer 1
10
172.181300
20
203.704000
11
172.181300
21
184.654000
0
LINE
8
Layer 1
10
129.318700
20
184.654000
11
129.318700
21
203.704000
0
LINE
8
Layer 1
10
129.318700
20
203.704000
11
172.181300
21
203.704000
0
LINE
8
Layer 1
10
324.605000
20
184.654000
11
305.555000
21
184.654000
0
LINE
8
Layer 1
10
324.605000
20
203.704000
11
324.605000
21
184.654000
0
LINE
8
Layer 1
10
305.555000
20
184.654000
11
305.555000
21
203.704000
0
LINE
8
Layer 1
10
305.555000
20
203.704000
11
324.605000
21
203.704000
0
LINE
8
Layer 1
10
210.300000
20
184.649200
11
191.250000
21
184.649200
0
LINE
8
Layer 1
10
210.300000
20
203.699200
11
210.300000
21
184.649200
0
LINE
8
Layer 1
10
191.250000
20
184.649200
11
191.250000
21
203.699200
0
LINE
8
Layer 1
10
191.250000
20
203.699200
11
210.300000
21
203.699200
0
LINE
8
Layer 1
10
243.611200
20
165.604000
11
200.748800
21
165.604000
0
LINE
8
Layer 1
10
243.611200
20
184.654000
11
243.611200
21
165.604000
0
LINE
8
Layer 1
10
200.748800
20
165.604000
11
200.748800
21
184.654000
0
LINE
8
Layer 1
10
200.748800
20
184.654000
11
243.611200
21
184.654000
0
LINE
8
Layer 1
10
157.917500
20
222.774000
11
129.342500
21
222.774000
0
LINE
8
Layer 1
10
157.917500
20
241.824000
11
157.917500
21
222.774000
0
LINE
8
Layer 1
10
129.342500
20
222.774000
11
129.342500
21
241.824000
0
LINE
8
Layer 1
10
129.342500
20
241.824000
11
157.917500
21
241.824000
0
LINE
8
Layer 1
10
181.735000
20
203.694000
11
162.685000
21
203.694000
0
LINE
8
Layer 1
10
181.735000
20
222.744000
11
181.735000
21
203.694000
0
LINE
8
Layer 1
10
162.685000
20
203.694000
11
162.685000
21
222.744000
0
LINE
8
Layer 1
10
162.685000
20
222.744000
11
181.735000
21
222.744000
0
LINE
8
Layer 1
10
162.668700
20
203.724000
11
129.331200
21
203.724000
0
LINE
8
Layer 1
10
162.668700
20
222.774000
11
162.668700
21
203.724000
0
LINE
8
Layer 1
10
129.331200
20
203.724000
11
129.331200
21
222.774000
0
LINE
8
Layer 1
10
129.331200
20
222.774000
11
162.668700
21
222.774000
0
LINE
8
Layer 1
10
315.065000
20
203.714000
11
296.015000
21
203.714000
0
LINE
8
Layer 1
10
315.065000
20
222.764000
11
315.065000
21
203.714000
0
LINE
8
Layer 1
10
296.015000
20
203.714000
11
296.015000
21
222.764000
0
LINE
8
Layer 1
10
296.015000
20
222.764000
11
315.065000
21
222.764000
0
LINE
8
Layer 1
10
276.965000
20
203.724000
11
257.915000
21
203.724000
0
LINE
8
Layer 1
10
276.965000
20
222.774000
11
276.965000
21
203.724000
0
LINE
8
Layer 1
10
257.915000
20
203.724000
11
257.915000
21
222.774000
0
LINE
8
Layer 1
10
257.915000
20
222.774000
11
276.965000
21
222.774000
0
LINE
8
Layer 1
10
386.530000
20
222.769000
11
367.480000
21
222.769000
0
LINE
8
Layer 1
10
386.530000
20
241.819000
11
386.530000
21
222.769000
0
LINE
8
Layer 1
10
367.480000
20
222.769000
11
367.480000
21
241.819000
0
LINE
8
Layer 1
10
367.480000
20
241.819000
11
386.530000
21
241.819000
0
LINE
8
Layer 1
10
438.910000
20
160.859000
11
419.860000
21
160.859000
0
LINE
8
Layer 1
10
438.910000
20
179.909000
11
438.910000
21
160.859000
0
LINE
8
Layer 1
10
419.860000
20
160.859000
11
419.860000
21
179.909000
0
LINE
8
Layer 1
10
419.860000
20
179.909000
11
438.910000
21
179.909000
0
LINE
8
Layer 1
10
343.661200
20
165.589000
11
319.848700
21
165.589000
0
LINE
8
Layer 1
10
343.661200
20
184.639000
11
343.661200
21
165.589000
0
LINE
8
Layer 1
10
319.848700
20
165.589000
11
319.848700
21
184.639000
0
LINE
8
Layer 1
10
319.848700
20
184.639000
11
343.661200
21
184.639000
0
LINE
8
Layer 1
10
234.115000
20
222.754000
11
215.065000
21
222.754000
0
LINE
8
Layer 1
10
234.115000
20
241.804000
11
234.115000
21
222.754000
0
LINE
8
Layer 1
10
215.065000
20
222.754000
11
215.065000
21
241.804000
0
LINE
8
Layer 1
10
215.065000
20
241.804000
11
234.115000
21
241.804000
0
LINE
8
Layer 1
10
334.125000
20
203.704000
11
315.075000
21
203.704000
0
LINE
8
Layer 1
10
334.125000
20
222.754000
11
334.125000
21
203.704000
0
LINE
8
Layer 1
10
315.075000
20
203.704000
11
315.075000
21
222.754000
0
LINE
8
Layer 1
10
315.075000
20
222.754000
11
334.125000
21
222.754000
0
LINE
8
Layer 1
10
257.920000
20
203.719200
11
238.870000
21
203.719200
0
LINE
8
Layer 1
10
257.920000
20
222.769200
11
257.920000
21
203.719200
0
LINE
8
Layer 1
10
238.870000
20
203.719200
11
238.870000
21
222.769200
0
LINE
8
Layer 1
10
238.870000
20
222.769200
11
257.920000
21
222.769200
0
LINE
8
Layer 1
10
196.005000
20
222.754000
11
176.955000
21
222.754000
0
LINE
8
Layer 1
10
196.005000
20
241.804000
11
196.005000
21
222.754000
0
LINE
8
Layer 1
10
176.955000
20
222.754000
11
176.955000
21
241.804000
0
LINE
8
Layer 1
10
176.955000
20
241.804000
11
196.005000
21
241.804000
0
LINE
8
Layer 1
10
219.825000
20
203.714000
11
200.775000
21
203.714000
0
LINE
8
Layer 1
10
219.825000
20
222.764000
11
219.825000
21
203.714000
0
LINE
8
Layer 1
10
200.775000
20
203.714000
11
200.775000
21
222.764000
0
LINE
8
Layer 1
10
200.775000
20
222.764000
11
219.825000
21
222.764000
0
LINE
8
Layer 1
10
348.400000
20
222.759000
11
329.350000
21
222.759000
0
LINE
8
Layer 1
10
348.400000
20
241.809000
11
348.400000
21
222.759000
0
LINE
8
Layer 1
10
329.350000
20
222.759000
11
329.350000
21
241.809000
0
LINE
8
Layer 1
10
329.350000
20
241.809000
11
348.400000
21
241.809000
0
LINE
8
Layer 1
10
400.790000
20
160.869000
11
381.740000
21
160.869000
0
LINE
8
Layer 1
10
400.790000
20
179.919000
11
400.790000
21
160.869000
0
LINE
8
Layer 1
10
381.740000
20
160.869000
11
381.740000
21
179.919000
0
LINE
8
Layer 1
10
381.740000
20
179.919000
11
400.790000
21
179.919000
0
LINE
8
Layer 1
10
200.756200
20
165.624000
11
176.943700
21
165.624000
0
LINE
8
Layer 1
10
200.756200
20
184.674000
11
200.756200
21
165.624000
0
LINE
8
Layer 1
10
176.943700
20
165.624000
11
176.943700
21
184.674000
0
LINE
8
Layer 1
10
176.943700
20
184.674000
11
200.756200
21
184.674000
0
LINE
8
Layer 1
10
215.060000
20
222.759200
11
196.010000
21
222.759200
0
LINE
8
Layer 1
10
215.060000
20
241.809200
11
215.060000
21
222.759200
0
LINE
8
Layer 1
10
196.010000
20
222.759200
11
196.010000
21
241.809200
0
LINE
8
Layer 1
10
196.010000
20
241.809200
11
215.060000
21
241.809200
0
LINE
8
Layer 1
10
353.170000
20
203.709200
11
334.120000
21
203.709200
0
LINE
8
Layer 1
10
353.170000
20
222.759200
11
353.170000
21
203.709200
0
LINE
8
Layer 1
10
334.120000
20
203.709200
11
334.120000
21
222.759200
0
LINE
8
Layer 1
10
334.120000
20
222.759200
11
353.170000
21
222.759200
0
LINE
8
Layer 1
10
329.370000
20
222.759200
11
310.320000
21
222.759200
0
LINE
8
Layer 1
10
329.370000
20
241.809200
11
329.370000
21
222.759200
0
LINE
8
Layer 1
10
310.320000
20
222.759200
11
310.320000
21
241.809200
0
LINE
8
Layer 1
10
310.320000
20
241.809200
11
329.370000
21
241.809200
0
LINE
8
Layer 1
10
267.465000
20
184.664000
11
248.415000
21
184.664000
0
LINE
8
Layer 1
10
267.465000
20
203.714000
11
267.465000
21
184.664000
0
LINE
8
Layer 1
10
248.415000
20
184.664000
11
248.415000
21
203.714000
0
LINE
8
Layer 1
10
248.415000
20
203.714000
11
267.465000
21
203.714000
0
LINE
8
Layer 1
10
415.087500
20
222.774000
11
386.512500
21
222.774000
0
LINE
8
Layer 1
10
415.087500
20
241.824000
11
415.087500
21
222.774000
0
LINE
8
Layer 1
10
386.512500
20
222.774000
11
386.512500
21
241.824000
0
LINE
8
Layer 1
10
386.512500
20
241.824000
11
415.087500
21
241.824000
0
LINE
8
Layer 1
10
238.875000
20
203.714000
11
219.825000
21
203.714000
0
LINE
8
Layer 1
10
238.875000
20
222.764000
11
238.875000
21
203.714000
0
LINE
8
Layer 1
10
219.825000
20
203.714000
11
219.825000
21
222.764000
0
LINE
8
Layer 1
10
219.825000
20
222.764000
11
238.875000
21
222.764000
0
LINE
8
Layer 1
10
362.690000
20
184.679200
11
343.640000
21
184.679200
0
LINE
8
Layer 1
10
362.690000
20
203.729200
11
362.690000
21
184.679200
0
LINE
8
Layer 1
10
343.640000
20
184.679200
11
343.640000
21
203.729200
0
LINE
8
Layer 1
10
343.640000
20
203.729200
11
362.690000
21
203.729200
0
LINE
8
Layer 1
10
229.355000
20
184.654000
11
210.305000
21
184.654000
0
LINE
8
Layer 1
10
229.355000
20
203.704000
11
229.355000
21
184.654000
0
LINE
8
Layer 1
10
210.305000
20
184.654000
11
210.305000
21
203.704000
0
LINE
8
Layer 1
10
210.305000
20
203.704000
11
229.355000
21
203.704000
0
LINE
8
Layer 1
10
343.650000
20
184.659200
11
324.600000
21
184.659200
0
LINE
8
Layer 1
10
343.650000
20
203.709200
11
343.650000
21
184.659200
0
LINE
8
Layer 1
10
324.600000
20
184.659200
11
324.600000
21
203.709200
0
LINE
8
Layer 1
10
324.600000
20
203.709200
11
343.650000
21
203.709200
0
LINE
8
Layer 1
10
310.290000
20
222.769200
11
291.240000
21
222.769200
0
LINE
8
Layer 1
10
310.290000
20
241.819200
11
310.290000
21
222.769200
0
LINE
8
Layer 1
10
291.240000
20
222.769200
11
291.240000
21
241.819200
0
LINE
8
Layer 1
10
291.240000
20
241.819200
11
310.290000
21
241.819200
0
LINE
8
Layer 1
10
372.225000
20
203.704000
11
353.175000
21
203.704000
0
LINE
8
Layer 1
10
372.225000
20
222.754000
11
372.225000
21
203.704000
0
LINE
8
Layer 1
10
353.175000
20
203.704000
11
353.175000
21
222.754000
0
LINE
8
Layer 1
10
353.175000
20
222.754000
11
372.225000
21
222.754000
0
LINE
8
Layer 1
10
291.255000
20
222.774000
11
272.205000
21
222.774000
0
LINE
8
Layer 1
10
291.255000
20
241.824000
11
291.255000
21
222.774000
0
LINE
8
Layer 1
10
272.205000
20
222.774000
11
272.205000
21
241.824000
0
LINE
8
Layer 1
10
272.205000
20
241.824000
11
291.255000
21
241.824000
0
LINE
8
Layer 1
10
248.415000
20
184.664000
11
229.365000
21
184.664000
0
LINE
8
Layer 1
10
248.415000
20
203.714000
11
248.415000
21
184.664000
0
LINE
8
Layer 1
10
229.365000
20
184.664000
11
229.365000
21
203.714000
0
LINE
8
Layer 1
10
229.365000
20
203.714000
11
248.415000
21
203.714000
0
LINE
8
Layer 1
10
253.155000
20
222.764000
11
234.105000
21
222.764000
0
LINE
8
Layer 1
10
253.155000
20
241.814000
11
253.155000
21
222.764000
0
LINE
8
Layer 1
10
234.105000
20
222.764000
11
234.105000
21
241.814000
0
LINE
8
Layer 1
10
234.105000
20
241.814000
11
253.155000
21
241.814000
0
LINE
8
Layer 1
10
367.455000
20
222.754000
11
348.405000
21
222.754000
0
LINE
8
Layer 1
10
367.455000
20
241.804000
11
367.455000
21
222.754000
0
LINE
8
Layer 1
10
348.405000
20
222.754000
11
348.405000
21
241.804000
0
LINE
8
Layer 1
10
348.405000
20
241.804000
11
367.455000
21
241.804000
0
LINE
8
Layer 1
10
286.495000
20
184.664000
11
267.445000
21
184.664000
0
LINE
8
Layer 1
10
286.495000
20
203.714000
11
286.495000
21
184.664000
0
LINE
8
Layer 1
10
267.445000
20
184.664000
11
267.445000
21
203.714000
0
LINE
8
Layer 1
10
267.445000
20
203.714000
11
286.495000
21
203.714000
0
LINE
8
Layer 1
10
415.091300
20
203.684000
11
372.228700
21
203.684000
0
LINE
8
Layer 1
10
415.091300
20
222.734000
11
415.091300
21
203.684000
0
LINE
8
Layer 1
10
372.228700
20
203.684000
11
372.228700
21
222.734000
0
LINE
8
Layer 1
10
372.228700
20
222.734000
11
415.091300
21
222.734000
0
LINE
8
Layer 1
10
200.765000
20
203.724000
11
181.715000
21
203.724000
0
LINE
8
Layer 1
10
200.765000
20
222.774000
11
200.765000
21
203.724000
0
LINE
8
Layer 1
10
181.715000
20
203.724000
11
181.715000
21
222.774000
0
LINE
8
Layer 1
10
181.715000
20
222.774000
11
200.765000
21
222.774000
0
LINE
8
Layer 1
10
267.456300
20
165.624000
11
243.643700
21
165.624000
0
LINE
8
Layer 1
10
267.456300
20
184.674000
11
267.456300
21
165.624000
0
LINE
8
Layer 1
10
243.643700
20
165.624000
11
243.643700
21
184.674000
0
LINE
8
Layer 1
10
243.643700
20
184.674000
11
267.456300
21
184.674000
0
LINE
8
Layer 1
10
462.705000
20
227.534000
11
443.655000
21
227.534000
0
LINE
8
Layer 1
10
462.705000
20
246.584000
11
462.705000
21
227.534000
0
LINE
8
Layer 1
10
443.655000
20
227.534000
11
443.655000
21
246.584000
0
LINE
8
Layer 1
10
443.655000
20
246.584000
11
462.705000
21
246.584000
0
LINE
8
Layer 1
10
191.250000
20
184.659200
11
172.200000
21
184.659200
0
LINE
8
Layer 1
10
191.250000
20
203.709200
11
191.250000
21
184.659200
0
LINE
8
Layer 1
10
172.200000
20
184.659200
11
172.200000
21
203.709200
0
LINE
8
Layer 1
10
172.200000
20
203.709200
11
191.250000
21
203.709200
0
LINE
8
Layer 1
10
296.020000
20
203.719200
11
276.970000
21
203.719200
0
LINE
8
Layer 1
10
296.020000
20
222.769200
11
296.020000
21
203.719200
0
LINE
8
Layer 1
10
276.970000
20
203.719200
11
276.970000
21
222.769200
0
LINE
8
Layer 1
10
276.970000
20
222.769200
11
296.020000
21
222.769200
0
LINE
8
Layer 1
10
176.961200
20
165.609200
11
153.148800
21
165.609200
0
LINE
8
Layer 1
10
176.961200
20
184.659200
11
176.961200
21
165.609200
0
LINE
8
Layer 1
10
153.148800
20
165.609200
11
153.148800
21
184.659200
0
LINE
8
Layer 1
10
153.148800
20
184.659200
11
176.961200
21
184.659200
0
LINE
8
Layer 1
10
319.843800
20
165.624000
11
267.456300
21
165.624000
0
LINE
8
Layer 1
10
319.843800
20
184.674000
11
319.843800
21
165.624000
0
LINE
8
Layer 1
10
267.456300
20
165.624000
11
267.456300
21
184.674000
0
LINE
8
Layer 1
10
267.456300
20
184.674000
11
319.843800
21
184.674000
0
LINE
8
Layer 1
10
367.476200
20
165.614000
11
343.663700
21
165.614000
0
LINE
8
Layer 1
10
367.476200
20
184.664000
11
367.476200
21
165.614000
0
LINE
8
Layer 1
10
343.663700
20
165.614000
11
343.663700
21
184.664000
0
LINE
8
Layer 1
10
343.663700
20
184.664000
11
367.476200
21
184.664000
0
LINE
8
Layer 1
10
419.850000
20
160.859200
11
400.800000
21
160.859200
0
LINE
8
Layer 1
10
419.850000
20
179.909200
11
419.850000
21
160.859200
0
LINE
8
Layer 1
10
400.800000
20
160.859200
11
400.800000
21
179.909200
0
LINE
8
Layer 1
10
400.800000
20
179.909200
11
419.850000
21
179.909200
0
LINE
8
Layer 1
10
176.965000
20
222.774000
11
157.915000
21
222.774000
0
LINE
8
Layer 1
10
176.965000
20
241.824000
11
176.965000
21
222.774000
0
LINE
8
Layer 1
10
157.915000
20
222.774000
11
157.915000
21
241.824000
0
LINE
8
Layer 1
10
157.915000
20
241.824000
11
176.965000
21
241.824000
0
LINE
8
Layer 1
10
305.525000
20
184.654000
11
286.475000
21
184.654000
0
LINE
8
Layer 1
10
305.525000
20
203.704000
11
305.525000
21
184.654000
0
LINE
8
Layer 1
10
286.475000
20
184.654000
11
286.475000
21
203.704000
0
LINE
8
Layer 1
10
286.475000
20
203.704000
11
305.525000
21
203.704000
0
LINE
8
Layer 1
10
153.131200
20
165.604000
11
129.318700
21
165.604000
0
LINE
8
Layer 1
10
153.131200
20
184.654000
11
153.131200
21
165.604000
0
LINE
8
Layer 1
10
129.318700
20
165.604000
11
129.318700
21
184.654000
0
LINE
8
Layer 1
10
129.318700
20
184.654000
11
153.131200
21
184.654000
0
LINE
8
Layer 1
10
400.780000
20
179.899200
11
400.780000
21
198.949200
0
LINE
8
Layer 1
10
419.830000
20
179.899200
11
400.780000
21
179.899200
0
LINE
8
Layer 1
10
419.830000
20
198.949200
11
419.830000
21
179.899200
0
LINE
8
Layer 1
10
400.780000
20
198.949200
11
419.830000
21
198.949200
0
LINE
8
Layer 1
10
362.661200
20
203.674000
11
395.998700
21
203.674000
0
LINE
8
Layer 1
10
395.998700
20
203.674000
11
395.998700
21
184.624000
0
LINE
8
Layer 1
10
395.998700
20
184.624000
11
362.661200
21
184.624000
0
LINE
8
Layer 1
10
362.661200
20
184.624000
11
362.661200
21
203.674000
0
LINE
8
Layer 1
10
443.665000
20
160.854000
11
443.665000
21
179.904000
0
LINE
8
Layer 1
10
462.715000
20
160.854000
11
443.665000
21
160.854000
0
LINE
8
Layer 1
10
462.715000
20
179.904000
11
462.715000
21
160.854000
0
LINE
8
Layer 1
10
443.665000
20
179.904000
11
462.715000
21
179.904000
0
LINE
8
Layer 1
10
443.665000
20
184.664000
11
424.615000
21
184.664000
0
LINE
8
Layer 1
10
443.665000
20
203.714000
11
443.665000
21
184.664000
0
LINE
8
Layer 1
10
424.615000
20
184.664000
11
424.615000
21
203.714000
0
LINE
8
Layer 1
10
424.615000
20
203.714000
11
443.665000
21
203.714000
0
LINE
8
Layer 1
10
462.715000
20
184.664000
11
443.665000
21
184.664000
0
LINE
8
Layer 1
10
462.715000
20
203.714000
11
462.715000
21
184.664000
0
LINE
8
Layer 1
10
443.665000
20
184.664000
11
443.665000
21
203.714000
0
LINE
8
Layer 1
10
443.665000
20
203.714000
11
462.715000
21
203.714000
0
LINE
8
Layer 1
10
462.715000
20
203.724000
11
443.665000
21
203.724000
0
LINE
8
Layer 1
10
462.715000
20
222.774000
11
462.715000
21
203.724000
0
LINE
8
Layer 1
10
443.665000
20
203.724000
11
443.665000
21
222.774000
0
LINE
8
Layer 1
10
443.665000
20
222.774000
11
462.715000
21
222.774000
0
LINE
8
Layer 1
10
443.675000
20
203.714000
11
424.625000
21
203.714000
0
LINE
8
Layer 1
10
443.675000
20
222.764000
11
443.675000
21
203.714000
0
LINE
8
Layer 1
10
424.625000
20
203.714000
11
424.625000
21
222.764000
0
LINE
8
Layer 1
10
424.625000
20
222.764000
11
443.675000
21
222.764000
 0 
ENDSEC
 0 
EOF