999
"DXF R12 Output" (www.mydxf.blogspot.com)
 0 
SECTION
 2 
HEADER
 9 
$ACADVER
 1 
AC1009
 9 
$EXTMIN
 10 
 0 
 20 
 0 
 9 
$EXTMAX
 10 
 8.5 
 20 
 11 
 0 
ENDSEC
 0 
SECTION
 2 
ENTITIES
0
LINE
8
Layer 1
10
299.558500
20
28.672200
11
299.472000
21
29.100300
0
LINE
8
Layer 1
10
299.472000
20
29.100300
11
299.558500
21
29.528500
0
LINE
8
Layer 1
10
299.558500
20
29.528500
11
299.794200
21
29.878100
0
LINE
8
Layer 1
10
299.794200
20
29.878100
11
300.143800
21
30.113900
0
LINE
8
Layer 1
10
300.143800
20
30.113900
11
300.572000
21
30.200300
0
LINE
8
Layer 1
10
300.572000
20
30.200300
11
301.000200
21
30.113900
0
LINE
8
Layer 1
10
301.000200
20
30.113900
11
301.349800
21
29.878100
0
LINE
8
Layer 1
10
301.349800
20
29.878100
11
301.585600
21
29.528500
0
LINE
8
Layer 1
10
301.585600
20
29.528500
11
301.672000
21
29.100300
0
LINE
8
Layer 1
10
301.672000
20
29.100300
11
301.585600
21
28.672200
0
LINE
8
Layer 1
10
301.585600
20
28.672200
11
301.349800
21
28.322500
0
LINE
8
Layer 1
10
301.349800
20
28.322500
11
301.000200
21
28.086800
0
LINE
8
Layer 1
10
301.000200
20
28.086800
11
300.572000
21
28.000300
0
LINE
8
Layer 1
10
300.572000
20
28.000300
11
300.143800
21
28.086800
0
LINE
8
Layer 1
10
300.143800
20
28.086800
11
299.794200
21
28.322500
0
LINE
8
Layer 1
10
299.794200
20
28.322500
11
299.558500
21
28.672200
0
LINE
8
Layer 1
10
332.349800
20
59.322500
11
332.000200
21
59.086800
0
LINE
8
Layer 1
10
332.000200
20
59.086800
11
331.572000
21
59.000300
0
LINE
8
Layer 1
10
331.572000
20
59.000300
11
331.143800
21
59.086800
0
LINE
8
Layer 1
10
331.143800
20
59.086800
11
330.794200
21
59.322500
0
LINE
8
Layer 1
10
330.794200
20
59.322500
11
330.558500
21
59.672200
0
LINE
8
Layer 1
10
330.558500
20
59.672200
11
330.472000
21
60.100300
0
LINE
8
Layer 1
10
330.472000
20
60.100300
11
330.558500
21
60.528500
0
LINE
8
Layer 1
10
330.558500
20
60.528500
11
330.794200
21
60.878100
0
LINE
8
Layer 1
10
330.794200
20
60.878100
11
331.143800
21
61.113900
0
LINE
8
Layer 1
10
331.143800
20
61.113900
11
331.572000
21
61.200300
0
LINE
8
Layer 1
10
331.572000
20
61.200300
11
332.000200
21
61.113900
0
LINE
8
Layer 1
10
332.000200
20
61.113900
11
332.349800
21
60.878100
0
LINE
8
Layer 1
10
332.349800
20
60.878100
11
332.585600
21
60.528500
0
LINE
8
Layer 1
10
332.585600
20
60.528500
11
332.672000
21
60.100300
0
LINE
8
Layer 1
10
332.672000
20
60.100300
11
332.585600
21
59.672200
0
LINE
8
Layer 1
10
332.585600
20
59.672200
11
332.349800
21
59.322500
0
LINE
8
Layer 1
10
332.349800
20
28.322500
11
332.000200
21
28.086800
0
LINE
8
Layer 1
10
332.000200
20
28.086800
11
331.572000
21
28.000300
0
LINE
8
Layer 1
10
331.572000
20
28.000300
11
331.143800
21
28.086800
0
LINE
8
Layer 1
10
331.143800
20
28.086800
11
330.794200
21
28.322500
0
LINE
8
Layer 1
10
330.794200
20
28.322500
11
330.558500
21
28.672200
0
LINE
8
Layer 1
10
330.558500
20
28.672200
11
330.472000
21
29.100300
0
LINE
8
Layer 1
10
330.472000
20
29.100300
11
330.558500
21
29.528500
0
LINE
8
Layer 1
10
330.558500
20
29.528500
11
330.794200
21
29.878100
0
LINE
8
Layer 1
10
330.794200
20
29.878100
11
331.143800
21
30.113900
0
LINE
8
Layer 1
10
331.143800
20
30.113900
11
331.572000
21
30.200300
0
LINE
8
Layer 1
10
331.572000
20
30.200300
11
332.000200
21
30.113900
0
LINE
8
Layer 1
10
332.000200
20
30.113900
11
332.349800
21
29.878100
0
LINE
8
Layer 1
10
332.349800
20
29.878100
11
332.585600
21
29.528500
0
LINE
8
Layer 1
10
332.585600
20
29.528500
11
332.672000
21
29.100300
0
LINE
8
Layer 1
10
332.672000
20
29.100300
11
332.585600
21
28.672200
0
LINE
8
Layer 1
10
332.585600
20
28.672200
11
332.349800
21
28.322500
0
LINE
8
Layer 1
10
160.440000
20
98.377300
11
160.868100
21
98.290800
0
LINE
8
Layer 1
10
160.868100
20
98.290800
11
161.217800
21
98.055100
0
LINE
8
Layer 1
10
161.217800
20
98.055100
11
161.453500
21
97.705400
0
LINE
8
Layer 1
10
161.453500
20
97.705400
11
161.540000
21
97.277300
0
LINE
8
Layer 1
10
161.540000
20
97.277300
11
161.453500
21
96.849100
0
LINE
8
Layer 1
10
161.453500
20
96.849100
11
161.217800
21
96.499500
0
LINE
8
Layer 1
10
161.217800
20
96.499500
11
160.868100
21
96.263700
0
LINE
8
Layer 1
10
160.868100
20
96.263700
11
160.440000
21
96.177300
0
LINE
8
Layer 1
10
160.440000
20
96.177300
11
160.011800
21
96.263700
0
LINE
8
Layer 1
10
160.011800
20
96.263700
11
159.662100
21
96.499500
0
LINE
8
Layer 1
10
159.662100
20
96.499500
11
159.426400
21
96.849100
0
LINE
8
Layer 1
10
159.426400
20
96.849100
11
159.340000
21
97.277300
0
LINE
8
Layer 1
10
159.340000
20
97.277300
11
159.426400
21
97.705400
0
LINE
8
Layer 1
10
159.426400
20
97.705400
11
159.662100
21
98.055100
0
LINE
8
Layer 1
10
159.662100
20
98.055100
11
160.011800
21
98.290800
0
LINE
8
Layer 1
10
160.011800
20
98.290800
11
160.440000
21
98.377300
0
LINE
8
Layer 1
10
178.343000
20
97.277300
11
178.256500
21
96.849100
0
LINE
8
Layer 1
10
178.256500
20
96.849100
11
178.020800
21
96.499500
0
LINE
8
Layer 1
10
178.020800
20
96.499500
11
177.671100
21
96.263700
0
LINE
8
Layer 1
10
177.671100
20
96.263700
11
177.243000
21
96.177300
0
LINE
8
Layer 1
10
177.243000
20
96.177300
11
176.814800
21
96.263700
0
LINE
8
Layer 1
10
176.814800
20
96.263700
11
176.465100
21
96.499500
0
LINE
8
Layer 1
10
176.465100
20
96.499500
11
176.229400
21
96.849100
0
LINE
8
Layer 1
10
176.229400
20
96.849100
11
176.143000
21
97.277300
0
LINE
8
Layer 1
10
176.143000
20
97.277300
11
176.229400
21
97.705400
0
LINE
8
Layer 1
10
176.229400
20
97.705400
11
176.465100
21
98.055100
0
LINE
8
Layer 1
10
176.465100
20
98.055100
11
176.814800
21
98.290800
0
LINE
8
Layer 1
10
176.814800
20
98.290800
11
177.243000
21
98.377300
0
LINE
8
Layer 1
10
177.243000
20
98.377300
11
177.671100
21
98.290800
0
LINE
8
Layer 1
10
177.671100
20
98.290800
11
178.020800
21
98.055100
0
LINE
8
Layer 1
10
178.020800
20
98.055100
11
178.256500
21
97.705400
0
LINE
8
Layer 1
10
178.256500
20
97.705400
11
178.343000
21
97.277300
0
LINE
8
Layer 1
10
172.014450
20
93.777400
11
172.014450
21
89.660300
0
LINE
8
Layer 1
10
172.014450
20
89.660300
11
172.160897
21
89.306747
0
LINE
8
Layer 1
10
172.160897
20
89.306747
11
172.514450
21
89.160300
0
LINE
8
Layer 1
10
172.514450
20
89.160300
11
335.812000
21
89.160300
0
LINE
8
Layer 1
10
335.812000
20
89.160300
11
336.194700
21
89.084200
0
LINE
8
Layer 1
10
336.194700
20
89.084200
11
336.519100
21
88.867400
0
LINE
8
Layer 1
10
336.519100
20
88.867400
11
336.735900
21
88.543000
0
LINE
8
Layer 1
10
336.735900
20
88.543000
11
336.812000
21
88.160300
0
LINE
8
Layer 1
10
336.812000
20
88.160300
11
336.812000
21
1.050300
0
LINE
8
Layer 1
10
336.812000
20
1.050300
11
336.735900
21
0.667600
0
LINE
8
Layer 1
10
336.735900
20
0.667600
11
336.519100
21
0.343200
0
LINE
8
Layer 1
10
336.519100
20
0.343200
11
336.194700
21
0.126400
0
LINE
8
Layer 1
10
336.194700
20
0.126400
11
335.812000
21
0.050300
0
LINE
8
Layer 1
10
335.812000
20
0.050300
11
1.050000
21
0.050300
0
LINE
8
Layer 1
10
1.050000
20
0.050300
11
0.667300
21
0.126400
0
LINE
8
Layer 1
10
0.667300
20
0.126400
11
0.342900
21
0.343200
0
LINE
8
Layer 1
10
0.342900
20
0.343200
11
0.126100
21
0.667600
0
LINE
8
Layer 1
10
0.126100
20
0.667600
11
0.050000
21
1.050300
0
LINE
8
Layer 1
10
0.050000
20
1.050300
11
0.050000
21
88.160300
0
LINE
8
Layer 1
10
0.050000
20
88.160300
11
0.126100
21
88.543000
0
LINE
8
Layer 1
10
0.126100
20
88.543000
11
0.342900
21
88.867400
0
LINE
8
Layer 1
10
0.342900
20
88.867400
11
0.667300
21
89.084200
0
LINE
8
Layer 1
10
0.667300
20
89.084200
11
1.050000
21
89.160300
0
LINE
8
Layer 1
10
1.050000
20
89.160300
11
165.004600
21
89.160300
0
LINE
8
Layer 1
10
165.004600
20
89.160300
11
165.358153
21
89.306747
0
LINE
8
Layer 1
10
165.358153
20
89.306747
11
165.504600
21
89.660300
0
LINE
8
Layer 1
10
165.504600
20
89.660300
11
165.504600
21
93.777400
0
LINE
8
Layer 1
10
165.504600
20
93.777400
11
165.358153
21
94.130953
0
LINE
8
Layer 1
10
165.358153
20
94.130953
11
165.004600
21
94.277400
0
LINE
8
Layer 1
10
165.004600
20
94.277400
11
158.440100
21
94.277400
0
LINE
8
Layer 1
10
158.440100
20
94.277400
11
158.057400
21
94.353600
0
LINE
8
Layer 1
10
158.057400
20
94.353600
11
157.732900
21
94.570300
0
LINE
8
Layer 1
10
157.732900
20
94.570300
11
157.516200
21
94.894800
0
LINE
8
Layer 1
10
157.516200
20
94.894800
11
157.440100
21
95.277400
0
LINE
8
Layer 1
10
157.440100
20
95.277400
11
157.440100
21
108.906800
0
LINE
8
Layer 1
10
157.440100
20
108.906800
11
157.516200
21
109.289400
0
LINE
8
Layer 1
10
157.516200
20
109.289400
11
157.732900
21
109.613900
0
LINE
8
Layer 1
10
157.732900
20
109.613900
11
158.057400
21
109.830600
0
LINE
8
Layer 1
10
158.057400
20
109.830600
11
158.440100
21
109.906800
0
LINE
8
Layer 1
10
158.440100
20
109.906800
11
179.242900
21
109.906800
0
LINE
8
Layer 1
10
179.242900
20
109.906800
11
179.625600
21
109.830600
0
LINE
8
Layer 1
10
179.625600
20
109.830600
11
179.950000
21
109.613900
0
LINE
8
Layer 1
10
179.950000
20
109.613900
11
180.166800
21
109.289400
0
LINE
8
Layer 1
10
180.166800
20
109.289400
11
180.242900
21
108.906800
0
LINE
8
Layer 1
10
180.242900
20
108.906800
11
180.242900
21
95.277400
0
LINE
8
Layer 1
10
180.242900
20
95.277400
11
180.166800
21
94.894800
0
LINE
8
Layer 1
10
180.166800
20
94.894800
11
179.950000
21
94.570300
0
LINE
8
Layer 1
10
179.950000
20
94.570300
11
179.625600
21
94.353600
0
LINE
8
Layer 1
10
179.625600
20
94.353600
11
179.242900
21
94.277400
0
LINE
8
Layer 1
10
179.242900
20
94.277400
11
172.514450
21
94.277400
0
LINE
8
Layer 1
10
172.514450
20
94.277400
11
172.160897
21
94.130953
0
LINE
8
Layer 1
10
172.160897
20
94.130953
11
172.014450
21
93.777400
0
LINE
8
Layer 1
10
172.014450
20
93.777400
11
172.014450
21
93.777400
0
LINE
8
Layer 1
10
300.572000
20
59.000300
11
300.143800
21
59.086800
0
LINE
8
Layer 1
10
300.143800
20
59.086800
11
299.794200
21
59.322500
0
LINE
8
Layer 1
10
299.794200
20
59.322500
11
299.558500
21
59.672200
0
LINE
8
Layer 1
10
299.558500
20
59.672200
11
299.472000
21
60.100300
0
LINE
8
Layer 1
10
299.472000
20
60.100300
11
299.558500
21
60.528500
0
LINE
8
Layer 1
10
299.558500
20
60.528500
11
299.794200
21
60.878100
0
LINE
8
Layer 1
10
299.794200
20
60.878100
11
300.143800
21
61.113900
0
LINE
8
Layer 1
10
300.143800
20
61.113900
11
300.572000
21
61.200300
0
LINE
8
Layer 1
10
300.572000
20
61.200300
11
301.000200
21
61.113900
0
LINE
8
Layer 1
10
301.000200
20
61.113900
11
301.349800
21
60.878100
0
LINE
8
Layer 1
10
301.349800
20
60.878100
11
301.585600
21
60.528500
0
LINE
8
Layer 1
10
301.585600
20
60.528500
11
301.672000
21
60.100300
0
LINE
8
Layer 1
10
301.672000
20
60.100300
11
301.585600
21
59.672200
0
LINE
8
Layer 1
10
301.585600
20
59.672200
11
301.349800
21
59.322500
0
LINE
8
Layer 1
10
301.349800
20
59.322500
11
301.000200
21
59.086800
0
LINE
8
Layer 1
10
301.000200
20
59.086800
11
300.572000
21
59.000300
 0 
ENDSEC
 0 
EOF