999
"DXF R12 Output" (www.mydxf.blogspot.com)
 0 
SECTION
 2 
HEADER
 9 
$ACADVER
 1 
AC1009
 9 
$EXTMIN
 10 
 0 
 20 
 0 
 9 
$EXTMAX
 10 
 8.5 
 20 
 11 
 0 
ENDSEC
 0 
SECTION
 2 
ENTITIES
0
LINE
8
Layer 1
10
128.643000
20
248.279010
11
463.404990
21
248.279010
0
LINE
8
Layer 1
10
463.404990
20
248.279010
11
463.787673
21
248.202890
0
LINE
8
Layer 1
10
463.787673
20
248.202890
11
464.112097
21
247.986117
0
LINE
8
Layer 1
10
464.112097
20
247.986117
11
464.328870
21
247.661693
0
LINE
8
Layer 1
10
464.328870
20
247.661693
11
464.404990
21
247.279010
0
LINE
8
Layer 1
10
464.404990
20
247.279010
11
464.404990
21
160.169000
0
LINE
8
Layer 1
10
464.404990
20
160.169000
11
464.328870
21
159.786317
0
LINE
8
Layer 1
10
464.328870
20
159.786317
11
464.112097
21
159.461893
0
LINE
8
Layer 1
10
464.112097
20
159.461893
11
463.787673
21
159.245120
0
LINE
8
Layer 1
10
463.787673
20
159.245120
11
463.404990
21
159.169000
0
LINE
8
Layer 1
10
463.404990
20
159.169000
11
128.643000
21
159.169000
0
LINE
8
Layer 1
10
128.643000
20
159.169000
11
128.260317
21
159.245120
0
LINE
8
Layer 1
10
128.260317
20
159.245120
11
127.935893
21
159.461893
0
LINE
8
Layer 1
10
127.935893
20
159.461893
11
127.719120
21
159.786317
0
LINE
8
Layer 1
10
127.719120
20
159.786317
11
127.643000
21
160.169000
0
LINE
8
Layer 1
10
127.643000
20
160.169000
11
127.643000
21
247.279010
0
LINE
8
Layer 1
10
127.643000
20
247.279010
11
127.719120
21
247.661693
0
LINE
8
Layer 1
10
127.719120
20
247.661693
11
127.935893
21
247.986117
0
LINE
8
Layer 1
10
127.935893
20
247.986117
11
128.260317
21
248.202890
0
LINE
8
Layer 1
10
128.260317
20
248.202890
11
128.643000
21
248.279010
0
LINE
8
Layer 1
10
128.643000
20
248.279010
11
128.643000
21
248.279010
0
LINE
8
Layer 1
10
429.265010
20
188.219000
11
429.178566
21
187.790832
0
LINE
8
Layer 1
10
429.178566
20
187.790832
11
428.942826
21
187.441184
0
LINE
8
Layer 1
10
428.942826
20
187.441184
11
428.593178
21
187.205444
0
LINE
8
Layer 1
10
428.593178
20
187.205444
11
428.165010
21
187.119000
0
LINE
8
Layer 1
10
428.165010
20
187.119000
11
427.736842
21
187.205444
0
LINE
8
Layer 1
10
427.736842
20
187.205444
11
427.387194
21
187.441184
0
LINE
8
Layer 1
10
427.387194
20
187.441184
11
427.151454
21
187.790832
0
LINE
8
Layer 1
10
427.151454
20
187.790832
11
427.065010
21
188.219000
0
LINE
8
Layer 1
10
427.065010
20
188.219000
11
427.151454
21
188.647168
0
LINE
8
Layer 1
10
427.151454
20
188.647168
11
427.387194
21
188.996816
0
LINE
8
Layer 1
10
427.387194
20
188.996816
11
427.736842
21
189.232556
0
LINE
8
Layer 1
10
427.736842
20
189.232556
11
428.165010
21
189.319000
0
LINE
8
Layer 1
10
428.165010
20
189.319000
11
428.593178
21
189.232556
0
LINE
8
Layer 1
10
428.593178
20
189.232556
11
428.942826
21
188.996816
0
LINE
8
Layer 1
10
428.942826
20
188.996816
11
429.178566
21
188.647168
0
LINE
8
Layer 1
10
429.178566
20
188.647168
11
429.265010
21
188.219000
0
LINE
8
Layer 1
10
429.265010
20
188.219000
11
429.265010
21
188.219000
0
LINE
8
Layer 1
10
429.265010
20
219.219000
11
429.178566
21
218.790832
0
LINE
8
Layer 1
10
429.178566
20
218.790832
11
428.942826
21
218.441184
0
LINE
8
Layer 1
10
428.942826
20
218.441184
11
428.593178
21
218.205444
0
LINE
8
Layer 1
10
428.593178
20
218.205444
11
428.165010
21
218.119000
0
LINE
8
Layer 1
10
428.165010
20
218.119000
11
427.736842
21
218.205444
0
LINE
8
Layer 1
10
427.736842
20
218.205444
11
427.387194
21
218.441184
0
LINE
8
Layer 1
10
427.387194
20
218.441184
11
427.151454
21
218.790832
0
LINE
8
Layer 1
10
427.151454
20
218.790832
11
427.065010
21
219.219000
0
LINE
8
Layer 1
10
427.065010
20
219.219000
11
427.151454
21
219.647168
0
LINE
8
Layer 1
10
427.151454
20
219.647168
11
427.387194
21
219.996816
0
LINE
8
Layer 1
10
427.387194
20
219.996816
11
427.736842
21
220.232556
0
LINE
8
Layer 1
10
427.736842
20
220.232556
11
428.165010
21
220.319000
0
LINE
8
Layer 1
10
428.165010
20
220.319000
11
428.593178
21
220.232556
0
LINE
8
Layer 1
10
428.593178
20
220.232556
11
428.942826
21
219.996816
0
LINE
8
Layer 1
10
428.942826
20
219.996816
11
429.178566
21
219.647168
0
LINE
8
Layer 1
10
429.178566
20
219.647168
11
429.265010
21
219.219000
0
LINE
8
Layer 1
10
429.265010
20
219.219000
11
429.265010
21
219.219000
0
LINE
8
Layer 1
10
460.265010
20
219.219000
11
460.178566
21
218.790832
0
LINE
8
Layer 1
10
460.178566
20
218.790832
11
459.942826
21
218.441184
0
LINE
8
Layer 1
10
459.942826
20
218.441184
11
459.593178
21
218.205444
0
LINE
8
Layer 1
10
459.593178
20
218.205444
11
459.165010
21
218.119000
0
LINE
8
Layer 1
10
459.165010
20
218.119000
11
458.736842
21
218.205444
0
LINE
8
Layer 1
10
458.736842
20
218.205444
11
458.387194
21
218.441184
0
LINE
8
Layer 1
10
458.387194
20
218.441184
11
458.151454
21
218.790832
0
LINE
8
Layer 1
10
458.151454
20
218.790832
11
458.065010
21
219.219000
0
LINE
8
Layer 1
10
458.065010
20
219.219000
11
458.151454
21
219.647168
0
LINE
8
Layer 1
10
458.151454
20
219.647168
11
458.387194
21
219.996816
0
LINE
8
Layer 1
10
458.387194
20
219.996816
11
458.736842
21
220.232556
0
LINE
8
Layer 1
10
458.736842
20
220.232556
11
459.165010
21
220.319000
0
LINE
8
Layer 1
10
459.165010
20
220.319000
11
459.593178
21
220.232556
0
LINE
8
Layer 1
10
459.593178
20
220.232556
11
459.942826
21
219.996816
0
LINE
8
Layer 1
10
459.942826
20
219.996816
11
460.178566
21
219.647168
0
LINE
8
Layer 1
10
460.178566
20
219.647168
11
460.265010
21
219.219000
0
LINE
8
Layer 1
10
460.265010
20
219.219000
11
460.265010
21
219.219000
0
LINE
8
Layer 1
10
460.265010
20
188.219000
11
460.178566
21
187.790832
0
LINE
8
Layer 1
10
460.178566
20
187.790832
11
459.942826
21
187.441184
0
LINE
8
Layer 1
10
459.942826
20
187.441184
11
459.593178
21
187.205444
0
LINE
8
Layer 1
10
459.593178
20
187.205444
11
459.165010
21
187.119000
0
LINE
8
Layer 1
10
459.165010
20
187.119000
11
458.736842
21
187.205444
0
LINE
8
Layer 1
10
458.736842
20
187.205444
11
458.387194
21
187.441184
0
LINE
8
Layer 1
10
458.387194
20
187.441184
11
458.151454
21
187.790832
0
LINE
8
Layer 1
10
458.151454
20
187.790832
11
458.065010
21
188.219000
0
LINE
8
Layer 1
10
458.065010
20
188.219000
11
458.151454
21
188.647168
0
LINE
8
Layer 1
10
458.151454
20
188.647168
11
458.387194
21
188.996816
0
LINE
8
Layer 1
10
458.387194
20
188.996816
11
458.736842
21
189.232556
0
LINE
8
Layer 1
10
458.736842
20
189.232556
11
459.165010
21
189.319000
0
LINE
8
Layer 1
10
459.165010
20
189.319000
11
459.593178
21
189.232556
0
LINE
8
Layer 1
10
459.593178
20
189.232556
11
459.942826
21
188.996816
0
LINE
8
Layer 1
10
459.942826
20
188.996816
11
460.178566
21
188.647168
0
LINE
8
Layer 1
10
460.178566
20
188.647168
11
460.265010
21
188.219000
0
LINE
8
Layer 1
10
460.265010
20
188.219000
11
460.265010
21
188.219000
 0 
ENDSEC
 0 
EOF