<?xml version="1.0" encoding="UTF-8" standalone="no"?>
<svg
   version="1.1"
   width="356.862mm"
   height="109.20999mm"
   viewBox="0 0 356.862 109.20999"
   id="svg6853"
   sodipodi:docname="daughter-board.svg"
   inkscape:version="1.3.2 (091e20e, 2023-11-25, custom)"
   xmlns:inkscape="http://www.inkscape.org/namespaces/inkscape"
   xmlns:sodipodi="http://sodipodi.sourceforge.net/DTD/sodipodi-0.dtd"
   xmlns="http://www.w3.org/2000/svg"
   xmlns:svg="http://www.w3.org/2000/svg"
   xmlns:rdf="http://www.w3.org/1999/02/22-rdf-syntax-ns#"
   xmlns:cc="http://creativecommons.org/ns#"
   xmlns:dc="http://purl.org/dc/elements/1.1/">
  <defs
     id="defs6853">
    <inkscape:path-effect
       effect="fillet_chamfer"
       id="path-effect19"
       is_visible="true"
       lpeversion="1"
       nodesatellites_param="F,0,0,1,0,0,0,1 @ F,0,0,1,0,0,0,1 @ F,0,0,1,0,0,0,1 @ F,0,0,1,0,0,0,1 | F,0,0,1,0,0,0,1 @ F,0,0,1,0,0,0,1 @ F,0,0,1,0,0,0,1 @ F,0,0,1,0,0,0,1 | F,0,0,1,0,0,0,1 @ F,0,0,1,0,0,0,1 @ F,0,0,1,0,0,0,1 @ F,0,0,1,0,0,0,1 | F,0,0,1,0,0,0,1 @ F,0,0,1,0,0,0,1 @ F,0,0,1,0,0,0,1 @ F,0,0,1,0,0,0,1 | F,0,0,1,0,0,0,1 @ F,0,0,1,0,0,0,1 @ F,0,0,1,0,0,0,1 @ F,0,0,1,0,0,0,1 | F,0,0,1,0,0,0,1 @ F,0,0,1,0,0,0,1 @ F,0,0,1,0,0,0,1 @ F,0,0,1,0,0,0,1 | F,0,0,1,0,0,0,1 @ F,0,0,1,0,0,0,1 @ F,0,0,1,0,0,0,1 @ F,0,0,1,0,0,0,1 | F,0,0,1,0,0,0,1 @ F,0,0,1,0,0,0,1 @ F,0,0,1,0,0,0,1 @ F,0,0,1,0,0,0,1 | F,0,0,1,0,0,0,1 @ F,0,0,1,0,0,0,1 @ F,0,0,1,0,0,0,1 @ F,0,0,1,0,0,0,1 | F,0,0,1,0,0,0,1 @ F,0,0,1,0,0,0,1 @ F,0,0,1,0,0,0,1 @ F,0,0,1,0,0,0,1 | F,0,0,1,0,0,0,1 @ F,0,0,1,0,0,0,1 @ F,0,0,1,0,0,0,1 @ F,0,0,1,0,0,0,1 | F,0,0,1,0,0,0,1 @ F,0,0,1,0,0,0,1 @ F,0,0,1,0,0,0,1 @ F,0,0,1,0,0,0,1 | F,0,0,1,0,0,0,1 @ F,0,0,1,0,0,0,1 @ F,0,0,1,0,0,0,1 @ F,0,0,1,0,0,0,1 | F,0,0,1,0,0,0,1 @ F,0,0,1,0,0,0,1 @ F,0,0,1,0,0,0,1 @ F,0,0,1,0,0,0,1 | F,0,0,1,0,0,0,1 @ F,0,0,1,0,0,0,1 @ F,0,0,1,0,0,0,1 @ F,0,0,1,0,0,0,1 | F,0,0,1,0,0,0,1 @ F,0,0,1,0,0,0,1 @ F,0,0,1,0,0,0,1 @ F,0,0,1,0,0,0,1 | F,0,0,1,0,0,0,1 @ F,0,0,1,0,0,0,1 @ F,0,0,1,0,0,0,1 @ F,0,0,1,0,0,0,1 | F,0,0,1,0,0,0,1 @ F,0,0,1,0,0,0,1 @ F,0,0,1,0,0,0,1 @ F,0,0,1,0,0,0,1 | F,0,0,1,0,0,0,1 @ F,0,0,1,0,0,0,1 @ F,0,0,1,0,0,0,1 @ F,0,0,1,0,0,0,1 | F,0,0,1,0,0,0,1 @ F,0,0,1,0,0,0,1 @ F,0,0,1,0,0,0,1 @ F,0,0,1,0,0,0,1 | F,0,0,1,0,0,0,1 @ F,0,0,1,0,0,0,1 @ F,0,0,1,0,0,0,1 @ F,0,0,1,0,0,0,1 | F,0,0,1,0,0,0,1 @ F,0,0,1,0,0,0,1 @ F,0,0,1,0,0,0,1 @ F,0,0,1,0,0,0,1 | F,0,0,1,0,0,0,1 @ F,0,0,1,0,0,0,1 @ F,0,0,1,0,0,0,1 @ F,0,0,1,0,0,0,1 | F,0,0,1,0,0,0,1 @ F,0,0,1,0,0,0,1 @ F,0,0,1,0,0,0,1 @ F,0,0,1,0,0,0,1 | F,0,0,1,0,0,0,1 @ F,0,0,1,0,0,0,1 @ F,0,0,1,0,0,0,1 @ F,0,0,1,0,0,0,1 | F,0,0,1,0,0,0,1 @ F,0,0,1,0,0,0,1 @ F,0,0,1,0,0,0,1 @ F,0,0,1,0,0,0,1 | F,0,0,1,0,0,0,1 @ F,0,0,1,0,0,0,1 @ F,0,0,1,0,0,0,1 @ F,0,0,1,0,0,0,1 | F,0,0,1,0,0,0,1 @ F,0,0,1,0,0,0,1 @ F,0,0,1,0,0,0,1 @ F,0,0,1,0,0,0,1 | F,0,0,1,0,0,0,1 @ F,0,0,1,0,0,0,1 @ F,0,0,1,0,0,0,1 @ F,0,0,1,0,0,0,1 | F,0,0,1,0,0,0,1 @ F,0,0,1,0,0,0,1 @ F,0,0,1,0,0,0,1 @ F,0,0,1,0,0,0,1 | F,0,0,1,0,0,0,1 @ F,0,0,1,0,0,0,1 @ F,0,0,1,0,0,0,1 @ F,0,0,1,0,0,0,1 | F,0,0,1,0,0,0,1 @ F,0,0,1,0,0,0,1 @ F,0,0,1,0,0,0,1 @ F,0,0,1,0,0,0,1 | F,0,0,1,0,0,0,1 @ F,0,0,1,0,0,0,1 @ F,0,0,1,0,0,0,1 @ F,0,0,1,0,0,0,1 | F,0,0,1,0,0,0,1 @ F,0,0,1,0,0,0,1 @ F,0,0,1,0,0,0,1 @ F,0,0,1,0,0,0,1 | F,0,0,1,0,0,0,1 @ F,0,0,1,0,0,0,1 @ F,0,0,1,0,0,0,1 @ F,0,0,1,0,0,0,1 | F,0,0,1,0,0,0,1 @ F,0,0,1,0,0,0,1 @ F,0,0,1,0,0,0,1 @ F,0,0,1,0,0,0,1 | F,0,0,1,0,0,0,1 @ F,0,0,1,0,0,0,1 @ F,0,0,1,0,0,0,1 @ F,0,0,1,0,0,0,1 | F,0,0,1,0,0,0,1 @ F,0,0,1,0,0,0,1 @ F,0,0,1,0,0,0,1 @ F,0,0,1,0,0,0,1 | F,0,0,1,0,0,0,1 @ F,0,0,1,0,0,0,1 @ F,0,0,1,0,0,0,1 @ F,0,0,1,0,0,0,1 | F,0,0,1,0,0,0,1 @ F,0,0,1,0,0,0,1 @ F,0,0,1,0,0,0,1 @ F,0,0,1,0,0,0,1 | F,0,0,1,0,0,0,1 @ F,0,0,1,0,0,0,1 @ F,0,0,1,0,0,0,1 @ F,0,0,1,0,0,0,1 | F,0,0,1,0,0,0,1 @ F,0,0,1,0,0,0,1 @ F,0,0,1,0,0,0,1 @ F,0,0,1,0,0,0,1 | F,0,0,1,0,0,0,1 @ F,0,0,1,0,0,0,1 @ F,0,0,1,0,0,0,1 @ F,0,0,1,0,0,0,1 | F,0,0,1,0,0,0,1 @ F,0,0,1,0,0,0,1 @ F,0,0,1,0,0,0,1 @ F,0,0,1,0,0,0,1 | F,0,0,1,0,0,0,1 @ F,0,0,1,0,0,0,1 @ F,0,0,1,0,0,0,1 @ F,0,0,1,0,0,0,1 | F,0,0,1,0,0,0,1 @ F,0,0,1,0,0,0,1 @ F,0,0,1,0,0,0,1 @ F,0,0,1,0,0,0,1 | F,0,0,1,0,0,0,1 @ F,0,0,1,0,0,0,1 @ F,0,0,1,0,0,0,1 @ F,0,0,1,0,0,0,1 | F,0,0,1,0,0,0,1 @ F,0,0,1,0,0,0,1 @ F,0,0,1,0,0,0,1 @ F,0,0,1,0,0,0,1 | F,0,0,1,0,0,0,1 @ F,0,0,1,0,0,0,1 @ F,0,0,1,0,0,0,1 @ F,0,0,1,0,0,0,1 | F,0,0,1,0,0,0,1 @ F,0,0,1,0,0,0,1 @ F,0,0,1,0,0,0,1 @ F,0,0,1,0,0,0,1 | F,0,0,1,0,0,0,1 @ F,0,0,1,0,0,0,1 @ F,0,0,1,0,0,0,1 @ F,0,0,1,0,0,0,1 | F,0,0,1,0,0,0,1 @ F,0,0,1,0,0,0,1 @ F,0,0,1,0,0,0,1 @ F,0,0,1,0,0,0,1 | F,0,0,1,0,0,0,1 @ F,0,0,1,0,0,0,1 @ F,0,0,1,0,0,0,1 @ F,0,0,1,0,0,0,1 | F,0,0,1,0,0,0,1 @ F,0,0,1,0,0,0,1 @ F,0,0,1,0,0,0,1 @ F,0,0,1,0,0,0,1 | F,0,0,1,0,0,0,1 @ F,0,0,1,0,0,0,1 @ F,0,0,1,0,0,0,1 @ F,0,0,1,0,0,0,1 | F,0,0,1,0,0,0,1 @ F,0,0,1,0,0,0,1 @ F,0,0,1,0,0,0,1 @ F,0,0,1,0,0,0,1 | F,0,0,1,0,0,0,1 @ F,0,0,1,0,0,0,1 @ F,0,0,1,0,0,0,1 @ F,0,0,1,0,0,0,1 | F,0,0,1,0,0,0,1 @ F,0,0,1,0,0,0,1 @ F,0,0,1,0,0,0,1 @ F,0,0,1,0,0,0,1 | F,0,0,1,0,0,0,1 @ F,0,0,1,0,0,0,1 @ F,0,0,1,0,0,0,1 @ F,0,0,1,0,0,0,1 | F,0,0,1,0,0,0,1 @ F,0,0,1,0,0,0,1 @ F,0,0,1,0,0,0,1 @ F,0,0,1,0,0,0,1 | F,0,0,1,0,0,0,1 @ F,0,0,1,0,0,0,1 @ F,0,0,1,0,0,0,1 @ F,0,0,1,0,0,0,1 | F,0,0,1,0,0,0,1 @ F,0,0,1,0,0,0,1 @ F,0,0,1,0,0,0,1 @ F,0,0,1,0,0,0,1 | F,0,0,1,0,0,0,1 @ F,0,0,1,0,0,0,1 @ F,0,0,1,0,0,0,1 @ F,0,0,1,0,0,0,1 | F,0,0,1,0,0,0,1 @ F,0,0,1,0,0,0,1 @ F,0,0,1,0,0,0,1 @ F,0,0,1,0,0,0,1"
       radius="2"
       unit="mm"
       method="auto"
       mode="F"
       chamfer_steps="1"
       flexible="false"
       use_knot_distance="true"
       apply_no_radius="true"
       apply_with_radius="true"
       only_selected="true"
       hide_knots="false" />
    <inkscape:path-effect
       effect="fillet_chamfer"
       id="path-effect18"
       is_visible="true"
       lpeversion="1"
       nodesatellites_param="F,0,1,1,0,2,0,1 @ F,0,1,1,0,2,0,1 @ F,0,1,1,0,2,0,1 @ F,0,1,1,0,2,0,1 | F,0,0,1,0,0,0,1 @ F,0,0,1,0,0,0,1 @ F,0,0,1,0,0,0,1 @ F,0,0,1,0,0,0,1 | F,0,0,1,0,0,0,1 @ F,0,0,1,0,0,0,1 @ F,0,0,1,0,0,0,1 @ F,0,0,1,0,0,0,1 | F,0,0,1,0,0,0,1 @ F,0,0,1,0,0,0,1 @ F,0,0,1,0,0,0,1 @ F,0,0,1,0,0,0,1 | F,0,0,1,0,0,0,1 @ F,0,0,1,0,0,0,1 @ F,0,0,1,0,0,0,1 @ F,0,0,1,0,0,0,1 | F,0,0,1,0,0,0,1 @ F,0,0,1,0,0,0,1 @ F,0,0,1,0,0,0,1 @ F,0,0,1,0,0,0,1"
       radius="2"
       unit="mm"
       method="auto"
       mode="F"
       chamfer_steps="1"
       flexible="false"
       use_knot_distance="true"
       apply_no_radius="true"
       apply_with_radius="true"
       only_selected="true"
       hide_knots="false" />
    <inkscape:path-effect
       effect="fillet_chamfer"
       id="path-effect17"
       is_visible="true"
       lpeversion="1"
       nodesatellites_param="F,0,1,1,0,2,0,1 @ F,0,1,1,0,2,0,1 @ F,0,1,1,0,2,0,1 @ F,0,1,1,0,2,0,1 | F,0,0,1,0,0,0,1 @ F,0,0,1,0,0,0,1 @ F,0,0,1,0,0,0,1 @ F,0,0,1,0,0,0,1 | F,0,0,1,0,0,0,1 @ F,0,0,1,0,0,0,1 @ F,0,0,1,0,0,0,1 @ F,0,0,1,0,0,0,1 | F,0,0,1,0,0,0,1 @ F,0,0,1,0,0,0,1 @ F,0,0,1,0,0,0,1 @ F,0,0,1,0,0,0,1 | F,0,0,1,0,0,0,1 @ F,0,0,1,0,0,0,1 @ F,0,0,1,0,0,0,1 @ F,0,0,1,0,0,0,1"
       radius="2"
       unit="mm"
       method="auto"
       mode="F"
       chamfer_steps="1"
       flexible="false"
       use_knot_distance="true"
       apply_no_radius="true"
       apply_with_radius="true"
       only_selected="true"
       hide_knots="false" />
  </defs>
  <sodipodi:namedview
     id="namedview6853"
     pagecolor="#ffffff"
     bordercolor="#000000"
     borderopacity="0.25"
     inkscape:showpageshadow="2"
     inkscape:pageopacity="0.0"
     inkscape:pagecheckerboard="0"
     inkscape:deskcolor="#d1d1d1"
     inkscape:document-units="mm"
     inkscape:zoom="3.9999998"
     inkscape:cx="610.00003"
     inkscape:cy="160.12501"
     inkscape:window-width="2560"
     inkscape:window-height="1369"
     inkscape:window-x="-8"
     inkscape:window-y="-8"
     inkscape:window-maximized="1"
     inkscape:current-layer="svg6853"
     showguides="false" />
  <title
     id="title1">SVG Image created as laser-keyboard-brd.svg date 2025/04/05 06:43:41 </title>
  <desc
     id="desc1">Image generated by PCBNEW </desc>
  <path
     style="color:#000000;fill:#d0d2cd;stroke:none;stroke-width:0.1;stroke-linecap:butt;stroke-linejoin:miter;-inkscape-stroke:none"
     d="m 172.87198,1.50006 a 0.05,0.05 0 0 0 -0.0488,0.0508 v 1.5 h -6.06055 a 0.05,0.05 0 0 0 -0.004,0.002 0.05,0.05 0 0 0 -0.006,-0.002 l -0.38281,0.0762 a 0.05,0.05 0 0 0 -0.004,0.004 0.05,0.05 0 0 0 -0.0137,0.004 l -0.32423,0.2168 a 0.05,0.05 0 0 0 -0.008,0.0117 0.05,0.05 0 0 0 -0.006,0.002 l -0.21679,0.32422 a 0.05,0.05 0 0 0 0,0.004 0.05,0.05 0 0 0 -0.008,0.0137 l -0.0762,0.38281 a 0.05,0.05 0 0 0 0.002,0.002 0.05,0.05 0 0 0 -0.004,0.008 V 17.7292 a 0.05,0.05 0 0 0 0.004,0.008 0.05,0.05 0 0 0 -0.002,0.002 l 0.0762,0.38281 a 0.05,0.05 0 0 0 0.008,0.0137 0.05,0.05 0 0 0 0,0.004 l 0.21679,0.32617 a 0.05,0.05 0 0 0 0.006,0.002 0.05,0.05 0 0 0 0.008,0.0117 l 0.32423,0.2168 a 0.05,0.05 0 0 0 0.0156,0.002 0.05,0.05 0 0 0 0.002,0.004 l 0.38282,0.0762 a 0.05,0.05 0 0 0 0.004,0 0.05,0.05 0 0 0 0.006,0.002 h 14.07422 6.72852 a 0.05,0.05 0 0 0 0.006,-0.002 0.05,0.05 0 0 0 0.004,0 l 0.38281,-0.0762 a 0.05,0.05 0 0 0 0.0176,-0.006 l 0.32422,-0.2168 a 0.05,0.05 0 0 0 0.0137,-0.0137 l 0.2168,-0.32617 a 0.05,0.05 0 0 0 0.006,-0.0156 0.05,0.05 0 0 0 0.002,-0.002 l 0.002,-0.006 a 0.05,0.05 0 0 0 0,-0.002 l 0.0742,-0.375 a 0.05,0.05 0 0 0 0,-0.006 0.05,0.05 0 0 0 0.002,-0.004 V 4.09967 a 0.05,0.05 0 0 0 -0.002,-0.01 l -0.002,-0.01 -0.0723,-0.36523 a 0.05,0.05 0 0 0 -0.002,-0.008 0.05,0.05 0 0 0 -0.002,-0.004 0.05,0.05 0 0 0 -0.006,-0.0137 l -0.2168,-0.32422 a 0.05,0.05 0 0 0 -0.0137,-0.0137 l -0.32422,-0.2168 a 0.05,0.05 0 0 0 -0.0176,-0.008 l -0.37304,-0.0742 a 0.05,0.05 0 0 0 -0.01,-0.002 0.05,0.05 0 0 0 -0.004,0 0.05,0.05 0 0 0 -0.006,0 h -5.70313 V 1.5499 a 0.05,0.05 0 0 0 -0.0312,-0.0469 0.05,0.05 0 0 0 -0.0176,-0.004 z m 0.0508,0.0996 h 8.83984 v 1.45117 h -8.83984 z m -6.16016,1.55078 h 6.06055 v 5.69922 a 0.05,0.05 0 0 0 0.0488,0.0508 h 8.9414 a 0.05,0.05 0 0 0 0.0488,-0.0508 V 3.15044 h 5.70313 l 0.36523,0.0723 0.30664,0.20508 0.20508,0.30664 0.0742,0.375 v 13.60938 l -0.0742,0.375 -0.20508,0.30664 -0.30664,0.20508 -0.375,0.0742 h -6.71875 -14.06445 l -0.375,-0.0742 -0.30664,-0.20508 -0.20508,-0.30664 -0.0723,-0.36524 V 4.0997 l 0.0723,-0.36523 0.20508,-0.30664 0.30664,-0.20508 z m 6.16016,0 h 8.83984 v 5.65039 h -8.83984 z m -4.16992,11.42969 -0.42773,0.0859 a 0.05,0.05 0 0 0 -0.002,0.004 0.05,0.05 0 0 0 -0.0176,0.004 l -0.34961,0.23633 a 0.05,0.05 0 0 0 -0.002,0.006 0.05,0.05 0 0 0 -0.01,0.008 l -0.23633,0.34961 a 0.05,0.05 0 0 0 -0.002,0.01 0.05,0.05 0 0 0 -0.006,0.008 l -0.0859,0.42773 a 0.05,0.05 0 0 0 0.006,0.01 0.05,0.05 0 0 0 -0.006,0.01 l 0.0859,0.42969 a 0.05,0.05 0 0 0 0.004,0.004 0.05,0.05 0 0 0 0.004,0.0137 l 0.23633,0.34961 a 0.05,0.05 0 0 0 0.004,0 0.05,0.05 0 0 0 0.008,0.0137 l 0.34961,0.23633 a 0.05,0.05 0 0 0 0.0176,0.004 0.05,0.05 0 0 0 0.002,0.002 l 0.42774,0.0879 a 0.05,0.05 0 0 0 0.004,-0.004 0.05,0.05 0 0 0 0.0156,0.004 l 0.42773,-0.0879 a 0.05,0.05 0 0 0 0.0195,-0.006 l 0.34961,-0.23633 a 0.05,0.05 0 0 0 0.01,-0.0137 0.05,0.05 0 0 0 0.004,0 l 0.23438,-0.34961 a 0.05,0.05 0 0 0 0.004,-0.0156 0.05,0.05 0 0 0 0.004,-0.002 l 0.0859,-0.42969 a 0.05,0.05 0 0 0 0,-0.0195 0.05,0.05 0 0 0 -0.002,-0.008 l -0.084,-0.41992 a 0.05,0.05 0 0 0 -0.002,-0.002 0.05,0.05 0 0 0 -0.006,-0.0156 l -0.23467,-0.34962 a 0.05,0.05 0 0 0 -0.0137,-0.0137 l -0.34958,-0.23633 a 0.05,0.05 0 0 0 -0.0195,-0.008 l -0.42773,-0.0859 a 0.05,0.05 0 0 0 -0.004,0.004 0.05,0.05 0 0 0 -0.0156,-0.004 z m 16.80273,0 -0.42773,0.0859 a 0.05,0.05 0 0 0 -0.008,0.006 0.05,0.05 0 0 0 -0.01,0.002 l -0.34961,0.23633 a 0.05,0.05 0 0 0 -0.002,0.006 0.05,0.05 0 0 0 -0.0117,0.008 l -0.23633,0.34961 a 0.05,0.05 0 0 0 -0.002,0.01 0.05,0.05 0 0 0 -0.006,0.008 l -0.0859,0.42773 a 0.05,0.05 0 0 0 0.006,0.01 0.05,0.05 0 0 0 -0.006,0.01 l 0.0859,0.42969 a 0.05,0.05 0 0 0 0.004,0.004 0.05,0.05 0 0 0 0.004,0.0137 l 0.23633,0.34961 a 0.05,0.05 0 0 0 0.006,0.002 0.05,0.05 0 0 0 0.008,0.0117 l 0.3496,0.23633 a 0.05,0.05 0 0 0 0.0156,0.004 0.05,0.05 0 0 0 0.002,0.002 l 0.42772,0.0879 a 0.05,0.05 0 0 0 0.004,-0.004 0.05,0.05 0 0 0 0.0156,0.004 l 0.42774,-0.0879 a 0.05,0.05 0 0 0 0.0195,-0.006 l 0.34965,-0.23658 a 0.05,0.05 0 0 0 0.01,-0.0137 0.05,0.05 0 0 0 0.004,0 l 0.23437,-0.34961 a 0.05,0.05 0 0 0 0.006,-0.0176 0.05,0.05 0 0 0 0.002,0 l 0.002,-0.008 0.084,-0.42187 a 0.05,0.05 0 0 0 0,-0.0195 0.05,0.05 0 0 0 -0.002,-0.008 l -0.082,-0.41211 v -0.002 a 0.05,0.05 0 0 0 -0.002,-0.006 0.05,0.05 0 0 0 -0.008,-0.0176 l -0.2347,-0.34955 a 0.05,0.05 0 0 0 -0.0137,-0.0137 l -0.34958,-0.23633 a 0.05,0.05 0 0 0 -0.0195,-0.008 l -0.42774,-0.0859 a 0.05,0.05 0 0 0 -0.01,0.006 0.05,0.05 0 0 0 -0.01,-0.006 z m -16.79297,0.0996 0.41016,0.084 0.33203,0.22266 0.22461,0.33593 0.082,0.40625 -0.082,0.40821 -0.22461,0.33398 -0.33203,0.22461 -0.41016,0.084 -0.41015,-0.084 -0.33204,-0.22461 -0.22461,-0.33398 -0.082,-0.40821 0.082,-0.40625 0.22461,-0.33593 0.33204,-0.22266 z m 16.80274,0 0.41015,0.084 0.33203,0.22266 0.22461,0.33593 0.082,0.40625 -0.082,0.40821 -0.22461,0.33398 -0.33203,0.22461 -0.41015,0.084 -0.41016,-0.084 -0.33203,-0.22461 -0.22461,-0.33398 -0.082,-0.40821 0.082,-0.40625 0.22461,-0.33593 0.33203,-0.22266 z"
     id="path12571"
     inkscape:label="daughter-board" />
  <metadata
     id="metadata2">
    <rdf:RDF>
      <cc:Work
         rdf:about="">
        <dc:title>SVG Image created as laser-keyboard-brd.svg date 2024/11/08 13:29:10 </dc:title>
      </cc:Work>
    </rdf:RDF>
  </metadata>
</svg>
