%TF.GenerationSoftware,KiCad,Pcbnew,10.0.5*%
%TF.CreationDate,2026-08-26T11:04:30+09:00*%
%TF.ProjectId,plate,706c6174-652e-46b6-9963-61645f706362,rev?*%
%TF.SameCoordinates,Original*%
%TF.FileFunction,Copper,L1,Top*%
%TF.FilePolarity,Positive*%
%FSLAX46Y46*%
G04 Gerber Fmt 4.6, Leading zero omitted, Abs format (unit mm)*
G04 Created by KiCad (PCBNEW 10.0.5) date 2026-08-26 11:04:30*
%MOMM*%
%LPD*%
G01*
G04 APERTURE LIST*
G04 APERTURE END LIST*
%TA.AperFunction,NonConductor*%
G36*
X73315538Y-99420180D02*
G01*
X73361293Y-99472984D01*
X73372499Y-99524495D01*
X73372499Y-103559062D01*
X73371438Y-103575247D01*
X73368180Y-103599993D01*
X73368180Y-103599994D01*
X73371438Y-103624739D01*
X73372499Y-103640926D01*
X73372499Y-103665888D01*
X73378960Y-103690003D01*
X73382123Y-103705902D01*
X73385382Y-103730653D01*
X73394931Y-103753706D01*
X73400144Y-103769062D01*
X73406607Y-103793183D01*
X73419087Y-103814798D01*
X73426261Y-103829345D01*
X73473248Y-103942781D01*
X73473249Y-103942782D01*
X73473249Y-103942783D01*
X73523681Y-104064537D01*
X73545654Y-104093174D01*
X73545657Y-104093177D01*
X73545662Y-104093183D01*
X73603906Y-104169088D01*
X73708457Y-104249313D01*
X73830211Y-104299745D01*
X73841495Y-104304419D01*
X73905532Y-104330944D01*
X73943647Y-104346731D01*
X73958182Y-104353898D01*
X73979813Y-104366387D01*
X74003927Y-104372848D01*
X74019275Y-104378056D01*
X74042342Y-104387612D01*
X74067089Y-104390869D01*
X74082989Y-104394032D01*
X74107107Y-104400495D01*
X74132067Y-104400495D01*
X74148253Y-104401556D01*
X74172998Y-104404814D01*
X74172999Y-104404814D01*
X74197746Y-104401555D01*
X74213931Y-104400495D01*
X153532066Y-104400495D01*
X153548252Y-104401556D01*
X153572997Y-104404814D01*
X153572998Y-104404814D01*
X153572999Y-104404814D01*
X153597746Y-104401556D01*
X153613931Y-104400495D01*
X153638892Y-104400495D01*
X153662997Y-104394035D01*
X153678901Y-104390871D01*
X153703655Y-104387613D01*
X153726719Y-104378059D01*
X153742079Y-104372846D01*
X153766182Y-104366388D01*
X153766181Y-104366388D01*
X153766186Y-104366387D01*
X153787816Y-104353898D01*
X153802347Y-104346732D01*
X153904509Y-104304416D01*
X153904523Y-104304412D01*
X153915792Y-104299744D01*
X153915794Y-104299744D01*
X153975119Y-104275169D01*
X154033843Y-104250845D01*
X154037307Y-104249542D01*
X154039080Y-104248134D01*
X154092284Y-104207309D01*
X154140372Y-104170409D01*
X154142123Y-104169114D01*
X154143423Y-104167358D01*
X154200340Y-104093181D01*
X154221091Y-104066138D01*
X154222551Y-104064299D01*
X154223867Y-104060803D01*
X154263181Y-103965890D01*
X154263181Y-103965889D01*
X154277422Y-103931507D01*
X154277425Y-103931498D01*
X154295596Y-103887626D01*
X154319737Y-103829341D01*
X154326910Y-103814798D01*
X154339392Y-103793181D01*
X154345856Y-103769054D01*
X154351063Y-103753715D01*
X154360618Y-103730648D01*
X154363877Y-103705888D01*
X154367039Y-103689998D01*
X154367041Y-103689992D01*
X154373500Y-103665887D01*
X154373500Y-103640923D01*
X154374561Y-103624737D01*
X154377818Y-103599995D01*
X154377819Y-103599991D01*
X154375417Y-103581750D01*
X154374561Y-103575244D01*
X154373500Y-103559058D01*
X154373500Y-99524495D01*
X154393185Y-99457456D01*
X154445989Y-99411701D01*
X154497500Y-99400495D01*
X158248500Y-99400495D01*
X158315539Y-99420180D01*
X158361294Y-99472984D01*
X158372500Y-99524495D01*
X158372500Y-103559058D01*
X158371439Y-103575244D01*
X158370583Y-103581750D01*
X158368181Y-103599991D01*
X158368181Y-103599994D01*
X158371439Y-103624737D01*
X158372500Y-103640923D01*
X158372500Y-103665888D01*
X158378959Y-103689995D01*
X158382122Y-103705896D01*
X158385381Y-103730649D01*
X158394935Y-103753715D01*
X158400147Y-103769070D01*
X158406607Y-103793178D01*
X158406609Y-103793183D01*
X158419089Y-103814800D01*
X158426261Y-103829345D01*
X158522002Y-104060489D01*
X158523508Y-104064524D01*
X158525938Y-104067914D01*
X158525944Y-104067923D01*
X158528617Y-104070971D01*
X158545660Y-104093181D01*
X158603902Y-104169085D01*
X158603904Y-104169086D01*
X158603906Y-104169089D01*
X158653716Y-104207309D01*
X158707742Y-104248765D01*
X158708448Y-104249451D01*
X158712180Y-104250856D01*
X158943649Y-104346732D01*
X158958196Y-104353905D01*
X158979814Y-104366387D01*
X159003930Y-104372848D01*
X159019276Y-104378057D01*
X159042345Y-104387613D01*
X159067094Y-104390870D01*
X159082996Y-104394034D01*
X159107108Y-104400495D01*
X159132069Y-104400495D01*
X159148254Y-104401556D01*
X159173001Y-104404814D01*
X159173002Y-104404814D01*
X159173003Y-104404814D01*
X159197748Y-104401556D01*
X159213934Y-104400495D01*
X260294076Y-104400495D01*
X260310262Y-104401556D01*
X260335007Y-104404814D01*
X260335008Y-104404814D01*
X260335009Y-104404814D01*
X260359756Y-104401556D01*
X260375941Y-104400495D01*
X260400902Y-104400495D01*
X260425007Y-104394035D01*
X260440911Y-104390871D01*
X260465665Y-104387613D01*
X260488729Y-104378059D01*
X260504089Y-104372846D01*
X260528192Y-104366388D01*
X260528191Y-104366388D01*
X260528196Y-104366387D01*
X260549826Y-104353898D01*
X260564357Y-104346732D01*
X260666519Y-104304416D01*
X260666533Y-104304412D01*
X260677802Y-104299744D01*
X260677804Y-104299744D01*
X260737129Y-104275169D01*
X260795853Y-104250845D01*
X260799317Y-104249542D01*
X260801090Y-104248134D01*
X260854294Y-104207309D01*
X260902382Y-104170409D01*
X260904133Y-104169114D01*
X260905433Y-104167358D01*
X260962350Y-104093181D01*
X260983101Y-104066138D01*
X260984561Y-104064299D01*
X260985877Y-104060803D01*
X261025191Y-103965890D01*
X261025191Y-103965889D01*
X261039432Y-103931507D01*
X261039435Y-103931498D01*
X261057606Y-103887626D01*
X261081747Y-103829341D01*
X261088920Y-103814798D01*
X261101402Y-103793181D01*
X261107866Y-103769054D01*
X261113073Y-103753715D01*
X261122628Y-103730648D01*
X261125887Y-103705888D01*
X261129049Y-103689998D01*
X261129051Y-103689992D01*
X261135510Y-103665887D01*
X261135510Y-103640923D01*
X261136571Y-103624737D01*
X261139828Y-103599995D01*
X261139829Y-103599991D01*
X261137427Y-103581750D01*
X261136571Y-103575244D01*
X261135510Y-103559058D01*
X261135510Y-99524495D01*
X261155195Y-99457456D01*
X261207999Y-99411701D01*
X261259510Y-99400495D01*
X265010510Y-99400495D01*
X265077549Y-99420180D01*
X265123304Y-99472984D01*
X265134510Y-99524495D01*
X265134510Y-103559058D01*
X265133449Y-103575244D01*
X265132593Y-103581750D01*
X265130191Y-103599991D01*
X265130191Y-103599994D01*
X265133449Y-103624737D01*
X265134510Y-103640923D01*
X265134510Y-103665888D01*
X265140969Y-103689995D01*
X265144132Y-103705896D01*
X265147391Y-103730649D01*
X265156945Y-103753715D01*
X265162157Y-103769070D01*
X265168617Y-103793178D01*
X265168619Y-103793183D01*
X265181099Y-103814800D01*
X265188271Y-103829345D01*
X265284012Y-104060489D01*
X265285518Y-104064524D01*
X265287948Y-104067914D01*
X265287954Y-104067923D01*
X265290627Y-104070971D01*
X265307670Y-104093181D01*
X265365912Y-104169085D01*
X265365914Y-104169086D01*
X265365916Y-104169089D01*
X265415726Y-104207309D01*
X265469752Y-104248765D01*
X265470458Y-104249451D01*
X265474190Y-104250856D01*
X265705659Y-104346732D01*
X265720206Y-104353905D01*
X265741824Y-104366387D01*
X265765940Y-104372848D01*
X265781286Y-104378057D01*
X265804355Y-104387613D01*
X265829104Y-104390870D01*
X265845006Y-104394034D01*
X265869118Y-104400495D01*
X265894079Y-104400495D01*
X265910264Y-104401556D01*
X265935011Y-104404814D01*
X265935012Y-104404814D01*
X265935013Y-104404814D01*
X265959758Y-104401556D01*
X265975944Y-104400495D01*
X345294076Y-104400495D01*
X345310262Y-104401556D01*
X345335007Y-104404814D01*
X345335008Y-104404814D01*
X345335009Y-104404814D01*
X345359756Y-104401556D01*
X345375941Y-104400495D01*
X345400902Y-104400495D01*
X345425007Y-104394035D01*
X345440911Y-104390871D01*
X345465665Y-104387613D01*
X345488729Y-104378059D01*
X345504089Y-104372846D01*
X345528192Y-104366388D01*
X345528191Y-104366388D01*
X345528196Y-104366387D01*
X345549826Y-104353898D01*
X345564357Y-104346732D01*
X345666519Y-104304416D01*
X345666533Y-104304412D01*
X345677802Y-104299744D01*
X345677804Y-104299744D01*
X345737129Y-104275169D01*
X345795853Y-104250845D01*
X345799317Y-104249542D01*
X345801090Y-104248134D01*
X345854294Y-104207309D01*
X345902382Y-104170409D01*
X345904133Y-104169114D01*
X345905433Y-104167358D01*
X345962350Y-104093181D01*
X345983101Y-104066138D01*
X345984561Y-104064299D01*
X345985877Y-104060803D01*
X346025191Y-103965890D01*
X346025191Y-103965889D01*
X346039432Y-103931507D01*
X346039435Y-103931498D01*
X346057606Y-103887626D01*
X346081747Y-103829341D01*
X346088920Y-103814798D01*
X346101402Y-103793181D01*
X346107866Y-103769054D01*
X346113073Y-103753715D01*
X346122628Y-103730648D01*
X346125887Y-103705888D01*
X346129049Y-103689998D01*
X346129051Y-103689992D01*
X346135510Y-103665887D01*
X346135510Y-103640923D01*
X346136571Y-103624737D01*
X346139828Y-103599995D01*
X346139829Y-103599991D01*
X346137427Y-103581750D01*
X346136571Y-103575244D01*
X346135510Y-103559058D01*
X346135510Y-99524495D01*
X346155195Y-99457456D01*
X346207999Y-99411701D01*
X346259510Y-99400495D01*
X350010510Y-99400495D01*
X350077549Y-99420180D01*
X350123304Y-99472984D01*
X350134510Y-99524495D01*
X350134510Y-103559058D01*
X350133449Y-103575244D01*
X350132593Y-103581750D01*
X350130191Y-103599991D01*
X350130191Y-103599994D01*
X350133449Y-103624737D01*
X350134510Y-103640923D01*
X350134510Y-103665888D01*
X350140969Y-103689995D01*
X350144132Y-103705896D01*
X350147391Y-103730649D01*
X350156945Y-103753715D01*
X350162157Y-103769070D01*
X350168617Y-103793178D01*
X350168619Y-103793183D01*
X350181099Y-103814800D01*
X350188271Y-103829345D01*
X350284012Y-104060489D01*
X350285518Y-104064524D01*
X350287948Y-104067914D01*
X350287954Y-104067923D01*
X350290627Y-104070971D01*
X350307670Y-104093181D01*
X350365912Y-104169085D01*
X350365914Y-104169086D01*
X350365916Y-104169089D01*
X350415726Y-104207309D01*
X350469752Y-104248765D01*
X350470458Y-104249451D01*
X350474190Y-104250856D01*
X350705659Y-104346732D01*
X350720206Y-104353905D01*
X350741824Y-104366387D01*
X350765940Y-104372848D01*
X350781286Y-104378057D01*
X350804355Y-104387613D01*
X350829104Y-104390870D01*
X350845006Y-104394034D01*
X350869118Y-104400495D01*
X350894079Y-104400495D01*
X350910264Y-104401556D01*
X350935011Y-104404814D01*
X350935011Y-104404813D01*
X350935012Y-104404814D01*
X350959758Y-104401555D01*
X350975942Y-104400495D01*
X377072597Y-104400495D01*
X377097128Y-104402948D01*
X377303016Y-104444516D01*
X377347795Y-104463248D01*
X377461554Y-104539946D01*
X377495050Y-104573442D01*
X377571746Y-104687198D01*
X377590478Y-104731977D01*
X377632047Y-104937869D01*
X377634500Y-104962409D01*
X377634500Y-126059392D01*
X377633439Y-126075579D01*
X377630181Y-126100323D01*
X377630181Y-126100324D01*
X377633439Y-126125071D01*
X377634500Y-126141256D01*
X377634500Y-126166224D01*
X377640960Y-126190334D01*
X377644122Y-126206233D01*
X377647381Y-126230981D01*
X377649370Y-126235783D01*
X377656932Y-126254039D01*
X377662145Y-126269397D01*
X377668606Y-126293512D01*
X377668607Y-126293513D01*
X377668608Y-126293516D01*
X377680838Y-126314699D01*
X377681090Y-126315136D01*
X377688257Y-126329669D01*
X377732550Y-126436604D01*
X377732558Y-126436626D01*
X377759152Y-126500830D01*
X377759152Y-126500831D01*
X377785678Y-126564871D01*
X377785681Y-126564875D01*
X377785683Y-126564879D01*
X377827093Y-126618845D01*
X377827094Y-126618846D01*
X377865906Y-126669428D01*
X377865918Y-126669439D01*
X377866267Y-126669704D01*
X377906181Y-126700330D01*
X377906183Y-126700332D01*
X377969536Y-126748945D01*
X377970712Y-126749866D01*
X377970953Y-126750001D01*
X377974499Y-126751325D01*
X378030948Y-126774707D01*
X378103473Y-126804748D01*
X378103491Y-126804753D01*
X378205653Y-126847069D01*
X378220196Y-126854241D01*
X378226634Y-126857957D01*
X378241814Y-126866722D01*
X378265936Y-126873184D01*
X378281281Y-126878393D01*
X378304349Y-126887949D01*
X378329107Y-126891208D01*
X378344994Y-126894368D01*
X378369108Y-126900830D01*
X378394072Y-126900830D01*
X378410256Y-126901891D01*
X378435004Y-126905149D01*
X378435006Y-126905149D01*
X378459751Y-126901891D01*
X378475938Y-126900830D01*
X382510500Y-126900830D01*
X382577539Y-126920515D01*
X382623294Y-126973319D01*
X382634500Y-127024830D01*
X382634500Y-130775830D01*
X382614815Y-130842869D01*
X382562011Y-130888624D01*
X382510500Y-130899830D01*
X378475938Y-130899830D01*
X378459751Y-130898769D01*
X378435006Y-130895511D01*
X378435004Y-130895511D01*
X378410256Y-130898769D01*
X378394072Y-130899830D01*
X378369106Y-130899830D01*
X378344994Y-130906290D01*
X378329098Y-130909451D01*
X378304356Y-130912709D01*
X378304348Y-130912711D01*
X378281284Y-130922264D01*
X378265933Y-130927475D01*
X378241812Y-130933938D01*
X378220190Y-130946421D01*
X378205648Y-130953591D01*
X378097814Y-130998257D01*
X378097790Y-130998265D01*
X378030946Y-131025952D01*
X378030947Y-131025953D01*
X377970460Y-131051007D01*
X377970449Y-131051013D01*
X377924994Y-131085894D01*
X377915713Y-131093016D01*
X377865909Y-131131231D01*
X377865905Y-131131235D01*
X377865901Y-131131239D01*
X377831192Y-131176472D01*
X377785683Y-131235781D01*
X377785680Y-131235787D01*
X377785677Y-131235792D01*
X377780752Y-131247681D01*
X377780751Y-131247683D01*
X377761768Y-131293514D01*
X377761768Y-131293515D01*
X377732932Y-131363131D01*
X377732928Y-131363140D01*
X377688261Y-131470978D01*
X377681091Y-131485520D01*
X377668608Y-131507142D01*
X377662145Y-131531263D01*
X377656934Y-131546614D01*
X377647381Y-131569678D01*
X377647379Y-131569686D01*
X377644121Y-131594428D01*
X377640960Y-131610324D01*
X377634500Y-131634436D01*
X377634500Y-131659402D01*
X377633439Y-131675586D01*
X377630182Y-131700332D01*
X377630181Y-131700336D01*
X377633439Y-131725078D01*
X377634500Y-131741266D01*
X377634500Y-165169392D01*
X377633439Y-165185579D01*
X377630181Y-165210323D01*
X377630181Y-165210324D01*
X377633439Y-165235071D01*
X377634500Y-165251256D01*
X377634500Y-165276224D01*
X377640960Y-165300334D01*
X377644122Y-165316233D01*
X377647381Y-165340981D01*
X377649370Y-165345783D01*
X377656932Y-165364039D01*
X377662145Y-165379397D01*
X377668606Y-165403512D01*
X377668607Y-165403513D01*
X377668608Y-165403516D01*
X377680838Y-165424699D01*
X377681090Y-165425136D01*
X377688257Y-165439669D01*
X377732550Y-165546604D01*
X377732558Y-165546626D01*
X377759152Y-165610830D01*
X377759152Y-165610831D01*
X377785678Y-165674871D01*
X377785681Y-165674875D01*
X377785683Y-165674879D01*
X377827093Y-165728845D01*
X377827094Y-165728846D01*
X377865906Y-165779428D01*
X377865918Y-165779439D01*
X377866267Y-165779704D01*
X377906181Y-165810330D01*
X377906183Y-165810332D01*
X377969536Y-165858945D01*
X377970712Y-165859866D01*
X377970953Y-165860001D01*
X377974499Y-165861325D01*
X378030948Y-165884707D01*
X378103473Y-165914748D01*
X378103491Y-165914753D01*
X378205653Y-165957069D01*
X378220196Y-165964241D01*
X378226634Y-165967957D01*
X378241814Y-165976722D01*
X378265936Y-165983184D01*
X378281281Y-165988393D01*
X378304349Y-165997949D01*
X378329107Y-166001208D01*
X378344994Y-166004368D01*
X378369108Y-166010830D01*
X378394072Y-166010830D01*
X378410256Y-166011891D01*
X378435004Y-166015149D01*
X378435006Y-166015149D01*
X378459751Y-166011891D01*
X378475938Y-166010830D01*
X382510500Y-166010830D01*
X382577539Y-166030515D01*
X382623294Y-166083319D01*
X382634500Y-166134830D01*
X382634500Y-169885830D01*
X382614815Y-169952869D01*
X382562011Y-169998624D01*
X382510500Y-170009830D01*
X378475938Y-170009830D01*
X378459751Y-170008769D01*
X378435006Y-170005511D01*
X378435004Y-170005511D01*
X378410256Y-170008769D01*
X378394072Y-170009830D01*
X378369106Y-170009830D01*
X378344994Y-170016290D01*
X378329098Y-170019451D01*
X378304356Y-170022709D01*
X378304348Y-170022711D01*
X378281284Y-170032264D01*
X378265933Y-170037475D01*
X378241812Y-170043938D01*
X378220190Y-170056421D01*
X378205648Y-170063591D01*
X378097814Y-170108257D01*
X378097790Y-170108265D01*
X378030946Y-170135952D01*
X378030947Y-170135953D01*
X377970460Y-170161007D01*
X377970449Y-170161013D01*
X377924994Y-170195894D01*
X377915713Y-170203016D01*
X377865909Y-170241231D01*
X377865905Y-170241235D01*
X377865901Y-170241239D01*
X377831192Y-170286472D01*
X377785683Y-170345781D01*
X377785680Y-170345787D01*
X377785677Y-170345792D01*
X377780752Y-170357681D01*
X377780751Y-170357683D01*
X377761768Y-170403514D01*
X377761768Y-170403515D01*
X377732932Y-170473131D01*
X377732928Y-170473140D01*
X377688261Y-170580978D01*
X377681091Y-170595520D01*
X377668608Y-170617142D01*
X377662145Y-170641263D01*
X377656934Y-170656614D01*
X377647381Y-170679678D01*
X377647379Y-170679686D01*
X377644121Y-170704428D01*
X377640960Y-170720324D01*
X377634500Y-170744436D01*
X377634500Y-170769402D01*
X377633439Y-170785586D01*
X377630182Y-170810332D01*
X377630181Y-170810336D01*
X377633439Y-170835078D01*
X377634500Y-170851266D01*
X377634500Y-191947591D01*
X377632047Y-191972131D01*
X377590478Y-192178020D01*
X377571745Y-192222800D01*
X377495049Y-192336555D01*
X377461554Y-192370050D01*
X377347797Y-192446747D01*
X377303018Y-192465480D01*
X377136218Y-192499155D01*
X377097125Y-192507048D01*
X377072587Y-192509500D01*
X350975958Y-192509500D01*
X350959771Y-192508439D01*
X350935026Y-192505181D01*
X350935024Y-192505181D01*
X350910276Y-192508439D01*
X350894092Y-192509500D01*
X350869126Y-192509500D01*
X350845014Y-192515960D01*
X350829118Y-192519121D01*
X350804376Y-192522379D01*
X350804368Y-192522381D01*
X350781304Y-192531934D01*
X350765953Y-192537145D01*
X350741832Y-192543608D01*
X350720210Y-192556091D01*
X350705668Y-192563261D01*
X350597834Y-192607927D01*
X350597810Y-192607935D01*
X350530966Y-192635622D01*
X350530967Y-192635623D01*
X350470480Y-192660677D01*
X350470469Y-192660683D01*
X350425014Y-192695564D01*
X350415733Y-192702686D01*
X350365929Y-192740901D01*
X350365925Y-192740905D01*
X350365921Y-192740909D01*
X350331212Y-192786142D01*
X350285703Y-192845451D01*
X350285700Y-192845457D01*
X350285697Y-192845462D01*
X350280772Y-192857351D01*
X350280772Y-192857352D01*
X350262902Y-192900495D01*
X350232957Y-192972786D01*
X350232947Y-192972814D01*
X350223417Y-192995822D01*
X350188281Y-193080649D01*
X350181111Y-193095190D01*
X350168628Y-193116812D01*
X350162165Y-193140933D01*
X350156954Y-193156284D01*
X350147401Y-193179348D01*
X350147399Y-193179356D01*
X350144141Y-193204098D01*
X350140980Y-193219994D01*
X350134520Y-193244106D01*
X350134520Y-193269072D01*
X350133459Y-193285256D01*
X350130202Y-193310002D01*
X350130201Y-193310006D01*
X350133459Y-193334748D01*
X350134520Y-193350936D01*
X350134520Y-197385500D01*
X350114835Y-197452539D01*
X350062031Y-197498294D01*
X350010520Y-197509500D01*
X346259520Y-197509500D01*
X346192481Y-197489815D01*
X346146726Y-197437011D01*
X346135520Y-197385500D01*
X346135520Y-193350936D01*
X346136581Y-193334748D01*
X346139839Y-193310006D01*
X346139838Y-193310002D01*
X346136581Y-193285256D01*
X346135520Y-193269072D01*
X346135520Y-193244110D01*
X346135519Y-193244107D01*
X346129058Y-193219994D01*
X346125898Y-193204107D01*
X346122639Y-193179349D01*
X346113083Y-193156281D01*
X346107874Y-193140933D01*
X346101412Y-193116814D01*
X346088932Y-193095198D01*
X346088931Y-193095196D01*
X346081757Y-193080649D01*
X346034770Y-192967209D01*
X346034770Y-192967204D01*
X346007138Y-192900496D01*
X345984343Y-192845462D01*
X345984339Y-192845457D01*
X345984337Y-192845451D01*
X345938827Y-192786142D01*
X345904428Y-192741312D01*
X345904130Y-192740919D01*
X345904116Y-192740905D01*
X345854306Y-192702685D01*
X345854304Y-192702684D01*
X345799565Y-192660679D01*
X345739072Y-192635623D01*
X345739072Y-192635622D01*
X345671324Y-192607560D01*
X345671290Y-192607548D01*
X345564359Y-192563257D01*
X345549826Y-192556090D01*
X345549389Y-192555838D01*
X345528206Y-192543608D01*
X345528203Y-192543607D01*
X345528202Y-192543606D01*
X345504087Y-192537145D01*
X345488729Y-192531932D01*
X345485926Y-192530771D01*
X345465671Y-192522381D01*
X345440923Y-192519122D01*
X345425024Y-192515960D01*
X345400914Y-192509500D01*
X345400912Y-192509500D01*
X345375948Y-192509500D01*
X345359764Y-192508439D01*
X345335016Y-192505181D01*
X345335014Y-192505181D01*
X345310269Y-192508439D01*
X345294082Y-192509500D01*
X265975958Y-192509500D01*
X265959771Y-192508439D01*
X265935026Y-192505181D01*
X265935024Y-192505181D01*
X265910276Y-192508439D01*
X265894092Y-192509500D01*
X265869126Y-192509500D01*
X265845014Y-192515960D01*
X265829118Y-192519121D01*
X265804376Y-192522379D01*
X265804368Y-192522381D01*
X265781304Y-192531934D01*
X265765953Y-192537145D01*
X265741832Y-192543608D01*
X265720210Y-192556091D01*
X265705668Y-192563261D01*
X265597834Y-192607927D01*
X265597810Y-192607935D01*
X265530966Y-192635622D01*
X265530967Y-192635623D01*
X265470480Y-192660677D01*
X265470469Y-192660683D01*
X265425014Y-192695564D01*
X265415733Y-192702686D01*
X265365929Y-192740901D01*
X265365925Y-192740905D01*
X265365921Y-192740909D01*
X265331212Y-192786142D01*
X265285703Y-192845451D01*
X265285700Y-192845457D01*
X265285697Y-192845462D01*
X265280772Y-192857351D01*
X265280772Y-192857352D01*
X265262902Y-192900495D01*
X265232957Y-192972786D01*
X265232947Y-192972814D01*
X265223417Y-192995822D01*
X265188281Y-193080649D01*
X265181111Y-193095190D01*
X265168628Y-193116812D01*
X265162165Y-193140933D01*
X265156954Y-193156284D01*
X265147401Y-193179348D01*
X265147399Y-193179356D01*
X265144141Y-193204098D01*
X265140980Y-193219994D01*
X265134520Y-193244106D01*
X265134520Y-193269072D01*
X265133459Y-193285256D01*
X265130202Y-193310002D01*
X265130201Y-193310006D01*
X265133459Y-193334748D01*
X265134520Y-193350936D01*
X265134520Y-197385500D01*
X265114835Y-197452539D01*
X265062031Y-197498294D01*
X265010520Y-197509500D01*
X261259520Y-197509500D01*
X261192481Y-197489815D01*
X261146726Y-197437011D01*
X261135520Y-197385500D01*
X261135520Y-193350936D01*
X261136581Y-193334748D01*
X261139839Y-193310006D01*
X261139838Y-193310002D01*
X261136581Y-193285256D01*
X261135520Y-193269072D01*
X261135520Y-193244110D01*
X261135519Y-193244107D01*
X261129058Y-193219994D01*
X261125898Y-193204107D01*
X261122639Y-193179349D01*
X261113083Y-193156281D01*
X261107874Y-193140933D01*
X261101412Y-193116814D01*
X261088932Y-193095198D01*
X261088931Y-193095196D01*
X261081757Y-193080649D01*
X261034770Y-192967209D01*
X261034770Y-192967204D01*
X261007138Y-192900496D01*
X260984343Y-192845462D01*
X260984339Y-192845457D01*
X260984337Y-192845451D01*
X260938827Y-192786142D01*
X260904428Y-192741312D01*
X260904130Y-192740919D01*
X260904116Y-192740905D01*
X260854306Y-192702685D01*
X260854304Y-192702684D01*
X260799565Y-192660679D01*
X260739072Y-192635623D01*
X260739072Y-192635622D01*
X260671324Y-192607560D01*
X260671290Y-192607548D01*
X260564359Y-192563257D01*
X260549826Y-192556090D01*
X260549389Y-192555838D01*
X260528206Y-192543608D01*
X260528203Y-192543607D01*
X260528202Y-192543606D01*
X260504087Y-192537145D01*
X260488729Y-192531932D01*
X260485926Y-192530771D01*
X260465671Y-192522381D01*
X260440923Y-192519122D01*
X260425024Y-192515960D01*
X260400914Y-192509500D01*
X260400912Y-192509500D01*
X260375948Y-192509500D01*
X260359764Y-192508439D01*
X260335016Y-192505181D01*
X260335014Y-192505181D01*
X260310269Y-192508439D01*
X260294082Y-192509500D01*
X159213948Y-192509500D01*
X159197761Y-192508439D01*
X159173016Y-192505181D01*
X159173014Y-192505181D01*
X159148266Y-192508439D01*
X159132082Y-192509500D01*
X159107116Y-192509500D01*
X159083004Y-192515960D01*
X159067108Y-192519121D01*
X159042366Y-192522379D01*
X159042358Y-192522381D01*
X159019294Y-192531934D01*
X159003943Y-192537145D01*
X158979822Y-192543608D01*
X158958200Y-192556091D01*
X158943658Y-192563261D01*
X158835824Y-192607927D01*
X158835800Y-192607935D01*
X158768956Y-192635622D01*
X158768957Y-192635623D01*
X158708470Y-192660677D01*
X158708459Y-192660683D01*
X158663004Y-192695564D01*
X158653723Y-192702686D01*
X158603919Y-192740901D01*
X158603915Y-192740905D01*
X158603911Y-192740909D01*
X158569202Y-192786142D01*
X158523693Y-192845451D01*
X158523690Y-192845457D01*
X158523687Y-192845462D01*
X158518762Y-192857351D01*
X158518762Y-192857352D01*
X158500892Y-192900495D01*
X158470947Y-192972786D01*
X158470937Y-192972814D01*
X158461407Y-192995822D01*
X158426271Y-193080649D01*
X158419101Y-193095190D01*
X158406618Y-193116812D01*
X158400155Y-193140933D01*
X158394944Y-193156284D01*
X158385391Y-193179348D01*
X158385389Y-193179356D01*
X158382131Y-193204098D01*
X158378970Y-193219994D01*
X158372510Y-193244106D01*
X158372510Y-193269072D01*
X158371449Y-193285256D01*
X158368192Y-193310002D01*
X158368191Y-193310006D01*
X158371449Y-193334748D01*
X158372510Y-193350936D01*
X158372510Y-197385500D01*
X158352825Y-197452539D01*
X158300021Y-197498294D01*
X158248510Y-197509500D01*
X154497510Y-197509500D01*
X154430471Y-197489815D01*
X154384716Y-197437011D01*
X154373510Y-197385500D01*
X154373510Y-193350936D01*
X154374571Y-193334748D01*
X154377829Y-193310006D01*
X154377828Y-193310002D01*
X154374571Y-193285256D01*
X154373510Y-193269072D01*
X154373510Y-193244110D01*
X154373509Y-193244107D01*
X154367048Y-193219994D01*
X154363888Y-193204107D01*
X154360629Y-193179349D01*
X154351073Y-193156281D01*
X154345864Y-193140933D01*
X154339402Y-193116814D01*
X154326922Y-193095198D01*
X154326921Y-193095196D01*
X154319747Y-193080649D01*
X154272760Y-192967209D01*
X154272760Y-192967204D01*
X154245128Y-192900496D01*
X154222333Y-192845462D01*
X154222329Y-192845457D01*
X154222327Y-192845451D01*
X154176817Y-192786142D01*
X154142418Y-192741312D01*
X154142120Y-192740919D01*
X154142106Y-192740905D01*
X154092296Y-192702685D01*
X154092294Y-192702684D01*
X154037555Y-192660679D01*
X153977062Y-192635623D01*
X153977062Y-192635622D01*
X153909314Y-192607560D01*
X153909280Y-192607548D01*
X153802349Y-192563257D01*
X153787816Y-192556090D01*
X153787379Y-192555838D01*
X153766196Y-192543608D01*
X153766193Y-192543607D01*
X153766192Y-192543606D01*
X153742077Y-192537145D01*
X153726719Y-192531932D01*
X153723916Y-192530771D01*
X153703661Y-192522381D01*
X153678913Y-192519122D01*
X153663014Y-192515960D01*
X153638904Y-192509500D01*
X153638902Y-192509500D01*
X153613938Y-192509500D01*
X153597754Y-192508439D01*
X153573006Y-192505181D01*
X153573004Y-192505181D01*
X153548259Y-192508439D01*
X153532072Y-192509500D01*
X74213935Y-192509500D01*
X74197749Y-192508439D01*
X74173004Y-192505181D01*
X74173002Y-192505181D01*
X74148255Y-192508439D01*
X74132070Y-192509500D01*
X74107107Y-192509500D01*
X74107105Y-192509500D01*
X74107100Y-192509501D01*
X74082992Y-192515960D01*
X74067094Y-192519122D01*
X74042352Y-192522380D01*
X74042346Y-192522382D01*
X74019280Y-192531935D01*
X74003929Y-192537145D01*
X73979816Y-192543606D01*
X73979809Y-192543609D01*
X73958193Y-192556089D01*
X73943648Y-192563261D01*
X73828179Y-192611089D01*
X73828173Y-192611091D01*
X73786698Y-192628270D01*
X73778987Y-192631465D01*
X73768949Y-192635623D01*
X73708460Y-192660678D01*
X73708456Y-192660680D01*
X73708456Y-192660681D01*
X73682092Y-192680911D01*
X73603912Y-192740899D01*
X73603902Y-192740909D01*
X73567754Y-192788020D01*
X73567752Y-192788022D01*
X73523681Y-192845453D01*
X73509644Y-192879345D01*
X73509643Y-192879348D01*
X73468576Y-192978490D01*
X73468575Y-192978493D01*
X73450402Y-193022367D01*
X73426257Y-193080657D01*
X73419091Y-193095190D01*
X73407696Y-193114928D01*
X73406606Y-193116816D01*
X73400145Y-193140926D01*
X73394935Y-193156275D01*
X73385382Y-193179340D01*
X73385381Y-193179344D01*
X73382122Y-193204096D01*
X73378958Y-193219998D01*
X73372500Y-193244100D01*
X73372499Y-193244109D01*
X73372499Y-193269069D01*
X73371438Y-193285254D01*
X73368180Y-193310000D01*
X73368180Y-193310001D01*
X73371438Y-193334746D01*
X73372499Y-193350933D01*
X73372499Y-197385500D01*
X73352814Y-197452539D01*
X73300010Y-197498294D01*
X73248499Y-197509500D01*
X69497500Y-197509500D01*
X69430461Y-197489815D01*
X69384706Y-197437011D01*
X69373500Y-197385500D01*
X69373500Y-193350933D01*
X69374561Y-193334746D01*
X69377819Y-193310001D01*
X69377819Y-193310000D01*
X69374561Y-193285254D01*
X69373500Y-193269069D01*
X69373500Y-193244109D01*
X69373500Y-193244108D01*
X69367039Y-193219996D01*
X69363875Y-193204094D01*
X69360618Y-193179345D01*
X69351062Y-193156275D01*
X69345853Y-193140928D01*
X69339392Y-193116814D01*
X69326910Y-193095196D01*
X69319737Y-193080649D01*
X69223861Y-192849180D01*
X69222435Y-192845391D01*
X69220066Y-192842086D01*
X69220056Y-192842071D01*
X69217374Y-192839013D01*
X69185577Y-192797575D01*
X69178246Y-192788021D01*
X69142094Y-192740906D01*
X69142091Y-192740904D01*
X69142090Y-192740902D01*
X69063907Y-192680911D01*
X69037543Y-192660681D01*
X69037540Y-192660680D01*
X69037538Y-192660678D01*
X68931038Y-192616565D01*
X68931035Y-192616563D01*
X68931033Y-192616562D01*
X68931033Y-192616563D01*
X68917853Y-192611103D01*
X68917821Y-192611090D01*
X68873688Y-192592810D01*
X68802343Y-192563258D01*
X68787802Y-192556088D01*
X68766186Y-192543608D01*
X68766183Y-192543607D01*
X68742075Y-192537147D01*
X68726720Y-192531935D01*
X68703654Y-192522381D01*
X68678901Y-192519122D01*
X68663000Y-192515959D01*
X68638893Y-192509500D01*
X68638892Y-192509500D01*
X68613930Y-192509500D01*
X68597746Y-192508439D01*
X68572998Y-192505181D01*
X68572995Y-192505181D01*
X68548250Y-192508439D01*
X68532064Y-192509500D01*
X42435410Y-192509500D01*
X42410871Y-192507048D01*
X42204978Y-192465480D01*
X42160198Y-192446747D01*
X42046443Y-192370052D01*
X42012947Y-192336556D01*
X42012946Y-192336555D01*
X41936251Y-192222800D01*
X41917518Y-192178020D01*
X41875951Y-191972126D01*
X41873499Y-191947587D01*
X41873499Y-188074108D01*
X45092499Y-188074108D01*
X45092499Y-191505891D01*
X45126607Y-191633187D01*
X45159553Y-191690250D01*
X45192499Y-191747314D01*
X45285685Y-191840500D01*
X45399813Y-191906392D01*
X45527107Y-191940500D01*
X45527109Y-191940500D01*
X49358889Y-191940500D01*
X49358891Y-191940500D01*
X49486185Y-191906392D01*
X49600313Y-191840500D01*
X49693499Y-191747314D01*
X49759391Y-191633186D01*
X49793499Y-191505892D01*
X49793499Y-188074108D01*
X70092499Y-188074108D01*
X70092499Y-191505891D01*
X70126607Y-191633187D01*
X70159553Y-191690250D01*
X70192499Y-191747314D01*
X70285685Y-191840500D01*
X70399813Y-191906392D01*
X70527107Y-191940500D01*
X70527109Y-191940500D01*
X74358889Y-191940500D01*
X74358891Y-191940500D01*
X74486185Y-191906392D01*
X74600313Y-191840500D01*
X74693499Y-191747314D01*
X74759391Y-191633186D01*
X74793499Y-191505892D01*
X74793499Y-188074108D01*
X95092499Y-188074108D01*
X95092499Y-191505891D01*
X95126607Y-191633187D01*
X95159553Y-191690250D01*
X95192499Y-191747314D01*
X95285685Y-191840500D01*
X95399813Y-191906392D01*
X95527107Y-191940500D01*
X95527109Y-191940500D01*
X99358889Y-191940500D01*
X99358891Y-191940500D01*
X99486185Y-191906392D01*
X99600313Y-191840500D01*
X99693499Y-191747314D01*
X99759391Y-191633186D01*
X99793499Y-191505892D01*
X99793499Y-188074108D01*
X120092500Y-188074108D01*
X120092500Y-191505891D01*
X120126608Y-191633187D01*
X120159554Y-191690250D01*
X120192500Y-191747314D01*
X120285686Y-191840500D01*
X120399814Y-191906392D01*
X120527108Y-191940500D01*
X120527110Y-191940500D01*
X124358890Y-191940500D01*
X124358892Y-191940500D01*
X124486186Y-191906392D01*
X124600314Y-191840500D01*
X124693500Y-191747314D01*
X124759392Y-191633186D01*
X124793500Y-191505892D01*
X124793500Y-188074108D01*
X145092500Y-188074108D01*
X145092500Y-191505891D01*
X145126608Y-191633187D01*
X145159554Y-191690250D01*
X145192500Y-191747314D01*
X145285686Y-191840500D01*
X145399814Y-191906392D01*
X145527108Y-191940500D01*
X145527110Y-191940500D01*
X149358890Y-191940500D01*
X149358892Y-191940500D01*
X149486186Y-191906392D01*
X149600314Y-191840500D01*
X149693500Y-191747314D01*
X149759392Y-191633186D01*
X149793500Y-191505892D01*
X149793500Y-188074108D01*
X170092500Y-188074108D01*
X170092500Y-191505891D01*
X170126608Y-191633187D01*
X170159554Y-191690250D01*
X170192500Y-191747314D01*
X170285686Y-191840500D01*
X170399814Y-191906392D01*
X170527108Y-191940500D01*
X170527110Y-191940500D01*
X174358890Y-191940500D01*
X174358892Y-191940500D01*
X174486186Y-191906392D01*
X174600314Y-191840500D01*
X174693500Y-191747314D01*
X174759392Y-191633186D01*
X174793500Y-191505892D01*
X174793500Y-188074108D01*
X195092500Y-188074108D01*
X195092500Y-191505891D01*
X195126608Y-191633187D01*
X195159554Y-191690250D01*
X195192500Y-191747314D01*
X195285686Y-191840500D01*
X195399814Y-191906392D01*
X195527108Y-191940500D01*
X195527110Y-191940500D01*
X199358890Y-191940500D01*
X199358892Y-191940500D01*
X199486186Y-191906392D01*
X199600314Y-191840500D01*
X199693500Y-191747314D01*
X199759392Y-191633186D01*
X199793500Y-191505892D01*
X199793500Y-188074108D01*
X220092500Y-188074108D01*
X220092500Y-191505891D01*
X220126608Y-191633187D01*
X220159554Y-191690250D01*
X220192500Y-191747314D01*
X220285686Y-191840500D01*
X220399814Y-191906392D01*
X220527108Y-191940500D01*
X220527110Y-191940500D01*
X224358890Y-191940500D01*
X224358892Y-191940500D01*
X224486186Y-191906392D01*
X224600314Y-191840500D01*
X224693500Y-191747314D01*
X224759392Y-191633186D01*
X224793500Y-191505892D01*
X224793500Y-188074108D01*
X245092500Y-188074108D01*
X245092500Y-191505891D01*
X245126608Y-191633187D01*
X245159554Y-191690250D01*
X245192500Y-191747314D01*
X245285686Y-191840500D01*
X245399814Y-191906392D01*
X245527108Y-191940500D01*
X245527110Y-191940500D01*
X249358890Y-191940500D01*
X249358892Y-191940500D01*
X249486186Y-191906392D01*
X249600314Y-191840500D01*
X249693500Y-191747314D01*
X249759392Y-191633186D01*
X249793500Y-191505892D01*
X249793500Y-188074108D01*
X270092500Y-188074108D01*
X270092500Y-191505891D01*
X270126608Y-191633187D01*
X270159554Y-191690250D01*
X270192500Y-191747314D01*
X270285686Y-191840500D01*
X270399814Y-191906392D01*
X270527108Y-191940500D01*
X270527110Y-191940500D01*
X274358890Y-191940500D01*
X274358892Y-191940500D01*
X274486186Y-191906392D01*
X274600314Y-191840500D01*
X274693500Y-191747314D01*
X274759392Y-191633186D01*
X274793500Y-191505892D01*
X274793500Y-188074108D01*
X274759392Y-187946814D01*
X274693500Y-187832686D01*
X274600314Y-187739500D01*
X274543250Y-187706554D01*
X274486187Y-187673608D01*
X274422539Y-187656554D01*
X274358892Y-187639500D01*
X270658892Y-187639500D01*
X270527108Y-187639500D01*
X270399812Y-187673608D01*
X270285686Y-187739500D01*
X270285683Y-187739502D01*
X270192502Y-187832683D01*
X270192500Y-187832686D01*
X270126608Y-187946812D01*
X270092500Y-188074108D01*
X249793500Y-188074108D01*
X249759392Y-187946814D01*
X249693500Y-187832686D01*
X249600314Y-187739500D01*
X249543250Y-187706554D01*
X249486187Y-187673608D01*
X249422539Y-187656554D01*
X249358892Y-187639500D01*
X245658892Y-187639500D01*
X245527108Y-187639500D01*
X245399812Y-187673608D01*
X245285686Y-187739500D01*
X245285683Y-187739502D01*
X245192502Y-187832683D01*
X245192500Y-187832686D01*
X245126608Y-187946812D01*
X245092500Y-188074108D01*
X224793500Y-188074108D01*
X224759392Y-187946814D01*
X224693500Y-187832686D01*
X224600314Y-187739500D01*
X224543250Y-187706554D01*
X224486187Y-187673608D01*
X224422539Y-187656554D01*
X224358892Y-187639500D01*
X220658892Y-187639500D01*
X220527108Y-187639500D01*
X220399812Y-187673608D01*
X220285686Y-187739500D01*
X220285683Y-187739502D01*
X220192502Y-187832683D01*
X220192500Y-187832686D01*
X220126608Y-187946812D01*
X220092500Y-188074108D01*
X199793500Y-188074108D01*
X199759392Y-187946814D01*
X199693500Y-187832686D01*
X199600314Y-187739500D01*
X199543250Y-187706554D01*
X199486187Y-187673608D01*
X199422539Y-187656554D01*
X199358892Y-187639500D01*
X195658892Y-187639500D01*
X195527108Y-187639500D01*
X195399812Y-187673608D01*
X195285686Y-187739500D01*
X195285683Y-187739502D01*
X195192502Y-187832683D01*
X195192500Y-187832686D01*
X195126608Y-187946812D01*
X195092500Y-188074108D01*
X174793500Y-188074108D01*
X174759392Y-187946814D01*
X174693500Y-187832686D01*
X174600314Y-187739500D01*
X174543250Y-187706554D01*
X174486187Y-187673608D01*
X174422539Y-187656554D01*
X174358892Y-187639500D01*
X170658892Y-187639500D01*
X170527108Y-187639500D01*
X170399812Y-187673608D01*
X170285686Y-187739500D01*
X170285683Y-187739502D01*
X170192502Y-187832683D01*
X170192500Y-187832686D01*
X170126608Y-187946812D01*
X170092500Y-188074108D01*
X149793500Y-188074108D01*
X149759392Y-187946814D01*
X149693500Y-187832686D01*
X149600314Y-187739500D01*
X149543250Y-187706554D01*
X149486187Y-187673608D01*
X149422539Y-187656554D01*
X149358892Y-187639500D01*
X145658892Y-187639500D01*
X145527108Y-187639500D01*
X145399812Y-187673608D01*
X145285686Y-187739500D01*
X145285683Y-187739502D01*
X145192502Y-187832683D01*
X145192500Y-187832686D01*
X145126608Y-187946812D01*
X145092500Y-188074108D01*
X124793500Y-188074108D01*
X124759392Y-187946814D01*
X124693500Y-187832686D01*
X124600314Y-187739500D01*
X124543250Y-187706554D01*
X124486187Y-187673608D01*
X124422539Y-187656554D01*
X124358892Y-187639500D01*
X120658892Y-187639500D01*
X120527108Y-187639500D01*
X120399812Y-187673608D01*
X120285686Y-187739500D01*
X120285683Y-187739502D01*
X120192502Y-187832683D01*
X120192500Y-187832686D01*
X120126608Y-187946812D01*
X120092500Y-188074108D01*
X99793499Y-188074108D01*
X99759391Y-187946814D01*
X99693499Y-187832686D01*
X99600313Y-187739500D01*
X99543249Y-187706554D01*
X99486186Y-187673608D01*
X99422538Y-187656554D01*
X99358891Y-187639500D01*
X95658891Y-187639500D01*
X95527107Y-187639500D01*
X95399811Y-187673608D01*
X95285685Y-187739500D01*
X95285682Y-187739502D01*
X95192501Y-187832683D01*
X95192499Y-187832686D01*
X95126607Y-187946812D01*
X95092499Y-188074108D01*
X74793499Y-188074108D01*
X74759391Y-187946814D01*
X74693499Y-187832686D01*
X74600313Y-187739500D01*
X74543249Y-187706554D01*
X74486186Y-187673608D01*
X74422538Y-187656554D01*
X74358891Y-187639500D01*
X70658891Y-187639500D01*
X70527107Y-187639500D01*
X70399811Y-187673608D01*
X70285685Y-187739500D01*
X70285682Y-187739502D01*
X70192501Y-187832683D01*
X70192499Y-187832686D01*
X70126607Y-187946812D01*
X70092499Y-188074108D01*
X49793499Y-188074108D01*
X49759391Y-187946814D01*
X49693499Y-187832686D01*
X49600313Y-187739500D01*
X49543249Y-187706554D01*
X49486186Y-187673608D01*
X49422538Y-187656554D01*
X49358891Y-187639500D01*
X45658891Y-187639500D01*
X45527107Y-187639500D01*
X45399811Y-187673608D01*
X45285685Y-187739500D01*
X45285682Y-187739502D01*
X45192501Y-187832683D01*
X45192499Y-187832686D01*
X45126607Y-187946812D01*
X45092499Y-188074108D01*
X41873499Y-188074108D01*
X41873499Y-170851263D01*
X41874560Y-170835076D01*
X41877818Y-170810331D01*
X41877818Y-170810330D01*
X41874560Y-170785584D01*
X41873499Y-170769399D01*
X41873499Y-170744439D01*
X41873499Y-170744438D01*
X41867038Y-170720326D01*
X41863874Y-170704424D01*
X41860617Y-170679675D01*
X41851061Y-170656606D01*
X41845851Y-170641255D01*
X41839391Y-170617145D01*
X41839391Y-170617144D01*
X41826909Y-170595526D01*
X41819736Y-170580979D01*
X41723864Y-170349518D01*
X41722435Y-170345723D01*
X41720053Y-170342398D01*
X41717377Y-170339347D01*
X41680901Y-170291811D01*
X41680898Y-170291808D01*
X41649313Y-170250645D01*
X41647606Y-170247918D01*
X41643501Y-170242943D01*
X41641895Y-170240925D01*
X41638827Y-170238729D01*
X41587031Y-170198985D01*
X41537542Y-170161011D01*
X41537539Y-170161010D01*
X41537537Y-170161008D01*
X41446253Y-170123197D01*
X41415789Y-170110579D01*
X41415787Y-170110578D01*
X41302342Y-170063588D01*
X41287801Y-170056418D01*
X41266185Y-170043938D01*
X41266182Y-170043937D01*
X41242074Y-170037477D01*
X41226719Y-170032265D01*
X41203653Y-170022711D01*
X41178900Y-170019452D01*
X41162999Y-170016289D01*
X41138892Y-170009830D01*
X41138891Y-170009830D01*
X41113929Y-170009830D01*
X41097745Y-170008769D01*
X41072997Y-170005511D01*
X41072994Y-170005511D01*
X41048249Y-170008769D01*
X41032063Y-170009830D01*
X36997499Y-170009830D01*
X36930460Y-169990145D01*
X36925229Y-169984108D01*
X47467499Y-169984108D01*
X47467499Y-184115891D01*
X47501607Y-184243187D01*
X47534553Y-184300250D01*
X47567499Y-184357314D01*
X47660685Y-184450500D01*
X47774813Y-184516392D01*
X47902107Y-184550500D01*
X47902109Y-184550500D01*
X62033889Y-184550500D01*
X62033891Y-184550500D01*
X62161185Y-184516392D01*
X62275313Y-184450500D01*
X62368499Y-184357314D01*
X62434391Y-184243186D01*
X62468499Y-184115892D01*
X62468499Y-169984108D01*
X71280499Y-169984108D01*
X71280499Y-184115891D01*
X71314607Y-184243187D01*
X71347553Y-184300250D01*
X71380499Y-184357314D01*
X71473685Y-184450500D01*
X71587813Y-184516392D01*
X71715107Y-184550500D01*
X71715109Y-184550500D01*
X85846889Y-184550500D01*
X85846891Y-184550500D01*
X85974185Y-184516392D01*
X86088313Y-184450500D01*
X86181499Y-184357314D01*
X86247391Y-184243186D01*
X86281499Y-184115892D01*
X86281499Y-169984108D01*
X95092499Y-169984108D01*
X95092499Y-184115891D01*
X95126607Y-184243187D01*
X95159553Y-184300250D01*
X95192499Y-184357314D01*
X95285685Y-184450500D01*
X95399813Y-184516392D01*
X95527107Y-184550500D01*
X95527109Y-184550500D01*
X109658890Y-184550500D01*
X109658892Y-184550500D01*
X109786186Y-184516392D01*
X109900314Y-184450500D01*
X109993500Y-184357314D01*
X110059392Y-184243186D01*
X110093500Y-184115892D01*
X110093500Y-169984108D01*
X110059392Y-169856814D01*
X109993500Y-169742686D01*
X109900314Y-169649500D01*
X109843250Y-169616554D01*
X109786187Y-169583608D01*
X109722539Y-169566554D01*
X109658892Y-169549500D01*
X95658891Y-169549500D01*
X95527107Y-169549500D01*
X95399811Y-169583608D01*
X95285685Y-169649500D01*
X95285682Y-169649502D01*
X95192501Y-169742683D01*
X95192499Y-169742686D01*
X95126607Y-169856812D01*
X95092499Y-169984108D01*
X86281499Y-169984108D01*
X86247391Y-169856814D01*
X86181499Y-169742686D01*
X86088313Y-169649500D01*
X86031249Y-169616554D01*
X85974186Y-169583608D01*
X85910538Y-169566554D01*
X85846891Y-169549500D01*
X71846891Y-169549500D01*
X71715107Y-169549500D01*
X71587811Y-169583608D01*
X71473685Y-169649500D01*
X71473682Y-169649502D01*
X71380501Y-169742683D01*
X71380499Y-169742686D01*
X71314607Y-169856812D01*
X71280499Y-169984108D01*
X62468499Y-169984108D01*
X62434391Y-169856814D01*
X62368499Y-169742686D01*
X62275313Y-169649500D01*
X62218249Y-169616554D01*
X62161186Y-169583608D01*
X62097538Y-169566554D01*
X62033891Y-169549500D01*
X48033891Y-169549500D01*
X47902107Y-169549500D01*
X47774811Y-169583608D01*
X47660685Y-169649500D01*
X47660682Y-169649502D01*
X47567501Y-169742683D01*
X47567499Y-169742686D01*
X47501607Y-169856812D01*
X47467499Y-169984108D01*
X36925229Y-169984108D01*
X36884705Y-169937341D01*
X36873499Y-169885830D01*
X36873499Y-167984108D01*
X119992500Y-167984108D01*
X119992500Y-183115891D01*
X120026608Y-183243187D01*
X120059554Y-183300250D01*
X120092500Y-183357314D01*
X120185686Y-183450500D01*
X120299814Y-183516392D01*
X120427108Y-183550500D01*
X120427110Y-183550500D01*
X127558890Y-183550500D01*
X127558892Y-183550500D01*
X127686186Y-183516392D01*
X127800314Y-183450500D01*
X127893500Y-183357314D01*
X127959392Y-183243186D01*
X127993500Y-183115892D01*
X127993500Y-169984108D01*
X128430500Y-169984108D01*
X128430500Y-184115891D01*
X128464608Y-184243187D01*
X128497554Y-184300250D01*
X128530500Y-184357314D01*
X128623686Y-184450500D01*
X128737814Y-184516392D01*
X128865108Y-184550500D01*
X128865110Y-184550500D01*
X142996890Y-184550500D01*
X142996892Y-184550500D01*
X143124186Y-184516392D01*
X143238314Y-184450500D01*
X143331500Y-184357314D01*
X143397392Y-184243186D01*
X143431500Y-184115892D01*
X143431500Y-169984108D01*
X143397392Y-169856814D01*
X143331500Y-169742686D01*
X143238314Y-169649500D01*
X143181250Y-169616554D01*
X143124187Y-169583608D01*
X143060539Y-169566554D01*
X142996892Y-169549500D01*
X128996892Y-169549500D01*
X128865108Y-169549500D01*
X128737812Y-169583608D01*
X128623686Y-169649500D01*
X128623683Y-169649502D01*
X128530502Y-169742683D01*
X128530500Y-169742686D01*
X128464608Y-169856812D01*
X128430500Y-169984108D01*
X127993500Y-169984108D01*
X127993500Y-167984108D01*
X143868500Y-167984108D01*
X143868500Y-183115891D01*
X143902608Y-183243187D01*
X143935554Y-183300250D01*
X143968500Y-183357314D01*
X144061686Y-183450500D01*
X144175814Y-183516392D01*
X144303108Y-183550500D01*
X144303110Y-183550500D01*
X151434890Y-183550500D01*
X151434892Y-183550500D01*
X151562186Y-183516392D01*
X151676314Y-183450500D01*
X151769500Y-183357314D01*
X151835392Y-183243186D01*
X151869500Y-183115892D01*
X151869500Y-169984108D01*
X161767500Y-169984108D01*
X161767500Y-184115891D01*
X161801608Y-184243187D01*
X161834554Y-184300250D01*
X161867500Y-184357314D01*
X161960686Y-184450500D01*
X162074814Y-184516392D01*
X162202108Y-184550500D01*
X162202110Y-184550500D01*
X176333890Y-184550500D01*
X176333892Y-184550500D01*
X176461186Y-184516392D01*
X176575314Y-184450500D01*
X176668500Y-184357314D01*
X176734392Y-184243186D01*
X176768500Y-184115892D01*
X176768500Y-169984108D01*
X176734392Y-169856814D01*
X176668500Y-169742686D01*
X176575314Y-169649500D01*
X176518250Y-169616554D01*
X176461187Y-169583608D01*
X176397539Y-169566554D01*
X176333892Y-169549500D01*
X162333892Y-169549500D01*
X162202108Y-169549500D01*
X162074812Y-169583608D01*
X161960686Y-169649500D01*
X161960683Y-169649502D01*
X161867502Y-169742683D01*
X161867500Y-169742686D01*
X161801608Y-169856812D01*
X161767500Y-169984108D01*
X151869500Y-169984108D01*
X151869500Y-167984108D01*
X191429500Y-167984108D01*
X191429500Y-183115891D01*
X191463608Y-183243187D01*
X191496554Y-183300250D01*
X191529500Y-183357314D01*
X191622686Y-183450500D01*
X191736814Y-183516392D01*
X191864108Y-183550500D01*
X191864110Y-183550500D01*
X198995890Y-183550500D01*
X198995892Y-183550500D01*
X199123186Y-183516392D01*
X199237314Y-183450500D01*
X199330500Y-183357314D01*
X199396392Y-183243186D01*
X199430500Y-183115892D01*
X199430500Y-169984108D01*
X199867500Y-169984108D01*
X199867500Y-184115891D01*
X199901608Y-184243187D01*
X199934554Y-184300250D01*
X199967500Y-184357314D01*
X200060686Y-184450500D01*
X200174814Y-184516392D01*
X200302108Y-184550500D01*
X200302110Y-184550500D01*
X214433890Y-184550500D01*
X214433892Y-184550500D01*
X214561186Y-184516392D01*
X214675314Y-184450500D01*
X214768500Y-184357314D01*
X214834392Y-184243186D01*
X214868500Y-184115892D01*
X214868500Y-169984108D01*
X214834392Y-169856814D01*
X214768500Y-169742686D01*
X214675314Y-169649500D01*
X214618250Y-169616554D01*
X214561187Y-169583608D01*
X214497539Y-169566554D01*
X214433892Y-169549500D01*
X200433892Y-169549500D01*
X200302108Y-169549500D01*
X200174812Y-169583608D01*
X200060686Y-169649500D01*
X200060683Y-169649502D01*
X199967502Y-169742683D01*
X199967500Y-169742686D01*
X199901608Y-169856812D01*
X199867500Y-169984108D01*
X199430500Y-169984108D01*
X199430500Y-167984108D01*
X215305500Y-167984108D01*
X215305500Y-183115891D01*
X215339608Y-183243187D01*
X215372554Y-183300250D01*
X215405500Y-183357314D01*
X215498686Y-183450500D01*
X215612814Y-183516392D01*
X215740108Y-183550500D01*
X215740110Y-183550500D01*
X222871890Y-183550500D01*
X222871892Y-183550500D01*
X222999186Y-183516392D01*
X223113314Y-183450500D01*
X223206500Y-183357314D01*
X223272392Y-183243186D01*
X223306500Y-183115892D01*
X223306500Y-169984108D01*
X237967500Y-169984108D01*
X237967500Y-184115891D01*
X238001608Y-184243187D01*
X238034554Y-184300250D01*
X238067500Y-184357314D01*
X238160686Y-184450500D01*
X238274814Y-184516392D01*
X238402108Y-184550500D01*
X238402110Y-184550500D01*
X252533890Y-184550500D01*
X252533892Y-184550500D01*
X252661186Y-184516392D01*
X252775314Y-184450500D01*
X252868500Y-184357314D01*
X252934392Y-184243186D01*
X252968500Y-184115892D01*
X252968500Y-169984108D01*
X261780500Y-169984108D01*
X261780500Y-184115891D01*
X261814608Y-184243187D01*
X261847554Y-184300250D01*
X261880500Y-184357314D01*
X261973686Y-184450500D01*
X262087814Y-184516392D01*
X262215108Y-184550500D01*
X262215110Y-184550500D01*
X276346890Y-184550500D01*
X276346892Y-184550500D01*
X276474186Y-184516392D01*
X276588314Y-184450500D01*
X276681500Y-184357314D01*
X276747392Y-184243186D01*
X276781500Y-184115892D01*
X276781500Y-174746108D01*
X297499500Y-174746108D01*
X297499500Y-188877891D01*
X297533608Y-189005187D01*
X297566554Y-189062250D01*
X297599500Y-189119314D01*
X297692686Y-189212500D01*
X297806814Y-189278392D01*
X297934108Y-189312500D01*
X297934110Y-189312500D01*
X312065890Y-189312500D01*
X312065892Y-189312500D01*
X312193186Y-189278392D01*
X312307314Y-189212500D01*
X312400500Y-189119314D01*
X312466392Y-189005186D01*
X312500500Y-188877892D01*
X312500500Y-174746108D01*
X316549500Y-174746108D01*
X316549500Y-188877891D01*
X316583608Y-189005187D01*
X316616554Y-189062250D01*
X316649500Y-189119314D01*
X316742686Y-189212500D01*
X316856814Y-189278392D01*
X316984108Y-189312500D01*
X316984110Y-189312500D01*
X331115890Y-189312500D01*
X331115892Y-189312500D01*
X331243186Y-189278392D01*
X331357314Y-189212500D01*
X331450500Y-189119314D01*
X331516392Y-189005186D01*
X331550500Y-188877892D01*
X331550500Y-174746108D01*
X335599500Y-174746108D01*
X335599500Y-188877891D01*
X335633608Y-189005187D01*
X335666554Y-189062250D01*
X335699500Y-189119314D01*
X335792686Y-189212500D01*
X335906814Y-189278392D01*
X336034108Y-189312500D01*
X336034110Y-189312500D01*
X350165890Y-189312500D01*
X350165892Y-189312500D01*
X350293186Y-189278392D01*
X350407314Y-189212500D01*
X350500500Y-189119314D01*
X350566392Y-189005186D01*
X350600500Y-188877892D01*
X350600500Y-174746108D01*
X359411500Y-174746108D01*
X359411500Y-188877891D01*
X359445608Y-189005187D01*
X359478554Y-189062250D01*
X359511500Y-189119314D01*
X359604686Y-189212500D01*
X359718814Y-189278392D01*
X359846108Y-189312500D01*
X359846110Y-189312500D01*
X373977890Y-189312500D01*
X373977892Y-189312500D01*
X374105186Y-189278392D01*
X374219314Y-189212500D01*
X374312500Y-189119314D01*
X374378392Y-189005186D01*
X374412500Y-188877892D01*
X374412500Y-174746108D01*
X374378392Y-174618814D01*
X374312500Y-174504686D01*
X374219314Y-174411500D01*
X374162250Y-174378554D01*
X374105187Y-174345608D01*
X374041539Y-174328554D01*
X373977892Y-174311500D01*
X359977892Y-174311500D01*
X359846108Y-174311500D01*
X359718812Y-174345608D01*
X359604686Y-174411500D01*
X359604683Y-174411502D01*
X359511502Y-174504683D01*
X359511500Y-174504686D01*
X359445608Y-174618812D01*
X359411500Y-174746108D01*
X350600500Y-174746108D01*
X350566392Y-174618814D01*
X350500500Y-174504686D01*
X350407314Y-174411500D01*
X350350250Y-174378554D01*
X350293187Y-174345608D01*
X350229539Y-174328554D01*
X350165892Y-174311500D01*
X336165892Y-174311500D01*
X336034108Y-174311500D01*
X335906812Y-174345608D01*
X335792686Y-174411500D01*
X335792683Y-174411502D01*
X335699502Y-174504683D01*
X335699500Y-174504686D01*
X335633608Y-174618812D01*
X335599500Y-174746108D01*
X331550500Y-174746108D01*
X331516392Y-174618814D01*
X331450500Y-174504686D01*
X331357314Y-174411500D01*
X331300250Y-174378554D01*
X331243187Y-174345608D01*
X331179539Y-174328554D01*
X331115892Y-174311500D01*
X317115892Y-174311500D01*
X316984108Y-174311500D01*
X316856812Y-174345608D01*
X316742686Y-174411500D01*
X316742683Y-174411502D01*
X316649502Y-174504683D01*
X316649500Y-174504686D01*
X316583608Y-174618812D01*
X316549500Y-174746108D01*
X312500500Y-174746108D01*
X312466392Y-174618814D01*
X312400500Y-174504686D01*
X312307314Y-174411500D01*
X312250250Y-174378554D01*
X312193187Y-174345608D01*
X312129539Y-174328554D01*
X312065892Y-174311500D01*
X298065892Y-174311500D01*
X297934108Y-174311500D01*
X297806812Y-174345608D01*
X297692686Y-174411500D01*
X297692683Y-174411502D01*
X297599502Y-174504683D01*
X297599500Y-174504686D01*
X297533608Y-174618812D01*
X297499500Y-174746108D01*
X276781500Y-174746108D01*
X276781500Y-169984108D01*
X276747392Y-169856814D01*
X276681500Y-169742686D01*
X276588314Y-169649500D01*
X276531250Y-169616554D01*
X276474187Y-169583608D01*
X276410539Y-169566554D01*
X276346892Y-169549500D01*
X262346892Y-169549500D01*
X262215108Y-169549500D01*
X262087812Y-169583608D01*
X261973686Y-169649500D01*
X261973683Y-169649502D01*
X261880502Y-169742683D01*
X261880500Y-169742686D01*
X261814608Y-169856812D01*
X261780500Y-169984108D01*
X252968500Y-169984108D01*
X252934392Y-169856814D01*
X252868500Y-169742686D01*
X252775314Y-169649500D01*
X252718250Y-169616554D01*
X252661187Y-169583608D01*
X252597539Y-169566554D01*
X252533892Y-169549500D01*
X238533892Y-169549500D01*
X238402108Y-169549500D01*
X238274812Y-169583608D01*
X238160686Y-169649500D01*
X238160683Y-169649502D01*
X238067502Y-169742683D01*
X238067500Y-169742686D01*
X238001608Y-169856812D01*
X237967500Y-169984108D01*
X223306500Y-169984108D01*
X223306500Y-167984108D01*
X223272392Y-167856814D01*
X223206500Y-167742686D01*
X223113314Y-167649500D01*
X223056250Y-167616554D01*
X222999187Y-167583608D01*
X222935539Y-167566554D01*
X222871892Y-167549500D01*
X215871892Y-167549500D01*
X215740108Y-167549500D01*
X215612812Y-167583608D01*
X215498686Y-167649500D01*
X215498683Y-167649502D01*
X215405502Y-167742683D01*
X215405500Y-167742686D01*
X215339608Y-167856812D01*
X215305500Y-167984108D01*
X199430500Y-167984108D01*
X199396392Y-167856814D01*
X199330500Y-167742686D01*
X199237314Y-167649500D01*
X199180250Y-167616554D01*
X199123187Y-167583608D01*
X199059539Y-167566554D01*
X198995892Y-167549500D01*
X191995892Y-167549500D01*
X191864108Y-167549500D01*
X191736812Y-167583608D01*
X191622686Y-167649500D01*
X191622683Y-167649502D01*
X191529502Y-167742683D01*
X191529500Y-167742686D01*
X191463608Y-167856812D01*
X191429500Y-167984108D01*
X151869500Y-167984108D01*
X151835392Y-167856814D01*
X151769500Y-167742686D01*
X151676314Y-167649500D01*
X151619250Y-167616554D01*
X151562187Y-167583608D01*
X151498539Y-167566554D01*
X151434892Y-167549500D01*
X144434892Y-167549500D01*
X144303108Y-167549500D01*
X144175812Y-167583608D01*
X144061686Y-167649500D01*
X144061683Y-167649502D01*
X143968502Y-167742683D01*
X143968500Y-167742686D01*
X143902608Y-167856812D01*
X143868500Y-167984108D01*
X127993500Y-167984108D01*
X127959392Y-167856814D01*
X127893500Y-167742686D01*
X127800314Y-167649500D01*
X127743250Y-167616554D01*
X127686187Y-167583608D01*
X127622539Y-167566554D01*
X127558892Y-167549500D01*
X120558892Y-167549500D01*
X120427108Y-167549500D01*
X120299812Y-167583608D01*
X120185686Y-167649500D01*
X120185683Y-167649502D01*
X120092502Y-167742683D01*
X120092500Y-167742686D01*
X120026608Y-167856812D01*
X119992500Y-167984108D01*
X36873499Y-167984108D01*
X36873499Y-166134830D01*
X36893184Y-166067791D01*
X36945988Y-166022036D01*
X36997499Y-166010830D01*
X41032063Y-166010830D01*
X41048249Y-166011891D01*
X41072994Y-166015149D01*
X41072995Y-166015149D01*
X41072997Y-166015149D01*
X41097745Y-166011891D01*
X41113929Y-166010830D01*
X41138889Y-166010830D01*
X41138891Y-166010830D01*
X41163001Y-166004369D01*
X41178898Y-166001207D01*
X41203652Y-165997949D01*
X41226713Y-165988396D01*
X41242071Y-165983182D01*
X41266185Y-165976722D01*
X41287805Y-165964238D01*
X41302336Y-165957072D01*
X41415787Y-165910081D01*
X41415789Y-165910081D01*
X41446253Y-165897462D01*
X41533843Y-165861181D01*
X41537306Y-165859878D01*
X41539145Y-165858419D01*
X41601809Y-165810335D01*
X41601808Y-165810335D01*
X41601813Y-165810332D01*
X41640419Y-165780708D01*
X41642118Y-165779452D01*
X41643381Y-165777744D01*
X41700339Y-165703516D01*
X41721116Y-165676439D01*
X41722548Y-165674635D01*
X41723863Y-165671142D01*
X41748844Y-165610831D01*
X41819736Y-165439676D01*
X41826902Y-165425146D01*
X41839391Y-165403516D01*
X41845850Y-165379407D01*
X41851064Y-165364047D01*
X41851067Y-165364039D01*
X41860617Y-165340985D01*
X41863875Y-165316231D01*
X41867041Y-165300320D01*
X41870752Y-165286472D01*
X41873499Y-165276222D01*
X41873499Y-165251256D01*
X41874560Y-165235074D01*
X41877818Y-165210328D01*
X41877817Y-165210324D01*
X41874560Y-165185581D01*
X41873499Y-165169395D01*
X41873499Y-151934108D01*
X48554499Y-151934108D01*
X48554499Y-167065891D01*
X48588607Y-167193187D01*
X48621553Y-167250250D01*
X48654499Y-167307314D01*
X48747685Y-167400500D01*
X48861813Y-167466392D01*
X48989107Y-167500500D01*
X48989109Y-167500500D01*
X56120889Y-167500500D01*
X56120891Y-167500500D01*
X56248185Y-167466392D01*
X56362313Y-167400500D01*
X56455499Y-167307314D01*
X56521391Y-167193186D01*
X56555499Y-167065892D01*
X56555499Y-151934108D01*
X56521391Y-151806814D01*
X56455499Y-151692686D01*
X56362313Y-151599500D01*
X56305249Y-151566554D01*
X56248186Y-151533608D01*
X56184538Y-151516554D01*
X56120891Y-151499500D01*
X49120891Y-151499500D01*
X48989107Y-151499500D01*
X48861811Y-151533608D01*
X48747685Y-151599500D01*
X48747682Y-151599502D01*
X48654501Y-151692683D01*
X48654499Y-151692686D01*
X48588607Y-151806812D01*
X48554499Y-151934108D01*
X41873499Y-151934108D01*
X41873499Y-150934108D01*
X56992499Y-150934108D01*
X56992499Y-164934108D01*
X56992499Y-165065892D01*
X57004473Y-165110579D01*
X57026607Y-165193187D01*
X57059553Y-165250250D01*
X57092499Y-165307314D01*
X57185685Y-165400500D01*
X57299813Y-165466392D01*
X57427107Y-165500500D01*
X57427109Y-165500500D01*
X71558889Y-165500500D01*
X71558891Y-165500500D01*
X71686185Y-165466392D01*
X71800313Y-165400500D01*
X71893499Y-165307314D01*
X71959391Y-165193186D01*
X71993499Y-165065892D01*
X71993499Y-151934108D01*
X72430499Y-151934108D01*
X72430499Y-167065891D01*
X72464607Y-167193187D01*
X72497553Y-167250250D01*
X72530499Y-167307314D01*
X72623685Y-167400500D01*
X72737813Y-167466392D01*
X72865107Y-167500500D01*
X72865109Y-167500500D01*
X79996889Y-167500500D01*
X79996891Y-167500500D01*
X80124185Y-167466392D01*
X80238313Y-167400500D01*
X80331499Y-167307314D01*
X80397391Y-167193186D01*
X80431499Y-167065892D01*
X80431499Y-151934108D01*
X80397391Y-151806814D01*
X80331499Y-151692686D01*
X80238313Y-151599500D01*
X80181249Y-151566554D01*
X80124186Y-151533608D01*
X80060538Y-151516554D01*
X79996891Y-151499500D01*
X72996891Y-151499500D01*
X72865107Y-151499500D01*
X72737811Y-151533608D01*
X72623685Y-151599500D01*
X72623682Y-151599502D01*
X72530501Y-151692683D01*
X72530499Y-151692686D01*
X72464607Y-151806812D01*
X72430499Y-151934108D01*
X71993499Y-151934108D01*
X71993499Y-150934108D01*
X87949499Y-150934108D01*
X87949499Y-164934108D01*
X87949499Y-165065892D01*
X87961473Y-165110579D01*
X87983607Y-165193187D01*
X88016553Y-165250250D01*
X88049499Y-165307314D01*
X88142685Y-165400500D01*
X88256813Y-165466392D01*
X88384107Y-165500500D01*
X88384109Y-165500500D01*
X102515890Y-165500500D01*
X102515892Y-165500500D01*
X102643186Y-165466392D01*
X102757314Y-165400500D01*
X102850500Y-165307314D01*
X102916392Y-165193186D01*
X102950500Y-165065892D01*
X102950500Y-150934108D01*
X106999500Y-150934108D01*
X106999500Y-164934108D01*
X106999500Y-165065892D01*
X107011474Y-165110579D01*
X107033608Y-165193187D01*
X107066554Y-165250250D01*
X107099500Y-165307314D01*
X107192686Y-165400500D01*
X107306814Y-165466392D01*
X107434108Y-165500500D01*
X107434110Y-165500500D01*
X121565890Y-165500500D01*
X121565892Y-165500500D01*
X121693186Y-165466392D01*
X121807314Y-165400500D01*
X121900500Y-165307314D01*
X121966392Y-165193186D01*
X122000500Y-165065892D01*
X122000500Y-150934108D01*
X126049500Y-150934108D01*
X126049500Y-164934108D01*
X126049500Y-165065892D01*
X126061474Y-165110579D01*
X126083608Y-165193187D01*
X126116554Y-165250250D01*
X126149500Y-165307314D01*
X126242686Y-165400500D01*
X126356814Y-165466392D01*
X126484108Y-165500500D01*
X126484110Y-165500500D01*
X140615890Y-165500500D01*
X140615892Y-165500500D01*
X140743186Y-165466392D01*
X140857314Y-165400500D01*
X140950500Y-165307314D01*
X141016392Y-165193186D01*
X141050500Y-165065892D01*
X141050500Y-150934108D01*
X145099500Y-150934108D01*
X145099500Y-164934108D01*
X145099500Y-165065892D01*
X145111474Y-165110579D01*
X145133608Y-165193187D01*
X145166554Y-165250250D01*
X145199500Y-165307314D01*
X145292686Y-165400500D01*
X145406814Y-165466392D01*
X145534108Y-165500500D01*
X145534110Y-165500500D01*
X159665890Y-165500500D01*
X159665892Y-165500500D01*
X159793186Y-165466392D01*
X159907314Y-165400500D01*
X160000500Y-165307314D01*
X160066392Y-165193186D01*
X160100500Y-165065892D01*
X160100500Y-150934108D01*
X164149500Y-150934108D01*
X164149500Y-164934108D01*
X164149500Y-165065892D01*
X164161474Y-165110579D01*
X164183608Y-165193187D01*
X164216554Y-165250250D01*
X164249500Y-165307314D01*
X164342686Y-165400500D01*
X164456814Y-165466392D01*
X164584108Y-165500500D01*
X164584110Y-165500500D01*
X178715890Y-165500500D01*
X178715892Y-165500500D01*
X178843186Y-165466392D01*
X178957314Y-165400500D01*
X179050500Y-165307314D01*
X179116392Y-165193186D01*
X179150500Y-165065892D01*
X179150500Y-150934108D01*
X183199500Y-150934108D01*
X183199500Y-164934108D01*
X183199500Y-165065892D01*
X183211474Y-165110579D01*
X183233608Y-165193187D01*
X183266554Y-165250250D01*
X183299500Y-165307314D01*
X183392686Y-165400500D01*
X183506814Y-165466392D01*
X183634108Y-165500500D01*
X183634110Y-165500500D01*
X197765890Y-165500500D01*
X197765892Y-165500500D01*
X197893186Y-165466392D01*
X198007314Y-165400500D01*
X198100500Y-165307314D01*
X198166392Y-165193186D01*
X198200500Y-165065892D01*
X198200500Y-150934108D01*
X202249500Y-150934108D01*
X202249500Y-164934108D01*
X202249500Y-165065892D01*
X202261474Y-165110579D01*
X202283608Y-165193187D01*
X202316554Y-165250250D01*
X202349500Y-165307314D01*
X202442686Y-165400500D01*
X202556814Y-165466392D01*
X202684108Y-165500500D01*
X202684110Y-165500500D01*
X216815890Y-165500500D01*
X216815892Y-165500500D01*
X216943186Y-165466392D01*
X217057314Y-165400500D01*
X217150500Y-165307314D01*
X217216392Y-165193186D01*
X217250500Y-165065892D01*
X217250500Y-150934108D01*
X221299500Y-150934108D01*
X221299500Y-164934108D01*
X221299500Y-165065892D01*
X221311474Y-165110579D01*
X221333608Y-165193187D01*
X221366554Y-165250250D01*
X221399500Y-165307314D01*
X221492686Y-165400500D01*
X221606814Y-165466392D01*
X221734108Y-165500500D01*
X221734110Y-165500500D01*
X235865890Y-165500500D01*
X235865892Y-165500500D01*
X235993186Y-165466392D01*
X236107314Y-165400500D01*
X236200500Y-165307314D01*
X236266392Y-165193186D01*
X236300500Y-165065892D01*
X236300500Y-150934108D01*
X240349500Y-150934108D01*
X240349500Y-164934108D01*
X240349500Y-165065892D01*
X240361474Y-165110579D01*
X240383608Y-165193187D01*
X240416554Y-165250250D01*
X240449500Y-165307314D01*
X240542686Y-165400500D01*
X240656814Y-165466392D01*
X240784108Y-165500500D01*
X240784110Y-165500500D01*
X254915890Y-165500500D01*
X254915892Y-165500500D01*
X255043186Y-165466392D01*
X255157314Y-165400500D01*
X255250500Y-165307314D01*
X255316392Y-165193186D01*
X255350500Y-165065892D01*
X255350500Y-150934108D01*
X259399500Y-150934108D01*
X259399500Y-164934108D01*
X259399500Y-165065892D01*
X259411474Y-165110579D01*
X259433608Y-165193187D01*
X259466554Y-165250250D01*
X259499500Y-165307314D01*
X259592686Y-165400500D01*
X259706814Y-165466392D01*
X259834108Y-165500500D01*
X259834110Y-165500500D01*
X273965890Y-165500500D01*
X273965892Y-165500500D01*
X274093186Y-165466392D01*
X274207314Y-165400500D01*
X274300500Y-165307314D01*
X274366392Y-165193186D01*
X274400500Y-165065892D01*
X274400500Y-150934108D01*
X285592500Y-150934108D01*
X285592500Y-164934108D01*
X285592500Y-165065892D01*
X285604474Y-165110579D01*
X285626608Y-165193187D01*
X285659554Y-165250250D01*
X285692500Y-165307314D01*
X285785686Y-165400500D01*
X285899814Y-165466392D01*
X286027108Y-165500500D01*
X286027110Y-165500500D01*
X300158890Y-165500500D01*
X300158892Y-165500500D01*
X300286186Y-165466392D01*
X300400314Y-165400500D01*
X300493500Y-165307314D01*
X300559392Y-165193186D01*
X300593500Y-165065892D01*
X300593500Y-155696108D01*
X316549500Y-155696108D01*
X316549500Y-169827891D01*
X316583608Y-169955187D01*
X316608687Y-169998624D01*
X316649500Y-170069314D01*
X316742686Y-170162500D01*
X316856814Y-170228392D01*
X316984108Y-170262500D01*
X316984110Y-170262500D01*
X331115890Y-170262500D01*
X331115892Y-170262500D01*
X331243186Y-170228392D01*
X331357314Y-170162500D01*
X331450500Y-170069314D01*
X331516392Y-169955186D01*
X331550500Y-169827892D01*
X331550500Y-155696108D01*
X331516392Y-155568814D01*
X331450500Y-155454686D01*
X331357314Y-155361500D01*
X331300250Y-155328554D01*
X331243187Y-155295608D01*
X331179539Y-155278554D01*
X331115892Y-155261500D01*
X317115892Y-155261500D01*
X316984108Y-155261500D01*
X316856812Y-155295608D01*
X316742686Y-155361500D01*
X316742683Y-155361502D01*
X316649502Y-155454683D01*
X316649500Y-155454686D01*
X316583608Y-155568812D01*
X316549500Y-155696108D01*
X300593500Y-155696108D01*
X300593500Y-150934108D01*
X300559392Y-150806814D01*
X300493500Y-150692686D01*
X300400314Y-150599500D01*
X300343250Y-150566554D01*
X300286187Y-150533608D01*
X300222539Y-150516554D01*
X300158892Y-150499500D01*
X286158892Y-150499500D01*
X286027108Y-150499500D01*
X285899812Y-150533608D01*
X285785686Y-150599500D01*
X285785683Y-150599502D01*
X285692502Y-150692683D01*
X285692500Y-150692686D01*
X285626608Y-150806812D01*
X285592500Y-150934108D01*
X274400500Y-150934108D01*
X274366392Y-150806814D01*
X274300500Y-150692686D01*
X274207314Y-150599500D01*
X274150250Y-150566554D01*
X274093187Y-150533608D01*
X274029539Y-150516554D01*
X273965892Y-150499500D01*
X259965892Y-150499500D01*
X259834108Y-150499500D01*
X259706812Y-150533608D01*
X259592686Y-150599500D01*
X259592683Y-150599502D01*
X259499502Y-150692683D01*
X259499500Y-150692686D01*
X259433608Y-150806812D01*
X259399500Y-150934108D01*
X255350500Y-150934108D01*
X255316392Y-150806814D01*
X255250500Y-150692686D01*
X255157314Y-150599500D01*
X255100250Y-150566554D01*
X255043187Y-150533608D01*
X254979539Y-150516554D01*
X254915892Y-150499500D01*
X240915892Y-150499500D01*
X240784108Y-150499500D01*
X240656812Y-150533608D01*
X240542686Y-150599500D01*
X240542683Y-150599502D01*
X240449502Y-150692683D01*
X240449500Y-150692686D01*
X240383608Y-150806812D01*
X240349500Y-150934108D01*
X236300500Y-150934108D01*
X236266392Y-150806814D01*
X236200500Y-150692686D01*
X236107314Y-150599500D01*
X236050250Y-150566554D01*
X235993187Y-150533608D01*
X235929539Y-150516554D01*
X235865892Y-150499500D01*
X221865892Y-150499500D01*
X221734108Y-150499500D01*
X221606812Y-150533608D01*
X221492686Y-150599500D01*
X221492683Y-150599502D01*
X221399502Y-150692683D01*
X221399500Y-150692686D01*
X221333608Y-150806812D01*
X221299500Y-150934108D01*
X217250500Y-150934108D01*
X217216392Y-150806814D01*
X217150500Y-150692686D01*
X217057314Y-150599500D01*
X217000250Y-150566554D01*
X216943187Y-150533608D01*
X216879539Y-150516554D01*
X216815892Y-150499500D01*
X202815892Y-150499500D01*
X202684108Y-150499500D01*
X202556812Y-150533608D01*
X202442686Y-150599500D01*
X202442683Y-150599502D01*
X202349502Y-150692683D01*
X202349500Y-150692686D01*
X202283608Y-150806812D01*
X202249500Y-150934108D01*
X198200500Y-150934108D01*
X198166392Y-150806814D01*
X198100500Y-150692686D01*
X198007314Y-150599500D01*
X197950250Y-150566554D01*
X197893187Y-150533608D01*
X197829539Y-150516554D01*
X197765892Y-150499500D01*
X183765892Y-150499500D01*
X183634108Y-150499500D01*
X183506812Y-150533608D01*
X183392686Y-150599500D01*
X183392683Y-150599502D01*
X183299502Y-150692683D01*
X183299500Y-150692686D01*
X183233608Y-150806812D01*
X183199500Y-150934108D01*
X179150500Y-150934108D01*
X179116392Y-150806814D01*
X179050500Y-150692686D01*
X178957314Y-150599500D01*
X178900250Y-150566554D01*
X178843187Y-150533608D01*
X178779539Y-150516554D01*
X178715892Y-150499500D01*
X164715892Y-150499500D01*
X164584108Y-150499500D01*
X164456812Y-150533608D01*
X164342686Y-150599500D01*
X164342683Y-150599502D01*
X164249502Y-150692683D01*
X164249500Y-150692686D01*
X164183608Y-150806812D01*
X164149500Y-150934108D01*
X160100500Y-150934108D01*
X160066392Y-150806814D01*
X160000500Y-150692686D01*
X159907314Y-150599500D01*
X159850250Y-150566554D01*
X159793187Y-150533608D01*
X159729539Y-150516554D01*
X159665892Y-150499500D01*
X145665892Y-150499500D01*
X145534108Y-150499500D01*
X145406812Y-150533608D01*
X145292686Y-150599500D01*
X145292683Y-150599502D01*
X145199502Y-150692683D01*
X145199500Y-150692686D01*
X145133608Y-150806812D01*
X145099500Y-150934108D01*
X141050500Y-150934108D01*
X141016392Y-150806814D01*
X140950500Y-150692686D01*
X140857314Y-150599500D01*
X140800250Y-150566554D01*
X140743187Y-150533608D01*
X140679539Y-150516554D01*
X140615892Y-150499500D01*
X126615892Y-150499500D01*
X126484108Y-150499500D01*
X126356812Y-150533608D01*
X126242686Y-150599500D01*
X126242683Y-150599502D01*
X126149502Y-150692683D01*
X126149500Y-150692686D01*
X126083608Y-150806812D01*
X126049500Y-150934108D01*
X122000500Y-150934108D01*
X121966392Y-150806814D01*
X121900500Y-150692686D01*
X121807314Y-150599500D01*
X121750250Y-150566554D01*
X121693187Y-150533608D01*
X121629539Y-150516554D01*
X121565892Y-150499500D01*
X107565892Y-150499500D01*
X107434108Y-150499500D01*
X107306812Y-150533608D01*
X107192686Y-150599500D01*
X107192683Y-150599502D01*
X107099502Y-150692683D01*
X107099500Y-150692686D01*
X107033608Y-150806812D01*
X106999500Y-150934108D01*
X102950500Y-150934108D01*
X102916392Y-150806814D01*
X102850500Y-150692686D01*
X102757314Y-150599500D01*
X102700250Y-150566554D01*
X102643187Y-150533608D01*
X102579539Y-150516554D01*
X102515892Y-150499500D01*
X88515891Y-150499500D01*
X88384107Y-150499500D01*
X88256811Y-150533608D01*
X88142685Y-150599500D01*
X88142682Y-150599502D01*
X88049501Y-150692683D01*
X88049499Y-150692686D01*
X87983607Y-150806812D01*
X87949499Y-150934108D01*
X71993499Y-150934108D01*
X71959391Y-150806814D01*
X71893499Y-150692686D01*
X71800313Y-150599500D01*
X71743249Y-150566554D01*
X71686186Y-150533608D01*
X71622538Y-150516554D01*
X71558891Y-150499500D01*
X57558891Y-150499500D01*
X57427107Y-150499500D01*
X57299811Y-150533608D01*
X57185685Y-150599500D01*
X57185682Y-150599502D01*
X57092501Y-150692683D01*
X57092499Y-150692686D01*
X57026607Y-150806812D01*
X56992499Y-150934108D01*
X41873499Y-150934108D01*
X41873499Y-131884108D01*
X52230499Y-131884108D01*
X52230499Y-146015891D01*
X52264607Y-146143187D01*
X52297553Y-146200250D01*
X52330499Y-146257314D01*
X52423685Y-146350500D01*
X52537813Y-146416392D01*
X52665107Y-146450500D01*
X52665109Y-146450500D01*
X66796889Y-146450500D01*
X66796891Y-146450500D01*
X66924185Y-146416392D01*
X67038313Y-146350500D01*
X67131499Y-146257314D01*
X67197391Y-146143186D01*
X67231499Y-146015892D01*
X67231499Y-131884108D01*
X78424499Y-131884108D01*
X78424499Y-146015891D01*
X78458607Y-146143187D01*
X78491553Y-146200250D01*
X78524499Y-146257314D01*
X78617685Y-146350500D01*
X78731813Y-146416392D01*
X78859107Y-146450500D01*
X78859109Y-146450500D01*
X92990889Y-146450500D01*
X92990891Y-146450500D01*
X93118185Y-146416392D01*
X93232313Y-146350500D01*
X93325499Y-146257314D01*
X93391391Y-146143186D01*
X93425499Y-146015892D01*
X93425499Y-131884108D01*
X97474499Y-131884108D01*
X97474499Y-146015891D01*
X97508607Y-146143187D01*
X97541553Y-146200250D01*
X97574499Y-146257314D01*
X97667685Y-146350500D01*
X97781813Y-146416392D01*
X97909107Y-146450500D01*
X97909109Y-146450500D01*
X112040890Y-146450500D01*
X112040892Y-146450500D01*
X112168186Y-146416392D01*
X112282314Y-146350500D01*
X112375500Y-146257314D01*
X112441392Y-146143186D01*
X112475500Y-146015892D01*
X112475500Y-131884108D01*
X116524500Y-131884108D01*
X116524500Y-146015891D01*
X116558608Y-146143187D01*
X116591554Y-146200250D01*
X116624500Y-146257314D01*
X116717686Y-146350500D01*
X116831814Y-146416392D01*
X116959108Y-146450500D01*
X116959110Y-146450500D01*
X131090890Y-146450500D01*
X131090892Y-146450500D01*
X131218186Y-146416392D01*
X131332314Y-146350500D01*
X131425500Y-146257314D01*
X131491392Y-146143186D01*
X131525500Y-146015892D01*
X131525500Y-131884108D01*
X135574500Y-131884108D01*
X135574500Y-146015891D01*
X135608608Y-146143187D01*
X135641554Y-146200250D01*
X135674500Y-146257314D01*
X135767686Y-146350500D01*
X135881814Y-146416392D01*
X136009108Y-146450500D01*
X136009110Y-146450500D01*
X150140890Y-146450500D01*
X150140892Y-146450500D01*
X150268186Y-146416392D01*
X150382314Y-146350500D01*
X150475500Y-146257314D01*
X150541392Y-146143186D01*
X150575500Y-146015892D01*
X150575500Y-131884108D01*
X154624500Y-131884108D01*
X154624500Y-146015891D01*
X154658608Y-146143187D01*
X154691554Y-146200250D01*
X154724500Y-146257314D01*
X154817686Y-146350500D01*
X154931814Y-146416392D01*
X155059108Y-146450500D01*
X155059110Y-146450500D01*
X169190890Y-146450500D01*
X169190892Y-146450500D01*
X169318186Y-146416392D01*
X169432314Y-146350500D01*
X169525500Y-146257314D01*
X169591392Y-146143186D01*
X169625500Y-146015892D01*
X169625500Y-131884108D01*
X173674500Y-131884108D01*
X173674500Y-146015891D01*
X173708608Y-146143187D01*
X173741554Y-146200250D01*
X173774500Y-146257314D01*
X173867686Y-146350500D01*
X173981814Y-146416392D01*
X174109108Y-146450500D01*
X174109110Y-146450500D01*
X188240890Y-146450500D01*
X188240892Y-146450500D01*
X188368186Y-146416392D01*
X188482314Y-146350500D01*
X188575500Y-146257314D01*
X188641392Y-146143186D01*
X188675500Y-146015892D01*
X188675500Y-131884108D01*
X192724500Y-131884108D01*
X192724500Y-146015891D01*
X192758608Y-146143187D01*
X192791554Y-146200250D01*
X192824500Y-146257314D01*
X192917686Y-146350500D01*
X193031814Y-146416392D01*
X193159108Y-146450500D01*
X193159110Y-146450500D01*
X207290890Y-146450500D01*
X207290892Y-146450500D01*
X207418186Y-146416392D01*
X207532314Y-146350500D01*
X207625500Y-146257314D01*
X207691392Y-146143186D01*
X207725500Y-146015892D01*
X207725500Y-131884108D01*
X211774500Y-131884108D01*
X211774500Y-146015891D01*
X211808608Y-146143187D01*
X211841554Y-146200250D01*
X211874500Y-146257314D01*
X211967686Y-146350500D01*
X212081814Y-146416392D01*
X212209108Y-146450500D01*
X212209110Y-146450500D01*
X226340890Y-146450500D01*
X226340892Y-146450500D01*
X226468186Y-146416392D01*
X226582314Y-146350500D01*
X226675500Y-146257314D01*
X226741392Y-146143186D01*
X226775500Y-146015892D01*
X226775500Y-131884108D01*
X230824500Y-131884108D01*
X230824500Y-146015891D01*
X230858608Y-146143187D01*
X230891554Y-146200250D01*
X230924500Y-146257314D01*
X231017686Y-146350500D01*
X231131814Y-146416392D01*
X231259108Y-146450500D01*
X231259110Y-146450500D01*
X245390890Y-146450500D01*
X245390892Y-146450500D01*
X245518186Y-146416392D01*
X245632314Y-146350500D01*
X245725500Y-146257314D01*
X245791392Y-146143186D01*
X245825500Y-146015892D01*
X245825500Y-131884108D01*
X249874500Y-131884108D01*
X249874500Y-146015891D01*
X249908608Y-146143187D01*
X249941554Y-146200250D01*
X249974500Y-146257314D01*
X250067686Y-146350500D01*
X250181814Y-146416392D01*
X250309108Y-146450500D01*
X250309110Y-146450500D01*
X264440890Y-146450500D01*
X264440892Y-146450500D01*
X264568186Y-146416392D01*
X264682314Y-146350500D01*
X264775500Y-146257314D01*
X264841392Y-146143186D01*
X264875500Y-146015892D01*
X264875500Y-131884108D01*
X268924500Y-131884108D01*
X268924500Y-146015891D01*
X268958608Y-146143187D01*
X268991554Y-146200250D01*
X269024500Y-146257314D01*
X269117686Y-146350500D01*
X269231814Y-146416392D01*
X269359108Y-146450500D01*
X269359110Y-146450500D01*
X283490890Y-146450500D01*
X283490892Y-146450500D01*
X283618186Y-146416392D01*
X283732314Y-146350500D01*
X283825500Y-146257314D01*
X283891392Y-146143186D01*
X283925500Y-146015892D01*
X283925500Y-132884108D01*
X291442500Y-132884108D01*
X291442500Y-148015891D01*
X291476608Y-148143187D01*
X291509554Y-148200250D01*
X291542500Y-148257314D01*
X291635686Y-148350500D01*
X291749814Y-148416392D01*
X291877108Y-148450500D01*
X291877110Y-148450500D01*
X299008890Y-148450500D01*
X299008892Y-148450500D01*
X299136186Y-148416392D01*
X299250314Y-148350500D01*
X299343500Y-148257314D01*
X299409392Y-148143186D01*
X299443500Y-148015892D01*
X299443500Y-132884108D01*
X299409392Y-132756814D01*
X299343500Y-132642686D01*
X299250314Y-132549500D01*
X299193250Y-132516554D01*
X299136187Y-132483608D01*
X299072539Y-132466554D01*
X299008892Y-132449500D01*
X292008892Y-132449500D01*
X291877108Y-132449500D01*
X291749812Y-132483608D01*
X291635686Y-132549500D01*
X291635683Y-132549502D01*
X291542502Y-132642683D01*
X291542500Y-132642686D01*
X291476608Y-132756812D01*
X291442500Y-132884108D01*
X283925500Y-132884108D01*
X283925500Y-131884108D01*
X299880500Y-131884108D01*
X299880500Y-146015891D01*
X299914608Y-146143187D01*
X299947554Y-146200250D01*
X299980500Y-146257314D01*
X300073686Y-146350500D01*
X300187814Y-146416392D01*
X300315108Y-146450500D01*
X300315110Y-146450500D01*
X314446890Y-146450500D01*
X314446892Y-146450500D01*
X314574186Y-146416392D01*
X314688314Y-146350500D01*
X314781500Y-146257314D01*
X314847392Y-146143186D01*
X314881500Y-146015892D01*
X314881500Y-132884108D01*
X315318500Y-132884108D01*
X315318500Y-148015891D01*
X315352608Y-148143187D01*
X315385554Y-148200250D01*
X315418500Y-148257314D01*
X315511686Y-148350500D01*
X315625814Y-148416392D01*
X315753108Y-148450500D01*
X315753110Y-148450500D01*
X322884890Y-148450500D01*
X322884892Y-148450500D01*
X323012186Y-148416392D01*
X323126314Y-148350500D01*
X323219500Y-148257314D01*
X323285392Y-148143186D01*
X323319500Y-148015892D01*
X323319500Y-132884108D01*
X323285392Y-132756814D01*
X323219500Y-132642686D01*
X323126314Y-132549500D01*
X323069250Y-132516554D01*
X323012187Y-132483608D01*
X322948539Y-132466554D01*
X322884892Y-132449500D01*
X315884892Y-132449500D01*
X315753108Y-132449500D01*
X315625812Y-132483608D01*
X315511686Y-132549500D01*
X315511683Y-132549502D01*
X315418502Y-132642683D01*
X315418500Y-132642686D01*
X315352608Y-132756812D01*
X315318500Y-132884108D01*
X314881500Y-132884108D01*
X314881500Y-131884108D01*
X314847392Y-131756814D01*
X314781500Y-131642686D01*
X314688314Y-131549500D01*
X314614953Y-131507145D01*
X314574187Y-131483608D01*
X314510539Y-131466554D01*
X314446892Y-131449500D01*
X300446892Y-131449500D01*
X300315108Y-131449500D01*
X300187812Y-131483608D01*
X300073686Y-131549500D01*
X300073683Y-131549502D01*
X299980502Y-131642683D01*
X299980500Y-131642686D01*
X299914608Y-131756812D01*
X299880500Y-131884108D01*
X283925500Y-131884108D01*
X283891392Y-131756814D01*
X283825500Y-131642686D01*
X283732314Y-131549500D01*
X283658953Y-131507145D01*
X283618187Y-131483608D01*
X283554539Y-131466554D01*
X283490892Y-131449500D01*
X269490892Y-131449500D01*
X269359108Y-131449500D01*
X269231812Y-131483608D01*
X269117686Y-131549500D01*
X269117683Y-131549502D01*
X269024502Y-131642683D01*
X269024500Y-131642686D01*
X268958608Y-131756812D01*
X268924500Y-131884108D01*
X264875500Y-131884108D01*
X264841392Y-131756814D01*
X264775500Y-131642686D01*
X264682314Y-131549500D01*
X264608953Y-131507145D01*
X264568187Y-131483608D01*
X264504539Y-131466554D01*
X264440892Y-131449500D01*
X250440892Y-131449500D01*
X250309108Y-131449500D01*
X250181812Y-131483608D01*
X250067686Y-131549500D01*
X250067683Y-131549502D01*
X249974502Y-131642683D01*
X249974500Y-131642686D01*
X249908608Y-131756812D01*
X249874500Y-131884108D01*
X245825500Y-131884108D01*
X245791392Y-131756814D01*
X245725500Y-131642686D01*
X245632314Y-131549500D01*
X245558953Y-131507145D01*
X245518187Y-131483608D01*
X245454539Y-131466554D01*
X245390892Y-131449500D01*
X231390892Y-131449500D01*
X231259108Y-131449500D01*
X231131812Y-131483608D01*
X231017686Y-131549500D01*
X231017683Y-131549502D01*
X230924502Y-131642683D01*
X230924500Y-131642686D01*
X230858608Y-131756812D01*
X230824500Y-131884108D01*
X226775500Y-131884108D01*
X226741392Y-131756814D01*
X226675500Y-131642686D01*
X226582314Y-131549500D01*
X226508953Y-131507145D01*
X226468187Y-131483608D01*
X226404539Y-131466554D01*
X226340892Y-131449500D01*
X212340892Y-131449500D01*
X212209108Y-131449500D01*
X212081812Y-131483608D01*
X211967686Y-131549500D01*
X211967683Y-131549502D01*
X211874502Y-131642683D01*
X211874500Y-131642686D01*
X211808608Y-131756812D01*
X211774500Y-131884108D01*
X207725500Y-131884108D01*
X207691392Y-131756814D01*
X207625500Y-131642686D01*
X207532314Y-131549500D01*
X207458953Y-131507145D01*
X207418187Y-131483608D01*
X207354539Y-131466554D01*
X207290892Y-131449500D01*
X193290892Y-131449500D01*
X193159108Y-131449500D01*
X193031812Y-131483608D01*
X192917686Y-131549500D01*
X192917683Y-131549502D01*
X192824502Y-131642683D01*
X192824500Y-131642686D01*
X192758608Y-131756812D01*
X192724500Y-131884108D01*
X188675500Y-131884108D01*
X188641392Y-131756814D01*
X188575500Y-131642686D01*
X188482314Y-131549500D01*
X188408953Y-131507145D01*
X188368187Y-131483608D01*
X188304539Y-131466554D01*
X188240892Y-131449500D01*
X174240892Y-131449500D01*
X174109108Y-131449500D01*
X173981812Y-131483608D01*
X173867686Y-131549500D01*
X173867683Y-131549502D01*
X173774502Y-131642683D01*
X173774500Y-131642686D01*
X173708608Y-131756812D01*
X173674500Y-131884108D01*
X169625500Y-131884108D01*
X169591392Y-131756814D01*
X169525500Y-131642686D01*
X169432314Y-131549500D01*
X169358953Y-131507145D01*
X169318187Y-131483608D01*
X169254539Y-131466554D01*
X169190892Y-131449500D01*
X155190892Y-131449500D01*
X155059108Y-131449500D01*
X154931812Y-131483608D01*
X154817686Y-131549500D01*
X154817683Y-131549502D01*
X154724502Y-131642683D01*
X154724500Y-131642686D01*
X154658608Y-131756812D01*
X154624500Y-131884108D01*
X150575500Y-131884108D01*
X150541392Y-131756814D01*
X150475500Y-131642686D01*
X150382314Y-131549500D01*
X150308953Y-131507145D01*
X150268187Y-131483608D01*
X150204539Y-131466554D01*
X150140892Y-131449500D01*
X136140892Y-131449500D01*
X136009108Y-131449500D01*
X135881812Y-131483608D01*
X135767686Y-131549500D01*
X135767683Y-131549502D01*
X135674502Y-131642683D01*
X135674500Y-131642686D01*
X135608608Y-131756812D01*
X135574500Y-131884108D01*
X131525500Y-131884108D01*
X131491392Y-131756814D01*
X131425500Y-131642686D01*
X131332314Y-131549500D01*
X131258953Y-131507145D01*
X131218187Y-131483608D01*
X131154539Y-131466554D01*
X131090892Y-131449500D01*
X117090892Y-131449500D01*
X116959108Y-131449500D01*
X116831812Y-131483608D01*
X116717686Y-131549500D01*
X116717683Y-131549502D01*
X116624502Y-131642683D01*
X116624500Y-131642686D01*
X116558608Y-131756812D01*
X116524500Y-131884108D01*
X112475500Y-131884108D01*
X112441392Y-131756814D01*
X112375500Y-131642686D01*
X112282314Y-131549500D01*
X112208953Y-131507145D01*
X112168187Y-131483608D01*
X112104539Y-131466554D01*
X112040892Y-131449500D01*
X98040891Y-131449500D01*
X97909107Y-131449500D01*
X97781811Y-131483608D01*
X97667685Y-131549500D01*
X97667682Y-131549502D01*
X97574501Y-131642683D01*
X97574499Y-131642686D01*
X97508607Y-131756812D01*
X97474499Y-131884108D01*
X93425499Y-131884108D01*
X93391391Y-131756814D01*
X93325499Y-131642686D01*
X93232313Y-131549500D01*
X93158952Y-131507145D01*
X93118186Y-131483608D01*
X93054538Y-131466554D01*
X92990891Y-131449500D01*
X78990891Y-131449500D01*
X78859107Y-131449500D01*
X78731811Y-131483608D01*
X78617685Y-131549500D01*
X78617682Y-131549502D01*
X78524501Y-131642683D01*
X78524499Y-131642686D01*
X78458607Y-131756812D01*
X78424499Y-131884108D01*
X67231499Y-131884108D01*
X67197391Y-131756814D01*
X67131499Y-131642686D01*
X67038313Y-131549500D01*
X66964952Y-131507145D01*
X66924186Y-131483608D01*
X66860538Y-131466554D01*
X66796891Y-131449500D01*
X52796891Y-131449500D01*
X52665107Y-131449500D01*
X52537811Y-131483608D01*
X52423685Y-131549500D01*
X52423682Y-131549502D01*
X52330501Y-131642683D01*
X52330499Y-131642686D01*
X52264607Y-131756812D01*
X52230499Y-131884108D01*
X41873499Y-131884108D01*
X41873499Y-131741263D01*
X41874560Y-131725076D01*
X41877818Y-131700331D01*
X41877818Y-131700330D01*
X41874560Y-131675584D01*
X41873499Y-131659399D01*
X41873499Y-131634439D01*
X41873499Y-131634438D01*
X41867038Y-131610326D01*
X41863874Y-131594424D01*
X41860617Y-131569675D01*
X41851061Y-131546606D01*
X41845851Y-131531255D01*
X41839391Y-131507145D01*
X41839391Y-131507144D01*
X41826909Y-131485526D01*
X41819736Y-131470979D01*
X41723864Y-131239518D01*
X41722435Y-131235723D01*
X41720053Y-131232398D01*
X41717377Y-131229347D01*
X41680901Y-131181811D01*
X41680898Y-131181808D01*
X41649313Y-131140645D01*
X41647606Y-131137918D01*
X41643501Y-131132943D01*
X41641895Y-131130925D01*
X41638827Y-131128729D01*
X41587031Y-131088985D01*
X41543974Y-131055946D01*
X41540922Y-131053270D01*
X41540915Y-131053265D01*
X41537530Y-131050839D01*
X41533492Y-131049332D01*
X41417842Y-131001429D01*
X41417820Y-131001419D01*
X41417820Y-131001420D01*
X41402324Y-130995001D01*
X41302342Y-130953588D01*
X41287801Y-130946418D01*
X41266185Y-130933938D01*
X41266182Y-130933937D01*
X41242074Y-130927477D01*
X41226719Y-130922265D01*
X41203653Y-130912711D01*
X41178900Y-130909452D01*
X41162999Y-130906289D01*
X41138892Y-130899830D01*
X41138891Y-130899830D01*
X41113929Y-130899830D01*
X41097745Y-130898769D01*
X41072997Y-130895511D01*
X41072994Y-130895511D01*
X41048249Y-130898769D01*
X41032063Y-130899830D01*
X36997499Y-130899830D01*
X36930460Y-130880145D01*
X36884705Y-130827341D01*
X36873499Y-130775830D01*
X36873499Y-129669108D01*
X338144500Y-129669108D01*
X338144500Y-167169108D01*
X338144500Y-167300892D01*
X338161554Y-167364539D01*
X338178608Y-167428187D01*
X338200666Y-167466391D01*
X338244500Y-167542314D01*
X338337686Y-167635500D01*
X338451814Y-167701392D01*
X338579108Y-167735500D01*
X338579110Y-167735500D01*
X376210870Y-167735500D01*
X376210872Y-167735500D01*
X376338166Y-167701392D01*
X376452294Y-167635500D01*
X376545480Y-167542314D01*
X376611372Y-167428186D01*
X376645480Y-167300892D01*
X376645500Y-129669108D01*
X376611392Y-129541814D01*
X376545500Y-129427686D01*
X376452314Y-129334500D01*
X376395250Y-129301554D01*
X376338187Y-129268608D01*
X376274539Y-129251554D01*
X376210892Y-129234500D01*
X338710892Y-129234500D01*
X338579108Y-129234500D01*
X338451812Y-129268608D01*
X338337686Y-129334500D01*
X338337683Y-129334502D01*
X338244502Y-129427683D01*
X338244500Y-129427686D01*
X338178608Y-129541812D01*
X338144500Y-129669108D01*
X36873499Y-129669108D01*
X36873499Y-127024830D01*
X36893184Y-126957791D01*
X36945988Y-126912036D01*
X36997499Y-126900830D01*
X41032063Y-126900830D01*
X41048249Y-126901891D01*
X41072994Y-126905149D01*
X41072995Y-126905149D01*
X41072997Y-126905149D01*
X41097745Y-126901891D01*
X41113929Y-126900830D01*
X41138889Y-126900830D01*
X41138891Y-126900830D01*
X41163001Y-126894369D01*
X41178898Y-126891207D01*
X41203652Y-126887949D01*
X41226713Y-126878396D01*
X41242071Y-126873182D01*
X41266185Y-126866722D01*
X41287805Y-126854238D01*
X41302336Y-126847072D01*
X41415787Y-126800081D01*
X41415789Y-126800081D01*
X41446253Y-126787462D01*
X41533843Y-126751181D01*
X41537306Y-126749878D01*
X41539145Y-126748419D01*
X41601814Y-126700332D01*
X41601814Y-126700330D01*
X41640368Y-126670748D01*
X41642118Y-126669453D01*
X41643420Y-126667694D01*
X41643549Y-126667527D01*
X41700976Y-126592686D01*
X41721116Y-126566438D01*
X41722547Y-126564636D01*
X41723863Y-126561142D01*
X41748844Y-126500831D01*
X41819736Y-126329676D01*
X41826902Y-126315146D01*
X41839391Y-126293516D01*
X41845850Y-126269407D01*
X41851064Y-126254047D01*
X41851067Y-126254039D01*
X41860617Y-126230985D01*
X41863875Y-126206231D01*
X41867041Y-126190320D01*
X41870752Y-126176472D01*
X41873499Y-126166222D01*
X41873499Y-126141256D01*
X41874560Y-126125074D01*
X41877818Y-126100328D01*
X41877817Y-126100324D01*
X41874560Y-126075581D01*
X41873499Y-126059395D01*
X41873499Y-112834105D01*
X49849499Y-112834105D01*
X49849499Y-126965891D01*
X49883607Y-127093187D01*
X49916553Y-127150250D01*
X49949499Y-127207314D01*
X50042685Y-127300500D01*
X50156813Y-127366392D01*
X50284107Y-127400500D01*
X50284109Y-127400500D01*
X64415889Y-127400500D01*
X64415891Y-127400500D01*
X64543185Y-127366392D01*
X64657313Y-127300500D01*
X64750499Y-127207314D01*
X64816391Y-127093186D01*
X64850499Y-126965892D01*
X64850499Y-112834105D01*
X73661499Y-112834105D01*
X73661499Y-126965891D01*
X73695607Y-127093187D01*
X73728553Y-127150250D01*
X73761499Y-127207314D01*
X73854685Y-127300500D01*
X73968813Y-127366392D01*
X74096107Y-127400500D01*
X74096109Y-127400500D01*
X88227889Y-127400500D01*
X88227891Y-127400500D01*
X88355185Y-127366392D01*
X88469313Y-127300500D01*
X88562499Y-127207314D01*
X88628391Y-127093186D01*
X88662499Y-126965892D01*
X88662499Y-112834105D01*
X92711499Y-112834105D01*
X92711499Y-126965891D01*
X92745607Y-127093187D01*
X92778553Y-127150250D01*
X92811499Y-127207314D01*
X92904685Y-127300500D01*
X93018813Y-127366392D01*
X93146107Y-127400500D01*
X93146109Y-127400500D01*
X107277890Y-127400500D01*
X107277892Y-127400500D01*
X107405186Y-127366392D01*
X107519314Y-127300500D01*
X107612500Y-127207314D01*
X107678392Y-127093186D01*
X107712500Y-126965892D01*
X107712500Y-112834105D01*
X111761500Y-112834105D01*
X111761500Y-126965891D01*
X111795608Y-127093187D01*
X111828554Y-127150250D01*
X111861500Y-127207314D01*
X111954686Y-127300500D01*
X112068814Y-127366392D01*
X112196108Y-127400500D01*
X112196110Y-127400500D01*
X126327890Y-127400500D01*
X126327892Y-127400500D01*
X126455186Y-127366392D01*
X126569314Y-127300500D01*
X126662500Y-127207314D01*
X126728392Y-127093186D01*
X126762500Y-126965892D01*
X126762500Y-112834105D01*
X130811500Y-112834105D01*
X130811500Y-126965891D01*
X130845608Y-127093187D01*
X130878554Y-127150250D01*
X130911500Y-127207314D01*
X131004686Y-127300500D01*
X131118814Y-127366392D01*
X131246108Y-127400500D01*
X131246110Y-127400500D01*
X145377890Y-127400500D01*
X145377892Y-127400500D01*
X145505186Y-127366392D01*
X145619314Y-127300500D01*
X145712500Y-127207314D01*
X145778392Y-127093186D01*
X145812500Y-126965892D01*
X145812500Y-112834105D01*
X149861500Y-112834105D01*
X149861500Y-126965891D01*
X149895608Y-127093187D01*
X149928554Y-127150250D01*
X149961500Y-127207314D01*
X150054686Y-127300500D01*
X150168814Y-127366392D01*
X150296108Y-127400500D01*
X150296110Y-127400500D01*
X164427890Y-127400500D01*
X164427892Y-127400500D01*
X164555186Y-127366392D01*
X164669314Y-127300500D01*
X164762500Y-127207314D01*
X164828392Y-127093186D01*
X164862500Y-126965892D01*
X164862500Y-112834105D01*
X168911500Y-112834105D01*
X168911500Y-126965891D01*
X168945608Y-127093187D01*
X168978554Y-127150250D01*
X169011500Y-127207314D01*
X169104686Y-127300500D01*
X169218814Y-127366392D01*
X169346108Y-127400500D01*
X169346110Y-127400500D01*
X183477890Y-127400500D01*
X183477892Y-127400500D01*
X183605186Y-127366392D01*
X183719314Y-127300500D01*
X183812500Y-127207314D01*
X183878392Y-127093186D01*
X183912500Y-126965892D01*
X183912500Y-112834105D01*
X187961500Y-112834105D01*
X187961500Y-126965891D01*
X187995608Y-127093187D01*
X188028554Y-127150250D01*
X188061500Y-127207314D01*
X188154686Y-127300500D01*
X188268814Y-127366392D01*
X188396108Y-127400500D01*
X188396110Y-127400500D01*
X202527890Y-127400500D01*
X202527892Y-127400500D01*
X202655186Y-127366392D01*
X202769314Y-127300500D01*
X202862500Y-127207314D01*
X202928392Y-127093186D01*
X202962500Y-126965892D01*
X202962500Y-112834105D01*
X207011500Y-112834105D01*
X207011500Y-126965891D01*
X207045608Y-127093187D01*
X207078554Y-127150250D01*
X207111500Y-127207314D01*
X207204686Y-127300500D01*
X207318814Y-127366392D01*
X207446108Y-127400500D01*
X207446110Y-127400500D01*
X221577890Y-127400500D01*
X221577892Y-127400500D01*
X221705186Y-127366392D01*
X221819314Y-127300500D01*
X221912500Y-127207314D01*
X221978392Y-127093186D01*
X222012500Y-126965892D01*
X222012500Y-112834105D01*
X226061500Y-112834105D01*
X226061500Y-126965891D01*
X226095608Y-127093187D01*
X226128554Y-127150250D01*
X226161500Y-127207314D01*
X226254686Y-127300500D01*
X226368814Y-127366392D01*
X226496108Y-127400500D01*
X226496110Y-127400500D01*
X240627890Y-127400500D01*
X240627892Y-127400500D01*
X240755186Y-127366392D01*
X240869314Y-127300500D01*
X240962500Y-127207314D01*
X241028392Y-127093186D01*
X241062500Y-126965892D01*
X241062500Y-112834105D01*
X245111500Y-112834105D01*
X245111500Y-126965891D01*
X245145608Y-127093187D01*
X245178554Y-127150250D01*
X245211500Y-127207314D01*
X245304686Y-127300500D01*
X245418814Y-127366392D01*
X245546108Y-127400500D01*
X245546110Y-127400500D01*
X259677890Y-127400500D01*
X259677892Y-127400500D01*
X259805186Y-127366392D01*
X259919314Y-127300500D01*
X260012500Y-127207314D01*
X260078392Y-127093186D01*
X260112500Y-126965892D01*
X260112500Y-112834105D01*
X264161500Y-112834105D01*
X264161500Y-126965891D01*
X264195608Y-127093187D01*
X264228554Y-127150250D01*
X264261500Y-127207314D01*
X264354686Y-127300500D01*
X264468814Y-127366392D01*
X264596108Y-127400500D01*
X264596110Y-127400500D01*
X278727890Y-127400500D01*
X278727892Y-127400500D01*
X278855186Y-127366392D01*
X278969314Y-127300500D01*
X279062500Y-127207314D01*
X279128392Y-127093186D01*
X279162500Y-126965892D01*
X279162500Y-112834105D01*
X283211500Y-112834105D01*
X283211500Y-126965891D01*
X283245608Y-127093187D01*
X283278554Y-127150250D01*
X283311500Y-127207314D01*
X283404686Y-127300500D01*
X283518814Y-127366392D01*
X283646108Y-127400500D01*
X283646110Y-127400500D01*
X297777890Y-127400500D01*
X297777892Y-127400500D01*
X297905186Y-127366392D01*
X298019314Y-127300500D01*
X298112500Y-127207314D01*
X298178392Y-127093186D01*
X298212500Y-126965892D01*
X298212500Y-112834105D01*
X307024500Y-112834105D01*
X307024500Y-126965891D01*
X307058608Y-127093187D01*
X307091554Y-127150250D01*
X307124500Y-127207314D01*
X307217686Y-127300500D01*
X307331814Y-127366392D01*
X307459108Y-127400500D01*
X307459110Y-127400500D01*
X321590890Y-127400500D01*
X321590892Y-127400500D01*
X321718186Y-127366392D01*
X321832314Y-127300500D01*
X321925500Y-127207314D01*
X321991392Y-127093186D01*
X322025500Y-126965892D01*
X322025500Y-112834105D01*
X321991392Y-112706811D01*
X321925500Y-112592683D01*
X321832314Y-112499497D01*
X321775250Y-112466551D01*
X321718187Y-112433605D01*
X321654539Y-112416551D01*
X321590892Y-112399497D01*
X307590892Y-112399497D01*
X307459108Y-112399497D01*
X307331812Y-112433605D01*
X307217686Y-112499497D01*
X307217683Y-112499499D01*
X307124502Y-112592680D01*
X307124500Y-112592683D01*
X307058608Y-112706809D01*
X307024500Y-112834105D01*
X298212500Y-112834105D01*
X298178392Y-112706811D01*
X298112500Y-112592683D01*
X298019314Y-112499497D01*
X297962250Y-112466551D01*
X297905187Y-112433605D01*
X297841539Y-112416551D01*
X297777892Y-112399497D01*
X283777892Y-112399497D01*
X283646108Y-112399497D01*
X283518812Y-112433605D01*
X283404686Y-112499497D01*
X283404683Y-112499499D01*
X283311502Y-112592680D01*
X283311500Y-112592683D01*
X283245608Y-112706809D01*
X283211500Y-112834105D01*
X279162500Y-112834105D01*
X279128392Y-112706811D01*
X279062500Y-112592683D01*
X278969314Y-112499497D01*
X278912250Y-112466551D01*
X278855187Y-112433605D01*
X278791539Y-112416551D01*
X278727892Y-112399497D01*
X264727892Y-112399497D01*
X264596108Y-112399497D01*
X264468812Y-112433605D01*
X264354686Y-112499497D01*
X264354683Y-112499499D01*
X264261502Y-112592680D01*
X264261500Y-112592683D01*
X264195608Y-112706809D01*
X264161500Y-112834105D01*
X260112500Y-112834105D01*
X260078392Y-112706811D01*
X260012500Y-112592683D01*
X259919314Y-112499497D01*
X259862250Y-112466551D01*
X259805187Y-112433605D01*
X259741539Y-112416551D01*
X259677892Y-112399497D01*
X245677892Y-112399497D01*
X245546108Y-112399497D01*
X245418812Y-112433605D01*
X245304686Y-112499497D01*
X245304683Y-112499499D01*
X245211502Y-112592680D01*
X245211500Y-112592683D01*
X245145608Y-112706809D01*
X245111500Y-112834105D01*
X241062500Y-112834105D01*
X241028392Y-112706811D01*
X240962500Y-112592683D01*
X240869314Y-112499497D01*
X240812250Y-112466551D01*
X240755187Y-112433605D01*
X240691539Y-112416551D01*
X240627892Y-112399497D01*
X226627892Y-112399497D01*
X226496108Y-112399497D01*
X226368812Y-112433605D01*
X226254686Y-112499497D01*
X226254683Y-112499499D01*
X226161502Y-112592680D01*
X226161500Y-112592683D01*
X226095608Y-112706809D01*
X226061500Y-112834105D01*
X222012500Y-112834105D01*
X221978392Y-112706811D01*
X221912500Y-112592683D01*
X221819314Y-112499497D01*
X221762250Y-112466551D01*
X221705187Y-112433605D01*
X221641539Y-112416551D01*
X221577892Y-112399497D01*
X207577892Y-112399497D01*
X207446108Y-112399497D01*
X207318812Y-112433605D01*
X207204686Y-112499497D01*
X207204683Y-112499499D01*
X207111502Y-112592680D01*
X207111500Y-112592683D01*
X207045608Y-112706809D01*
X207011500Y-112834105D01*
X202962500Y-112834105D01*
X202928392Y-112706811D01*
X202862500Y-112592683D01*
X202769314Y-112499497D01*
X202712250Y-112466551D01*
X202655187Y-112433605D01*
X202591539Y-112416551D01*
X202527892Y-112399497D01*
X188527892Y-112399497D01*
X188396108Y-112399497D01*
X188268812Y-112433605D01*
X188154686Y-112499497D01*
X188154683Y-112499499D01*
X188061502Y-112592680D01*
X188061500Y-112592683D01*
X187995608Y-112706809D01*
X187961500Y-112834105D01*
X183912500Y-112834105D01*
X183878392Y-112706811D01*
X183812500Y-112592683D01*
X183719314Y-112499497D01*
X183662250Y-112466551D01*
X183605187Y-112433605D01*
X183541539Y-112416551D01*
X183477892Y-112399497D01*
X169477892Y-112399497D01*
X169346108Y-112399497D01*
X169218812Y-112433605D01*
X169104686Y-112499497D01*
X169104683Y-112499499D01*
X169011502Y-112592680D01*
X169011500Y-112592683D01*
X168945608Y-112706809D01*
X168911500Y-112834105D01*
X164862500Y-112834105D01*
X164828392Y-112706811D01*
X164762500Y-112592683D01*
X164669314Y-112499497D01*
X164612250Y-112466551D01*
X164555187Y-112433605D01*
X164491539Y-112416551D01*
X164427892Y-112399497D01*
X150427892Y-112399497D01*
X150296108Y-112399497D01*
X150168812Y-112433605D01*
X150054686Y-112499497D01*
X150054683Y-112499499D01*
X149961502Y-112592680D01*
X149961500Y-112592683D01*
X149895608Y-112706809D01*
X149861500Y-112834105D01*
X145812500Y-112834105D01*
X145778392Y-112706811D01*
X145712500Y-112592683D01*
X145619314Y-112499497D01*
X145562250Y-112466551D01*
X145505187Y-112433605D01*
X145441539Y-112416551D01*
X145377892Y-112399497D01*
X131377892Y-112399497D01*
X131246108Y-112399497D01*
X131118812Y-112433605D01*
X131004686Y-112499497D01*
X131004683Y-112499499D01*
X130911502Y-112592680D01*
X130911500Y-112592683D01*
X130845608Y-112706809D01*
X130811500Y-112834105D01*
X126762500Y-112834105D01*
X126728392Y-112706811D01*
X126662500Y-112592683D01*
X126569314Y-112499497D01*
X126512250Y-112466551D01*
X126455187Y-112433605D01*
X126391539Y-112416551D01*
X126327892Y-112399497D01*
X112327892Y-112399497D01*
X112196108Y-112399497D01*
X112068812Y-112433605D01*
X111954686Y-112499497D01*
X111954683Y-112499499D01*
X111861502Y-112592680D01*
X111861500Y-112592683D01*
X111795608Y-112706809D01*
X111761500Y-112834105D01*
X107712500Y-112834105D01*
X107678392Y-112706811D01*
X107612500Y-112592683D01*
X107519314Y-112499497D01*
X107462250Y-112466551D01*
X107405187Y-112433605D01*
X107341539Y-112416551D01*
X107277892Y-112399497D01*
X93277891Y-112399497D01*
X93146107Y-112399497D01*
X93018811Y-112433605D01*
X92904685Y-112499497D01*
X92904682Y-112499499D01*
X92811501Y-112592680D01*
X92811499Y-112592683D01*
X92745607Y-112706809D01*
X92711499Y-112834105D01*
X88662499Y-112834105D01*
X88628391Y-112706811D01*
X88562499Y-112592683D01*
X88469313Y-112499497D01*
X88412249Y-112466551D01*
X88355186Y-112433605D01*
X88291538Y-112416551D01*
X88227891Y-112399497D01*
X74227891Y-112399497D01*
X74096107Y-112399497D01*
X73968811Y-112433605D01*
X73854685Y-112499497D01*
X73854682Y-112499499D01*
X73761501Y-112592680D01*
X73761499Y-112592683D01*
X73695607Y-112706809D01*
X73661499Y-112834105D01*
X64850499Y-112834105D01*
X64816391Y-112706811D01*
X64750499Y-112592683D01*
X64657313Y-112499497D01*
X64600249Y-112466551D01*
X64543186Y-112433605D01*
X64479538Y-112416551D01*
X64415891Y-112399497D01*
X50415891Y-112399497D01*
X50284107Y-112399497D01*
X50156811Y-112433605D01*
X50042685Y-112499497D01*
X50042682Y-112499499D01*
X49949501Y-112592680D01*
X49949499Y-112592683D01*
X49883607Y-112706809D01*
X49849499Y-112834105D01*
X41873499Y-112834105D01*
X41873499Y-105374105D01*
X45092499Y-105374105D01*
X45092499Y-108674105D01*
X45092499Y-108805889D01*
X45109553Y-108869536D01*
X45126607Y-108933184D01*
X45143928Y-108963184D01*
X45192499Y-109047311D01*
X45285685Y-109140497D01*
X45399813Y-109206389D01*
X45527107Y-109240497D01*
X45527109Y-109240497D01*
X49358889Y-109240497D01*
X49358891Y-109240497D01*
X49486185Y-109206389D01*
X49600313Y-109140497D01*
X49693499Y-109047311D01*
X49759391Y-108933183D01*
X49793499Y-108805889D01*
X49793499Y-105374105D01*
X70092499Y-105374105D01*
X70092499Y-108674105D01*
X70092499Y-108805889D01*
X70109553Y-108869536D01*
X70126607Y-108933184D01*
X70143928Y-108963184D01*
X70192499Y-109047311D01*
X70285685Y-109140497D01*
X70399813Y-109206389D01*
X70527107Y-109240497D01*
X70527109Y-109240497D01*
X74358889Y-109240497D01*
X74358891Y-109240497D01*
X74486185Y-109206389D01*
X74600313Y-109140497D01*
X74693499Y-109047311D01*
X74759391Y-108933183D01*
X74793499Y-108805889D01*
X74793499Y-105374105D01*
X95092499Y-105374105D01*
X95092499Y-108674105D01*
X95092499Y-108805889D01*
X95109553Y-108869536D01*
X95126607Y-108933184D01*
X95143928Y-108963184D01*
X95192499Y-109047311D01*
X95285685Y-109140497D01*
X95399813Y-109206389D01*
X95527107Y-109240497D01*
X95527109Y-109240497D01*
X99358889Y-109240497D01*
X99358891Y-109240497D01*
X99486185Y-109206389D01*
X99600313Y-109140497D01*
X99693499Y-109047311D01*
X99759391Y-108933183D01*
X99793499Y-108805889D01*
X99793499Y-105374105D01*
X120092500Y-105374105D01*
X120092500Y-108674105D01*
X120092500Y-108805889D01*
X120109554Y-108869536D01*
X120126608Y-108933184D01*
X120143929Y-108963184D01*
X120192500Y-109047311D01*
X120285686Y-109140497D01*
X120399814Y-109206389D01*
X120527108Y-109240497D01*
X120527110Y-109240497D01*
X124358890Y-109240497D01*
X124358892Y-109240497D01*
X124486186Y-109206389D01*
X124600314Y-109140497D01*
X124693500Y-109047311D01*
X124759392Y-108933183D01*
X124793500Y-108805889D01*
X124793500Y-105374105D01*
X145092500Y-105374105D01*
X145092500Y-108674105D01*
X145092500Y-108805889D01*
X145109554Y-108869536D01*
X145126608Y-108933184D01*
X145143929Y-108963184D01*
X145192500Y-109047311D01*
X145285686Y-109140497D01*
X145399814Y-109206389D01*
X145527108Y-109240497D01*
X145527110Y-109240497D01*
X149358890Y-109240497D01*
X149358892Y-109240497D01*
X149486186Y-109206389D01*
X149600314Y-109140497D01*
X149693500Y-109047311D01*
X149759392Y-108933183D01*
X149793500Y-108805889D01*
X149793500Y-105374105D01*
X170092500Y-105374105D01*
X170092500Y-108674105D01*
X170092500Y-108805889D01*
X170109554Y-108869536D01*
X170126608Y-108933184D01*
X170143929Y-108963184D01*
X170192500Y-109047311D01*
X170285686Y-109140497D01*
X170399814Y-109206389D01*
X170527108Y-109240497D01*
X170527110Y-109240497D01*
X174358890Y-109240497D01*
X174358892Y-109240497D01*
X174486186Y-109206389D01*
X174600314Y-109140497D01*
X174693500Y-109047311D01*
X174759392Y-108933183D01*
X174793500Y-108805889D01*
X174793500Y-105374105D01*
X195092500Y-105374105D01*
X195092500Y-108674105D01*
X195092500Y-108805889D01*
X195109554Y-108869536D01*
X195126608Y-108933184D01*
X195143929Y-108963184D01*
X195192500Y-109047311D01*
X195285686Y-109140497D01*
X195399814Y-109206389D01*
X195527108Y-109240497D01*
X195527110Y-109240497D01*
X199358890Y-109240497D01*
X199358892Y-109240497D01*
X199486186Y-109206389D01*
X199600314Y-109140497D01*
X199693500Y-109047311D01*
X199759392Y-108933183D01*
X199793500Y-108805889D01*
X199793500Y-105374105D01*
X220092500Y-105374105D01*
X220092500Y-108674105D01*
X220092500Y-108805889D01*
X220109554Y-108869536D01*
X220126608Y-108933184D01*
X220143929Y-108963184D01*
X220192500Y-109047311D01*
X220285686Y-109140497D01*
X220399814Y-109206389D01*
X220527108Y-109240497D01*
X220527110Y-109240497D01*
X224358890Y-109240497D01*
X224358892Y-109240497D01*
X224486186Y-109206389D01*
X224600314Y-109140497D01*
X224693500Y-109047311D01*
X224759392Y-108933183D01*
X224793500Y-108805889D01*
X224793500Y-105374105D01*
X245092500Y-105374105D01*
X245092500Y-108674105D01*
X245092500Y-108805889D01*
X245109554Y-108869536D01*
X245126608Y-108933184D01*
X245143929Y-108963184D01*
X245192500Y-109047311D01*
X245285686Y-109140497D01*
X245399814Y-109206389D01*
X245527108Y-109240497D01*
X245527110Y-109240497D01*
X249358890Y-109240497D01*
X249358892Y-109240497D01*
X249486186Y-109206389D01*
X249600314Y-109140497D01*
X249693500Y-109047311D01*
X249759392Y-108933183D01*
X249793500Y-108805889D01*
X249793500Y-105374105D01*
X270092500Y-105374105D01*
X270092500Y-108674105D01*
X270092500Y-108805889D01*
X270109554Y-108869536D01*
X270126608Y-108933184D01*
X270143929Y-108963184D01*
X270192500Y-109047311D01*
X270285686Y-109140497D01*
X270399814Y-109206389D01*
X270527108Y-109240497D01*
X270527110Y-109240497D01*
X274358890Y-109240497D01*
X274358892Y-109240497D01*
X274486186Y-109206389D01*
X274600314Y-109140497D01*
X274693500Y-109047311D01*
X274759392Y-108933183D01*
X274793500Y-108805889D01*
X274793500Y-105374105D01*
X295092500Y-105374105D01*
X295092500Y-108674105D01*
X295092500Y-108805889D01*
X295109554Y-108869536D01*
X295126608Y-108933184D01*
X295143929Y-108963184D01*
X295192500Y-109047311D01*
X295285686Y-109140497D01*
X295399814Y-109206389D01*
X295527108Y-109240497D01*
X295527110Y-109240497D01*
X299358890Y-109240497D01*
X299358892Y-109240497D01*
X299486186Y-109206389D01*
X299600314Y-109140497D01*
X299693500Y-109047311D01*
X299759392Y-108933183D01*
X299793500Y-108805889D01*
X299793500Y-105404105D01*
X320092500Y-105404105D01*
X320092500Y-108835888D01*
X320126608Y-108963184D01*
X320159554Y-109020247D01*
X320192500Y-109077311D01*
X320285686Y-109170497D01*
X320399814Y-109236389D01*
X320527108Y-109270497D01*
X320527110Y-109270497D01*
X324358890Y-109270497D01*
X324358892Y-109270497D01*
X324486186Y-109236389D01*
X324600314Y-109170497D01*
X324693500Y-109077311D01*
X324759392Y-108963183D01*
X324793500Y-108835889D01*
X324793500Y-108071105D01*
X340361500Y-108071105D01*
X340361500Y-122202891D01*
X340395608Y-122330187D01*
X340428554Y-122387250D01*
X340461500Y-122444314D01*
X340554686Y-122537500D01*
X340668814Y-122603392D01*
X340796108Y-122637500D01*
X340796110Y-122637500D01*
X354927890Y-122637500D01*
X354927892Y-122637500D01*
X355055186Y-122603392D01*
X355169314Y-122537500D01*
X355262500Y-122444314D01*
X355328392Y-122330186D01*
X355362500Y-122202892D01*
X355362500Y-108071105D01*
X359411500Y-108071105D01*
X359411500Y-122202891D01*
X359445608Y-122330187D01*
X359478554Y-122387250D01*
X359511500Y-122444314D01*
X359604686Y-122537500D01*
X359718814Y-122603392D01*
X359846108Y-122637500D01*
X359846110Y-122637500D01*
X373977890Y-122637500D01*
X373977892Y-122637500D01*
X374105186Y-122603392D01*
X374219314Y-122537500D01*
X374312500Y-122444314D01*
X374378392Y-122330186D01*
X374412500Y-122202892D01*
X374412500Y-108071105D01*
X374378392Y-107943811D01*
X374312500Y-107829683D01*
X374219314Y-107736497D01*
X374162250Y-107703551D01*
X374105187Y-107670605D01*
X374041539Y-107653551D01*
X373977892Y-107636497D01*
X359977892Y-107636497D01*
X359846108Y-107636497D01*
X359718812Y-107670605D01*
X359604686Y-107736497D01*
X359604683Y-107736499D01*
X359511502Y-107829680D01*
X359511500Y-107829683D01*
X359445608Y-107943809D01*
X359411500Y-108071105D01*
X355362500Y-108071105D01*
X355328392Y-107943811D01*
X355262500Y-107829683D01*
X355169314Y-107736497D01*
X355112250Y-107703551D01*
X355055187Y-107670605D01*
X354991539Y-107653551D01*
X354927892Y-107636497D01*
X340927892Y-107636497D01*
X340796108Y-107636497D01*
X340668812Y-107670605D01*
X340554686Y-107736497D01*
X340554683Y-107736499D01*
X340461502Y-107829680D01*
X340461500Y-107829683D01*
X340395608Y-107943809D01*
X340361500Y-108071105D01*
X324793500Y-108071105D01*
X324793500Y-105404105D01*
X324759392Y-105276811D01*
X324693500Y-105162683D01*
X324600314Y-105069497D01*
X324543250Y-105036551D01*
X324486187Y-105003605D01*
X324374223Y-104973605D01*
X324358892Y-104969497D01*
X320658892Y-104969497D01*
X320527108Y-104969497D01*
X320399812Y-105003605D01*
X320285686Y-105069497D01*
X320285683Y-105069499D01*
X320192502Y-105162680D01*
X320192500Y-105162683D01*
X320126608Y-105276809D01*
X320092500Y-105404105D01*
X299793500Y-105404105D01*
X299793500Y-105374105D01*
X299759392Y-105246811D01*
X299693500Y-105132683D01*
X299600314Y-105039497D01*
X299538147Y-105003605D01*
X299486187Y-104973605D01*
X299422539Y-104956551D01*
X299358892Y-104939497D01*
X295658892Y-104939497D01*
X295527108Y-104939497D01*
X295399812Y-104973605D01*
X295285686Y-105039497D01*
X295285683Y-105039499D01*
X295192502Y-105132680D01*
X295192500Y-105132683D01*
X295126608Y-105246809D01*
X295092500Y-105374105D01*
X274793500Y-105374105D01*
X274759392Y-105246811D01*
X274693500Y-105132683D01*
X274600314Y-105039497D01*
X274538147Y-105003605D01*
X274486187Y-104973605D01*
X274422539Y-104956551D01*
X274358892Y-104939497D01*
X270658892Y-104939497D01*
X270527108Y-104939497D01*
X270399812Y-104973605D01*
X270285686Y-105039497D01*
X270285683Y-105039499D01*
X270192502Y-105132680D01*
X270192500Y-105132683D01*
X270126608Y-105246809D01*
X270092500Y-105374105D01*
X249793500Y-105374105D01*
X249759392Y-105246811D01*
X249693500Y-105132683D01*
X249600314Y-105039497D01*
X249538147Y-105003605D01*
X249486187Y-104973605D01*
X249422539Y-104956551D01*
X249358892Y-104939497D01*
X245658892Y-104939497D01*
X245527108Y-104939497D01*
X245399812Y-104973605D01*
X245285686Y-105039497D01*
X245285683Y-105039499D01*
X245192502Y-105132680D01*
X245192500Y-105132683D01*
X245126608Y-105246809D01*
X245092500Y-105374105D01*
X224793500Y-105374105D01*
X224759392Y-105246811D01*
X224693500Y-105132683D01*
X224600314Y-105039497D01*
X224538147Y-105003605D01*
X224486187Y-104973605D01*
X224422539Y-104956551D01*
X224358892Y-104939497D01*
X220658892Y-104939497D01*
X220527108Y-104939497D01*
X220399812Y-104973605D01*
X220285686Y-105039497D01*
X220285683Y-105039499D01*
X220192502Y-105132680D01*
X220192500Y-105132683D01*
X220126608Y-105246809D01*
X220092500Y-105374105D01*
X199793500Y-105374105D01*
X199759392Y-105246811D01*
X199693500Y-105132683D01*
X199600314Y-105039497D01*
X199538147Y-105003605D01*
X199486187Y-104973605D01*
X199422539Y-104956551D01*
X199358892Y-104939497D01*
X195658892Y-104939497D01*
X195527108Y-104939497D01*
X195399812Y-104973605D01*
X195285686Y-105039497D01*
X195285683Y-105039499D01*
X195192502Y-105132680D01*
X195192500Y-105132683D01*
X195126608Y-105246809D01*
X195092500Y-105374105D01*
X174793500Y-105374105D01*
X174759392Y-105246811D01*
X174693500Y-105132683D01*
X174600314Y-105039497D01*
X174538147Y-105003605D01*
X174486187Y-104973605D01*
X174422539Y-104956551D01*
X174358892Y-104939497D01*
X170658892Y-104939497D01*
X170527108Y-104939497D01*
X170399812Y-104973605D01*
X170285686Y-105039497D01*
X170285683Y-105039499D01*
X170192502Y-105132680D01*
X170192500Y-105132683D01*
X170126608Y-105246809D01*
X170092500Y-105374105D01*
X149793500Y-105374105D01*
X149759392Y-105246811D01*
X149693500Y-105132683D01*
X149600314Y-105039497D01*
X149538147Y-105003605D01*
X149486187Y-104973605D01*
X149422539Y-104956551D01*
X149358892Y-104939497D01*
X145658892Y-104939497D01*
X145527108Y-104939497D01*
X145399812Y-104973605D01*
X145285686Y-105039497D01*
X145285683Y-105039499D01*
X145192502Y-105132680D01*
X145192500Y-105132683D01*
X145126608Y-105246809D01*
X145092500Y-105374105D01*
X124793500Y-105374105D01*
X124759392Y-105246811D01*
X124693500Y-105132683D01*
X124600314Y-105039497D01*
X124538147Y-105003605D01*
X124486187Y-104973605D01*
X124422539Y-104956551D01*
X124358892Y-104939497D01*
X120658892Y-104939497D01*
X120527108Y-104939497D01*
X120399812Y-104973605D01*
X120285686Y-105039497D01*
X120285683Y-105039499D01*
X120192502Y-105132680D01*
X120192500Y-105132683D01*
X120126608Y-105246809D01*
X120092500Y-105374105D01*
X99793499Y-105374105D01*
X99759391Y-105246811D01*
X99693499Y-105132683D01*
X99600313Y-105039497D01*
X99538146Y-105003605D01*
X99486186Y-104973605D01*
X99422538Y-104956551D01*
X99358891Y-104939497D01*
X95658891Y-104939497D01*
X95527107Y-104939497D01*
X95399811Y-104973605D01*
X95285685Y-105039497D01*
X95285682Y-105039499D01*
X95192501Y-105132680D01*
X95192499Y-105132683D01*
X95126607Y-105246809D01*
X95092499Y-105374105D01*
X74793499Y-105374105D01*
X74759391Y-105246811D01*
X74693499Y-105132683D01*
X74600313Y-105039497D01*
X74538146Y-105003605D01*
X74486186Y-104973605D01*
X74422538Y-104956551D01*
X74358891Y-104939497D01*
X70658891Y-104939497D01*
X70527107Y-104939497D01*
X70399811Y-104973605D01*
X70285685Y-105039497D01*
X70285682Y-105039499D01*
X70192501Y-105132680D01*
X70192499Y-105132683D01*
X70126607Y-105246809D01*
X70092499Y-105374105D01*
X49793499Y-105374105D01*
X49759391Y-105246811D01*
X49693499Y-105132683D01*
X49600313Y-105039497D01*
X49538146Y-105003605D01*
X49486186Y-104973605D01*
X49422538Y-104956551D01*
X49358891Y-104939497D01*
X45658891Y-104939497D01*
X45527107Y-104939497D01*
X45399811Y-104973605D01*
X45285685Y-105039497D01*
X45285682Y-105039499D01*
X45192501Y-105132680D01*
X45192499Y-105132683D01*
X45126607Y-105246809D01*
X45092499Y-105374105D01*
X41873499Y-105374105D01*
X41873499Y-104962410D01*
X41875951Y-104937871D01*
X41917519Y-104731973D01*
X41936251Y-104687198D01*
X42012949Y-104573439D01*
X42046441Y-104539947D01*
X42160202Y-104463247D01*
X42204979Y-104444517D01*
X42410870Y-104402948D01*
X42435400Y-104400495D01*
X68532066Y-104400495D01*
X68548251Y-104401556D01*
X68572998Y-104404814D01*
X68572999Y-104404814D01*
X68573000Y-104404814D01*
X68597745Y-104401556D01*
X68613931Y-104400495D01*
X68638889Y-104400495D01*
X68638891Y-104400495D01*
X68663017Y-104394029D01*
X68678903Y-104390870D01*
X68703656Y-104387612D01*
X68726719Y-104378058D01*
X68742072Y-104372847D01*
X68766185Y-104366387D01*
X68787810Y-104353901D01*
X68802343Y-104346734D01*
X68915785Y-104299745D01*
X68915787Y-104299745D01*
X69037541Y-104249313D01*
X69142092Y-104169088D01*
X69200336Y-104093183D01*
X69222317Y-104064537D01*
X69272749Y-103942783D01*
X69272749Y-103942781D01*
X69319738Y-103829339D01*
X69326909Y-103814800D01*
X69339391Y-103793181D01*
X69345853Y-103769062D01*
X69351062Y-103753715D01*
X69360616Y-103730652D01*
X69363875Y-103705896D01*
X69367033Y-103690013D01*
X69373499Y-103665887D01*
X69373499Y-103640923D01*
X69374560Y-103624739D01*
X69377818Y-103599994D01*
X69377818Y-103599993D01*
X69374560Y-103575247D01*
X69373499Y-103559062D01*
X69373499Y-99524495D01*
X69393184Y-99457456D01*
X69445988Y-99411701D01*
X69497499Y-99400495D01*
X73248499Y-99400495D01*
X73315538Y-99420180D01*
G37*
%TD.AperFunction*%
M02*
