%TF.GenerationSoftware,KiCad,Pcbnew,8.0.2*%
%TF.CreationDate,2025-04-04T00:11:45+09:00*%
%TF.ProjectId,plate,706c6174-652e-46b6-9963-61645f706362,rev?*%
%TF.SameCoordinates,Original*%
%TF.FileFunction,Copper,L1,Top*%
%TF.FilePolarity,Positive*%
%FSLAX46Y46*%
G04 Gerber Fmt 4.6, Leading zero omitted, Abs format (unit mm)*
G04 Created by KiCad (PCBNEW 8.0.2) date 2025-04-04 00:11:45*
%MOMM*%
%LPD*%
G01*
G04 APERTURE LIST*
G04 APERTURE END LIST*
%TA.AperFunction,NonConductor*%
G36*
X72236674Y-93295973D02*
G01*
X72281449Y-93314704D01*
X72967355Y-93777155D01*
X73000850Y-93810650D01*
X73463298Y-94496555D01*
X73482031Y-94541335D01*
X73665048Y-95447869D01*
X73667500Y-95472408D01*
X73667500Y-97690456D01*
X73667257Y-97698212D01*
X73664358Y-97744453D01*
X73664359Y-97744455D01*
X73664359Y-97744459D01*
X73665047Y-97747865D01*
X73667500Y-97772408D01*
X73667500Y-97775897D01*
X73679492Y-97820652D01*
X73681265Y-97828205D01*
X73747962Y-98158566D01*
X73750113Y-98174473D01*
X73751879Y-98199790D01*
X73759870Y-98223010D01*
X73764165Y-98238817D01*
X73769024Y-98262882D01*
X73769024Y-98262883D01*
X73780308Y-98285601D01*
X73786504Y-98300412D01*
X73794759Y-98324403D01*
X73794761Y-98324407D01*
X73808484Y-98344761D01*
X73816721Y-98358912D01*
X73827648Y-98380910D01*
X73827649Y-98380911D01*
X73844426Y-98399930D01*
X73854250Y-98412639D01*
X74021560Y-98660795D01*
X74030183Y-98675730D01*
X74039988Y-98695822D01*
X74058084Y-98716631D01*
X74067328Y-98728678D01*
X74082737Y-98751531D01*
X74082738Y-98751533D01*
X74099604Y-98766201D01*
X74111791Y-98778387D01*
X74126466Y-98795261D01*
X74148509Y-98810123D01*
X74149319Y-98810669D01*
X74161367Y-98819913D01*
X74182180Y-98838013D01*
X74201233Y-98847310D01*
X74202267Y-98847815D01*
X74217205Y-98856440D01*
X74465362Y-99023752D01*
X74478066Y-99033570D01*
X74497092Y-99050352D01*
X74519082Y-99061274D01*
X74533235Y-99069512D01*
X74537231Y-99072206D01*
X74553596Y-99083240D01*
X74577582Y-99091493D01*
X74592392Y-99097689D01*
X74615118Y-99108977D01*
X74625172Y-99111006D01*
X74639188Y-99113837D01*
X74654987Y-99118129D01*
X74678209Y-99126120D01*
X74703520Y-99127884D01*
X74719427Y-99130036D01*
X74760873Y-99138403D01*
X75049808Y-99196735D01*
X75057336Y-99198503D01*
X75102108Y-99210500D01*
X75105590Y-99210500D01*
X75130128Y-99212952D01*
X75133541Y-99213641D01*
X75133544Y-99213640D01*
X75133546Y-99213641D01*
X75171234Y-99211279D01*
X75179789Y-99210742D01*
X75187544Y-99210500D01*
X152548458Y-99210500D01*
X152556212Y-99210742D01*
X152563568Y-99211203D01*
X152602455Y-99213641D01*
X152602456Y-99213640D01*
X152602461Y-99213641D01*
X152605874Y-99212952D01*
X152630412Y-99210500D01*
X152633890Y-99210500D01*
X152633892Y-99210500D01*
X152678695Y-99198494D01*
X152686177Y-99196738D01*
X153016569Y-99130034D01*
X153032475Y-99127883D01*
X153057789Y-99126119D01*
X153081013Y-99118127D01*
X153096807Y-99113835D01*
X153120882Y-99108975D01*
X153143598Y-99097690D01*
X153158414Y-99091493D01*
X153158429Y-99091488D01*
X153182402Y-99083239D01*
X153202762Y-99069510D01*
X153216910Y-99061275D01*
X153238908Y-99050350D01*
X153257943Y-99033559D01*
X153270632Y-99023752D01*
X153518799Y-98856432D01*
X153533719Y-98847819D01*
X153553816Y-98838013D01*
X153574640Y-98819902D01*
X153586670Y-98810673D01*
X153609532Y-98795260D01*
X153624194Y-98778400D01*
X153636394Y-98766199D01*
X153653258Y-98751535D01*
X153668677Y-98728664D01*
X153677920Y-98716621D01*
X153696011Y-98695819D01*
X153705818Y-98675721D01*
X153714432Y-98660800D01*
X153881749Y-98412636D01*
X153891569Y-98399933D01*
X153908348Y-98380911D01*
X153908349Y-98380910D01*
X153908348Y-98380910D01*
X153908350Y-98380909D01*
X153919273Y-98358915D01*
X153927503Y-98344773D01*
X153941238Y-98324405D01*
X153949495Y-98300407D01*
X153955691Y-98285599D01*
X153966975Y-98262883D01*
X153971834Y-98238811D01*
X153976126Y-98223016D01*
X153984119Y-98199792D01*
X153985884Y-98174475D01*
X153988035Y-98158567D01*
X154008629Y-98056561D01*
X154054735Y-97828191D01*
X154056495Y-97820692D01*
X154068500Y-97775894D01*
X154068500Y-97772408D01*
X154070952Y-97747870D01*
X154071641Y-97744460D01*
X154068743Y-97698212D01*
X154068500Y-97690461D01*
X154068500Y-97659979D01*
X154068508Y-95472407D01*
X154070959Y-95447887D01*
X154253983Y-94541335D01*
X154272715Y-94496559D01*
X154735168Y-93810647D01*
X154768655Y-93777160D01*
X155454571Y-93314703D01*
X155499347Y-93295972D01*
X156343472Y-93125552D01*
X156392548Y-93125552D01*
X157236674Y-93295973D01*
X157281449Y-93314704D01*
X157967355Y-93777155D01*
X158000850Y-93810650D01*
X158463298Y-94496555D01*
X158482031Y-94541335D01*
X158665048Y-95447869D01*
X158667500Y-95472408D01*
X158667500Y-97690457D01*
X158667257Y-97698213D01*
X158664358Y-97744454D01*
X158664359Y-97744457D01*
X158664359Y-97744460D01*
X158665047Y-97747870D01*
X158667500Y-97772409D01*
X158667500Y-97775897D01*
X158679492Y-97820652D01*
X158681265Y-97828204D01*
X158747963Y-98158567D01*
X158750114Y-98174475D01*
X158751880Y-98199789D01*
X158751880Y-98199791D01*
X158751881Y-98199792D01*
X158759873Y-98223018D01*
X158764166Y-98238819D01*
X158769023Y-98262877D01*
X158769025Y-98262884D01*
X158780310Y-98285603D01*
X158786504Y-98300408D01*
X158794762Y-98324405D01*
X158808486Y-98344761D01*
X158816722Y-98358912D01*
X158827647Y-98380906D01*
X158827648Y-98380907D01*
X158827649Y-98380908D01*
X158827650Y-98380910D01*
X158844430Y-98399933D01*
X158844433Y-98399936D01*
X158854251Y-98412639D01*
X159021559Y-98660789D01*
X159030180Y-98675721D01*
X159039986Y-98695815D01*
X159039991Y-98695823D01*
X159058086Y-98716630D01*
X159067332Y-98728680D01*
X159082741Y-98751534D01*
X159082743Y-98751536D01*
X159099599Y-98766194D01*
X159111798Y-98778392D01*
X159126468Y-98795261D01*
X159149321Y-98810669D01*
X159149323Y-98810670D01*
X159161375Y-98819918D01*
X159182182Y-98838013D01*
X159182183Y-98838013D01*
X159182184Y-98838014D01*
X159202271Y-98847816D01*
X159217202Y-98856436D01*
X159465361Y-99023748D01*
X159478062Y-99033565D01*
X159497091Y-99050350D01*
X159497092Y-99050351D01*
X159497095Y-99050353D01*
X159519087Y-99061277D01*
X159533240Y-99069515D01*
X159553598Y-99083240D01*
X159577598Y-99091498D01*
X159592400Y-99097691D01*
X159615120Y-99108976D01*
X159626952Y-99111364D01*
X159639185Y-99113835D01*
X159654980Y-99118126D01*
X159678211Y-99126120D01*
X159703521Y-99127884D01*
X159719432Y-99130035D01*
X160049816Y-99196736D01*
X160057308Y-99198495D01*
X160102108Y-99210500D01*
X160105590Y-99210500D01*
X160130128Y-99212952D01*
X160133541Y-99213641D01*
X160133544Y-99213640D01*
X160133546Y-99213641D01*
X160170764Y-99211308D01*
X160179788Y-99210742D01*
X160187543Y-99210500D01*
X259310458Y-99210500D01*
X259318212Y-99210742D01*
X259325568Y-99211203D01*
X259364455Y-99213641D01*
X259364456Y-99213640D01*
X259364461Y-99213641D01*
X259367874Y-99212952D01*
X259392412Y-99210500D01*
X259395890Y-99210500D01*
X259395892Y-99210500D01*
X259440695Y-99198494D01*
X259448177Y-99196738D01*
X259778569Y-99130034D01*
X259794475Y-99127883D01*
X259819789Y-99126119D01*
X259843013Y-99118127D01*
X259858807Y-99113835D01*
X259882882Y-99108975D01*
X259905598Y-99097690D01*
X259920414Y-99091493D01*
X259920429Y-99091488D01*
X259944402Y-99083239D01*
X259964762Y-99069510D01*
X259978910Y-99061275D01*
X260000908Y-99050350D01*
X260019943Y-99033559D01*
X260032632Y-99023752D01*
X260280799Y-98856432D01*
X260295719Y-98847819D01*
X260315816Y-98838013D01*
X260336640Y-98819902D01*
X260348670Y-98810673D01*
X260371532Y-98795260D01*
X260386194Y-98778400D01*
X260398394Y-98766199D01*
X260415258Y-98751535D01*
X260430677Y-98728664D01*
X260439920Y-98716621D01*
X260458011Y-98695819D01*
X260467818Y-98675721D01*
X260476432Y-98660800D01*
X260643749Y-98412636D01*
X260653569Y-98399933D01*
X260670348Y-98380911D01*
X260670349Y-98380910D01*
X260670348Y-98380910D01*
X260670350Y-98380909D01*
X260681273Y-98358915D01*
X260689503Y-98344773D01*
X260703238Y-98324405D01*
X260711495Y-98300407D01*
X260717691Y-98285599D01*
X260728975Y-98262883D01*
X260733834Y-98238811D01*
X260738126Y-98223016D01*
X260746119Y-98199792D01*
X260747884Y-98174475D01*
X260750035Y-98158567D01*
X260770629Y-98056561D01*
X260816735Y-97828191D01*
X260818495Y-97820692D01*
X260830500Y-97775894D01*
X260830500Y-97772408D01*
X260832952Y-97747870D01*
X260833641Y-97744460D01*
X260830743Y-97698212D01*
X260830500Y-97690461D01*
X260830500Y-97659979D01*
X260830508Y-95472404D01*
X260832958Y-95447886D01*
X261015981Y-94541337D01*
X261034713Y-94496561D01*
X261497167Y-93810647D01*
X261530654Y-93777160D01*
X262216571Y-93314704D01*
X262261347Y-93295972D01*
X263105472Y-93125552D01*
X263154548Y-93125552D01*
X263998674Y-93295973D01*
X264043449Y-93314704D01*
X264729355Y-93777155D01*
X264762850Y-93810650D01*
X265225298Y-94496555D01*
X265244031Y-94541335D01*
X265427048Y-95447869D01*
X265429500Y-95472408D01*
X265429500Y-97690457D01*
X265429257Y-97698213D01*
X265426358Y-97744454D01*
X265426359Y-97744457D01*
X265426359Y-97744460D01*
X265427047Y-97747870D01*
X265429500Y-97772409D01*
X265429500Y-97775897D01*
X265441492Y-97820652D01*
X265443265Y-97828204D01*
X265509963Y-98158567D01*
X265512114Y-98174475D01*
X265513880Y-98199789D01*
X265513880Y-98199791D01*
X265513881Y-98199792D01*
X265521873Y-98223018D01*
X265526166Y-98238819D01*
X265531023Y-98262877D01*
X265531025Y-98262884D01*
X265542310Y-98285603D01*
X265548504Y-98300408D01*
X265556762Y-98324405D01*
X265570486Y-98344761D01*
X265578722Y-98358912D01*
X265589647Y-98380906D01*
X265589648Y-98380907D01*
X265589649Y-98380908D01*
X265589650Y-98380910D01*
X265606430Y-98399933D01*
X265606433Y-98399936D01*
X265616251Y-98412639D01*
X265783559Y-98660789D01*
X265792180Y-98675721D01*
X265801986Y-98695815D01*
X265801991Y-98695823D01*
X265820086Y-98716630D01*
X265829332Y-98728680D01*
X265844741Y-98751534D01*
X265844743Y-98751536D01*
X265861599Y-98766194D01*
X265873798Y-98778392D01*
X265888468Y-98795261D01*
X265911321Y-98810669D01*
X265911323Y-98810670D01*
X265923375Y-98819918D01*
X265944182Y-98838013D01*
X265944183Y-98838013D01*
X265944184Y-98838014D01*
X265964271Y-98847816D01*
X265979202Y-98856436D01*
X266227361Y-99023748D01*
X266240062Y-99033565D01*
X266259091Y-99050350D01*
X266259092Y-99050351D01*
X266259095Y-99050353D01*
X266281087Y-99061277D01*
X266295240Y-99069515D01*
X266315598Y-99083240D01*
X266339598Y-99091498D01*
X266354400Y-99097691D01*
X266377120Y-99108976D01*
X266388952Y-99111364D01*
X266401185Y-99113835D01*
X266416980Y-99118126D01*
X266440211Y-99126120D01*
X266465521Y-99127884D01*
X266481432Y-99130035D01*
X266811816Y-99196736D01*
X266819308Y-99198495D01*
X266864108Y-99210500D01*
X266867590Y-99210500D01*
X266892128Y-99212952D01*
X266895541Y-99213641D01*
X266895544Y-99213640D01*
X266895546Y-99213641D01*
X266932764Y-99211308D01*
X266941788Y-99210742D01*
X266949543Y-99210500D01*
X344310458Y-99210500D01*
X344318212Y-99210742D01*
X344325568Y-99211203D01*
X344364455Y-99213641D01*
X344364456Y-99213640D01*
X344364461Y-99213641D01*
X344367874Y-99212952D01*
X344392412Y-99210500D01*
X344395890Y-99210500D01*
X344395892Y-99210500D01*
X344440695Y-99198494D01*
X344448177Y-99196738D01*
X344778569Y-99130034D01*
X344794475Y-99127883D01*
X344819789Y-99126119D01*
X344843013Y-99118127D01*
X344858807Y-99113835D01*
X344882882Y-99108975D01*
X344905598Y-99097690D01*
X344920414Y-99091493D01*
X344920429Y-99091488D01*
X344944402Y-99083239D01*
X344964762Y-99069510D01*
X344978910Y-99061275D01*
X345000908Y-99050350D01*
X345019943Y-99033559D01*
X345032632Y-99023752D01*
X345280799Y-98856432D01*
X345295719Y-98847819D01*
X345315816Y-98838013D01*
X345336640Y-98819902D01*
X345348670Y-98810673D01*
X345371532Y-98795260D01*
X345386194Y-98778400D01*
X345398394Y-98766199D01*
X345415258Y-98751535D01*
X345430677Y-98728664D01*
X345439920Y-98716621D01*
X345458011Y-98695819D01*
X345467818Y-98675721D01*
X345476432Y-98660800D01*
X345643749Y-98412636D01*
X345653569Y-98399933D01*
X345670348Y-98380911D01*
X345670349Y-98380910D01*
X345670348Y-98380910D01*
X345670350Y-98380909D01*
X345681273Y-98358915D01*
X345689503Y-98344773D01*
X345703238Y-98324405D01*
X345711495Y-98300407D01*
X345717691Y-98285599D01*
X345728975Y-98262883D01*
X345733834Y-98238811D01*
X345738126Y-98223016D01*
X345746119Y-98199792D01*
X345747884Y-98174475D01*
X345750035Y-98158567D01*
X345770629Y-98056561D01*
X345816735Y-97828191D01*
X345818495Y-97820692D01*
X345830500Y-97775894D01*
X345830500Y-97772408D01*
X345832952Y-97747870D01*
X345833641Y-97744460D01*
X345830743Y-97698212D01*
X345830500Y-97690461D01*
X345830500Y-97659979D01*
X345830508Y-95472407D01*
X345832959Y-95447887D01*
X346015983Y-94541335D01*
X346034715Y-94496559D01*
X346497168Y-93810646D01*
X346530655Y-93777159D01*
X347216570Y-93314703D01*
X347261346Y-93295972D01*
X348105471Y-93125552D01*
X348154547Y-93125552D01*
X348998674Y-93295973D01*
X349043449Y-93314704D01*
X349729355Y-93777155D01*
X349762850Y-93810650D01*
X350225298Y-94496555D01*
X350244031Y-94541335D01*
X350427048Y-95447869D01*
X350429500Y-95472408D01*
X350429500Y-97690457D01*
X350429257Y-97698213D01*
X350426358Y-97744454D01*
X350426359Y-97744457D01*
X350426359Y-97744460D01*
X350427047Y-97747870D01*
X350429500Y-97772409D01*
X350429500Y-97775897D01*
X350441492Y-97820652D01*
X350443265Y-97828204D01*
X350509963Y-98158567D01*
X350512114Y-98174475D01*
X350513880Y-98199789D01*
X350513880Y-98199791D01*
X350513881Y-98199792D01*
X350521873Y-98223018D01*
X350526166Y-98238819D01*
X350531023Y-98262877D01*
X350531025Y-98262884D01*
X350542310Y-98285603D01*
X350548504Y-98300408D01*
X350556762Y-98324405D01*
X350570486Y-98344761D01*
X350578722Y-98358912D01*
X350589647Y-98380906D01*
X350589648Y-98380907D01*
X350589649Y-98380908D01*
X350589650Y-98380910D01*
X350606430Y-98399933D01*
X350606433Y-98399936D01*
X350616251Y-98412639D01*
X350783559Y-98660789D01*
X350792180Y-98675721D01*
X350801986Y-98695815D01*
X350801991Y-98695823D01*
X350820086Y-98716630D01*
X350829332Y-98728680D01*
X350844741Y-98751534D01*
X350844743Y-98751536D01*
X350861599Y-98766194D01*
X350873798Y-98778392D01*
X350888468Y-98795261D01*
X350911321Y-98810669D01*
X350911323Y-98810670D01*
X350923375Y-98819918D01*
X350944182Y-98838013D01*
X350944183Y-98838013D01*
X350944184Y-98838014D01*
X350964271Y-98847816D01*
X350979202Y-98856436D01*
X351227361Y-99023748D01*
X351240062Y-99033565D01*
X351259091Y-99050350D01*
X351259092Y-99050351D01*
X351259095Y-99050353D01*
X351281087Y-99061277D01*
X351295240Y-99069515D01*
X351315598Y-99083240D01*
X351339598Y-99091498D01*
X351354400Y-99097691D01*
X351377120Y-99108976D01*
X351388952Y-99111364D01*
X351401185Y-99113835D01*
X351416980Y-99118126D01*
X351440211Y-99126120D01*
X351465521Y-99127884D01*
X351481432Y-99130035D01*
X351811816Y-99196736D01*
X351819308Y-99198495D01*
X351864108Y-99210500D01*
X351867590Y-99210500D01*
X351892128Y-99212952D01*
X351895541Y-99213641D01*
X351895544Y-99213640D01*
X351895546Y-99213641D01*
X351932764Y-99211308D01*
X351941788Y-99210742D01*
X351949543Y-99210500D01*
X377067589Y-99210500D01*
X377092128Y-99212952D01*
X377298015Y-99254518D01*
X377342795Y-99273251D01*
X377456554Y-99349949D01*
X377490050Y-99383445D01*
X377566746Y-99497201D01*
X377585478Y-99541980D01*
X377627047Y-99747872D01*
X377629500Y-99772412D01*
X377629500Y-119890457D01*
X377629257Y-119898213D01*
X377626358Y-119944454D01*
X377626359Y-119944458D01*
X377626359Y-119944460D01*
X377627047Y-119947870D01*
X377629500Y-119972409D01*
X377629500Y-119975897D01*
X377641492Y-120020652D01*
X377643265Y-120028204D01*
X377709963Y-120358567D01*
X377712114Y-120374475D01*
X377713880Y-120399789D01*
X377713880Y-120399791D01*
X377713881Y-120399792D01*
X377721873Y-120423018D01*
X377726166Y-120438819D01*
X377731023Y-120462877D01*
X377731025Y-120462884D01*
X377742310Y-120485603D01*
X377748504Y-120500408D01*
X377756762Y-120524405D01*
X377770488Y-120544763D01*
X377778722Y-120558912D01*
X377789647Y-120580906D01*
X377789648Y-120580907D01*
X377789649Y-120580908D01*
X377789650Y-120580910D01*
X377806437Y-120599941D01*
X377816253Y-120612642D01*
X377983559Y-120860790D01*
X377992184Y-120875728D01*
X378001986Y-120895815D01*
X378001989Y-120895820D01*
X378020082Y-120916625D01*
X378029327Y-120928672D01*
X378044743Y-120951536D01*
X378061609Y-120966204D01*
X378073802Y-120978396D01*
X378088468Y-120995260D01*
X378096964Y-121000988D01*
X378111325Y-121010671D01*
X378123373Y-121019916D01*
X378144182Y-121038012D01*
X378144183Y-121038012D01*
X378144184Y-121038013D01*
X378164273Y-121047816D01*
X378179204Y-121056436D01*
X378427359Y-121223746D01*
X378440065Y-121233567D01*
X378459092Y-121250350D01*
X378459095Y-121250351D01*
X378459096Y-121250352D01*
X378481082Y-121261273D01*
X378495233Y-121269508D01*
X378515598Y-121283239D01*
X378539584Y-121291492D01*
X378554396Y-121297688D01*
X378577119Y-121308975D01*
X378601185Y-121313833D01*
X378616981Y-121318125D01*
X378640211Y-121326119D01*
X378665529Y-121327884D01*
X378681431Y-121330035D01*
X379011785Y-121396732D01*
X379019327Y-121398501D01*
X379064106Y-121410500D01*
X379067588Y-121410500D01*
X379092126Y-121412952D01*
X379095539Y-121413641D01*
X379095542Y-121413640D01*
X379095544Y-121413641D01*
X379136834Y-121411052D01*
X379141781Y-121410742D01*
X379149536Y-121410500D01*
X381367591Y-121410508D01*
X381392113Y-121412959D01*
X382298661Y-121595982D01*
X382343441Y-121614715D01*
X382771301Y-121903186D01*
X383029346Y-122077164D01*
X383062842Y-122110660D01*
X383525293Y-122796569D01*
X383544026Y-122841349D01*
X383714446Y-123685470D01*
X383714446Y-123734548D01*
X383544026Y-124578669D01*
X383525293Y-124623449D01*
X383062843Y-125309356D01*
X383029347Y-125342852D01*
X382343442Y-125805298D01*
X382298662Y-125824031D01*
X381392130Y-126007048D01*
X381367591Y-126009500D01*
X379149543Y-126009500D01*
X379141788Y-126009257D01*
X379139258Y-126009098D01*
X379095546Y-126006358D01*
X379095539Y-126006359D01*
X379092128Y-126007048D01*
X379067590Y-126009500D01*
X379064104Y-126009500D01*
X379019338Y-126021495D01*
X379011786Y-126023268D01*
X378681436Y-126089962D01*
X378665529Y-126092113D01*
X378640212Y-126093879D01*
X378640209Y-126093880D01*
X378616979Y-126101872D01*
X378601186Y-126106163D01*
X378577127Y-126111021D01*
X378577118Y-126111024D01*
X378554402Y-126122307D01*
X378539595Y-126128501D01*
X378515603Y-126136757D01*
X378515599Y-126136759D01*
X378495231Y-126150490D01*
X378481086Y-126158722D01*
X378459095Y-126169646D01*
X378459089Y-126169650D01*
X378440064Y-126186431D01*
X378427360Y-126196250D01*
X378179204Y-126363561D01*
X378164271Y-126372183D01*
X378144184Y-126381986D01*
X378123377Y-126400080D01*
X378111334Y-126409321D01*
X378088468Y-126424739D01*
X378073798Y-126441607D01*
X378061608Y-126453796D01*
X378044741Y-126468465D01*
X378029329Y-126491323D01*
X378020088Y-126503367D01*
X378001990Y-126524178D01*
X378001989Y-126524179D01*
X378001989Y-126524180D01*
X377992179Y-126544281D01*
X377983562Y-126559204D01*
X377816249Y-126807362D01*
X377806435Y-126820060D01*
X377789652Y-126839086D01*
X377789648Y-126839092D01*
X377778723Y-126861085D01*
X377770489Y-126875232D01*
X377756763Y-126895591D01*
X377756762Y-126895594D01*
X377748504Y-126919589D01*
X377742312Y-126934390D01*
X377731026Y-126957114D01*
X377731024Y-126957120D01*
X377726166Y-126981180D01*
X377721873Y-126996980D01*
X377713881Y-127020205D01*
X377713880Y-127020213D01*
X377712114Y-127045523D01*
X377709963Y-127061431D01*
X377643265Y-127391795D01*
X377641492Y-127399346D01*
X377629501Y-127444100D01*
X377629500Y-127444108D01*
X377629500Y-127447588D01*
X377627048Y-127472124D01*
X377626359Y-127475533D01*
X377626358Y-127475545D01*
X377629257Y-127521784D01*
X377629500Y-127529541D01*
X377629500Y-159000447D01*
X377629257Y-159008203D01*
X377626358Y-159054444D01*
X377626359Y-159054448D01*
X377626359Y-159054450D01*
X377627047Y-159057860D01*
X377629500Y-159082399D01*
X377629500Y-159085887D01*
X377641492Y-159130642D01*
X377643265Y-159138194D01*
X377709963Y-159468557D01*
X377712114Y-159484465D01*
X377713880Y-159509779D01*
X377713880Y-159509781D01*
X377713881Y-159509782D01*
X377721873Y-159533008D01*
X377726166Y-159548809D01*
X377731023Y-159572867D01*
X377731025Y-159572874D01*
X377742310Y-159595593D01*
X377748504Y-159610398D01*
X377756762Y-159634395D01*
X377770488Y-159654753D01*
X377778722Y-159668902D01*
X377789647Y-159690896D01*
X377789648Y-159690897D01*
X377789649Y-159690898D01*
X377789650Y-159690900D01*
X377806437Y-159709931D01*
X377816253Y-159722632D01*
X377983559Y-159970780D01*
X377992184Y-159985718D01*
X378001986Y-160005805D01*
X378001989Y-160005810D01*
X378020082Y-160026615D01*
X378029325Y-160038659D01*
X378044741Y-160061524D01*
X378044743Y-160061526D01*
X378061609Y-160076194D01*
X378073802Y-160088386D01*
X378074460Y-160089142D01*
X378088468Y-160105250D01*
X378088471Y-160105252D01*
X378111325Y-160120661D01*
X378123373Y-160129906D01*
X378144182Y-160148002D01*
X378144183Y-160148002D01*
X378144184Y-160148003D01*
X378164273Y-160157806D01*
X378179204Y-160166426D01*
X378427359Y-160333736D01*
X378440065Y-160343557D01*
X378448853Y-160351308D01*
X378459092Y-160360340D01*
X378459095Y-160360341D01*
X378459096Y-160360342D01*
X378481082Y-160371263D01*
X378495233Y-160379498D01*
X378515598Y-160393229D01*
X378539584Y-160401482D01*
X378554396Y-160407678D01*
X378577119Y-160418965D01*
X378601185Y-160423823D01*
X378616981Y-160428115D01*
X378640211Y-160436109D01*
X378665529Y-160437874D01*
X378681431Y-160440025D01*
X379011785Y-160506722D01*
X379019327Y-160508491D01*
X379064106Y-160520490D01*
X379067588Y-160520490D01*
X379092126Y-160522942D01*
X379095539Y-160523631D01*
X379095542Y-160523630D01*
X379095544Y-160523631D01*
X379136834Y-160521042D01*
X379141781Y-160520732D01*
X379149536Y-160520490D01*
X381367591Y-160520498D01*
X381392113Y-160522949D01*
X382298661Y-160705972D01*
X382343441Y-160724705D01*
X383029346Y-161187154D01*
X383062842Y-161220650D01*
X383525293Y-161906559D01*
X383544026Y-161951339D01*
X383714446Y-162795460D01*
X383714446Y-162844538D01*
X383544026Y-163688659D01*
X383525293Y-163733439D01*
X383062843Y-164419346D01*
X383029347Y-164452842D01*
X382343442Y-164915288D01*
X382298662Y-164934021D01*
X381392130Y-165117038D01*
X381367591Y-165119490D01*
X379149543Y-165119490D01*
X379141788Y-165119247D01*
X379139258Y-165119088D01*
X379095546Y-165116348D01*
X379095539Y-165116349D01*
X379092128Y-165117038D01*
X379067590Y-165119490D01*
X379064104Y-165119490D01*
X379019338Y-165131485D01*
X379011786Y-165133258D01*
X378681436Y-165199952D01*
X378665529Y-165202103D01*
X378640212Y-165203869D01*
X378640209Y-165203870D01*
X378616979Y-165211862D01*
X378601186Y-165216153D01*
X378577127Y-165221011D01*
X378577118Y-165221014D01*
X378554402Y-165232297D01*
X378539595Y-165238491D01*
X378515603Y-165246747D01*
X378515599Y-165246749D01*
X378495231Y-165260480D01*
X378481086Y-165268712D01*
X378459095Y-165279636D01*
X378459089Y-165279640D01*
X378440064Y-165296421D01*
X378427360Y-165306240D01*
X378179204Y-165473551D01*
X378164271Y-165482173D01*
X378144184Y-165491976D01*
X378123377Y-165510070D01*
X378111334Y-165519311D01*
X378088468Y-165534729D01*
X378073798Y-165551597D01*
X378061608Y-165563786D01*
X378044741Y-165578455D01*
X378029329Y-165601313D01*
X378020088Y-165613357D01*
X378001990Y-165634168D01*
X378001989Y-165634169D01*
X378001989Y-165634170D01*
X377992179Y-165654271D01*
X377983562Y-165669194D01*
X377816249Y-165917352D01*
X377806435Y-165930050D01*
X377789652Y-165949076D01*
X377789648Y-165949082D01*
X377778723Y-165971075D01*
X377770489Y-165985222D01*
X377756763Y-166005581D01*
X377756762Y-166005584D01*
X377748504Y-166029579D01*
X377742312Y-166044380D01*
X377731026Y-166067104D01*
X377731024Y-166067110D01*
X377726166Y-166091170D01*
X377721873Y-166106970D01*
X377713881Y-166130195D01*
X377713880Y-166130203D01*
X377712114Y-166155513D01*
X377709963Y-166171421D01*
X377643265Y-166501785D01*
X377641492Y-166509336D01*
X377629501Y-166554090D01*
X377629500Y-166554098D01*
X377629500Y-166557578D01*
X377627048Y-166582114D01*
X377626359Y-166585523D01*
X377626358Y-166585535D01*
X377629257Y-166631774D01*
X377629500Y-166639531D01*
X377629500Y-186757586D01*
X377627047Y-186782126D01*
X377585478Y-186988018D01*
X377566746Y-187032797D01*
X377490050Y-187146553D01*
X377456554Y-187180049D01*
X377342795Y-187256747D01*
X377298016Y-187275479D01*
X377092128Y-187317047D01*
X377067588Y-187319500D01*
X351949562Y-187319500D01*
X351941807Y-187319257D01*
X351939430Y-187319108D01*
X351895564Y-187316358D01*
X351895557Y-187316359D01*
X351892146Y-187317048D01*
X351867608Y-187319500D01*
X351864122Y-187319500D01*
X351819368Y-187331492D01*
X351811816Y-187333265D01*
X351481445Y-187399965D01*
X351465542Y-187402115D01*
X351449004Y-187403269D01*
X351440226Y-187403881D01*
X351417000Y-187411873D01*
X351401203Y-187416166D01*
X351377136Y-187421025D01*
X351354416Y-187432310D01*
X351339611Y-187438504D01*
X351315618Y-187446761D01*
X351315614Y-187446762D01*
X351295258Y-187460487D01*
X351281107Y-187468724D01*
X351259111Y-187479650D01*
X351240086Y-187496431D01*
X351227382Y-187506250D01*
X350979224Y-187673562D01*
X350964291Y-187682184D01*
X350944204Y-187691987D01*
X350923393Y-187710084D01*
X350911348Y-187719326D01*
X350888486Y-187734740D01*
X350873820Y-187751604D01*
X350861631Y-187763794D01*
X350849549Y-187774301D01*
X350844762Y-187778465D01*
X350844761Y-187778466D01*
X350844760Y-187778466D01*
X350829349Y-187801324D01*
X350820107Y-187813369D01*
X350802008Y-187834181D01*
X350802008Y-187834182D01*
X350792205Y-187854270D01*
X350783581Y-187869205D01*
X350616273Y-188117356D01*
X350606456Y-188130059D01*
X350606455Y-188130061D01*
X350606453Y-188130063D01*
X350589669Y-188149090D01*
X350589668Y-188149092D01*
X350578743Y-188171085D01*
X350570509Y-188185232D01*
X350556783Y-188205591D01*
X350556782Y-188205594D01*
X350548524Y-188229589D01*
X350542332Y-188244390D01*
X350531046Y-188267114D01*
X350531044Y-188267120D01*
X350526186Y-188291180D01*
X350521893Y-188306980D01*
X350513901Y-188330205D01*
X350513900Y-188330213D01*
X350512134Y-188355523D01*
X350509983Y-188371430D01*
X350443287Y-188701787D01*
X350441514Y-188709340D01*
X350429520Y-188754103D01*
X350429520Y-188757598D01*
X350427069Y-188782119D01*
X350426378Y-188785539D01*
X350429275Y-188831782D01*
X350429518Y-188839533D01*
X350429510Y-191057582D01*
X350427058Y-191082121D01*
X350244036Y-191988660D01*
X350225303Y-192033440D01*
X349762853Y-192719348D01*
X349729357Y-192752844D01*
X349043449Y-193215294D01*
X348998669Y-193234027D01*
X348154548Y-193404446D01*
X348105470Y-193404446D01*
X347261346Y-193234027D01*
X347216566Y-193215293D01*
X346530665Y-192752846D01*
X346497169Y-192719351D01*
X346497166Y-192719347D01*
X346034720Y-192033442D01*
X346015987Y-191988662D01*
X345832972Y-191082129D01*
X345830520Y-191057590D01*
X345830520Y-188839541D01*
X345830763Y-188831784D01*
X345833661Y-188785545D01*
X345833660Y-188785533D01*
X345832972Y-188782124D01*
X345830520Y-188757588D01*
X345830520Y-188754110D01*
X345830520Y-188754109D01*
X345830520Y-188754108D01*
X345818519Y-188709322D01*
X345816753Y-188701798D01*
X345750055Y-188371429D01*
X345747903Y-188355516D01*
X345747903Y-188355515D01*
X345746139Y-188330209D01*
X345738144Y-188306977D01*
X345733853Y-188291182D01*
X345728995Y-188267117D01*
X345717706Y-188244390D01*
X345711514Y-188229591D01*
X345703258Y-188205596D01*
X345703256Y-188205593D01*
X345703255Y-188205590D01*
X345703254Y-188205589D01*
X345689532Y-188185236D01*
X345681290Y-188171077D01*
X345675963Y-188160352D01*
X345670370Y-188149091D01*
X345660804Y-188138246D01*
X345653585Y-188130061D01*
X345643766Y-188117357D01*
X345514023Y-187924924D01*
X345476456Y-187869205D01*
X345467831Y-187854265D01*
X345458032Y-187834181D01*
X345439932Y-187813368D01*
X345430686Y-187801318D01*
X345415278Y-187778465D01*
X345398413Y-187763798D01*
X345386219Y-187751604D01*
X345371554Y-187734741D01*
X345371553Y-187734740D01*
X345371552Y-187734739D01*
X345348678Y-187719317D01*
X345336647Y-187710084D01*
X345315837Y-187691987D01*
X345315835Y-187691986D01*
X345315834Y-187691985D01*
X345295750Y-187682184D01*
X345280814Y-187673561D01*
X345032657Y-187506250D01*
X345019948Y-187496426D01*
X345000931Y-187479651D01*
X345000929Y-187479649D01*
X345000927Y-187479648D01*
X344987734Y-187473095D01*
X344978933Y-187468723D01*
X344964780Y-187460485D01*
X344944422Y-187446760D01*
X344944421Y-187446759D01*
X344928558Y-187441301D01*
X344920432Y-187438505D01*
X344905621Y-187432309D01*
X344882902Y-187421024D01*
X344882897Y-187421023D01*
X344858838Y-187416165D01*
X344843037Y-187411872D01*
X344819811Y-187403880D01*
X344819803Y-187403879D01*
X344794491Y-187402113D01*
X344778584Y-187399962D01*
X344448229Y-187333267D01*
X344440676Y-187331494D01*
X344395913Y-187319500D01*
X344395912Y-187319500D01*
X344392431Y-187319500D01*
X344367893Y-187317048D01*
X344364481Y-187316359D01*
X344364474Y-187316358D01*
X344320505Y-187319114D01*
X344318231Y-187319257D01*
X344310477Y-187319500D01*
X266949562Y-187319500D01*
X266941807Y-187319257D01*
X266939430Y-187319108D01*
X266895564Y-187316358D01*
X266895557Y-187316359D01*
X266892146Y-187317048D01*
X266867608Y-187319500D01*
X266864122Y-187319500D01*
X266819368Y-187331492D01*
X266811816Y-187333265D01*
X266481445Y-187399965D01*
X266465542Y-187402115D01*
X266449004Y-187403269D01*
X266440226Y-187403881D01*
X266417000Y-187411873D01*
X266401203Y-187416166D01*
X266377136Y-187421025D01*
X266354416Y-187432310D01*
X266339611Y-187438504D01*
X266315618Y-187446761D01*
X266315614Y-187446762D01*
X266295258Y-187460487D01*
X266281107Y-187468724D01*
X266259111Y-187479650D01*
X266240086Y-187496431D01*
X266227382Y-187506250D01*
X265979224Y-187673562D01*
X265964291Y-187682184D01*
X265944204Y-187691987D01*
X265923393Y-187710084D01*
X265911348Y-187719326D01*
X265888486Y-187734740D01*
X265873820Y-187751604D01*
X265861631Y-187763794D01*
X265849549Y-187774301D01*
X265844762Y-187778465D01*
X265844761Y-187778466D01*
X265844760Y-187778466D01*
X265829349Y-187801324D01*
X265820107Y-187813369D01*
X265802008Y-187834181D01*
X265802008Y-187834182D01*
X265792205Y-187854270D01*
X265783581Y-187869205D01*
X265616273Y-188117356D01*
X265606456Y-188130059D01*
X265606455Y-188130061D01*
X265606453Y-188130063D01*
X265589669Y-188149090D01*
X265589668Y-188149092D01*
X265578743Y-188171085D01*
X265570509Y-188185232D01*
X265556783Y-188205591D01*
X265556782Y-188205594D01*
X265548524Y-188229589D01*
X265542332Y-188244390D01*
X265531046Y-188267114D01*
X265531044Y-188267120D01*
X265526186Y-188291180D01*
X265521893Y-188306980D01*
X265513901Y-188330205D01*
X265513900Y-188330213D01*
X265512134Y-188355523D01*
X265509983Y-188371430D01*
X265443287Y-188701787D01*
X265441514Y-188709340D01*
X265429520Y-188754103D01*
X265429520Y-188757598D01*
X265427069Y-188782119D01*
X265426378Y-188785539D01*
X265429275Y-188831782D01*
X265429518Y-188839533D01*
X265429510Y-191057584D01*
X265427058Y-191082123D01*
X265244037Y-191988661D01*
X265225304Y-192033441D01*
X264762855Y-192719347D01*
X264729359Y-192752843D01*
X264043449Y-193215294D01*
X263998669Y-193234027D01*
X263154548Y-193404446D01*
X263105470Y-193404446D01*
X262261346Y-193234027D01*
X262216566Y-193215293D01*
X261530665Y-192752846D01*
X261497169Y-192719351D01*
X261497166Y-192719347D01*
X261034720Y-192033442D01*
X261015987Y-191988662D01*
X260832972Y-191082129D01*
X260830520Y-191057590D01*
X260830520Y-188839541D01*
X260830763Y-188831784D01*
X260833661Y-188785545D01*
X260833660Y-188785533D01*
X260832972Y-188782124D01*
X260830520Y-188757588D01*
X260830520Y-188754110D01*
X260830520Y-188754109D01*
X260830520Y-188754108D01*
X260818519Y-188709322D01*
X260816753Y-188701798D01*
X260750055Y-188371429D01*
X260747903Y-188355516D01*
X260747903Y-188355515D01*
X260746139Y-188330209D01*
X260738144Y-188306977D01*
X260733853Y-188291182D01*
X260728995Y-188267117D01*
X260717706Y-188244390D01*
X260711514Y-188229591D01*
X260703258Y-188205596D01*
X260703256Y-188205593D01*
X260703255Y-188205590D01*
X260703254Y-188205589D01*
X260689532Y-188185236D01*
X260681290Y-188171077D01*
X260675963Y-188160352D01*
X260670370Y-188149091D01*
X260660804Y-188138246D01*
X260653585Y-188130061D01*
X260643766Y-188117357D01*
X260514023Y-187924924D01*
X260476456Y-187869205D01*
X260467831Y-187854265D01*
X260458032Y-187834181D01*
X260439932Y-187813368D01*
X260430686Y-187801318D01*
X260415278Y-187778465D01*
X260398413Y-187763798D01*
X260386219Y-187751604D01*
X260371554Y-187734741D01*
X260371553Y-187734740D01*
X260371552Y-187734739D01*
X260348678Y-187719317D01*
X260336647Y-187710084D01*
X260315837Y-187691987D01*
X260315835Y-187691986D01*
X260315834Y-187691985D01*
X260295750Y-187682184D01*
X260280814Y-187673561D01*
X260032657Y-187506250D01*
X260019948Y-187496426D01*
X260000931Y-187479651D01*
X260000929Y-187479649D01*
X260000927Y-187479648D01*
X259987734Y-187473095D01*
X259978933Y-187468723D01*
X259964780Y-187460485D01*
X259944422Y-187446760D01*
X259944421Y-187446759D01*
X259928558Y-187441301D01*
X259920432Y-187438505D01*
X259905621Y-187432309D01*
X259882902Y-187421024D01*
X259882897Y-187421023D01*
X259858838Y-187416165D01*
X259843037Y-187411872D01*
X259819811Y-187403880D01*
X259819803Y-187403879D01*
X259794491Y-187402113D01*
X259778584Y-187399962D01*
X259448229Y-187333267D01*
X259440676Y-187331494D01*
X259395913Y-187319500D01*
X259395912Y-187319500D01*
X259392431Y-187319500D01*
X259367893Y-187317048D01*
X259364481Y-187316359D01*
X259364474Y-187316358D01*
X259320505Y-187319114D01*
X259318231Y-187319257D01*
X259310477Y-187319500D01*
X160187562Y-187319500D01*
X160179807Y-187319257D01*
X160177430Y-187319108D01*
X160133564Y-187316358D01*
X160133557Y-187316359D01*
X160130146Y-187317048D01*
X160105608Y-187319500D01*
X160102122Y-187319500D01*
X160057368Y-187331492D01*
X160049816Y-187333265D01*
X159719445Y-187399965D01*
X159703542Y-187402115D01*
X159687004Y-187403269D01*
X159678226Y-187403881D01*
X159655000Y-187411873D01*
X159639203Y-187416166D01*
X159615136Y-187421025D01*
X159592416Y-187432310D01*
X159577611Y-187438504D01*
X159553618Y-187446761D01*
X159553614Y-187446762D01*
X159533258Y-187460487D01*
X159519107Y-187468724D01*
X159497111Y-187479650D01*
X159478086Y-187496431D01*
X159465382Y-187506250D01*
X159217224Y-187673562D01*
X159202291Y-187682184D01*
X159182204Y-187691987D01*
X159161393Y-187710084D01*
X159149348Y-187719326D01*
X159126486Y-187734740D01*
X159111820Y-187751604D01*
X159099631Y-187763794D01*
X159087549Y-187774301D01*
X159082762Y-187778465D01*
X159082761Y-187778466D01*
X159082760Y-187778466D01*
X159067349Y-187801324D01*
X159058107Y-187813369D01*
X159040008Y-187834181D01*
X159040008Y-187834182D01*
X159030205Y-187854270D01*
X159021581Y-187869205D01*
X158854273Y-188117356D01*
X158844456Y-188130059D01*
X158844455Y-188130061D01*
X158844453Y-188130063D01*
X158827669Y-188149090D01*
X158827668Y-188149092D01*
X158816743Y-188171085D01*
X158808509Y-188185232D01*
X158794783Y-188205591D01*
X158794782Y-188205594D01*
X158786524Y-188229589D01*
X158780332Y-188244390D01*
X158769046Y-188267114D01*
X158769044Y-188267120D01*
X158764186Y-188291180D01*
X158759893Y-188306980D01*
X158751901Y-188330205D01*
X158751900Y-188330213D01*
X158750134Y-188355523D01*
X158747983Y-188371430D01*
X158681287Y-188701787D01*
X158679514Y-188709340D01*
X158667520Y-188754103D01*
X158667520Y-188757598D01*
X158665069Y-188782119D01*
X158664378Y-188785539D01*
X158667275Y-188831782D01*
X158667518Y-188839533D01*
X158667510Y-191057582D01*
X158665058Y-191082121D01*
X158482036Y-191988660D01*
X158463303Y-192033440D01*
X158000852Y-192719349D01*
X157967356Y-192752845D01*
X157281449Y-193215294D01*
X157236669Y-193234027D01*
X156392548Y-193404446D01*
X156343470Y-193404446D01*
X155499346Y-193234027D01*
X155454566Y-193215293D01*
X154768665Y-192752846D01*
X154735169Y-192719351D01*
X154735166Y-192719347D01*
X154272720Y-192033442D01*
X154253987Y-191988662D01*
X154070972Y-191082129D01*
X154068520Y-191057590D01*
X154068520Y-188839541D01*
X154068763Y-188831784D01*
X154071661Y-188785545D01*
X154071660Y-188785533D01*
X154070972Y-188782124D01*
X154068520Y-188757588D01*
X154068520Y-188754110D01*
X154068520Y-188754109D01*
X154068520Y-188754108D01*
X154056519Y-188709322D01*
X154054753Y-188701798D01*
X153988055Y-188371429D01*
X153985903Y-188355516D01*
X153985903Y-188355515D01*
X153984139Y-188330209D01*
X153976144Y-188306977D01*
X153971853Y-188291182D01*
X153966995Y-188267117D01*
X153955706Y-188244390D01*
X153949514Y-188229591D01*
X153941258Y-188205596D01*
X153941256Y-188205593D01*
X153941255Y-188205590D01*
X153941254Y-188205589D01*
X153927532Y-188185236D01*
X153919290Y-188171077D01*
X153913963Y-188160352D01*
X153908370Y-188149091D01*
X153898804Y-188138246D01*
X153891585Y-188130061D01*
X153881766Y-188117357D01*
X153752023Y-187924924D01*
X153714456Y-187869205D01*
X153705831Y-187854265D01*
X153696032Y-187834181D01*
X153677932Y-187813368D01*
X153668686Y-187801318D01*
X153653278Y-187778465D01*
X153636413Y-187763798D01*
X153624219Y-187751604D01*
X153609554Y-187734741D01*
X153609553Y-187734740D01*
X153609552Y-187734739D01*
X153586678Y-187719317D01*
X153574647Y-187710084D01*
X153553837Y-187691987D01*
X153553835Y-187691986D01*
X153553834Y-187691985D01*
X153533750Y-187682184D01*
X153518814Y-187673561D01*
X153270657Y-187506250D01*
X153257948Y-187496426D01*
X153238931Y-187479651D01*
X153238929Y-187479649D01*
X153238927Y-187479648D01*
X153225734Y-187473095D01*
X153216933Y-187468723D01*
X153202780Y-187460485D01*
X153182422Y-187446760D01*
X153182421Y-187446759D01*
X153166558Y-187441301D01*
X153158432Y-187438505D01*
X153143621Y-187432309D01*
X153120902Y-187421024D01*
X153120897Y-187421023D01*
X153096838Y-187416165D01*
X153081037Y-187411872D01*
X153057811Y-187403880D01*
X153057803Y-187403879D01*
X153032491Y-187402113D01*
X153016584Y-187399962D01*
X152686229Y-187333267D01*
X152678676Y-187331494D01*
X152633913Y-187319500D01*
X152633912Y-187319500D01*
X152630431Y-187319500D01*
X152605893Y-187317048D01*
X152602481Y-187316359D01*
X152602474Y-187316358D01*
X152558505Y-187319114D01*
X152556231Y-187319257D01*
X152548477Y-187319500D01*
X75187562Y-187319500D01*
X75179807Y-187319257D01*
X75177277Y-187319098D01*
X75133565Y-187316358D01*
X75133558Y-187316359D01*
X75130147Y-187317048D01*
X75105609Y-187319500D01*
X75102128Y-187319500D01*
X75102120Y-187319501D01*
X75057366Y-187331492D01*
X75049814Y-187333265D01*
X74719449Y-187399963D01*
X74703543Y-187402114D01*
X74678230Y-187403880D01*
X74655006Y-187411872D01*
X74639201Y-187416166D01*
X74615140Y-187421023D01*
X74615137Y-187421025D01*
X74592410Y-187432313D01*
X74577602Y-187438507D01*
X74553621Y-187446759D01*
X74553610Y-187446764D01*
X74533253Y-187460489D01*
X74519106Y-187468723D01*
X74497113Y-187479648D01*
X74497107Y-187479652D01*
X74478082Y-187496433D01*
X74465378Y-187506251D01*
X74217224Y-187673561D01*
X74202291Y-187682184D01*
X74182202Y-187691988D01*
X74161390Y-187710086D01*
X74149347Y-187719327D01*
X74126483Y-187734743D01*
X74111817Y-187751607D01*
X74099625Y-187763799D01*
X74082761Y-187778464D01*
X74082759Y-187778467D01*
X74067341Y-187801333D01*
X74058100Y-187813376D01*
X74040008Y-187834180D01*
X74030205Y-187854268D01*
X74021583Y-187869201D01*
X73854273Y-188117356D01*
X73844455Y-188130059D01*
X73827667Y-188149093D01*
X73816741Y-188171089D01*
X73808505Y-188185241D01*
X73794784Y-188205592D01*
X73794782Y-188205597D01*
X73786527Y-188229584D01*
X73780332Y-188244392D01*
X73769045Y-188267116D01*
X73764186Y-188291182D01*
X73759892Y-188306986D01*
X73751900Y-188330210D01*
X73751900Y-188330211D01*
X73750134Y-188355524D01*
X73747983Y-188371431D01*
X73681288Y-188701783D01*
X73679515Y-188709336D01*
X73667520Y-188754102D01*
X73667520Y-188757598D01*
X73665069Y-188782119D01*
X73664378Y-188785539D01*
X73667275Y-188831782D01*
X73667518Y-188839533D01*
X73667510Y-191057584D01*
X73665058Y-191082123D01*
X73482037Y-191988663D01*
X73463303Y-192033443D01*
X73000854Y-192719346D01*
X72967359Y-192752842D01*
X72281449Y-193215294D01*
X72236669Y-193234027D01*
X71392548Y-193404446D01*
X71343470Y-193404446D01*
X70499346Y-193234027D01*
X70454566Y-193215293D01*
X69768665Y-192752846D01*
X69735169Y-192719351D01*
X69735166Y-192719347D01*
X69272720Y-192033442D01*
X69253987Y-191988662D01*
X69070972Y-191082129D01*
X69068520Y-191057590D01*
X69068520Y-188839542D01*
X69068763Y-188831785D01*
X69071661Y-188785546D01*
X69071660Y-188785540D01*
X69070972Y-188782126D01*
X69068520Y-188757590D01*
X69068520Y-188754109D01*
X69068519Y-188754105D01*
X69068518Y-188754103D01*
X69056523Y-188709336D01*
X69054751Y-188701787D01*
X68988057Y-188371431D01*
X68988056Y-188371427D01*
X68985904Y-188355515D01*
X68984140Y-188330209D01*
X68976147Y-188306980D01*
X68971857Y-188291188D01*
X68966998Y-188267125D01*
X68966997Y-188267118D01*
X68955708Y-188244390D01*
X68949512Y-188229578D01*
X68941260Y-188205596D01*
X68927530Y-188185232D01*
X68919294Y-188171082D01*
X68908372Y-188149092D01*
X68891591Y-188130068D01*
X68881772Y-188117362D01*
X68714460Y-187869205D01*
X68705835Y-187854267D01*
X68705330Y-187853233D01*
X68696033Y-187834180D01*
X68677933Y-187813367D01*
X68668689Y-187801319D01*
X68653282Y-187778468D01*
X68653281Y-187778466D01*
X68636407Y-187763791D01*
X68624221Y-187751604D01*
X68609553Y-187734738D01*
X68609551Y-187734737D01*
X68586698Y-187719328D01*
X68574651Y-187710084D01*
X68553841Y-187691988D01*
X68553842Y-187691988D01*
X68533750Y-187682183D01*
X68518815Y-187673560D01*
X68270659Y-187506250D01*
X68257950Y-187496426D01*
X68238931Y-187479649D01*
X68238930Y-187479648D01*
X68216932Y-187468721D01*
X68202781Y-187460484D01*
X68182427Y-187446761D01*
X68182423Y-187446759D01*
X68158432Y-187438504D01*
X68143621Y-187432308D01*
X68120902Y-187421024D01*
X68096837Y-187416165D01*
X68081030Y-187411870D01*
X68057808Y-187403879D01*
X68057811Y-187403879D01*
X68032493Y-187402113D01*
X68016586Y-187399962D01*
X67686225Y-187333265D01*
X67678672Y-187331492D01*
X67633917Y-187319500D01*
X67633912Y-187319500D01*
X67630430Y-187319500D01*
X67605892Y-187317048D01*
X67602480Y-187316359D01*
X67602473Y-187316358D01*
X67558652Y-187319105D01*
X67556231Y-187319257D01*
X67548477Y-187319500D01*
X42430411Y-187319500D01*
X42405871Y-187317047D01*
X42199980Y-187275478D01*
X42155201Y-187256746D01*
X42041444Y-187180049D01*
X42007949Y-187146554D01*
X41931253Y-187032800D01*
X41912519Y-186988019D01*
X41901696Y-186934411D01*
X41870952Y-186782124D01*
X41868500Y-186757585D01*
X41868500Y-182884108D01*
X45087500Y-182884108D01*
X45087500Y-186315891D01*
X45121608Y-186443187D01*
X45154554Y-186500250D01*
X45187500Y-186557314D01*
X45280686Y-186650500D01*
X45394814Y-186716392D01*
X45522108Y-186750500D01*
X45522110Y-186750500D01*
X49353890Y-186750500D01*
X49353892Y-186750500D01*
X49481186Y-186716392D01*
X49595314Y-186650500D01*
X49688500Y-186557314D01*
X49754392Y-186443186D01*
X49788500Y-186315892D01*
X49788500Y-182884108D01*
X70087500Y-182884108D01*
X70087500Y-186315891D01*
X70121608Y-186443187D01*
X70154554Y-186500250D01*
X70187500Y-186557314D01*
X70280686Y-186650500D01*
X70394814Y-186716392D01*
X70522108Y-186750500D01*
X70522110Y-186750500D01*
X74353890Y-186750500D01*
X74353892Y-186750500D01*
X74481186Y-186716392D01*
X74595314Y-186650500D01*
X74688500Y-186557314D01*
X74754392Y-186443186D01*
X74788500Y-186315892D01*
X74788500Y-182884108D01*
X95087500Y-182884108D01*
X95087500Y-186315891D01*
X95121608Y-186443187D01*
X95154554Y-186500250D01*
X95187500Y-186557314D01*
X95280686Y-186650500D01*
X95394814Y-186716392D01*
X95522108Y-186750500D01*
X95522110Y-186750500D01*
X99353890Y-186750500D01*
X99353892Y-186750500D01*
X99481186Y-186716392D01*
X99595314Y-186650500D01*
X99688500Y-186557314D01*
X99754392Y-186443186D01*
X99788500Y-186315892D01*
X99788500Y-182884108D01*
X120087500Y-182884108D01*
X120087500Y-186315891D01*
X120121608Y-186443187D01*
X120154554Y-186500250D01*
X120187500Y-186557314D01*
X120280686Y-186650500D01*
X120394814Y-186716392D01*
X120522108Y-186750500D01*
X120522110Y-186750500D01*
X124353890Y-186750500D01*
X124353892Y-186750500D01*
X124481186Y-186716392D01*
X124595314Y-186650500D01*
X124688500Y-186557314D01*
X124754392Y-186443186D01*
X124788500Y-186315892D01*
X124788500Y-182884108D01*
X145087500Y-182884108D01*
X145087500Y-186315891D01*
X145121608Y-186443187D01*
X145154554Y-186500250D01*
X145187500Y-186557314D01*
X145280686Y-186650500D01*
X145394814Y-186716392D01*
X145522108Y-186750500D01*
X145522110Y-186750500D01*
X149353890Y-186750500D01*
X149353892Y-186750500D01*
X149481186Y-186716392D01*
X149595314Y-186650500D01*
X149688500Y-186557314D01*
X149754392Y-186443186D01*
X149788500Y-186315892D01*
X149788500Y-182884108D01*
X170087500Y-182884108D01*
X170087500Y-186315891D01*
X170121608Y-186443187D01*
X170154554Y-186500250D01*
X170187500Y-186557314D01*
X170280686Y-186650500D01*
X170394814Y-186716392D01*
X170522108Y-186750500D01*
X170522110Y-186750500D01*
X174353890Y-186750500D01*
X174353892Y-186750500D01*
X174481186Y-186716392D01*
X174595314Y-186650500D01*
X174688500Y-186557314D01*
X174754392Y-186443186D01*
X174788500Y-186315892D01*
X174788500Y-182884108D01*
X195087500Y-182884108D01*
X195087500Y-186315891D01*
X195121608Y-186443187D01*
X195154554Y-186500250D01*
X195187500Y-186557314D01*
X195280686Y-186650500D01*
X195394814Y-186716392D01*
X195522108Y-186750500D01*
X195522110Y-186750500D01*
X199353890Y-186750500D01*
X199353892Y-186750500D01*
X199481186Y-186716392D01*
X199595314Y-186650500D01*
X199688500Y-186557314D01*
X199754392Y-186443186D01*
X199788500Y-186315892D01*
X199788500Y-182884108D01*
X220087500Y-182884108D01*
X220087500Y-186315891D01*
X220121608Y-186443187D01*
X220154554Y-186500250D01*
X220187500Y-186557314D01*
X220280686Y-186650500D01*
X220394814Y-186716392D01*
X220522108Y-186750500D01*
X220522110Y-186750500D01*
X224353890Y-186750500D01*
X224353892Y-186750500D01*
X224481186Y-186716392D01*
X224595314Y-186650500D01*
X224688500Y-186557314D01*
X224754392Y-186443186D01*
X224788500Y-186315892D01*
X224788500Y-182884108D01*
X245087500Y-182884108D01*
X245087500Y-186315891D01*
X245121608Y-186443187D01*
X245154554Y-186500250D01*
X245187500Y-186557314D01*
X245280686Y-186650500D01*
X245394814Y-186716392D01*
X245522108Y-186750500D01*
X245522110Y-186750500D01*
X249353890Y-186750500D01*
X249353892Y-186750500D01*
X249481186Y-186716392D01*
X249595314Y-186650500D01*
X249688500Y-186557314D01*
X249754392Y-186443186D01*
X249788500Y-186315892D01*
X249788500Y-182884108D01*
X270087500Y-182884108D01*
X270087500Y-186315891D01*
X270121608Y-186443187D01*
X270154554Y-186500250D01*
X270187500Y-186557314D01*
X270280686Y-186650500D01*
X270394814Y-186716392D01*
X270522108Y-186750500D01*
X270522110Y-186750500D01*
X274353890Y-186750500D01*
X274353892Y-186750500D01*
X274481186Y-186716392D01*
X274595314Y-186650500D01*
X274688500Y-186557314D01*
X274754392Y-186443186D01*
X274788500Y-186315892D01*
X274788500Y-182884108D01*
X274754392Y-182756814D01*
X274688500Y-182642686D01*
X274595314Y-182549500D01*
X274538250Y-182516554D01*
X274481187Y-182483608D01*
X274417539Y-182466554D01*
X274353892Y-182449500D01*
X270653892Y-182449500D01*
X270522108Y-182449500D01*
X270394812Y-182483608D01*
X270280686Y-182549500D01*
X270280683Y-182549502D01*
X270187502Y-182642683D01*
X270187500Y-182642686D01*
X270121608Y-182756812D01*
X270087500Y-182884108D01*
X249788500Y-182884108D01*
X249754392Y-182756814D01*
X249688500Y-182642686D01*
X249595314Y-182549500D01*
X249538250Y-182516554D01*
X249481187Y-182483608D01*
X249417539Y-182466554D01*
X249353892Y-182449500D01*
X245653892Y-182449500D01*
X245522108Y-182449500D01*
X245394812Y-182483608D01*
X245280686Y-182549500D01*
X245280683Y-182549502D01*
X245187502Y-182642683D01*
X245187500Y-182642686D01*
X245121608Y-182756812D01*
X245087500Y-182884108D01*
X224788500Y-182884108D01*
X224754392Y-182756814D01*
X224688500Y-182642686D01*
X224595314Y-182549500D01*
X224538250Y-182516554D01*
X224481187Y-182483608D01*
X224417539Y-182466554D01*
X224353892Y-182449500D01*
X220653892Y-182449500D01*
X220522108Y-182449500D01*
X220394812Y-182483608D01*
X220280686Y-182549500D01*
X220280683Y-182549502D01*
X220187502Y-182642683D01*
X220187500Y-182642686D01*
X220121608Y-182756812D01*
X220087500Y-182884108D01*
X199788500Y-182884108D01*
X199754392Y-182756814D01*
X199688500Y-182642686D01*
X199595314Y-182549500D01*
X199538250Y-182516554D01*
X199481187Y-182483608D01*
X199417539Y-182466554D01*
X199353892Y-182449500D01*
X195653892Y-182449500D01*
X195522108Y-182449500D01*
X195394812Y-182483608D01*
X195280686Y-182549500D01*
X195280683Y-182549502D01*
X195187502Y-182642683D01*
X195187500Y-182642686D01*
X195121608Y-182756812D01*
X195087500Y-182884108D01*
X174788500Y-182884108D01*
X174754392Y-182756814D01*
X174688500Y-182642686D01*
X174595314Y-182549500D01*
X174538250Y-182516554D01*
X174481187Y-182483608D01*
X174417539Y-182466554D01*
X174353892Y-182449500D01*
X170653892Y-182449500D01*
X170522108Y-182449500D01*
X170394812Y-182483608D01*
X170280686Y-182549500D01*
X170280683Y-182549502D01*
X170187502Y-182642683D01*
X170187500Y-182642686D01*
X170121608Y-182756812D01*
X170087500Y-182884108D01*
X149788500Y-182884108D01*
X149754392Y-182756814D01*
X149688500Y-182642686D01*
X149595314Y-182549500D01*
X149538250Y-182516554D01*
X149481187Y-182483608D01*
X149417539Y-182466554D01*
X149353892Y-182449500D01*
X145653892Y-182449500D01*
X145522108Y-182449500D01*
X145394812Y-182483608D01*
X145280686Y-182549500D01*
X145280683Y-182549502D01*
X145187502Y-182642683D01*
X145187500Y-182642686D01*
X145121608Y-182756812D01*
X145087500Y-182884108D01*
X124788500Y-182884108D01*
X124754392Y-182756814D01*
X124688500Y-182642686D01*
X124595314Y-182549500D01*
X124538250Y-182516554D01*
X124481187Y-182483608D01*
X124417539Y-182466554D01*
X124353892Y-182449500D01*
X120653892Y-182449500D01*
X120522108Y-182449500D01*
X120394812Y-182483608D01*
X120280686Y-182549500D01*
X120280683Y-182549502D01*
X120187502Y-182642683D01*
X120187500Y-182642686D01*
X120121608Y-182756812D01*
X120087500Y-182884108D01*
X99788500Y-182884108D01*
X99754392Y-182756814D01*
X99688500Y-182642686D01*
X99595314Y-182549500D01*
X99538250Y-182516554D01*
X99481187Y-182483608D01*
X99417539Y-182466554D01*
X99353892Y-182449500D01*
X95653892Y-182449500D01*
X95522108Y-182449500D01*
X95394812Y-182483608D01*
X95280686Y-182549500D01*
X95280683Y-182549502D01*
X95187502Y-182642683D01*
X95187500Y-182642686D01*
X95121608Y-182756812D01*
X95087500Y-182884108D01*
X74788500Y-182884108D01*
X74754392Y-182756814D01*
X74688500Y-182642686D01*
X74595314Y-182549500D01*
X74538250Y-182516554D01*
X74481187Y-182483608D01*
X74417539Y-182466554D01*
X74353892Y-182449500D01*
X70653892Y-182449500D01*
X70522108Y-182449500D01*
X70394812Y-182483608D01*
X70280686Y-182549500D01*
X70280683Y-182549502D01*
X70187502Y-182642683D01*
X70187500Y-182642686D01*
X70121608Y-182756812D01*
X70087500Y-182884108D01*
X49788500Y-182884108D01*
X49754392Y-182756814D01*
X49688500Y-182642686D01*
X49595314Y-182549500D01*
X49538250Y-182516554D01*
X49481187Y-182483608D01*
X49417539Y-182466554D01*
X49353892Y-182449500D01*
X45653892Y-182449500D01*
X45522108Y-182449500D01*
X45394812Y-182483608D01*
X45280686Y-182549500D01*
X45280683Y-182549502D01*
X45187502Y-182642683D01*
X45187500Y-182642686D01*
X45121608Y-182756812D01*
X45087500Y-182884108D01*
X41868500Y-182884108D01*
X41868500Y-166639532D01*
X41868743Y-166631775D01*
X41871641Y-166585536D01*
X41871640Y-166585530D01*
X41870952Y-166582116D01*
X41868500Y-166557580D01*
X41868500Y-166554099D01*
X41868499Y-166554095D01*
X41856504Y-166509330D01*
X41854733Y-166501785D01*
X41788036Y-166171417D01*
X41785884Y-166155505D01*
X41784120Y-166130199D01*
X41776127Y-166106970D01*
X41771837Y-166091178D01*
X41766978Y-166067115D01*
X41766977Y-166067108D01*
X41755688Y-166044380D01*
X41749492Y-166029568D01*
X41741240Y-166005587D01*
X41741240Y-166005586D01*
X41727510Y-165985222D01*
X41719274Y-165971072D01*
X41708352Y-165949082D01*
X41691571Y-165930058D01*
X41681752Y-165917352D01*
X41514440Y-165669195D01*
X41505815Y-165654257D01*
X41505310Y-165653223D01*
X41496013Y-165634170D01*
X41477913Y-165613357D01*
X41468669Y-165601309D01*
X41453262Y-165578458D01*
X41453261Y-165578456D01*
X41436387Y-165563781D01*
X41424201Y-165551594D01*
X41409533Y-165534728D01*
X41409531Y-165534727D01*
X41386678Y-165519318D01*
X41374631Y-165510074D01*
X41353821Y-165491978D01*
X41353822Y-165491978D01*
X41333730Y-165482173D01*
X41318795Y-165473550D01*
X41070639Y-165306240D01*
X41057930Y-165296416D01*
X41038911Y-165279639D01*
X41038910Y-165279638D01*
X41016912Y-165268711D01*
X41002761Y-165260474D01*
X40982407Y-165246751D01*
X40982403Y-165246749D01*
X40958412Y-165238494D01*
X40943601Y-165232298D01*
X40920882Y-165221014D01*
X40896817Y-165216155D01*
X40881010Y-165211860D01*
X40857788Y-165203869D01*
X40857791Y-165203869D01*
X40832473Y-165202103D01*
X40816566Y-165199952D01*
X40486205Y-165133255D01*
X40478652Y-165131482D01*
X40433897Y-165119490D01*
X40433892Y-165119490D01*
X40430410Y-165119490D01*
X40405872Y-165117038D01*
X40402460Y-165116349D01*
X40402453Y-165116348D01*
X40358632Y-165119095D01*
X40356211Y-165119247D01*
X40348457Y-165119490D01*
X38130409Y-165119490D01*
X38105870Y-165117038D01*
X37199335Y-164934021D01*
X37154555Y-164915288D01*
X36974820Y-164794108D01*
X47462500Y-164794108D01*
X47462500Y-178925891D01*
X47496608Y-179053187D01*
X47529554Y-179110250D01*
X47562500Y-179167314D01*
X47655686Y-179260500D01*
X47769814Y-179326392D01*
X47897108Y-179360500D01*
X47897110Y-179360500D01*
X62028890Y-179360500D01*
X62028892Y-179360500D01*
X62156186Y-179326392D01*
X62270314Y-179260500D01*
X62363500Y-179167314D01*
X62429392Y-179053186D01*
X62463500Y-178925892D01*
X62463500Y-164794108D01*
X71275500Y-164794108D01*
X71275500Y-178925891D01*
X71309608Y-179053187D01*
X71342554Y-179110250D01*
X71375500Y-179167314D01*
X71468686Y-179260500D01*
X71582814Y-179326392D01*
X71710108Y-179360500D01*
X71710110Y-179360500D01*
X85841890Y-179360500D01*
X85841892Y-179360500D01*
X85969186Y-179326392D01*
X86083314Y-179260500D01*
X86176500Y-179167314D01*
X86242392Y-179053186D01*
X86276500Y-178925892D01*
X86276500Y-164794108D01*
X95087500Y-164794108D01*
X95087500Y-178925891D01*
X95121608Y-179053187D01*
X95154554Y-179110250D01*
X95187500Y-179167314D01*
X95280686Y-179260500D01*
X95394814Y-179326392D01*
X95522108Y-179360500D01*
X95522110Y-179360500D01*
X109653890Y-179360500D01*
X109653892Y-179360500D01*
X109781186Y-179326392D01*
X109895314Y-179260500D01*
X109988500Y-179167314D01*
X110054392Y-179053186D01*
X110088500Y-178925892D01*
X110088500Y-164794108D01*
X110054392Y-164666814D01*
X109988500Y-164552686D01*
X109895314Y-164459500D01*
X109838250Y-164426554D01*
X109781187Y-164393608D01*
X109717539Y-164376554D01*
X109653892Y-164359500D01*
X95653892Y-164359500D01*
X95522108Y-164359500D01*
X95394812Y-164393608D01*
X95280686Y-164459500D01*
X95280683Y-164459502D01*
X95187502Y-164552683D01*
X95187500Y-164552686D01*
X95121608Y-164666812D01*
X95087500Y-164794108D01*
X86276500Y-164794108D01*
X86242392Y-164666814D01*
X86176500Y-164552686D01*
X86083314Y-164459500D01*
X86026250Y-164426554D01*
X85969187Y-164393608D01*
X85905539Y-164376554D01*
X85841892Y-164359500D01*
X71841892Y-164359500D01*
X71710108Y-164359500D01*
X71582812Y-164393608D01*
X71468686Y-164459500D01*
X71468683Y-164459502D01*
X71375502Y-164552683D01*
X71375500Y-164552686D01*
X71309608Y-164666812D01*
X71275500Y-164794108D01*
X62463500Y-164794108D01*
X62429392Y-164666814D01*
X62363500Y-164552686D01*
X62270314Y-164459500D01*
X62213250Y-164426554D01*
X62156187Y-164393608D01*
X62092539Y-164376554D01*
X62028892Y-164359500D01*
X48028892Y-164359500D01*
X47897108Y-164359500D01*
X47769812Y-164393608D01*
X47655686Y-164459500D01*
X47655683Y-164459502D01*
X47562502Y-164552683D01*
X47562500Y-164552686D01*
X47496608Y-164666812D01*
X47462500Y-164794108D01*
X36974820Y-164794108D01*
X36468650Y-164452840D01*
X36435155Y-164419345D01*
X36417803Y-164393608D01*
X35972704Y-163733439D01*
X35953973Y-163688664D01*
X35783552Y-162844538D01*
X35783552Y-162795460D01*
X35783825Y-162794108D01*
X119987500Y-162794108D01*
X119987500Y-177925891D01*
X120021608Y-178053187D01*
X120054554Y-178110250D01*
X120087500Y-178167314D01*
X120180686Y-178260500D01*
X120294814Y-178326392D01*
X120422108Y-178360500D01*
X120422110Y-178360500D01*
X127553890Y-178360500D01*
X127553892Y-178360500D01*
X127681186Y-178326392D01*
X127795314Y-178260500D01*
X127888500Y-178167314D01*
X127954392Y-178053186D01*
X127988500Y-177925892D01*
X127988500Y-164794108D01*
X128425500Y-164794108D01*
X128425500Y-178925891D01*
X128459608Y-179053187D01*
X128492554Y-179110250D01*
X128525500Y-179167314D01*
X128618686Y-179260500D01*
X128732814Y-179326392D01*
X128860108Y-179360500D01*
X128860110Y-179360500D01*
X142991890Y-179360500D01*
X142991892Y-179360500D01*
X143119186Y-179326392D01*
X143233314Y-179260500D01*
X143326500Y-179167314D01*
X143392392Y-179053186D01*
X143426500Y-178925892D01*
X143426500Y-164794108D01*
X143392392Y-164666814D01*
X143326500Y-164552686D01*
X143233314Y-164459500D01*
X143176250Y-164426554D01*
X143119187Y-164393608D01*
X143055539Y-164376554D01*
X142991892Y-164359500D01*
X128991892Y-164359500D01*
X128860108Y-164359500D01*
X128732812Y-164393608D01*
X128618686Y-164459500D01*
X128618683Y-164459502D01*
X128525502Y-164552683D01*
X128525500Y-164552686D01*
X128459608Y-164666812D01*
X128425500Y-164794108D01*
X127988500Y-164794108D01*
X127988500Y-162794108D01*
X143863500Y-162794108D01*
X143863500Y-177925891D01*
X143897608Y-178053187D01*
X143930554Y-178110250D01*
X143963500Y-178167314D01*
X144056686Y-178260500D01*
X144170814Y-178326392D01*
X144298108Y-178360500D01*
X144298110Y-178360500D01*
X151429890Y-178360500D01*
X151429892Y-178360500D01*
X151557186Y-178326392D01*
X151671314Y-178260500D01*
X151764500Y-178167314D01*
X151830392Y-178053186D01*
X151864500Y-177925892D01*
X151864500Y-164794108D01*
X161762500Y-164794108D01*
X161762500Y-178925891D01*
X161796608Y-179053187D01*
X161829554Y-179110250D01*
X161862500Y-179167314D01*
X161955686Y-179260500D01*
X162069814Y-179326392D01*
X162197108Y-179360500D01*
X162197110Y-179360500D01*
X176328890Y-179360500D01*
X176328892Y-179360500D01*
X176456186Y-179326392D01*
X176570314Y-179260500D01*
X176663500Y-179167314D01*
X176729392Y-179053186D01*
X176763500Y-178925892D01*
X176763500Y-164794108D01*
X176729392Y-164666814D01*
X176663500Y-164552686D01*
X176570314Y-164459500D01*
X176513250Y-164426554D01*
X176456187Y-164393608D01*
X176392539Y-164376554D01*
X176328892Y-164359500D01*
X162328892Y-164359500D01*
X162197108Y-164359500D01*
X162069812Y-164393608D01*
X161955686Y-164459500D01*
X161955683Y-164459502D01*
X161862502Y-164552683D01*
X161862500Y-164552686D01*
X161796608Y-164666812D01*
X161762500Y-164794108D01*
X151864500Y-164794108D01*
X151864500Y-162794108D01*
X191424500Y-162794108D01*
X191424500Y-177925891D01*
X191458608Y-178053187D01*
X191491554Y-178110250D01*
X191524500Y-178167314D01*
X191617686Y-178260500D01*
X191731814Y-178326392D01*
X191859108Y-178360500D01*
X191859110Y-178360500D01*
X198990890Y-178360500D01*
X198990892Y-178360500D01*
X199118186Y-178326392D01*
X199232314Y-178260500D01*
X199325500Y-178167314D01*
X199391392Y-178053186D01*
X199425500Y-177925892D01*
X199425500Y-164794108D01*
X199862500Y-164794108D01*
X199862500Y-178925891D01*
X199896608Y-179053187D01*
X199929554Y-179110250D01*
X199962500Y-179167314D01*
X200055686Y-179260500D01*
X200169814Y-179326392D01*
X200297108Y-179360500D01*
X200297110Y-179360500D01*
X214428890Y-179360500D01*
X214428892Y-179360500D01*
X214556186Y-179326392D01*
X214670314Y-179260500D01*
X214763500Y-179167314D01*
X214829392Y-179053186D01*
X214863500Y-178925892D01*
X214863500Y-164794108D01*
X214829392Y-164666814D01*
X214763500Y-164552686D01*
X214670314Y-164459500D01*
X214613250Y-164426554D01*
X214556187Y-164393608D01*
X214492539Y-164376554D01*
X214428892Y-164359500D01*
X200428892Y-164359500D01*
X200297108Y-164359500D01*
X200169812Y-164393608D01*
X200055686Y-164459500D01*
X200055683Y-164459502D01*
X199962502Y-164552683D01*
X199962500Y-164552686D01*
X199896608Y-164666812D01*
X199862500Y-164794108D01*
X199425500Y-164794108D01*
X199425500Y-162794108D01*
X215300500Y-162794108D01*
X215300500Y-177925891D01*
X215334608Y-178053187D01*
X215367554Y-178110250D01*
X215400500Y-178167314D01*
X215493686Y-178260500D01*
X215607814Y-178326392D01*
X215735108Y-178360500D01*
X215735110Y-178360500D01*
X222866890Y-178360500D01*
X222866892Y-178360500D01*
X222994186Y-178326392D01*
X223108314Y-178260500D01*
X223201500Y-178167314D01*
X223267392Y-178053186D01*
X223301500Y-177925892D01*
X223301500Y-164794108D01*
X237962500Y-164794108D01*
X237962500Y-178925891D01*
X237996608Y-179053187D01*
X238029554Y-179110250D01*
X238062500Y-179167314D01*
X238155686Y-179260500D01*
X238269814Y-179326392D01*
X238397108Y-179360500D01*
X238397110Y-179360500D01*
X252528890Y-179360500D01*
X252528892Y-179360500D01*
X252656186Y-179326392D01*
X252770314Y-179260500D01*
X252863500Y-179167314D01*
X252929392Y-179053186D01*
X252963500Y-178925892D01*
X252963500Y-164794108D01*
X261775500Y-164794108D01*
X261775500Y-178925891D01*
X261809608Y-179053187D01*
X261842554Y-179110250D01*
X261875500Y-179167314D01*
X261968686Y-179260500D01*
X262082814Y-179326392D01*
X262210108Y-179360500D01*
X262210110Y-179360500D01*
X276341890Y-179360500D01*
X276341892Y-179360500D01*
X276469186Y-179326392D01*
X276583314Y-179260500D01*
X276676500Y-179167314D01*
X276742392Y-179053186D01*
X276776500Y-178925892D01*
X276776500Y-169556108D01*
X297494500Y-169556108D01*
X297494500Y-183687891D01*
X297528608Y-183815187D01*
X297561554Y-183872250D01*
X297594500Y-183929314D01*
X297687686Y-184022500D01*
X297801814Y-184088392D01*
X297929108Y-184122500D01*
X297929110Y-184122500D01*
X312060890Y-184122500D01*
X312060892Y-184122500D01*
X312188186Y-184088392D01*
X312302314Y-184022500D01*
X312395500Y-183929314D01*
X312461392Y-183815186D01*
X312495500Y-183687892D01*
X312495500Y-169556108D01*
X316544500Y-169556108D01*
X316544500Y-183687891D01*
X316578608Y-183815187D01*
X316611554Y-183872250D01*
X316644500Y-183929314D01*
X316737686Y-184022500D01*
X316851814Y-184088392D01*
X316979108Y-184122500D01*
X316979110Y-184122500D01*
X331110890Y-184122500D01*
X331110892Y-184122500D01*
X331238186Y-184088392D01*
X331352314Y-184022500D01*
X331445500Y-183929314D01*
X331511392Y-183815186D01*
X331545500Y-183687892D01*
X331545500Y-169556108D01*
X335594500Y-169556108D01*
X335594500Y-183687891D01*
X335628608Y-183815187D01*
X335661554Y-183872250D01*
X335694500Y-183929314D01*
X335787686Y-184022500D01*
X335901814Y-184088392D01*
X336029108Y-184122500D01*
X336029110Y-184122500D01*
X350160890Y-184122500D01*
X350160892Y-184122500D01*
X350288186Y-184088392D01*
X350402314Y-184022500D01*
X350495500Y-183929314D01*
X350561392Y-183815186D01*
X350595500Y-183687892D01*
X350595500Y-169556108D01*
X359406500Y-169556108D01*
X359406500Y-183687891D01*
X359440608Y-183815187D01*
X359473554Y-183872250D01*
X359506500Y-183929314D01*
X359599686Y-184022500D01*
X359713814Y-184088392D01*
X359841108Y-184122500D01*
X359841110Y-184122500D01*
X373972890Y-184122500D01*
X373972892Y-184122500D01*
X374100186Y-184088392D01*
X374214314Y-184022500D01*
X374307500Y-183929314D01*
X374373392Y-183815186D01*
X374407500Y-183687892D01*
X374407500Y-169556108D01*
X374373392Y-169428814D01*
X374307500Y-169314686D01*
X374214314Y-169221500D01*
X374157250Y-169188554D01*
X374100187Y-169155608D01*
X374036539Y-169138554D01*
X373972892Y-169121500D01*
X359972892Y-169121500D01*
X359841108Y-169121500D01*
X359713812Y-169155608D01*
X359599686Y-169221500D01*
X359599683Y-169221502D01*
X359506502Y-169314683D01*
X359506500Y-169314686D01*
X359440608Y-169428812D01*
X359406500Y-169556108D01*
X350595500Y-169556108D01*
X350561392Y-169428814D01*
X350495500Y-169314686D01*
X350402314Y-169221500D01*
X350345250Y-169188554D01*
X350288187Y-169155608D01*
X350224539Y-169138554D01*
X350160892Y-169121500D01*
X336160892Y-169121500D01*
X336029108Y-169121500D01*
X335901812Y-169155608D01*
X335787686Y-169221500D01*
X335787683Y-169221502D01*
X335694502Y-169314683D01*
X335694500Y-169314686D01*
X335628608Y-169428812D01*
X335594500Y-169556108D01*
X331545500Y-169556108D01*
X331511392Y-169428814D01*
X331445500Y-169314686D01*
X331352314Y-169221500D01*
X331295250Y-169188554D01*
X331238187Y-169155608D01*
X331174539Y-169138554D01*
X331110892Y-169121500D01*
X317110892Y-169121500D01*
X316979108Y-169121500D01*
X316851812Y-169155608D01*
X316737686Y-169221500D01*
X316737683Y-169221502D01*
X316644502Y-169314683D01*
X316644500Y-169314686D01*
X316578608Y-169428812D01*
X316544500Y-169556108D01*
X312495500Y-169556108D01*
X312461392Y-169428814D01*
X312395500Y-169314686D01*
X312302314Y-169221500D01*
X312245250Y-169188554D01*
X312188187Y-169155608D01*
X312124539Y-169138554D01*
X312060892Y-169121500D01*
X298060892Y-169121500D01*
X297929108Y-169121500D01*
X297801812Y-169155608D01*
X297687686Y-169221500D01*
X297687683Y-169221502D01*
X297594502Y-169314683D01*
X297594500Y-169314686D01*
X297528608Y-169428812D01*
X297494500Y-169556108D01*
X276776500Y-169556108D01*
X276776500Y-164794108D01*
X276742392Y-164666814D01*
X276676500Y-164552686D01*
X276583314Y-164459500D01*
X276526250Y-164426554D01*
X276469187Y-164393608D01*
X276405539Y-164376554D01*
X276341892Y-164359500D01*
X262341892Y-164359500D01*
X262210108Y-164359500D01*
X262082812Y-164393608D01*
X261968686Y-164459500D01*
X261968683Y-164459502D01*
X261875502Y-164552683D01*
X261875500Y-164552686D01*
X261809608Y-164666812D01*
X261775500Y-164794108D01*
X252963500Y-164794108D01*
X252929392Y-164666814D01*
X252863500Y-164552686D01*
X252770314Y-164459500D01*
X252713250Y-164426554D01*
X252656187Y-164393608D01*
X252592539Y-164376554D01*
X252528892Y-164359500D01*
X238528892Y-164359500D01*
X238397108Y-164359500D01*
X238269812Y-164393608D01*
X238155686Y-164459500D01*
X238155683Y-164459502D01*
X238062502Y-164552683D01*
X238062500Y-164552686D01*
X237996608Y-164666812D01*
X237962500Y-164794108D01*
X223301500Y-164794108D01*
X223301500Y-162794108D01*
X223267392Y-162666814D01*
X223201500Y-162552686D01*
X223108314Y-162459500D01*
X223051250Y-162426554D01*
X222994187Y-162393608D01*
X222930539Y-162376554D01*
X222866892Y-162359500D01*
X215866892Y-162359500D01*
X215735108Y-162359500D01*
X215607812Y-162393608D01*
X215493686Y-162459500D01*
X215493683Y-162459502D01*
X215400502Y-162552683D01*
X215400500Y-162552686D01*
X215334608Y-162666812D01*
X215300500Y-162794108D01*
X199425500Y-162794108D01*
X199391392Y-162666814D01*
X199325500Y-162552686D01*
X199232314Y-162459500D01*
X199175250Y-162426554D01*
X199118187Y-162393608D01*
X199054539Y-162376554D01*
X198990892Y-162359500D01*
X191990892Y-162359500D01*
X191859108Y-162359500D01*
X191731812Y-162393608D01*
X191617686Y-162459500D01*
X191617683Y-162459502D01*
X191524502Y-162552683D01*
X191524500Y-162552686D01*
X191458608Y-162666812D01*
X191424500Y-162794108D01*
X151864500Y-162794108D01*
X151830392Y-162666814D01*
X151764500Y-162552686D01*
X151671314Y-162459500D01*
X151614250Y-162426554D01*
X151557187Y-162393608D01*
X151493539Y-162376554D01*
X151429892Y-162359500D01*
X144429892Y-162359500D01*
X144298108Y-162359500D01*
X144170812Y-162393608D01*
X144056686Y-162459500D01*
X144056683Y-162459502D01*
X143963502Y-162552683D01*
X143963500Y-162552686D01*
X143897608Y-162666812D01*
X143863500Y-162794108D01*
X127988500Y-162794108D01*
X127954392Y-162666814D01*
X127888500Y-162552686D01*
X127795314Y-162459500D01*
X127738250Y-162426554D01*
X127681187Y-162393608D01*
X127617539Y-162376554D01*
X127553892Y-162359500D01*
X120553892Y-162359500D01*
X120422108Y-162359500D01*
X120294812Y-162393608D01*
X120180686Y-162459500D01*
X120180683Y-162459502D01*
X120087502Y-162552683D01*
X120087500Y-162552686D01*
X120021608Y-162666812D01*
X119987500Y-162794108D01*
X35783825Y-162794108D01*
X35791818Y-162754521D01*
X35953972Y-161951336D01*
X35972705Y-161906559D01*
X36435158Y-161220647D01*
X36468645Y-161187160D01*
X37154561Y-160724703D01*
X37199337Y-160705972D01*
X38105887Y-160522949D01*
X38130407Y-160520498D01*
X40348461Y-160520490D01*
X40356218Y-160520733D01*
X40402455Y-160523631D01*
X40402456Y-160523630D01*
X40402460Y-160523631D01*
X40405868Y-160522943D01*
X40430410Y-160520490D01*
X40433894Y-160520490D01*
X40478678Y-160508489D01*
X40486182Y-160506727D01*
X40816569Y-160440024D01*
X40832476Y-160437873D01*
X40857791Y-160436109D01*
X40881018Y-160428115D01*
X40896816Y-160423823D01*
X40920883Y-160418965D01*
X40943615Y-160407673D01*
X40958408Y-160401484D01*
X40982404Y-160393228D01*
X41002762Y-160379501D01*
X41016908Y-160371267D01*
X41038910Y-160360340D01*
X41057939Y-160343554D01*
X41070632Y-160333742D01*
X41318809Y-160166417D01*
X41333719Y-160157809D01*
X41353818Y-160148002D01*
X41374620Y-160129910D01*
X41386673Y-160120663D01*
X41409531Y-160105252D01*
X41409530Y-160105252D01*
X41409534Y-160105250D01*
X41424200Y-160088383D01*
X41436391Y-160076191D01*
X41453259Y-160061524D01*
X41468674Y-160038658D01*
X41477910Y-160026622D01*
X41496012Y-160005808D01*
X41505816Y-159985716D01*
X41514432Y-159970790D01*
X41681753Y-159722620D01*
X41691560Y-159709932D01*
X41708350Y-159690899D01*
X41719277Y-159668899D01*
X41727510Y-159654753D01*
X41741238Y-159634394D01*
X41749492Y-159610403D01*
X41755686Y-159595597D01*
X41766975Y-159572873D01*
X41771833Y-159548806D01*
X41776128Y-159533000D01*
X41784119Y-159509781D01*
X41785884Y-159484459D01*
X41788031Y-159468574D01*
X41854735Y-159138183D01*
X41856505Y-159130647D01*
X41858450Y-159123385D01*
X41868500Y-159085882D01*
X41868500Y-159082399D01*
X41870952Y-159057860D01*
X41871641Y-159054450D01*
X41868742Y-159008202D01*
X41868500Y-159000447D01*
X41868500Y-146744108D01*
X48549500Y-146744108D01*
X48549500Y-161875891D01*
X48583608Y-162003187D01*
X48616554Y-162060250D01*
X48649500Y-162117314D01*
X48742686Y-162210500D01*
X48856814Y-162276392D01*
X48984108Y-162310500D01*
X48984110Y-162310500D01*
X56115890Y-162310500D01*
X56115892Y-162310500D01*
X56243186Y-162276392D01*
X56357314Y-162210500D01*
X56450500Y-162117314D01*
X56516392Y-162003186D01*
X56550500Y-161875892D01*
X56550500Y-146744108D01*
X56516392Y-146616814D01*
X56450500Y-146502686D01*
X56357314Y-146409500D01*
X56300250Y-146376554D01*
X56243187Y-146343608D01*
X56179539Y-146326554D01*
X56115892Y-146309500D01*
X49115892Y-146309500D01*
X48984108Y-146309500D01*
X48856812Y-146343608D01*
X48742686Y-146409500D01*
X48742683Y-146409502D01*
X48649502Y-146502683D01*
X48649500Y-146502686D01*
X48583608Y-146616812D01*
X48549500Y-146744108D01*
X41868500Y-146744108D01*
X41868500Y-145744108D01*
X56987500Y-145744108D01*
X56987500Y-159875891D01*
X57021608Y-160003187D01*
X57038449Y-160032356D01*
X57087500Y-160117314D01*
X57180686Y-160210500D01*
X57294814Y-160276392D01*
X57422108Y-160310500D01*
X57422110Y-160310500D01*
X71553890Y-160310500D01*
X71553892Y-160310500D01*
X71681186Y-160276392D01*
X71795314Y-160210500D01*
X71888500Y-160117314D01*
X71954392Y-160003186D01*
X71988500Y-159875892D01*
X71988500Y-146744108D01*
X72425500Y-146744108D01*
X72425500Y-161875891D01*
X72459608Y-162003187D01*
X72492554Y-162060250D01*
X72525500Y-162117314D01*
X72618686Y-162210500D01*
X72732814Y-162276392D01*
X72860108Y-162310500D01*
X72860110Y-162310500D01*
X79991890Y-162310500D01*
X79991892Y-162310500D01*
X80119186Y-162276392D01*
X80233314Y-162210500D01*
X80326500Y-162117314D01*
X80392392Y-162003186D01*
X80426500Y-161875892D01*
X80426500Y-146744108D01*
X80392392Y-146616814D01*
X80326500Y-146502686D01*
X80233314Y-146409500D01*
X80176250Y-146376554D01*
X80119187Y-146343608D01*
X80055539Y-146326554D01*
X79991892Y-146309500D01*
X72991892Y-146309500D01*
X72860108Y-146309500D01*
X72732812Y-146343608D01*
X72618686Y-146409500D01*
X72618683Y-146409502D01*
X72525502Y-146502683D01*
X72525500Y-146502686D01*
X72459608Y-146616812D01*
X72425500Y-146744108D01*
X71988500Y-146744108D01*
X71988500Y-145744108D01*
X87944500Y-145744108D01*
X87944500Y-159875891D01*
X87978608Y-160003187D01*
X87995449Y-160032356D01*
X88044500Y-160117314D01*
X88137686Y-160210500D01*
X88251814Y-160276392D01*
X88379108Y-160310500D01*
X88379110Y-160310500D01*
X102510890Y-160310500D01*
X102510892Y-160310500D01*
X102638186Y-160276392D01*
X102752314Y-160210500D01*
X102845500Y-160117314D01*
X102911392Y-160003186D01*
X102945500Y-159875892D01*
X102945500Y-145744108D01*
X106994500Y-145744108D01*
X106994500Y-159875891D01*
X107028608Y-160003187D01*
X107045449Y-160032356D01*
X107094500Y-160117314D01*
X107187686Y-160210500D01*
X107301814Y-160276392D01*
X107429108Y-160310500D01*
X107429110Y-160310500D01*
X121560890Y-160310500D01*
X121560892Y-160310500D01*
X121688186Y-160276392D01*
X121802314Y-160210500D01*
X121895500Y-160117314D01*
X121961392Y-160003186D01*
X121995500Y-159875892D01*
X121995500Y-145744108D01*
X126044500Y-145744108D01*
X126044500Y-159875891D01*
X126078608Y-160003187D01*
X126095449Y-160032356D01*
X126144500Y-160117314D01*
X126237686Y-160210500D01*
X126351814Y-160276392D01*
X126479108Y-160310500D01*
X126479110Y-160310500D01*
X140610890Y-160310500D01*
X140610892Y-160310500D01*
X140738186Y-160276392D01*
X140852314Y-160210500D01*
X140945500Y-160117314D01*
X141011392Y-160003186D01*
X141045500Y-159875892D01*
X141045500Y-145744108D01*
X145094500Y-145744108D01*
X145094500Y-159875891D01*
X145128608Y-160003187D01*
X145145449Y-160032356D01*
X145194500Y-160117314D01*
X145287686Y-160210500D01*
X145401814Y-160276392D01*
X145529108Y-160310500D01*
X145529110Y-160310500D01*
X159660890Y-160310500D01*
X159660892Y-160310500D01*
X159788186Y-160276392D01*
X159902314Y-160210500D01*
X159995500Y-160117314D01*
X160061392Y-160003186D01*
X160095500Y-159875892D01*
X160095500Y-145744108D01*
X164144500Y-145744108D01*
X164144500Y-159875891D01*
X164178608Y-160003187D01*
X164195449Y-160032356D01*
X164244500Y-160117314D01*
X164337686Y-160210500D01*
X164451814Y-160276392D01*
X164579108Y-160310500D01*
X164579110Y-160310500D01*
X178710890Y-160310500D01*
X178710892Y-160310500D01*
X178838186Y-160276392D01*
X178952314Y-160210500D01*
X179045500Y-160117314D01*
X179111392Y-160003186D01*
X179145500Y-159875892D01*
X179145500Y-145744108D01*
X183194500Y-145744108D01*
X183194500Y-159875891D01*
X183228608Y-160003187D01*
X183245449Y-160032356D01*
X183294500Y-160117314D01*
X183387686Y-160210500D01*
X183501814Y-160276392D01*
X183629108Y-160310500D01*
X183629110Y-160310500D01*
X197760890Y-160310500D01*
X197760892Y-160310500D01*
X197888186Y-160276392D01*
X198002314Y-160210500D01*
X198095500Y-160117314D01*
X198161392Y-160003186D01*
X198195500Y-159875892D01*
X198195500Y-145744108D01*
X202244500Y-145744108D01*
X202244500Y-159875891D01*
X202278608Y-160003187D01*
X202295449Y-160032356D01*
X202344500Y-160117314D01*
X202437686Y-160210500D01*
X202551814Y-160276392D01*
X202679108Y-160310500D01*
X202679110Y-160310500D01*
X216810890Y-160310500D01*
X216810892Y-160310500D01*
X216938186Y-160276392D01*
X217052314Y-160210500D01*
X217145500Y-160117314D01*
X217211392Y-160003186D01*
X217245500Y-159875892D01*
X217245500Y-145744108D01*
X221294500Y-145744108D01*
X221294500Y-159875891D01*
X221328608Y-160003187D01*
X221345449Y-160032356D01*
X221394500Y-160117314D01*
X221487686Y-160210500D01*
X221601814Y-160276392D01*
X221729108Y-160310500D01*
X221729110Y-160310500D01*
X235860890Y-160310500D01*
X235860892Y-160310500D01*
X235988186Y-160276392D01*
X236102314Y-160210500D01*
X236195500Y-160117314D01*
X236261392Y-160003186D01*
X236295500Y-159875892D01*
X236295500Y-145744108D01*
X240344500Y-145744108D01*
X240344500Y-159875891D01*
X240378608Y-160003187D01*
X240395449Y-160032356D01*
X240444500Y-160117314D01*
X240537686Y-160210500D01*
X240651814Y-160276392D01*
X240779108Y-160310500D01*
X240779110Y-160310500D01*
X254910890Y-160310500D01*
X254910892Y-160310500D01*
X255038186Y-160276392D01*
X255152314Y-160210500D01*
X255245500Y-160117314D01*
X255311392Y-160003186D01*
X255345500Y-159875892D01*
X255345500Y-145744108D01*
X259394500Y-145744108D01*
X259394500Y-159875891D01*
X259428608Y-160003187D01*
X259445449Y-160032356D01*
X259494500Y-160117314D01*
X259587686Y-160210500D01*
X259701814Y-160276392D01*
X259829108Y-160310500D01*
X259829110Y-160310500D01*
X273960890Y-160310500D01*
X273960892Y-160310500D01*
X274088186Y-160276392D01*
X274202314Y-160210500D01*
X274295500Y-160117314D01*
X274361392Y-160003186D01*
X274395500Y-159875892D01*
X274395500Y-145744108D01*
X285587500Y-145744108D01*
X285587500Y-159875891D01*
X285621608Y-160003187D01*
X285638449Y-160032356D01*
X285687500Y-160117314D01*
X285780686Y-160210500D01*
X285894814Y-160276392D01*
X286022108Y-160310500D01*
X286022110Y-160310500D01*
X300153890Y-160310500D01*
X300153892Y-160310500D01*
X300281186Y-160276392D01*
X300395314Y-160210500D01*
X300488500Y-160117314D01*
X300554392Y-160003186D01*
X300588500Y-159875892D01*
X300588500Y-150506108D01*
X316544500Y-150506108D01*
X316544500Y-164637891D01*
X316578608Y-164765187D01*
X316595306Y-164794108D01*
X316644500Y-164879314D01*
X316737686Y-164972500D01*
X316851814Y-165038392D01*
X316979108Y-165072500D01*
X316979110Y-165072500D01*
X331110890Y-165072500D01*
X331110892Y-165072500D01*
X331238186Y-165038392D01*
X331352314Y-164972500D01*
X331445500Y-164879314D01*
X331511392Y-164765186D01*
X331545500Y-164637892D01*
X331545500Y-150506108D01*
X331511392Y-150378814D01*
X331445500Y-150264686D01*
X331352314Y-150171500D01*
X331295250Y-150138554D01*
X331238187Y-150105608D01*
X331174539Y-150088554D01*
X331110892Y-150071500D01*
X317110892Y-150071500D01*
X316979108Y-150071500D01*
X316851812Y-150105608D01*
X316737686Y-150171500D01*
X316737683Y-150171502D01*
X316644502Y-150264683D01*
X316644500Y-150264686D01*
X316578608Y-150378812D01*
X316544500Y-150506108D01*
X300588500Y-150506108D01*
X300588500Y-145744108D01*
X300554392Y-145616814D01*
X300488500Y-145502686D01*
X300395314Y-145409500D01*
X300338250Y-145376554D01*
X300281187Y-145343608D01*
X300217539Y-145326554D01*
X300153892Y-145309500D01*
X286153892Y-145309500D01*
X286022108Y-145309500D01*
X285894812Y-145343608D01*
X285780686Y-145409500D01*
X285780683Y-145409502D01*
X285687502Y-145502683D01*
X285687500Y-145502686D01*
X285621608Y-145616812D01*
X285587500Y-145744108D01*
X274395500Y-145744108D01*
X274361392Y-145616814D01*
X274295500Y-145502686D01*
X274202314Y-145409500D01*
X274145250Y-145376554D01*
X274088187Y-145343608D01*
X274024539Y-145326554D01*
X273960892Y-145309500D01*
X259960892Y-145309500D01*
X259829108Y-145309500D01*
X259701812Y-145343608D01*
X259587686Y-145409500D01*
X259587683Y-145409502D01*
X259494502Y-145502683D01*
X259494500Y-145502686D01*
X259428608Y-145616812D01*
X259394500Y-145744108D01*
X255345500Y-145744108D01*
X255311392Y-145616814D01*
X255245500Y-145502686D01*
X255152314Y-145409500D01*
X255095250Y-145376554D01*
X255038187Y-145343608D01*
X254974539Y-145326554D01*
X254910892Y-145309500D01*
X240910892Y-145309500D01*
X240779108Y-145309500D01*
X240651812Y-145343608D01*
X240537686Y-145409500D01*
X240537683Y-145409502D01*
X240444502Y-145502683D01*
X240444500Y-145502686D01*
X240378608Y-145616812D01*
X240344500Y-145744108D01*
X236295500Y-145744108D01*
X236261392Y-145616814D01*
X236195500Y-145502686D01*
X236102314Y-145409500D01*
X236045250Y-145376554D01*
X235988187Y-145343608D01*
X235924539Y-145326554D01*
X235860892Y-145309500D01*
X221860892Y-145309500D01*
X221729108Y-145309500D01*
X221601812Y-145343608D01*
X221487686Y-145409500D01*
X221487683Y-145409502D01*
X221394502Y-145502683D01*
X221394500Y-145502686D01*
X221328608Y-145616812D01*
X221294500Y-145744108D01*
X217245500Y-145744108D01*
X217211392Y-145616814D01*
X217145500Y-145502686D01*
X217052314Y-145409500D01*
X216995250Y-145376554D01*
X216938187Y-145343608D01*
X216874539Y-145326554D01*
X216810892Y-145309500D01*
X202810892Y-145309500D01*
X202679108Y-145309500D01*
X202551812Y-145343608D01*
X202437686Y-145409500D01*
X202437683Y-145409502D01*
X202344502Y-145502683D01*
X202344500Y-145502686D01*
X202278608Y-145616812D01*
X202244500Y-145744108D01*
X198195500Y-145744108D01*
X198161392Y-145616814D01*
X198095500Y-145502686D01*
X198002314Y-145409500D01*
X197945250Y-145376554D01*
X197888187Y-145343608D01*
X197824539Y-145326554D01*
X197760892Y-145309500D01*
X183760892Y-145309500D01*
X183629108Y-145309500D01*
X183501812Y-145343608D01*
X183387686Y-145409500D01*
X183387683Y-145409502D01*
X183294502Y-145502683D01*
X183294500Y-145502686D01*
X183228608Y-145616812D01*
X183194500Y-145744108D01*
X179145500Y-145744108D01*
X179111392Y-145616814D01*
X179045500Y-145502686D01*
X178952314Y-145409500D01*
X178895250Y-145376554D01*
X178838187Y-145343608D01*
X178774539Y-145326554D01*
X178710892Y-145309500D01*
X164710892Y-145309500D01*
X164579108Y-145309500D01*
X164451812Y-145343608D01*
X164337686Y-145409500D01*
X164337683Y-145409502D01*
X164244502Y-145502683D01*
X164244500Y-145502686D01*
X164178608Y-145616812D01*
X164144500Y-145744108D01*
X160095500Y-145744108D01*
X160061392Y-145616814D01*
X159995500Y-145502686D01*
X159902314Y-145409500D01*
X159845250Y-145376554D01*
X159788187Y-145343608D01*
X159724539Y-145326554D01*
X159660892Y-145309500D01*
X145660892Y-145309500D01*
X145529108Y-145309500D01*
X145401812Y-145343608D01*
X145287686Y-145409500D01*
X145287683Y-145409502D01*
X145194502Y-145502683D01*
X145194500Y-145502686D01*
X145128608Y-145616812D01*
X145094500Y-145744108D01*
X141045500Y-145744108D01*
X141011392Y-145616814D01*
X140945500Y-145502686D01*
X140852314Y-145409500D01*
X140795250Y-145376554D01*
X140738187Y-145343608D01*
X140674539Y-145326554D01*
X140610892Y-145309500D01*
X126610892Y-145309500D01*
X126479108Y-145309500D01*
X126351812Y-145343608D01*
X126237686Y-145409500D01*
X126237683Y-145409502D01*
X126144502Y-145502683D01*
X126144500Y-145502686D01*
X126078608Y-145616812D01*
X126044500Y-145744108D01*
X121995500Y-145744108D01*
X121961392Y-145616814D01*
X121895500Y-145502686D01*
X121802314Y-145409500D01*
X121745250Y-145376554D01*
X121688187Y-145343608D01*
X121624539Y-145326554D01*
X121560892Y-145309500D01*
X107560892Y-145309500D01*
X107429108Y-145309500D01*
X107301812Y-145343608D01*
X107187686Y-145409500D01*
X107187683Y-145409502D01*
X107094502Y-145502683D01*
X107094500Y-145502686D01*
X107028608Y-145616812D01*
X106994500Y-145744108D01*
X102945500Y-145744108D01*
X102911392Y-145616814D01*
X102845500Y-145502686D01*
X102752314Y-145409500D01*
X102695250Y-145376554D01*
X102638187Y-145343608D01*
X102574539Y-145326554D01*
X102510892Y-145309500D01*
X88510892Y-145309500D01*
X88379108Y-145309500D01*
X88251812Y-145343608D01*
X88137686Y-145409500D01*
X88137683Y-145409502D01*
X88044502Y-145502683D01*
X88044500Y-145502686D01*
X87978608Y-145616812D01*
X87944500Y-145744108D01*
X71988500Y-145744108D01*
X71954392Y-145616814D01*
X71888500Y-145502686D01*
X71795314Y-145409500D01*
X71738250Y-145376554D01*
X71681187Y-145343608D01*
X71617539Y-145326554D01*
X71553892Y-145309500D01*
X57553892Y-145309500D01*
X57422108Y-145309500D01*
X57294812Y-145343608D01*
X57180686Y-145409500D01*
X57180683Y-145409502D01*
X57087502Y-145502683D01*
X57087500Y-145502686D01*
X57021608Y-145616812D01*
X56987500Y-145744108D01*
X41868500Y-145744108D01*
X41868500Y-127529532D01*
X41868743Y-127521775D01*
X41871641Y-127475536D01*
X41871640Y-127475526D01*
X41870952Y-127472116D01*
X41868500Y-127447580D01*
X41868500Y-127444099D01*
X41868499Y-127444095D01*
X41856504Y-127399330D01*
X41854735Y-127391795D01*
X41788036Y-127061417D01*
X41785884Y-127045505D01*
X41784120Y-127020199D01*
X41776129Y-126996977D01*
X41771837Y-126981178D01*
X41766979Y-126957120D01*
X41766977Y-126957108D01*
X41755689Y-126934382D01*
X41749492Y-126919568D01*
X41741243Y-126895595D01*
X41741240Y-126895586D01*
X41727512Y-126875225D01*
X41719274Y-126861072D01*
X41708352Y-126839082D01*
X41691571Y-126820058D01*
X41681752Y-126807352D01*
X41605401Y-126694108D01*
X52225500Y-126694108D01*
X52225500Y-140825891D01*
X52259608Y-140953187D01*
X52292554Y-141010250D01*
X52325500Y-141067314D01*
X52418686Y-141160500D01*
X52532814Y-141226392D01*
X52660108Y-141260500D01*
X52660110Y-141260500D01*
X66791890Y-141260500D01*
X66791892Y-141260500D01*
X66919186Y-141226392D01*
X67033314Y-141160500D01*
X67126500Y-141067314D01*
X67192392Y-140953186D01*
X67226500Y-140825892D01*
X67226500Y-126694108D01*
X78419500Y-126694108D01*
X78419500Y-140825891D01*
X78453608Y-140953187D01*
X78486554Y-141010250D01*
X78519500Y-141067314D01*
X78612686Y-141160500D01*
X78726814Y-141226392D01*
X78854108Y-141260500D01*
X78854110Y-141260500D01*
X92985890Y-141260500D01*
X92985892Y-141260500D01*
X93113186Y-141226392D01*
X93227314Y-141160500D01*
X93320500Y-141067314D01*
X93386392Y-140953186D01*
X93420500Y-140825892D01*
X93420500Y-126694108D01*
X97469500Y-126694108D01*
X97469500Y-140825891D01*
X97503608Y-140953187D01*
X97536554Y-141010250D01*
X97569500Y-141067314D01*
X97662686Y-141160500D01*
X97776814Y-141226392D01*
X97904108Y-141260500D01*
X97904110Y-141260500D01*
X112035890Y-141260500D01*
X112035892Y-141260500D01*
X112163186Y-141226392D01*
X112277314Y-141160500D01*
X112370500Y-141067314D01*
X112436392Y-140953186D01*
X112470500Y-140825892D01*
X112470500Y-126694108D01*
X116519500Y-126694108D01*
X116519500Y-140825891D01*
X116553608Y-140953187D01*
X116586554Y-141010250D01*
X116619500Y-141067314D01*
X116712686Y-141160500D01*
X116826814Y-141226392D01*
X116954108Y-141260500D01*
X116954110Y-141260500D01*
X131085890Y-141260500D01*
X131085892Y-141260500D01*
X131213186Y-141226392D01*
X131327314Y-141160500D01*
X131420500Y-141067314D01*
X131486392Y-140953186D01*
X131520500Y-140825892D01*
X131520500Y-126694108D01*
X135569500Y-126694108D01*
X135569500Y-140825891D01*
X135603608Y-140953187D01*
X135636554Y-141010250D01*
X135669500Y-141067314D01*
X135762686Y-141160500D01*
X135876814Y-141226392D01*
X136004108Y-141260500D01*
X136004110Y-141260500D01*
X150135890Y-141260500D01*
X150135892Y-141260500D01*
X150263186Y-141226392D01*
X150377314Y-141160500D01*
X150470500Y-141067314D01*
X150536392Y-140953186D01*
X150570500Y-140825892D01*
X150570500Y-126694108D01*
X154619500Y-126694108D01*
X154619500Y-140825891D01*
X154653608Y-140953187D01*
X154686554Y-141010250D01*
X154719500Y-141067314D01*
X154812686Y-141160500D01*
X154926814Y-141226392D01*
X155054108Y-141260500D01*
X155054110Y-141260500D01*
X169185890Y-141260500D01*
X169185892Y-141260500D01*
X169313186Y-141226392D01*
X169427314Y-141160500D01*
X169520500Y-141067314D01*
X169586392Y-140953186D01*
X169620500Y-140825892D01*
X169620500Y-126694108D01*
X173669500Y-126694108D01*
X173669500Y-140825891D01*
X173703608Y-140953187D01*
X173736554Y-141010250D01*
X173769500Y-141067314D01*
X173862686Y-141160500D01*
X173976814Y-141226392D01*
X174104108Y-141260500D01*
X174104110Y-141260500D01*
X188235890Y-141260500D01*
X188235892Y-141260500D01*
X188363186Y-141226392D01*
X188477314Y-141160500D01*
X188570500Y-141067314D01*
X188636392Y-140953186D01*
X188670500Y-140825892D01*
X188670500Y-126694108D01*
X192719500Y-126694108D01*
X192719500Y-140825891D01*
X192753608Y-140953187D01*
X192786554Y-141010250D01*
X192819500Y-141067314D01*
X192912686Y-141160500D01*
X193026814Y-141226392D01*
X193154108Y-141260500D01*
X193154110Y-141260500D01*
X207285890Y-141260500D01*
X207285892Y-141260500D01*
X207413186Y-141226392D01*
X207527314Y-141160500D01*
X207620500Y-141067314D01*
X207686392Y-140953186D01*
X207720500Y-140825892D01*
X207720500Y-126694108D01*
X211769500Y-126694108D01*
X211769500Y-140825891D01*
X211803608Y-140953187D01*
X211836554Y-141010250D01*
X211869500Y-141067314D01*
X211962686Y-141160500D01*
X212076814Y-141226392D01*
X212204108Y-141260500D01*
X212204110Y-141260500D01*
X226335890Y-141260500D01*
X226335892Y-141260500D01*
X226463186Y-141226392D01*
X226577314Y-141160500D01*
X226670500Y-141067314D01*
X226736392Y-140953186D01*
X226770500Y-140825892D01*
X226770500Y-126694108D01*
X230819500Y-126694108D01*
X230819500Y-140825891D01*
X230853608Y-140953187D01*
X230886554Y-141010250D01*
X230919500Y-141067314D01*
X231012686Y-141160500D01*
X231126814Y-141226392D01*
X231254108Y-141260500D01*
X231254110Y-141260500D01*
X245385890Y-141260500D01*
X245385892Y-141260500D01*
X245513186Y-141226392D01*
X245627314Y-141160500D01*
X245720500Y-141067314D01*
X245786392Y-140953186D01*
X245820500Y-140825892D01*
X245820500Y-126694108D01*
X249869500Y-126694108D01*
X249869500Y-140825891D01*
X249903608Y-140953187D01*
X249936554Y-141010250D01*
X249969500Y-141067314D01*
X250062686Y-141160500D01*
X250176814Y-141226392D01*
X250304108Y-141260500D01*
X250304110Y-141260500D01*
X264435890Y-141260500D01*
X264435892Y-141260500D01*
X264563186Y-141226392D01*
X264677314Y-141160500D01*
X264770500Y-141067314D01*
X264836392Y-140953186D01*
X264870500Y-140825892D01*
X264870500Y-126694108D01*
X268919500Y-126694108D01*
X268919500Y-140825891D01*
X268953608Y-140953187D01*
X268986554Y-141010250D01*
X269019500Y-141067314D01*
X269112686Y-141160500D01*
X269226814Y-141226392D01*
X269354108Y-141260500D01*
X269354110Y-141260500D01*
X283485890Y-141260500D01*
X283485892Y-141260500D01*
X283613186Y-141226392D01*
X283727314Y-141160500D01*
X283820500Y-141067314D01*
X283886392Y-140953186D01*
X283920500Y-140825892D01*
X283920500Y-127694108D01*
X291437500Y-127694108D01*
X291437500Y-142825891D01*
X291471608Y-142953187D01*
X291504554Y-143010250D01*
X291537500Y-143067314D01*
X291630686Y-143160500D01*
X291744814Y-143226392D01*
X291872108Y-143260500D01*
X291872110Y-143260500D01*
X299003890Y-143260500D01*
X299003892Y-143260500D01*
X299131186Y-143226392D01*
X299245314Y-143160500D01*
X299338500Y-143067314D01*
X299404392Y-142953186D01*
X299438500Y-142825892D01*
X299438500Y-127694108D01*
X299404392Y-127566814D01*
X299338500Y-127452686D01*
X299245314Y-127359500D01*
X299172951Y-127317721D01*
X299131187Y-127293608D01*
X299067539Y-127276554D01*
X299003892Y-127259500D01*
X292003892Y-127259500D01*
X291872108Y-127259500D01*
X291744812Y-127293608D01*
X291630686Y-127359500D01*
X291630683Y-127359502D01*
X291537502Y-127452683D01*
X291537500Y-127452686D01*
X291471608Y-127566812D01*
X291437500Y-127694108D01*
X283920500Y-127694108D01*
X283920500Y-126694108D01*
X299875500Y-126694108D01*
X299875500Y-140825891D01*
X299909608Y-140953187D01*
X299942554Y-141010250D01*
X299975500Y-141067314D01*
X300068686Y-141160500D01*
X300182814Y-141226392D01*
X300310108Y-141260500D01*
X300310110Y-141260500D01*
X314441890Y-141260500D01*
X314441892Y-141260500D01*
X314569186Y-141226392D01*
X314683314Y-141160500D01*
X314776500Y-141067314D01*
X314842392Y-140953186D01*
X314876500Y-140825892D01*
X314876500Y-127694108D01*
X315313500Y-127694108D01*
X315313500Y-142825891D01*
X315347608Y-142953187D01*
X315380554Y-143010250D01*
X315413500Y-143067314D01*
X315506686Y-143160500D01*
X315620814Y-143226392D01*
X315748108Y-143260500D01*
X315748110Y-143260500D01*
X322879890Y-143260500D01*
X322879892Y-143260500D01*
X323007186Y-143226392D01*
X323121314Y-143160500D01*
X323214500Y-143067314D01*
X323280392Y-142953186D01*
X323314500Y-142825892D01*
X323314500Y-127694108D01*
X323280392Y-127566814D01*
X323214500Y-127452686D01*
X323121314Y-127359500D01*
X323048951Y-127317721D01*
X323007187Y-127293608D01*
X322943539Y-127276554D01*
X322879892Y-127259500D01*
X315879892Y-127259500D01*
X315748108Y-127259500D01*
X315620812Y-127293608D01*
X315506686Y-127359500D01*
X315506683Y-127359502D01*
X315413502Y-127452683D01*
X315413500Y-127452686D01*
X315347608Y-127566812D01*
X315313500Y-127694108D01*
X314876500Y-127694108D01*
X314876500Y-126694108D01*
X314842392Y-126566814D01*
X314776500Y-126452686D01*
X314683314Y-126359500D01*
X314626250Y-126326554D01*
X314569187Y-126293608D01*
X314505539Y-126276554D01*
X314441892Y-126259500D01*
X300441892Y-126259500D01*
X300310108Y-126259500D01*
X300182812Y-126293608D01*
X300068686Y-126359500D01*
X300068683Y-126359502D01*
X299975502Y-126452683D01*
X299975500Y-126452686D01*
X299909608Y-126566812D01*
X299875500Y-126694108D01*
X283920500Y-126694108D01*
X283886392Y-126566814D01*
X283820500Y-126452686D01*
X283727314Y-126359500D01*
X283670250Y-126326554D01*
X283613187Y-126293608D01*
X283549539Y-126276554D01*
X283485892Y-126259500D01*
X269485892Y-126259500D01*
X269354108Y-126259500D01*
X269226812Y-126293608D01*
X269112686Y-126359500D01*
X269112683Y-126359502D01*
X269019502Y-126452683D01*
X269019500Y-126452686D01*
X268953608Y-126566812D01*
X268919500Y-126694108D01*
X264870500Y-126694108D01*
X264836392Y-126566814D01*
X264770500Y-126452686D01*
X264677314Y-126359500D01*
X264620250Y-126326554D01*
X264563187Y-126293608D01*
X264499539Y-126276554D01*
X264435892Y-126259500D01*
X250435892Y-126259500D01*
X250304108Y-126259500D01*
X250176812Y-126293608D01*
X250062686Y-126359500D01*
X250062683Y-126359502D01*
X249969502Y-126452683D01*
X249969500Y-126452686D01*
X249903608Y-126566812D01*
X249869500Y-126694108D01*
X245820500Y-126694108D01*
X245786392Y-126566814D01*
X245720500Y-126452686D01*
X245627314Y-126359500D01*
X245570250Y-126326554D01*
X245513187Y-126293608D01*
X245449539Y-126276554D01*
X245385892Y-126259500D01*
X231385892Y-126259500D01*
X231254108Y-126259500D01*
X231126812Y-126293608D01*
X231012686Y-126359500D01*
X231012683Y-126359502D01*
X230919502Y-126452683D01*
X230919500Y-126452686D01*
X230853608Y-126566812D01*
X230819500Y-126694108D01*
X226770500Y-126694108D01*
X226736392Y-126566814D01*
X226670500Y-126452686D01*
X226577314Y-126359500D01*
X226520250Y-126326554D01*
X226463187Y-126293608D01*
X226399539Y-126276554D01*
X226335892Y-126259500D01*
X212335892Y-126259500D01*
X212204108Y-126259500D01*
X212076812Y-126293608D01*
X211962686Y-126359500D01*
X211962683Y-126359502D01*
X211869502Y-126452683D01*
X211869500Y-126452686D01*
X211803608Y-126566812D01*
X211769500Y-126694108D01*
X207720500Y-126694108D01*
X207686392Y-126566814D01*
X207620500Y-126452686D01*
X207527314Y-126359500D01*
X207470250Y-126326554D01*
X207413187Y-126293608D01*
X207349539Y-126276554D01*
X207285892Y-126259500D01*
X193285892Y-126259500D01*
X193154108Y-126259500D01*
X193026812Y-126293608D01*
X192912686Y-126359500D01*
X192912683Y-126359502D01*
X192819502Y-126452683D01*
X192819500Y-126452686D01*
X192753608Y-126566812D01*
X192719500Y-126694108D01*
X188670500Y-126694108D01*
X188636392Y-126566814D01*
X188570500Y-126452686D01*
X188477314Y-126359500D01*
X188420250Y-126326554D01*
X188363187Y-126293608D01*
X188299539Y-126276554D01*
X188235892Y-126259500D01*
X174235892Y-126259500D01*
X174104108Y-126259500D01*
X173976812Y-126293608D01*
X173862686Y-126359500D01*
X173862683Y-126359502D01*
X173769502Y-126452683D01*
X173769500Y-126452686D01*
X173703608Y-126566812D01*
X173669500Y-126694108D01*
X169620500Y-126694108D01*
X169586392Y-126566814D01*
X169520500Y-126452686D01*
X169427314Y-126359500D01*
X169370250Y-126326554D01*
X169313187Y-126293608D01*
X169249539Y-126276554D01*
X169185892Y-126259500D01*
X155185892Y-126259500D01*
X155054108Y-126259500D01*
X154926812Y-126293608D01*
X154812686Y-126359500D01*
X154812683Y-126359502D01*
X154719502Y-126452683D01*
X154719500Y-126452686D01*
X154653608Y-126566812D01*
X154619500Y-126694108D01*
X150570500Y-126694108D01*
X150536392Y-126566814D01*
X150470500Y-126452686D01*
X150377314Y-126359500D01*
X150320250Y-126326554D01*
X150263187Y-126293608D01*
X150199539Y-126276554D01*
X150135892Y-126259500D01*
X136135892Y-126259500D01*
X136004108Y-126259500D01*
X135876812Y-126293608D01*
X135762686Y-126359500D01*
X135762683Y-126359502D01*
X135669502Y-126452683D01*
X135669500Y-126452686D01*
X135603608Y-126566812D01*
X135569500Y-126694108D01*
X131520500Y-126694108D01*
X131486392Y-126566814D01*
X131420500Y-126452686D01*
X131327314Y-126359500D01*
X131270250Y-126326554D01*
X131213187Y-126293608D01*
X131149539Y-126276554D01*
X131085892Y-126259500D01*
X117085892Y-126259500D01*
X116954108Y-126259500D01*
X116826812Y-126293608D01*
X116712686Y-126359500D01*
X116712683Y-126359502D01*
X116619502Y-126452683D01*
X116619500Y-126452686D01*
X116553608Y-126566812D01*
X116519500Y-126694108D01*
X112470500Y-126694108D01*
X112436392Y-126566814D01*
X112370500Y-126452686D01*
X112277314Y-126359500D01*
X112220250Y-126326554D01*
X112163187Y-126293608D01*
X112099539Y-126276554D01*
X112035892Y-126259500D01*
X98035892Y-126259500D01*
X97904108Y-126259500D01*
X97776812Y-126293608D01*
X97662686Y-126359500D01*
X97662683Y-126359502D01*
X97569502Y-126452683D01*
X97569500Y-126452686D01*
X97503608Y-126566812D01*
X97469500Y-126694108D01*
X93420500Y-126694108D01*
X93386392Y-126566814D01*
X93320500Y-126452686D01*
X93227314Y-126359500D01*
X93170250Y-126326554D01*
X93113187Y-126293608D01*
X93049539Y-126276554D01*
X92985892Y-126259500D01*
X78985892Y-126259500D01*
X78854108Y-126259500D01*
X78726812Y-126293608D01*
X78612686Y-126359500D01*
X78612683Y-126359502D01*
X78519502Y-126452683D01*
X78519500Y-126452686D01*
X78453608Y-126566812D01*
X78419500Y-126694108D01*
X67226500Y-126694108D01*
X67192392Y-126566814D01*
X67126500Y-126452686D01*
X67033314Y-126359500D01*
X66976250Y-126326554D01*
X66919187Y-126293608D01*
X66855539Y-126276554D01*
X66791892Y-126259500D01*
X52791892Y-126259500D01*
X52660108Y-126259500D01*
X52532812Y-126293608D01*
X52418686Y-126359500D01*
X52418683Y-126359502D01*
X52325502Y-126452683D01*
X52325500Y-126452686D01*
X52259608Y-126566812D01*
X52225500Y-126694108D01*
X41605401Y-126694108D01*
X41514440Y-126559195D01*
X41505815Y-126544257D01*
X41505310Y-126543223D01*
X41496013Y-126524170D01*
X41477913Y-126503357D01*
X41468669Y-126491309D01*
X41453262Y-126468458D01*
X41453261Y-126468456D01*
X41436387Y-126453781D01*
X41424201Y-126441594D01*
X41409533Y-126424728D01*
X41409531Y-126424727D01*
X41386678Y-126409318D01*
X41374631Y-126400074D01*
X41353821Y-126381978D01*
X41353822Y-126381978D01*
X41353820Y-126381977D01*
X41333728Y-126372172D01*
X41318795Y-126363550D01*
X41070639Y-126196240D01*
X41057930Y-126186416D01*
X41038911Y-126169639D01*
X41038910Y-126169638D01*
X41016912Y-126158711D01*
X41002761Y-126150474D01*
X40982407Y-126136751D01*
X40982403Y-126136749D01*
X40958412Y-126128494D01*
X40943601Y-126122298D01*
X40920882Y-126111014D01*
X40896817Y-126106155D01*
X40881010Y-126101860D01*
X40857788Y-126093869D01*
X40857791Y-126093869D01*
X40832473Y-126092103D01*
X40816566Y-126089952D01*
X40486205Y-126023255D01*
X40478652Y-126021482D01*
X40433897Y-126009490D01*
X40433892Y-126009490D01*
X40430410Y-126009490D01*
X40405872Y-126007038D01*
X40402460Y-126006349D01*
X40402453Y-126006348D01*
X40358632Y-126009095D01*
X40356211Y-126009247D01*
X40348457Y-126009490D01*
X38130409Y-126009490D01*
X38105870Y-126007038D01*
X37199335Y-125824021D01*
X37154555Y-125805288D01*
X36468650Y-125342840D01*
X36435155Y-125309345D01*
X36281571Y-125081550D01*
X35972704Y-124623439D01*
X35953973Y-124578664D01*
X35933874Y-124479108D01*
X338139500Y-124479108D01*
X338139500Y-162110892D01*
X338156554Y-162174539D01*
X338173608Y-162238187D01*
X338195666Y-162276391D01*
X338239500Y-162352314D01*
X338332686Y-162445500D01*
X338446814Y-162511392D01*
X338574108Y-162545500D01*
X338574110Y-162545500D01*
X376205870Y-162545500D01*
X376205872Y-162545500D01*
X376333166Y-162511392D01*
X376447294Y-162445500D01*
X376540480Y-162352314D01*
X376606372Y-162238186D01*
X376640480Y-162110892D01*
X376640500Y-124479108D01*
X376606392Y-124351814D01*
X376540500Y-124237686D01*
X376447314Y-124144500D01*
X376390250Y-124111554D01*
X376333187Y-124078608D01*
X376269539Y-124061554D01*
X376205892Y-124044500D01*
X338705892Y-124044500D01*
X338574108Y-124044500D01*
X338446812Y-124078608D01*
X338332686Y-124144500D01*
X338332683Y-124144502D01*
X338239502Y-124237683D01*
X338239500Y-124237686D01*
X338173608Y-124351812D01*
X338139500Y-124479108D01*
X35933874Y-124479108D01*
X35783552Y-123734538D01*
X35783552Y-123685460D01*
X35791816Y-123644531D01*
X35953972Y-122841336D01*
X35972703Y-122796560D01*
X36435158Y-122110647D01*
X36468645Y-122077160D01*
X37154561Y-121614703D01*
X37199337Y-121595972D01*
X38105887Y-121412949D01*
X38130407Y-121410498D01*
X40348461Y-121410490D01*
X40356218Y-121410733D01*
X40402455Y-121413631D01*
X40402456Y-121413630D01*
X40402460Y-121413631D01*
X40405445Y-121413028D01*
X40405868Y-121412943D01*
X40430410Y-121410490D01*
X40433894Y-121410490D01*
X40478678Y-121398489D01*
X40486182Y-121396727D01*
X40816569Y-121330024D01*
X40832476Y-121327873D01*
X40857791Y-121326109D01*
X40881018Y-121318115D01*
X40896816Y-121313823D01*
X40920883Y-121308965D01*
X40943615Y-121297673D01*
X40958408Y-121291484D01*
X40982404Y-121283228D01*
X41002762Y-121269501D01*
X41016908Y-121261267D01*
X41038910Y-121250340D01*
X41057939Y-121233554D01*
X41070632Y-121223742D01*
X41318809Y-121056417D01*
X41333719Y-121047809D01*
X41353818Y-121038002D01*
X41374620Y-121019910D01*
X41386673Y-121010663D01*
X41409531Y-120995252D01*
X41409530Y-120995252D01*
X41409534Y-120995250D01*
X41424200Y-120978383D01*
X41436391Y-120966191D01*
X41453259Y-120951524D01*
X41468674Y-120928658D01*
X41477910Y-120916622D01*
X41496012Y-120895808D01*
X41505816Y-120875716D01*
X41514432Y-120860790D01*
X41681753Y-120612620D01*
X41691560Y-120599932D01*
X41708350Y-120580899D01*
X41719277Y-120558899D01*
X41727510Y-120544753D01*
X41741238Y-120524394D01*
X41749492Y-120500403D01*
X41755686Y-120485597D01*
X41766975Y-120462873D01*
X41771833Y-120438806D01*
X41776127Y-120423002D01*
X41784119Y-120399781D01*
X41785884Y-120374459D01*
X41788033Y-120358567D01*
X41854735Y-120028183D01*
X41856505Y-120020647D01*
X41868499Y-119975884D01*
X41868500Y-119975881D01*
X41868500Y-119972399D01*
X41870952Y-119947860D01*
X41871641Y-119944450D01*
X41868742Y-119898202D01*
X41868500Y-119890447D01*
X41868500Y-107644108D01*
X49844500Y-107644108D01*
X49844500Y-121775891D01*
X49878608Y-121903187D01*
X49911554Y-121960250D01*
X49944500Y-122017314D01*
X50037686Y-122110500D01*
X50151814Y-122176392D01*
X50279108Y-122210500D01*
X50279110Y-122210500D01*
X64410890Y-122210500D01*
X64410892Y-122210500D01*
X64538186Y-122176392D01*
X64652314Y-122110500D01*
X64745500Y-122017314D01*
X64811392Y-121903186D01*
X64845500Y-121775892D01*
X64845500Y-107644108D01*
X73656500Y-107644108D01*
X73656500Y-121775891D01*
X73690608Y-121903187D01*
X73723554Y-121960250D01*
X73756500Y-122017314D01*
X73849686Y-122110500D01*
X73963814Y-122176392D01*
X74091108Y-122210500D01*
X74091110Y-122210500D01*
X88222890Y-122210500D01*
X88222892Y-122210500D01*
X88350186Y-122176392D01*
X88464314Y-122110500D01*
X88557500Y-122017314D01*
X88623392Y-121903186D01*
X88657500Y-121775892D01*
X88657500Y-107644108D01*
X92706500Y-107644108D01*
X92706500Y-121775891D01*
X92740608Y-121903187D01*
X92773554Y-121960250D01*
X92806500Y-122017314D01*
X92899686Y-122110500D01*
X93013814Y-122176392D01*
X93141108Y-122210500D01*
X93141110Y-122210500D01*
X107272890Y-122210500D01*
X107272892Y-122210500D01*
X107400186Y-122176392D01*
X107514314Y-122110500D01*
X107607500Y-122017314D01*
X107673392Y-121903186D01*
X107707500Y-121775892D01*
X107707500Y-107644108D01*
X111756500Y-107644108D01*
X111756500Y-121775891D01*
X111790608Y-121903187D01*
X111823554Y-121960250D01*
X111856500Y-122017314D01*
X111949686Y-122110500D01*
X112063814Y-122176392D01*
X112191108Y-122210500D01*
X112191110Y-122210500D01*
X126322890Y-122210500D01*
X126322892Y-122210500D01*
X126450186Y-122176392D01*
X126564314Y-122110500D01*
X126657500Y-122017314D01*
X126723392Y-121903186D01*
X126757500Y-121775892D01*
X126757500Y-107644108D01*
X130806500Y-107644108D01*
X130806500Y-121775891D01*
X130840608Y-121903187D01*
X130873554Y-121960250D01*
X130906500Y-122017314D01*
X130999686Y-122110500D01*
X131113814Y-122176392D01*
X131241108Y-122210500D01*
X131241110Y-122210500D01*
X145372890Y-122210500D01*
X145372892Y-122210500D01*
X145500186Y-122176392D01*
X145614314Y-122110500D01*
X145707500Y-122017314D01*
X145773392Y-121903186D01*
X145807500Y-121775892D01*
X145807500Y-107644108D01*
X149856500Y-107644108D01*
X149856500Y-121775891D01*
X149890608Y-121903187D01*
X149923554Y-121960250D01*
X149956500Y-122017314D01*
X150049686Y-122110500D01*
X150163814Y-122176392D01*
X150291108Y-122210500D01*
X150291110Y-122210500D01*
X164422890Y-122210500D01*
X164422892Y-122210500D01*
X164550186Y-122176392D01*
X164664314Y-122110500D01*
X164757500Y-122017314D01*
X164823392Y-121903186D01*
X164857500Y-121775892D01*
X164857500Y-107644108D01*
X168906500Y-107644108D01*
X168906500Y-121775891D01*
X168940608Y-121903187D01*
X168973554Y-121960250D01*
X169006500Y-122017314D01*
X169099686Y-122110500D01*
X169213814Y-122176392D01*
X169341108Y-122210500D01*
X169341110Y-122210500D01*
X183472890Y-122210500D01*
X183472892Y-122210500D01*
X183600186Y-122176392D01*
X183714314Y-122110500D01*
X183807500Y-122017314D01*
X183873392Y-121903186D01*
X183907500Y-121775892D01*
X183907500Y-107644108D01*
X187956500Y-107644108D01*
X187956500Y-121775891D01*
X187990608Y-121903187D01*
X188023554Y-121960250D01*
X188056500Y-122017314D01*
X188149686Y-122110500D01*
X188263814Y-122176392D01*
X188391108Y-122210500D01*
X188391110Y-122210500D01*
X202522890Y-122210500D01*
X202522892Y-122210500D01*
X202650186Y-122176392D01*
X202764314Y-122110500D01*
X202857500Y-122017314D01*
X202923392Y-121903186D01*
X202957500Y-121775892D01*
X202957500Y-107644108D01*
X207006500Y-107644108D01*
X207006500Y-121775891D01*
X207040608Y-121903187D01*
X207073554Y-121960250D01*
X207106500Y-122017314D01*
X207199686Y-122110500D01*
X207313814Y-122176392D01*
X207441108Y-122210500D01*
X207441110Y-122210500D01*
X221572890Y-122210500D01*
X221572892Y-122210500D01*
X221700186Y-122176392D01*
X221814314Y-122110500D01*
X221907500Y-122017314D01*
X221973392Y-121903186D01*
X222007500Y-121775892D01*
X222007500Y-107644108D01*
X226056500Y-107644108D01*
X226056500Y-121775891D01*
X226090608Y-121903187D01*
X226123554Y-121960250D01*
X226156500Y-122017314D01*
X226249686Y-122110500D01*
X226363814Y-122176392D01*
X226491108Y-122210500D01*
X226491110Y-122210500D01*
X240622890Y-122210500D01*
X240622892Y-122210500D01*
X240750186Y-122176392D01*
X240864314Y-122110500D01*
X240957500Y-122017314D01*
X241023392Y-121903186D01*
X241057500Y-121775892D01*
X241057500Y-107644108D01*
X245106500Y-107644108D01*
X245106500Y-121775891D01*
X245140608Y-121903187D01*
X245173554Y-121960250D01*
X245206500Y-122017314D01*
X245299686Y-122110500D01*
X245413814Y-122176392D01*
X245541108Y-122210500D01*
X245541110Y-122210500D01*
X259672890Y-122210500D01*
X259672892Y-122210500D01*
X259800186Y-122176392D01*
X259914314Y-122110500D01*
X260007500Y-122017314D01*
X260073392Y-121903186D01*
X260107500Y-121775892D01*
X260107500Y-107644108D01*
X264156500Y-107644108D01*
X264156500Y-121775891D01*
X264190608Y-121903187D01*
X264223554Y-121960250D01*
X264256500Y-122017314D01*
X264349686Y-122110500D01*
X264463814Y-122176392D01*
X264591108Y-122210500D01*
X264591110Y-122210500D01*
X278722890Y-122210500D01*
X278722892Y-122210500D01*
X278850186Y-122176392D01*
X278964314Y-122110500D01*
X279057500Y-122017314D01*
X279123392Y-121903186D01*
X279157500Y-121775892D01*
X279157500Y-107644108D01*
X283206500Y-107644108D01*
X283206500Y-121775891D01*
X283240608Y-121903187D01*
X283273554Y-121960250D01*
X283306500Y-122017314D01*
X283399686Y-122110500D01*
X283513814Y-122176392D01*
X283641108Y-122210500D01*
X283641110Y-122210500D01*
X297772890Y-122210500D01*
X297772892Y-122210500D01*
X297900186Y-122176392D01*
X298014314Y-122110500D01*
X298107500Y-122017314D01*
X298173392Y-121903186D01*
X298207500Y-121775892D01*
X298207500Y-107644108D01*
X307019500Y-107644108D01*
X307019500Y-121775891D01*
X307053608Y-121903187D01*
X307086554Y-121960250D01*
X307119500Y-122017314D01*
X307212686Y-122110500D01*
X307326814Y-122176392D01*
X307454108Y-122210500D01*
X307454110Y-122210500D01*
X321585890Y-122210500D01*
X321585892Y-122210500D01*
X321713186Y-122176392D01*
X321827314Y-122110500D01*
X321920500Y-122017314D01*
X321986392Y-121903186D01*
X322020500Y-121775892D01*
X322020500Y-107644108D01*
X321986392Y-107516814D01*
X321920500Y-107402686D01*
X321827314Y-107309500D01*
X321770250Y-107276554D01*
X321713187Y-107243608D01*
X321649539Y-107226554D01*
X321585892Y-107209500D01*
X307585892Y-107209500D01*
X307454108Y-107209500D01*
X307326812Y-107243608D01*
X307212686Y-107309500D01*
X307212683Y-107309502D01*
X307119502Y-107402683D01*
X307119500Y-107402686D01*
X307053608Y-107516812D01*
X307019500Y-107644108D01*
X298207500Y-107644108D01*
X298173392Y-107516814D01*
X298107500Y-107402686D01*
X298014314Y-107309500D01*
X297957250Y-107276554D01*
X297900187Y-107243608D01*
X297836539Y-107226554D01*
X297772892Y-107209500D01*
X283772892Y-107209500D01*
X283641108Y-107209500D01*
X283513812Y-107243608D01*
X283399686Y-107309500D01*
X283399683Y-107309502D01*
X283306502Y-107402683D01*
X283306500Y-107402686D01*
X283240608Y-107516812D01*
X283206500Y-107644108D01*
X279157500Y-107644108D01*
X279123392Y-107516814D01*
X279057500Y-107402686D01*
X278964314Y-107309500D01*
X278907250Y-107276554D01*
X278850187Y-107243608D01*
X278786539Y-107226554D01*
X278722892Y-107209500D01*
X264722892Y-107209500D01*
X264591108Y-107209500D01*
X264463812Y-107243608D01*
X264349686Y-107309500D01*
X264349683Y-107309502D01*
X264256502Y-107402683D01*
X264256500Y-107402686D01*
X264190608Y-107516812D01*
X264156500Y-107644108D01*
X260107500Y-107644108D01*
X260073392Y-107516814D01*
X260007500Y-107402686D01*
X259914314Y-107309500D01*
X259857250Y-107276554D01*
X259800187Y-107243608D01*
X259736539Y-107226554D01*
X259672892Y-107209500D01*
X245672892Y-107209500D01*
X245541108Y-107209500D01*
X245413812Y-107243608D01*
X245299686Y-107309500D01*
X245299683Y-107309502D01*
X245206502Y-107402683D01*
X245206500Y-107402686D01*
X245140608Y-107516812D01*
X245106500Y-107644108D01*
X241057500Y-107644108D01*
X241023392Y-107516814D01*
X240957500Y-107402686D01*
X240864314Y-107309500D01*
X240807250Y-107276554D01*
X240750187Y-107243608D01*
X240686539Y-107226554D01*
X240622892Y-107209500D01*
X226622892Y-107209500D01*
X226491108Y-107209500D01*
X226363812Y-107243608D01*
X226249686Y-107309500D01*
X226249683Y-107309502D01*
X226156502Y-107402683D01*
X226156500Y-107402686D01*
X226090608Y-107516812D01*
X226056500Y-107644108D01*
X222007500Y-107644108D01*
X221973392Y-107516814D01*
X221907500Y-107402686D01*
X221814314Y-107309500D01*
X221757250Y-107276554D01*
X221700187Y-107243608D01*
X221636539Y-107226554D01*
X221572892Y-107209500D01*
X207572892Y-107209500D01*
X207441108Y-107209500D01*
X207313812Y-107243608D01*
X207199686Y-107309500D01*
X207199683Y-107309502D01*
X207106502Y-107402683D01*
X207106500Y-107402686D01*
X207040608Y-107516812D01*
X207006500Y-107644108D01*
X202957500Y-107644108D01*
X202923392Y-107516814D01*
X202857500Y-107402686D01*
X202764314Y-107309500D01*
X202707250Y-107276554D01*
X202650187Y-107243608D01*
X202586539Y-107226554D01*
X202522892Y-107209500D01*
X188522892Y-107209500D01*
X188391108Y-107209500D01*
X188263812Y-107243608D01*
X188149686Y-107309500D01*
X188149683Y-107309502D01*
X188056502Y-107402683D01*
X188056500Y-107402686D01*
X187990608Y-107516812D01*
X187956500Y-107644108D01*
X183907500Y-107644108D01*
X183873392Y-107516814D01*
X183807500Y-107402686D01*
X183714314Y-107309500D01*
X183657250Y-107276554D01*
X183600187Y-107243608D01*
X183536539Y-107226554D01*
X183472892Y-107209500D01*
X169472892Y-107209500D01*
X169341108Y-107209500D01*
X169213812Y-107243608D01*
X169099686Y-107309500D01*
X169099683Y-107309502D01*
X169006502Y-107402683D01*
X169006500Y-107402686D01*
X168940608Y-107516812D01*
X168906500Y-107644108D01*
X164857500Y-107644108D01*
X164823392Y-107516814D01*
X164757500Y-107402686D01*
X164664314Y-107309500D01*
X164607250Y-107276554D01*
X164550187Y-107243608D01*
X164486539Y-107226554D01*
X164422892Y-107209500D01*
X150422892Y-107209500D01*
X150291108Y-107209500D01*
X150163812Y-107243608D01*
X150049686Y-107309500D01*
X150049683Y-107309502D01*
X149956502Y-107402683D01*
X149956500Y-107402686D01*
X149890608Y-107516812D01*
X149856500Y-107644108D01*
X145807500Y-107644108D01*
X145773392Y-107516814D01*
X145707500Y-107402686D01*
X145614314Y-107309500D01*
X145557250Y-107276554D01*
X145500187Y-107243608D01*
X145436539Y-107226554D01*
X145372892Y-107209500D01*
X131372892Y-107209500D01*
X131241108Y-107209500D01*
X131113812Y-107243608D01*
X130999686Y-107309500D01*
X130999683Y-107309502D01*
X130906502Y-107402683D01*
X130906500Y-107402686D01*
X130840608Y-107516812D01*
X130806500Y-107644108D01*
X126757500Y-107644108D01*
X126723392Y-107516814D01*
X126657500Y-107402686D01*
X126564314Y-107309500D01*
X126507250Y-107276554D01*
X126450187Y-107243608D01*
X126386539Y-107226554D01*
X126322892Y-107209500D01*
X112322892Y-107209500D01*
X112191108Y-107209500D01*
X112063812Y-107243608D01*
X111949686Y-107309500D01*
X111949683Y-107309502D01*
X111856502Y-107402683D01*
X111856500Y-107402686D01*
X111790608Y-107516812D01*
X111756500Y-107644108D01*
X107707500Y-107644108D01*
X107673392Y-107516814D01*
X107607500Y-107402686D01*
X107514314Y-107309500D01*
X107457250Y-107276554D01*
X107400187Y-107243608D01*
X107336539Y-107226554D01*
X107272892Y-107209500D01*
X93272892Y-107209500D01*
X93141108Y-107209500D01*
X93013812Y-107243608D01*
X92899686Y-107309500D01*
X92899683Y-107309502D01*
X92806502Y-107402683D01*
X92806500Y-107402686D01*
X92740608Y-107516812D01*
X92706500Y-107644108D01*
X88657500Y-107644108D01*
X88623392Y-107516814D01*
X88557500Y-107402686D01*
X88464314Y-107309500D01*
X88407250Y-107276554D01*
X88350187Y-107243608D01*
X88286539Y-107226554D01*
X88222892Y-107209500D01*
X74222892Y-107209500D01*
X74091108Y-107209500D01*
X73963812Y-107243608D01*
X73849686Y-107309500D01*
X73849683Y-107309502D01*
X73756502Y-107402683D01*
X73756500Y-107402686D01*
X73690608Y-107516812D01*
X73656500Y-107644108D01*
X64845500Y-107644108D01*
X64811392Y-107516814D01*
X64745500Y-107402686D01*
X64652314Y-107309500D01*
X64595250Y-107276554D01*
X64538187Y-107243608D01*
X64474539Y-107226554D01*
X64410892Y-107209500D01*
X50410892Y-107209500D01*
X50279108Y-107209500D01*
X50151812Y-107243608D01*
X50037686Y-107309500D01*
X50037683Y-107309502D01*
X49944502Y-107402683D01*
X49944500Y-107402686D01*
X49878608Y-107516812D01*
X49844500Y-107644108D01*
X41868500Y-107644108D01*
X41868500Y-100184108D01*
X45087500Y-100184108D01*
X45087500Y-103484108D01*
X45087500Y-103615892D01*
X45104554Y-103679539D01*
X45121608Y-103743187D01*
X45138929Y-103773187D01*
X45187500Y-103857314D01*
X45280686Y-103950500D01*
X45394814Y-104016392D01*
X45522108Y-104050500D01*
X45522110Y-104050500D01*
X49353890Y-104050500D01*
X49353892Y-104050500D01*
X49481186Y-104016392D01*
X49595314Y-103950500D01*
X49688500Y-103857314D01*
X49754392Y-103743186D01*
X49788500Y-103615892D01*
X49788500Y-100184108D01*
X70087500Y-100184108D01*
X70087500Y-103484108D01*
X70087500Y-103615892D01*
X70104554Y-103679539D01*
X70121608Y-103743187D01*
X70138929Y-103773187D01*
X70187500Y-103857314D01*
X70280686Y-103950500D01*
X70394814Y-104016392D01*
X70522108Y-104050500D01*
X70522110Y-104050500D01*
X74353890Y-104050500D01*
X74353892Y-104050500D01*
X74481186Y-104016392D01*
X74595314Y-103950500D01*
X74688500Y-103857314D01*
X74754392Y-103743186D01*
X74788500Y-103615892D01*
X74788500Y-100184108D01*
X95087500Y-100184108D01*
X95087500Y-103615892D01*
X95104554Y-103679539D01*
X95121608Y-103743187D01*
X95138929Y-103773187D01*
X95187500Y-103857314D01*
X95280686Y-103950500D01*
X95394814Y-104016392D01*
X95522108Y-104050500D01*
X95522110Y-104050500D01*
X99353890Y-104050500D01*
X99353892Y-104050500D01*
X99481186Y-104016392D01*
X99595314Y-103950500D01*
X99688500Y-103857314D01*
X99754392Y-103743186D01*
X99788500Y-103615892D01*
X99788500Y-100184108D01*
X120087500Y-100184108D01*
X120087500Y-103484108D01*
X120087500Y-103615892D01*
X120104554Y-103679539D01*
X120121608Y-103743187D01*
X120138929Y-103773187D01*
X120187500Y-103857314D01*
X120280686Y-103950500D01*
X120394814Y-104016392D01*
X120522108Y-104050500D01*
X120522110Y-104050500D01*
X124353890Y-104050500D01*
X124353892Y-104050500D01*
X124481186Y-104016392D01*
X124595314Y-103950500D01*
X124688500Y-103857314D01*
X124754392Y-103743186D01*
X124788500Y-103615892D01*
X124788500Y-100184108D01*
X145087500Y-100184108D01*
X145087500Y-103484108D01*
X145087500Y-103615892D01*
X145104554Y-103679539D01*
X145121608Y-103743187D01*
X145138929Y-103773187D01*
X145187500Y-103857314D01*
X145280686Y-103950500D01*
X145394814Y-104016392D01*
X145522108Y-104050500D01*
X145522110Y-104050500D01*
X149353890Y-104050500D01*
X149353892Y-104050500D01*
X149481186Y-104016392D01*
X149595314Y-103950500D01*
X149688500Y-103857314D01*
X149754392Y-103743186D01*
X149788500Y-103615892D01*
X149788500Y-100184108D01*
X170087500Y-100184108D01*
X170087500Y-103615892D01*
X170104554Y-103679539D01*
X170121608Y-103743187D01*
X170138929Y-103773187D01*
X170187500Y-103857314D01*
X170280686Y-103950500D01*
X170394814Y-104016392D01*
X170522108Y-104050500D01*
X170522110Y-104050500D01*
X174353890Y-104050500D01*
X174353892Y-104050500D01*
X174481186Y-104016392D01*
X174595314Y-103950500D01*
X174688500Y-103857314D01*
X174754392Y-103743186D01*
X174788500Y-103615892D01*
X174788500Y-100184108D01*
X195087500Y-100184108D01*
X195087500Y-103484108D01*
X195087500Y-103615892D01*
X195104554Y-103679539D01*
X195121608Y-103743187D01*
X195138929Y-103773187D01*
X195187500Y-103857314D01*
X195280686Y-103950500D01*
X195394814Y-104016392D01*
X195522108Y-104050500D01*
X195522110Y-104050500D01*
X199353890Y-104050500D01*
X199353892Y-104050500D01*
X199481186Y-104016392D01*
X199595314Y-103950500D01*
X199688500Y-103857314D01*
X199754392Y-103743186D01*
X199788500Y-103615892D01*
X199788500Y-100184108D01*
X220087500Y-100184108D01*
X220087500Y-103484108D01*
X220087500Y-103615892D01*
X220104554Y-103679539D01*
X220121608Y-103743187D01*
X220138929Y-103773187D01*
X220187500Y-103857314D01*
X220280686Y-103950500D01*
X220394814Y-104016392D01*
X220522108Y-104050500D01*
X220522110Y-104050500D01*
X224353890Y-104050500D01*
X224353892Y-104050500D01*
X224481186Y-104016392D01*
X224595314Y-103950500D01*
X224688500Y-103857314D01*
X224754392Y-103743186D01*
X224788500Y-103615892D01*
X224788500Y-100184108D01*
X245087500Y-100184108D01*
X245087500Y-103615892D01*
X245104554Y-103679539D01*
X245121608Y-103743187D01*
X245138929Y-103773187D01*
X245187500Y-103857314D01*
X245280686Y-103950500D01*
X245394814Y-104016392D01*
X245522108Y-104050500D01*
X245522110Y-104050500D01*
X249353890Y-104050500D01*
X249353892Y-104050500D01*
X249481186Y-104016392D01*
X249595314Y-103950500D01*
X249688500Y-103857314D01*
X249754392Y-103743186D01*
X249788500Y-103615892D01*
X249788500Y-100184108D01*
X270087500Y-100184108D01*
X270087500Y-103484108D01*
X270087500Y-103615892D01*
X270104554Y-103679539D01*
X270121608Y-103743187D01*
X270138929Y-103773187D01*
X270187500Y-103857314D01*
X270280686Y-103950500D01*
X270394814Y-104016392D01*
X270522108Y-104050500D01*
X270522110Y-104050500D01*
X274353890Y-104050500D01*
X274353892Y-104050500D01*
X274481186Y-104016392D01*
X274595314Y-103950500D01*
X274688500Y-103857314D01*
X274754392Y-103743186D01*
X274788500Y-103615892D01*
X274788500Y-100184108D01*
X295087500Y-100184108D01*
X295087500Y-103484108D01*
X295087500Y-103615892D01*
X295104554Y-103679539D01*
X295121608Y-103743187D01*
X295138929Y-103773187D01*
X295187500Y-103857314D01*
X295280686Y-103950500D01*
X295394814Y-104016392D01*
X295522108Y-104050500D01*
X295522110Y-104050500D01*
X299353890Y-104050500D01*
X299353892Y-104050500D01*
X299481186Y-104016392D01*
X299595314Y-103950500D01*
X299688500Y-103857314D01*
X299754392Y-103743186D01*
X299788500Y-103615892D01*
X299788500Y-100214108D01*
X320087500Y-100214108D01*
X320087500Y-103645891D01*
X320121608Y-103773187D01*
X320154554Y-103830250D01*
X320187500Y-103887314D01*
X320280686Y-103980500D01*
X320394814Y-104046392D01*
X320522108Y-104080500D01*
X320522110Y-104080500D01*
X324353890Y-104080500D01*
X324353892Y-104080500D01*
X324481186Y-104046392D01*
X324595314Y-103980500D01*
X324688500Y-103887314D01*
X324754392Y-103773186D01*
X324788500Y-103645892D01*
X324788500Y-102881108D01*
X340356500Y-102881108D01*
X340356500Y-117012891D01*
X340390608Y-117140187D01*
X340423554Y-117197250D01*
X340456500Y-117254314D01*
X340549686Y-117347500D01*
X340663814Y-117413392D01*
X340791108Y-117447500D01*
X340791110Y-117447500D01*
X354922890Y-117447500D01*
X354922892Y-117447500D01*
X355050186Y-117413392D01*
X355164314Y-117347500D01*
X355257500Y-117254314D01*
X355323392Y-117140186D01*
X355357500Y-117012892D01*
X355357500Y-102881108D01*
X359406500Y-102881108D01*
X359406500Y-117012891D01*
X359440608Y-117140187D01*
X359473554Y-117197250D01*
X359506500Y-117254314D01*
X359599686Y-117347500D01*
X359713814Y-117413392D01*
X359841108Y-117447500D01*
X359841110Y-117447500D01*
X373972890Y-117447500D01*
X373972892Y-117447500D01*
X374100186Y-117413392D01*
X374214314Y-117347500D01*
X374307500Y-117254314D01*
X374373392Y-117140186D01*
X374407500Y-117012892D01*
X374407500Y-102881108D01*
X374373392Y-102753814D01*
X374307500Y-102639686D01*
X374214314Y-102546500D01*
X374157250Y-102513554D01*
X374100187Y-102480608D01*
X374036539Y-102463554D01*
X373972892Y-102446500D01*
X359972892Y-102446500D01*
X359841108Y-102446500D01*
X359713812Y-102480608D01*
X359599686Y-102546500D01*
X359599683Y-102546502D01*
X359506502Y-102639683D01*
X359506500Y-102639686D01*
X359440608Y-102753812D01*
X359406500Y-102881108D01*
X355357500Y-102881108D01*
X355323392Y-102753814D01*
X355257500Y-102639686D01*
X355164314Y-102546500D01*
X355107250Y-102513554D01*
X355050187Y-102480608D01*
X354986539Y-102463554D01*
X354922892Y-102446500D01*
X340922892Y-102446500D01*
X340791108Y-102446500D01*
X340663812Y-102480608D01*
X340549686Y-102546500D01*
X340549683Y-102546502D01*
X340456502Y-102639683D01*
X340456500Y-102639686D01*
X340390608Y-102753812D01*
X340356500Y-102881108D01*
X324788500Y-102881108D01*
X324788500Y-100214108D01*
X324754392Y-100086814D01*
X324688500Y-99972686D01*
X324595314Y-99879500D01*
X324538250Y-99846554D01*
X324481187Y-99813608D01*
X324369223Y-99783608D01*
X324353892Y-99779500D01*
X320653892Y-99779500D01*
X320522108Y-99779500D01*
X320394812Y-99813608D01*
X320280686Y-99879500D01*
X320280683Y-99879502D01*
X320187502Y-99972683D01*
X320187500Y-99972686D01*
X320121608Y-100086812D01*
X320087500Y-100214108D01*
X299788500Y-100214108D01*
X299788500Y-100184108D01*
X299754392Y-100056814D01*
X299688500Y-99942686D01*
X299595314Y-99849500D01*
X299533147Y-99813608D01*
X299481187Y-99783608D01*
X299417539Y-99766554D01*
X299353892Y-99749500D01*
X295653892Y-99749500D01*
X295522108Y-99749500D01*
X295394812Y-99783608D01*
X295280686Y-99849500D01*
X295280683Y-99849502D01*
X295187502Y-99942683D01*
X295187500Y-99942686D01*
X295121608Y-100056812D01*
X295087500Y-100184108D01*
X274788500Y-100184108D01*
X274754392Y-100056814D01*
X274688500Y-99942686D01*
X274595314Y-99849500D01*
X274533147Y-99813608D01*
X274481187Y-99783608D01*
X274417539Y-99766554D01*
X274353892Y-99749500D01*
X270653892Y-99749500D01*
X270522108Y-99749500D01*
X270394812Y-99783608D01*
X270280686Y-99849500D01*
X270280683Y-99849502D01*
X270187502Y-99942683D01*
X270187500Y-99942686D01*
X270121608Y-100056812D01*
X270087500Y-100184108D01*
X249788500Y-100184108D01*
X249754392Y-100056814D01*
X249688500Y-99942686D01*
X249595314Y-99849500D01*
X249533147Y-99813608D01*
X249481187Y-99783608D01*
X249417539Y-99766554D01*
X249353892Y-99749500D01*
X245653892Y-99749500D01*
X245522108Y-99749500D01*
X245394812Y-99783608D01*
X245280686Y-99849500D01*
X245280683Y-99849502D01*
X245187502Y-99942683D01*
X245187500Y-99942686D01*
X245121608Y-100056812D01*
X245087500Y-100184108D01*
X224788500Y-100184108D01*
X224754392Y-100056814D01*
X224688500Y-99942686D01*
X224595314Y-99849500D01*
X224533147Y-99813608D01*
X224481187Y-99783608D01*
X224417539Y-99766554D01*
X224353892Y-99749500D01*
X220653892Y-99749500D01*
X220522108Y-99749500D01*
X220394812Y-99783608D01*
X220280686Y-99849500D01*
X220280683Y-99849502D01*
X220187502Y-99942683D01*
X220187500Y-99942686D01*
X220121608Y-100056812D01*
X220087500Y-100184108D01*
X199788500Y-100184108D01*
X199754392Y-100056814D01*
X199688500Y-99942686D01*
X199595314Y-99849500D01*
X199533147Y-99813608D01*
X199481187Y-99783608D01*
X199417539Y-99766554D01*
X199353892Y-99749500D01*
X195653892Y-99749500D01*
X195522108Y-99749500D01*
X195394812Y-99783608D01*
X195280686Y-99849500D01*
X195280683Y-99849502D01*
X195187502Y-99942683D01*
X195187500Y-99942686D01*
X195121608Y-100056812D01*
X195087500Y-100184108D01*
X174788500Y-100184108D01*
X174754392Y-100056814D01*
X174688500Y-99942686D01*
X174595314Y-99849500D01*
X174533147Y-99813608D01*
X174481187Y-99783608D01*
X174417539Y-99766554D01*
X174353892Y-99749500D01*
X170653892Y-99749500D01*
X170522108Y-99749500D01*
X170394812Y-99783608D01*
X170280686Y-99849500D01*
X170280683Y-99849502D01*
X170187502Y-99942683D01*
X170187500Y-99942686D01*
X170121608Y-100056812D01*
X170087500Y-100184108D01*
X149788500Y-100184108D01*
X149754392Y-100056814D01*
X149688500Y-99942686D01*
X149595314Y-99849500D01*
X149533147Y-99813608D01*
X149481187Y-99783608D01*
X149417539Y-99766554D01*
X149353892Y-99749500D01*
X145653892Y-99749500D01*
X145522108Y-99749500D01*
X145394812Y-99783608D01*
X145280686Y-99849500D01*
X145280683Y-99849502D01*
X145187502Y-99942683D01*
X145187500Y-99942686D01*
X145121608Y-100056812D01*
X145087500Y-100184108D01*
X124788500Y-100184108D01*
X124754392Y-100056814D01*
X124688500Y-99942686D01*
X124595314Y-99849500D01*
X124533147Y-99813608D01*
X124481187Y-99783608D01*
X124417539Y-99766554D01*
X124353892Y-99749500D01*
X120653892Y-99749500D01*
X120522108Y-99749500D01*
X120394812Y-99783608D01*
X120280686Y-99849500D01*
X120280683Y-99849502D01*
X120187502Y-99942683D01*
X120187500Y-99942686D01*
X120121608Y-100056812D01*
X120087500Y-100184108D01*
X99788500Y-100184108D01*
X99754392Y-100056814D01*
X99688500Y-99942686D01*
X99595314Y-99849500D01*
X99533147Y-99813608D01*
X99481187Y-99783608D01*
X99417539Y-99766554D01*
X99353892Y-99749500D01*
X95653892Y-99749500D01*
X95522108Y-99749500D01*
X95394812Y-99783608D01*
X95280686Y-99849500D01*
X95280683Y-99849502D01*
X95187502Y-99942683D01*
X95187500Y-99942686D01*
X95121608Y-100056812D01*
X95087500Y-100184108D01*
X74788500Y-100184108D01*
X74754392Y-100056814D01*
X74688500Y-99942686D01*
X74595314Y-99849500D01*
X74533147Y-99813608D01*
X74481187Y-99783608D01*
X74417539Y-99766554D01*
X74353892Y-99749500D01*
X70653892Y-99749500D01*
X70522108Y-99749500D01*
X70394812Y-99783608D01*
X70280686Y-99849500D01*
X70280683Y-99849502D01*
X70187502Y-99942683D01*
X70187500Y-99942686D01*
X70121608Y-100056812D01*
X70087500Y-100184108D01*
X49788500Y-100184108D01*
X49754392Y-100056814D01*
X49688500Y-99942686D01*
X49595314Y-99849500D01*
X49533147Y-99813608D01*
X49481187Y-99783608D01*
X49417539Y-99766554D01*
X49353892Y-99749500D01*
X45653892Y-99749500D01*
X45522108Y-99749500D01*
X45394812Y-99783608D01*
X45280686Y-99849500D01*
X45280683Y-99849502D01*
X45187502Y-99942683D01*
X45187500Y-99942686D01*
X45121608Y-100056812D01*
X45087500Y-100184108D01*
X41868500Y-100184108D01*
X41868500Y-99772413D01*
X41870952Y-99747874D01*
X41912520Y-99541976D01*
X41931252Y-99497201D01*
X42007950Y-99383442D01*
X42041442Y-99349950D01*
X42155203Y-99273250D01*
X42199979Y-99254519D01*
X42405871Y-99212952D01*
X42430410Y-99210500D01*
X67548458Y-99210500D01*
X67556212Y-99210742D01*
X67563985Y-99211230D01*
X67602454Y-99213641D01*
X67602455Y-99213640D01*
X67602460Y-99213641D01*
X67605873Y-99212952D01*
X67630411Y-99210500D01*
X67633891Y-99210500D01*
X67633892Y-99210500D01*
X67678657Y-99198505D01*
X67686193Y-99196735D01*
X68016584Y-99130031D01*
X68032469Y-99127884D01*
X68057791Y-99126119D01*
X68081018Y-99118125D01*
X68096816Y-99113833D01*
X68120883Y-99108975D01*
X68143615Y-99097683D01*
X68158408Y-99091494D01*
X68182404Y-99083238D01*
X68202762Y-99069511D01*
X68216908Y-99061277D01*
X68238910Y-99050350D01*
X68257939Y-99033564D01*
X68270632Y-99023752D01*
X68518809Y-98856427D01*
X68533719Y-98847819D01*
X68553818Y-98838012D01*
X68574623Y-98819919D01*
X68586673Y-98810673D01*
X68586678Y-98810670D01*
X68609534Y-98795260D01*
X68624202Y-98778392D01*
X68636391Y-98766201D01*
X68653259Y-98751534D01*
X68668674Y-98728668D01*
X68677912Y-98716630D01*
X68696012Y-98695818D01*
X68705816Y-98675726D01*
X68714436Y-98660795D01*
X68881753Y-98412630D01*
X68891560Y-98399942D01*
X68908350Y-98380909D01*
X68919277Y-98358909D01*
X68927510Y-98344763D01*
X68941238Y-98324404D01*
X68949493Y-98300412D01*
X68955686Y-98285607D01*
X68966975Y-98262883D01*
X68971833Y-98238816D01*
X68976130Y-98223004D01*
X68984119Y-98199791D01*
X68985884Y-98174473D01*
X68988035Y-98158568D01*
X68988035Y-98158567D01*
X69054737Y-97828182D01*
X69056499Y-97820678D01*
X69068500Y-97775894D01*
X69068500Y-97772408D01*
X69070952Y-97747870D01*
X69071641Y-97744460D01*
X69068743Y-97698212D01*
X69068500Y-97690461D01*
X69068500Y-97659979D01*
X69068508Y-95472407D01*
X69070959Y-95447887D01*
X69253983Y-94541335D01*
X69272715Y-94496559D01*
X69735168Y-93810647D01*
X69768655Y-93777160D01*
X70454571Y-93314703D01*
X70499347Y-93295972D01*
X71343472Y-93125552D01*
X71392548Y-93125552D01*
X72236674Y-93295973D01*
G37*
%TD.AperFunction*%
M02*
