999
"DXF R12 Output" (www.mydxf.blogspot.com)
 0 
SECTION
 2 
HEADER
 9 
$ACADVER
 1 
AC1009
 9 
$EXTMIN
 10 
 0 
 20 
 0 
 9 
$EXTMAX
 10 
 8.5 
 20 
 11 
 0 
ENDSEC
 0 
SECTION
 2 
ENTITIES
0
POLYLINE
8
Layer 1
62
7
70
0
10
0.000000
20
0.000000
66
1
0
VERTEX
8
Layer 1
10
0.049999
20
27.850000
70
0
0
VERTEX
8
Layer 1
10
0.049999
20
32.250000
70
0
0
VERTEX
8
Layer 1
10
0.137867
20
32.462134
70
0
0
VERTEX
8
Layer 1
10
0.349999
20
32.550000
70
0
0
VERTEX
8
Layer 1
10
4.749999
20
32.550000
70
0
0
VERTEX
8
Layer 1
10
4.962131
20
32.637866
70
0
0
VERTEX
8
Layer 1
10
5.049999
20
32.850000
70
0
0
VERTEX
8
Layer 1
10
5.049999
20
66.360000
70
0
0
VERTEX
8
Layer 1
10
4.962131
20
66.572134
70
0
0
VERTEX
8
Layer 1
10
4.749999
20
66.660000
70
0
0
VERTEX
8
Layer 1
10
0.349999
20
66.660000
70
0
0
VERTEX
8
Layer 1
10
0.137867
20
66.747866
70
0
0
VERTEX
8
Layer 1
10
0.049999
20
66.960000
70
0
0
VERTEX
8
Layer 1
10
0.049999
20
71.360000
70
0
0
VERTEX
8
Layer 1
10
0.137867
20
71.572134
70
0
0
VERTEX
8
Layer 1
10
0.349999
20
71.660000
70
0
0
VERTEX
8
Layer 1
10
4.749999
20
71.660000
70
0
0
VERTEX
8
Layer 1
10
4.962131
20
71.747866
70
0
0
VERTEX
8
Layer 1
10
5.049999
20
71.960000
70
0
0
VERTEX
8
Layer 1
10
5.049999
20
93.160333
70
0
0
VERTEX
8
Layer 1
10
5.128584
20
93.549578
70
0
0
VERTEX
8
Layer 1
10
5.342892
20
93.867440
70
0
0
VERTEX
8
Layer 1
10
5.660754
20
94.081748
70
0
0
VERTEX
8
Layer 1
10
6.049999
20
94.160333
70
0
0
VERTEX
8
Layer 1
10
32.249999
20
94.160335
70
0
0
VERTEX
8
Layer 1
10
32.462131
20
94.248203
70
0
0
VERTEX
8
Layer 1
10
32.549999
20
94.460335
70
0
0
VERTEX
8
Layer 1
10
32.549999
20
98.860335
70
0
0
VERTEX
8
Layer 1
10
32.637867
20
99.072467
70
0
0
VERTEX
8
Layer 1
10
32.849999
20
99.160335
70
0
0
VERTEX
8
Layer 1
10
37.249999
20
99.160335
70
0
0
VERTEX
8
Layer 1
10
37.462131
20
99.072467
70
0
0
VERTEX
8
Layer 1
10
37.549999
20
98.860335
70
0
0
VERTEX
8
Layer 1
10
37.549999
20
94.460335
70
0
0
VERTEX
8
Layer 1
10
37.637867
20
94.248203
70
0
0
VERTEX
8
Layer 1
10
37.849999
20
94.160335
70
0
0
VERTEX
8
Layer 1
10
117.250000
20
94.160335
70
0
0
VERTEX
8
Layer 1
10
117.462134
20
94.248203
70
0
0
VERTEX
8
Layer 1
10
117.550000
20
94.460335
70
0
0
VERTEX
8
Layer 1
10
117.550000
20
98.860335
70
0
0
VERTEX
8
Layer 1
10
117.637866
20
99.072467
70
0
0
VERTEX
8
Layer 1
10
117.850000
20
99.160335
70
0
0
VERTEX
8
Layer 1
10
122.250000
20
99.160335
70
0
0
VERTEX
8
Layer 1
10
122.462134
20
99.072467
70
0
0
VERTEX
8
Layer 1
10
122.550000
20
98.860335
70
0
0
VERTEX
8
Layer 1
10
122.550000
20
94.460335
70
0
0
VERTEX
8
Layer 1
10
122.637866
20
94.248203
70
0
0
VERTEX
8
Layer 1
10
122.850000
20
94.160335
70
0
0
VERTEX
8
Layer 1
10
224.012010
20
94.160335
70
0
0
VERTEX
8
Layer 1
10
224.224144
20
94.248203
70
0
0
VERTEX
8
Layer 1
10
224.312010
20
94.460335
70
0
0
VERTEX
8
Layer 1
10
224.312010
20
98.860335
70
0
0
VERTEX
8
Layer 1
10
224.399876
20
99.072467
70
0
0
VERTEX
8
Layer 1
10
224.612010
20
99.160335
70
0
0
VERTEX
8
Layer 1
10
229.012010
20
99.160335
70
0
0
VERTEX
8
Layer 1
10
229.224144
20
99.072467
70
0
0
VERTEX
8
Layer 1
10
229.312010
20
98.860335
70
0
0
VERTEX
8
Layer 1
10
229.312010
20
94.460335
70
0
0
VERTEX
8
Layer 1
10
229.399876
20
94.248203
70
0
0
VERTEX
8
Layer 1
10
229.612010
20
94.160335
70
0
0
VERTEX
8
Layer 1
10
309.012010
20
94.160335
70
0
0
VERTEX
8
Layer 1
10
309.224144
20
94.248203
70
0
0
VERTEX
8
Layer 1
10
309.312010
20
94.460335
70
0
0
VERTEX
8
Layer 1
10
309.312010
20
98.860335
70
0
0
VERTEX
8
Layer 1
10
309.399876
20
99.072467
70
0
0
VERTEX
8
Layer 1
10
309.612010
20
99.160335
70
0
0
VERTEX
8
Layer 1
10
314.012010
20
99.160335
70
0
0
VERTEX
8
Layer 1
10
314.224144
20
99.072467
70
0
0
VERTEX
8
Layer 1
10
314.312010
20
98.860335
70
0
0
VERTEX
8
Layer 1
10
314.312010
20
94.460335
70
0
0
VERTEX
8
Layer 1
10
314.399876
20
94.248203
70
0
0
VERTEX
8
Layer 1
10
314.612010
20
94.160335
70
0
0
VERTEX
8
Layer 1
10
340.812000
20
94.160333
70
0
0
VERTEX
8
Layer 1
10
341.201243
20
94.081748
70
0
0
VERTEX
8
Layer 1
10
341.519105
20
93.867440
70
0
0
VERTEX
8
Layer 1
10
341.733414
20
93.549578
70
0
0
VERTEX
8
Layer 1
10
341.812000
20
93.160333
70
0
0
VERTEX
8
Layer 1
10
341.812000
20
71.960000
70
0
0
VERTEX
8
Layer 1
10
341.899866
20
71.747866
70
0
0
VERTEX
8
Layer 1
10
342.112000
20
71.660000
70
0
0
VERTEX
8
Layer 1
10
346.512000
20
71.660000
70
0
0
VERTEX
8
Layer 1
10
346.724134
20
71.572134
70
0
0
VERTEX
8
Layer 1
10
346.812000
20
71.360000
70
0
0
VERTEX
8
Layer 1
10
346.812000
20
66.960000
70
0
0
VERTEX
8
Layer 1
10
346.724134
20
66.747866
70
0
0
VERTEX
8
Layer 1
10
346.512000
20
66.660000
70
0
0
VERTEX
8
Layer 1
10
342.112000
20
66.660000
70
0
0
VERTEX
8
Layer 1
10
341.899866
20
66.572134
70
0
0
VERTEX
8
Layer 1
10
341.812000
20
66.360000
70
0
0
VERTEX
8
Layer 1
10
341.812000
20
32.850000
70
0
0
VERTEX
8
Layer 1
10
341.899866
20
32.637866
70
0
0
VERTEX
8
Layer 1
10
342.112000
20
32.550000
70
0
0
VERTEX
8
Layer 1
10
346.512000
20
32.550000
70
0
0
VERTEX
8
Layer 1
10
346.724134
20
32.462134
70
0
0
VERTEX
8
Layer 1
10
346.812000
20
32.250000
70
0
0
VERTEX
8
Layer 1
10
346.812000
20
27.850000
70
0
0
VERTEX
8
Layer 1
10
346.724134
20
27.637866
70
0
0
VERTEX
8
Layer 1
10
346.512000
20
27.550000
70
0
0
VERTEX
8
Layer 1
10
342.112000
20
27.550000
70
0
0
VERTEX
8
Layer 1
10
341.899866
20
27.462134
70
0
0
VERTEX
8
Layer 1
10
341.812000
20
27.250000
70
0
0
VERTEX
8
Layer 1
10
341.812000
20
6.050330
70
0
0
VERTEX
8
Layer 1
10
341.733414
20
5.661083
70
0
0
VERTEX
8
Layer 1
10
341.519105
20
5.343221
70
0
0
VERTEX
8
Layer 1
10
341.201243
20
5.128914
70
0
0
VERTEX
8
Layer 1
10
340.812000
20
5.050330
70
0
0
VERTEX
8
Layer 1
10
314.612020
20
5.050330
70
0
0
VERTEX
8
Layer 1
10
314.399886
20
4.962464
70
0
0
VERTEX
8
Layer 1
10
314.312020
20
4.750330
70
0
0
VERTEX
8
Layer 1
10
314.312020
20
0.350330
70
0
0
VERTEX
8
Layer 1
10
314.224154
20
0.138196
70
0
0
VERTEX
8
Layer 1
10
314.012020
20
0.050330
70
0
0
VERTEX
8
Layer 1
10
309.612020
20
0.050330
70
0
0
VERTEX
8
Layer 1
10
309.399886
20
0.138196
70
0
0
VERTEX
8
Layer 1
10
309.312020
20
0.350330
70
0
0
VERTEX
8
Layer 1
10
309.312020
20
4.750330
70
0
0
VERTEX
8
Layer 1
10
309.224154
20
4.962464
70
0
0
VERTEX
8
Layer 1
10
309.012020
20
5.050330
70
0
0
VERTEX
8
Layer 1
10
229.612020
20
5.050330
70
0
0
VERTEX
8
Layer 1
10
229.399886
20
4.962464
70
0
0
VERTEX
8
Layer 1
10
229.312020
20
4.750330
70
0
0
VERTEX
8
Layer 1
10
229.312020
20
0.350330
70
0
0
VERTEX
8
Layer 1
10
229.224154
20
0.138196
70
0
0
VERTEX
8
Layer 1
10
229.012020
20
0.050330
70
0
0
VERTEX
8
Layer 1
10
224.612020
20
0.050330
70
0
0
VERTEX
8
Layer 1
10
224.399886
20
0.138196
70
0
0
VERTEX
8
Layer 1
10
224.312020
20
0.350330
70
0
0
VERTEX
8
Layer 1
10
224.312020
20
4.750330
70
0
0
VERTEX
8
Layer 1
10
224.224154
20
4.962464
70
0
0
VERTEX
8
Layer 1
10
224.012020
20
5.050330
70
0
0
VERTEX
8
Layer 1
10
122.850010
20
5.050330
70
0
0
VERTEX
8
Layer 1
10
122.637876
20
4.962464
70
0
0
VERTEX
8
Layer 1
10
122.550010
20
4.750330
70
0
0
VERTEX
8
Layer 1
10
122.550010
20
0.350330
70
0
0
VERTEX
8
Layer 1
10
122.462144
20
0.138196
70
0
0
VERTEX
8
Layer 1
10
122.250010
20
0.050330
70
0
0
VERTEX
8
Layer 1
10
117.850010
20
0.050330
70
0
0
VERTEX
8
Layer 1
10
117.637876
20
0.138196
70
0
0
VERTEX
8
Layer 1
10
117.550010
20
0.350330
70
0
0
VERTEX
8
Layer 1
10
117.550010
20
4.750330
70
0
0
VERTEX
8
Layer 1
10
117.462144
20
4.962464
70
0
0
VERTEX
8
Layer 1
10
117.250010
20
5.050330
70
0
0
VERTEX
8
Layer 1
10
37.849999
20
5.050330
70
0
0
VERTEX
8
Layer 1
10
37.637867
20
4.962464
70
0
0
VERTEX
8
Layer 1
10
37.549999
20
4.750330
70
0
0
VERTEX
8
Layer 1
10
37.549999
20
0.350330
70
0
0
VERTEX
8
Layer 1
10
37.462131
20
0.138196
70
0
0
VERTEX
8
Layer 1
10
37.249999
20
0.050330
70
0
0
VERTEX
8
Layer 1
10
32.850000
20
0.050330
70
0
0
VERTEX
8
Layer 1
10
32.637868
20
0.138196
70
0
0
VERTEX
8
Layer 1
10
32.550000
20
0.350330
70
0
0
VERTEX
8
Layer 1
10
32.550000
20
4.750330
70
0
0
VERTEX
8
Layer 1
10
32.462132
20
4.962464
70
0
0
VERTEX
8
Layer 1
10
32.250000
20
5.050330
70
0
0
VERTEX
8
Layer 1
10
6.049999
20
5.050330
70
0
0
VERTEX
8
Layer 1
10
5.660754
20
5.128914
70
0
0
VERTEX
8
Layer 1
10
5.342892
20
5.343221
70
0
0
VERTEX
8
Layer 1
10
5.128584
20
5.661083
70
0
0
VERTEX
8
Layer 1
10
5.049999
20
6.050330
70
0
0
VERTEX
8
Layer 1
10
5.049999
20
27.250000
70
0
0
VERTEX
8
Layer 1
10
4.962131
20
27.462134
70
0
0
VERTEX
8
Layer 1
10
4.749999
20
27.550000
70
0
0
VERTEX
8
Layer 1
10
0.349999
20
27.550000
70
0
0
VERTEX
8
Layer 1
10
0.137867
20
27.637866
70
0
0
VERTEX
8
Layer 1
10
0.049999
20
27.850000
70
0
0
VERTEX
8
Layer 1
10
0.049999
20
27.850000
70
0
0
SEQEND
8
Layer 1
0
POLYLINE
8
Layer 1
62
7
70
0
10
0.000000
20
0.000000
66
1
0
VERTEX
8
Layer 1
10
109.270000
20
92.620333
70
0
0
VERTEX
8
Layer 1
10
112.970000
20
92.620333
70
0
0
VERTEX
8
Layer 1
10
112.970000
20
89.320333
70
0
0
VERTEX
8
Layer 1
10
109.270000
20
89.320333
70
0
0
VERTEX
8
Layer 1
10
109.270000
20
92.620333
70
0
0
SEQEND
8
Layer 1
0
POLYLINE
8
Layer 1
62
7
70
0
10
0.000000
20
0.000000
66
1
0
VERTEX
8
Layer 1
10
112.970000
20
6.620330
70
0
0
VERTEX
8
Layer 1
10
109.270000
20
6.620330
70
0
0
VERTEX
8
Layer 1
10
109.270000
20
9.920330
70
0
0
VERTEX
8
Layer 1
10
112.970000
20
9.920330
70
0
0
VERTEX
8
Layer 1
10
112.970000
20
6.620330
70
0
0
SEQEND
8
Layer 1
0
POLYLINE
8
Layer 1
62
7
70
0
10
0.000000
20
0.000000
66
1
0
VERTEX
8
Layer 1
10
87.970000
20
6.620330
70
0
0
VERTEX
8
Layer 1
10
84.270000
20
6.620330
70
0
0
VERTEX
8
Layer 1
10
84.270000
20
9.920330
70
0
0
VERTEX
8
Layer 1
10
87.970000
20
9.920330
70
0
0
VERTEX
8
Layer 1
10
87.970000
20
6.620330
70
0
0
SEQEND
8
Layer 1
0
POLYLINE
8
Layer 1
62
7
70
0
10
0.000000
20
0.000000
66
1
0
VERTEX
8
Layer 1
10
237.970000
20
89.320333
70
0
0
VERTEX
8
Layer 1
10
234.270000
20
89.320333
70
0
0
VERTEX
8
Layer 1
10
234.270000
20
92.620333
70
0
0
VERTEX
8
Layer 1
10
237.970000
20
92.620333
70
0
0
VERTEX
8
Layer 1
10
237.970000
20
89.320333
70
0
0
SEQEND
8
Layer 1
0
POLYLINE
8
Layer 1
62
7
70
0
10
0.000000
20
0.000000
66
1
0
VERTEX
8
Layer 1
10
262.970000
20
89.320333
70
0
0
VERTEX
8
Layer 1
10
259.270000
20
89.320333
70
0
0
VERTEX
8
Layer 1
10
259.270000
20
92.620333
70
0
0
VERTEX
8
Layer 1
10
262.970000
20
92.620333
70
0
0
VERTEX
8
Layer 1
10
262.970000
20
89.320333
70
0
0
SEQEND
8
Layer 1
0
POLYLINE
8
Layer 1
62
7
70
0
10
0.000000
20
0.000000
66
1
0
VERTEX
8
Layer 1
10
287.970000
20
89.290333
70
0
0
VERTEX
8
Layer 1
10
284.270000
20
89.290333
70
0
0
VERTEX
8
Layer 1
10
284.270000
20
92.590333
70
0
0
VERTEX
8
Layer 1
10
287.970000
20
92.590333
70
0
0
VERTEX
8
Layer 1
10
287.970000
20
89.290333
70
0
0
SEQEND
8
Layer 1
0
POLYLINE
8
Layer 1
62
7
70
0
10
0.000000
20
0.000000
66
1
0
VERTEX
8
Layer 1
10
184.270000
20
6.620330
70
0
0
VERTEX
8
Layer 1
10
184.270000
20
9.920330
70
0
0
VERTEX
8
Layer 1
10
187.970000
20
9.920330
70
0
0
VERTEX
8
Layer 1
10
187.970000
20
6.620330
70
0
0
VERTEX
8
Layer 1
10
184.270000
20
6.620330
70
0
0
SEQEND
8
Layer 1
0
POLYLINE
8
Layer 1
62
7
70
0
10
0.000000
20
0.000000
66
1
0
VERTEX
8
Layer 1
10
187.970000
20
92.620333
70
0
0
VERTEX
8
Layer 1
10
187.970000
20
89.320333
70
0
0
VERTEX
8
Layer 1
10
184.270000
20
89.320333
70
0
0
VERTEX
8
Layer 1
10
184.270000
20
92.620333
70
0
0
VERTEX
8
Layer 1
10
187.970000
20
92.620333
70
0
0
SEQEND
8
Layer 1
0
POLYLINE
8
Layer 1
62
7
70
0
10
0.000000
20
0.000000
66
1
0
VERTEX
8
Layer 1
10
162.970000
20
9.920330
70
0
0
VERTEX
8
Layer 1
10
162.970000
20
6.620330
70
0
0
VERTEX
8
Layer 1
10
159.270000
20
6.620330
70
0
0
VERTEX
8
Layer 1
10
159.270000
20
9.920330
70
0
0
VERTEX
8
Layer 1
10
162.970000
20
9.920330
70
0
0
SEQEND
8
Layer 1
0
POLYLINE
8
Layer 1
62
7
70
0
10
0.000000
20
0.000000
66
1
0
VERTEX
8
Layer 1
10
137.970000
20
6.620330
70
0
0
VERTEX
8
Layer 1
10
134.270000
20
6.620330
70
0
0
VERTEX
8
Layer 1
10
134.270000
20
9.920330
70
0
0
VERTEX
8
Layer 1
10
137.970000
20
9.920330
70
0
0
VERTEX
8
Layer 1
10
137.970000
20
6.620330
70
0
0
SEQEND
8
Layer 1
0
POLYLINE
8
Layer 1
62
7
70
0
10
0.000000
20
0.000000
66
1
0
VERTEX
8
Layer 1
10
84.270000
20
92.620333
70
0
0
VERTEX
8
Layer 1
10
87.970000
20
92.620333
70
0
0
VERTEX
8
Layer 1
10
87.970000
20
89.320333
70
0
0
VERTEX
8
Layer 1
10
84.270000
20
89.320333
70
0
0
VERTEX
8
Layer 1
10
84.270000
20
92.620333
70
0
0
SEQEND
8
Layer 1
0
POLYLINE
8
Layer 1
62
7
70
0
10
0.000000
20
0.000000
66
1
0
VERTEX
8
Layer 1
10
12.969999
20
9.920330
70
0
0
VERTEX
8
Layer 1
10
12.969999
20
6.620330
70
0
0
VERTEX
8
Layer 1
10
9.269999
20
6.620330
70
0
0
VERTEX
8
Layer 1
10
9.269999
20
9.920330
70
0
0
VERTEX
8
Layer 1
10
12.969999
20
9.920330
70
0
0
SEQEND
8
Layer 1
0
POLYLINE
8
Layer 1
62
7
70
0
10
0.000000
20
0.000000
66
1
0
VERTEX
8
Layer 1
10
37.969999
20
9.920330
70
0
0
VERTEX
8
Layer 1
10
37.969999
20
6.620330
70
0
0
VERTEX
8
Layer 1
10
34.269999
20
6.620330
70
0
0
VERTEX
8
Layer 1
10
34.269999
20
9.920330
70
0
0
VERTEX
8
Layer 1
10
37.969999
20
9.920330
70
0
0
SEQEND
8
Layer 1
0
POLYLINE
8
Layer 1
62
7
70
0
10
0.000000
20
0.000000
66
1
0
VERTEX
8
Layer 1
10
237.970000
20
6.620330
70
0
0
VERTEX
8
Layer 1
10
234.270000
20
6.620330
70
0
0
VERTEX
8
Layer 1
10
234.270000
20
9.920330
70
0
0
VERTEX
8
Layer 1
10
237.970000
20
9.920330
70
0
0
VERTEX
8
Layer 1
10
237.970000
20
6.620330
70
0
0
SEQEND
8
Layer 1
0
POLYLINE
8
Layer 1
62
7
70
0
10
0.000000
20
0.000000
66
1
0
VERTEX
8
Layer 1
10
37.969999
20
89.320333
70
0
0
VERTEX
8
Layer 1
10
34.269999
20
89.320333
70
0
0
VERTEX
8
Layer 1
10
34.269999
20
92.620333
70
0
0
VERTEX
8
Layer 1
10
37.969999
20
92.620333
70
0
0
VERTEX
8
Layer 1
10
37.969999
20
89.320333
70
0
0
SEQEND
8
Layer 1
0
POLYLINE
8
Layer 1
62
7
70
0
10
0.000000
20
0.000000
66
1
0
VERTEX
8
Layer 1
10
59.269999
20
89.320333
70
0
0
VERTEX
8
Layer 1
10
59.269999
20
92.620333
70
0
0
VERTEX
8
Layer 1
10
62.969999
20
92.620333
70
0
0
VERTEX
8
Layer 1
10
62.969999
20
89.320333
70
0
0
VERTEX
8
Layer 1
10
59.269999
20
89.320333
70
0
0
SEQEND
8
Layer 1
0
POLYLINE
8
Layer 1
62
7
70
0
10
0.000000
20
0.000000
66
1
0
VERTEX
8
Layer 1
10
209.270000
20
6.620330
70
0
0
VERTEX
8
Layer 1
10
209.270000
20
9.920330
70
0
0
VERTEX
8
Layer 1
10
212.970000
20
9.920330
70
0
0
VERTEX
8
Layer 1
10
212.970000
20
6.620330
70
0
0
VERTEX
8
Layer 1
10
209.270000
20
6.620330
70
0
0
SEQEND
8
Layer 1
0
POLYLINE
8
Layer 1
62
7
70
0
10
0.000000
20
0.000000
66
1
0
VERTEX
8
Layer 1
10
12.969999
20
92.620333
70
0
0
VERTEX
8
Layer 1
10
12.969999
20
89.320333
70
0
0
VERTEX
8
Layer 1
10
9.269999
20
89.320333
70
0
0
VERTEX
8
Layer 1
10
9.269999
20
92.620333
70
0
0
VERTEX
8
Layer 1
10
12.969999
20
92.620333
70
0
0
SEQEND
8
Layer 1
0
POLYLINE
8
Layer 1
62
7
70
0
10
0.000000
20
0.000000
66
1
0
VERTEX
8
Layer 1
10
162.970000
20
89.320333
70
0
0
VERTEX
8
Layer 1
10
159.270000
20
89.320333
70
0
0
VERTEX
8
Layer 1
10
159.270000
20
92.620333
70
0
0
VERTEX
8
Layer 1
10
162.970000
20
92.620333
70
0
0
VERTEX
8
Layer 1
10
162.970000
20
89.320333
70
0
0
SEQEND
8
Layer 1
0
POLYLINE
8
Layer 1
62
7
70
0
10
0.000000
20
0.000000
66
1
0
VERTEX
8
Layer 1
10
134.270000
20
89.320333
70
0
0
VERTEX
8
Layer 1
10
134.270000
20
92.620333
70
0
0
VERTEX
8
Layer 1
10
137.970000
20
92.620333
70
0
0
VERTEX
8
Layer 1
10
137.970000
20
89.320333
70
0
0
VERTEX
8
Layer 1
10
134.270000
20
89.320333
70
0
0
SEQEND
8
Layer 1
0
POLYLINE
8
Layer 1
62
7
70
0
10
0.000000
20
0.000000
66
1
0
VERTEX
8
Layer 1
10
62.969999
20
9.920330
70
0
0
VERTEX
8
Layer 1
10
62.969999
20
6.620330
70
0
0
VERTEX
8
Layer 1
10
59.269999
20
6.620330
70
0
0
VERTEX
8
Layer 1
10
59.269999
20
9.920330
70
0
0
VERTEX
8
Layer 1
10
62.969999
20
9.920330
70
0
0
SEQEND
8
Layer 1
0
POLYLINE
8
Layer 1
62
7
70
0
10
0.000000
20
0.000000
66
1
0
VERTEX
8
Layer 1
10
209.270000
20
89.320333
70
0
0
VERTEX
8
Layer 1
10
209.270000
20
92.620333
70
0
0
VERTEX
8
Layer 1
10
212.970000
20
92.620333
70
0
0
VERTEX
8
Layer 1
10
212.970000
20
89.320333
70
0
0
VERTEX
8
Layer 1
10
209.270000
20
89.320333
70
0
0
SEQEND
8
Layer 1
0
POLYLINE
8
Layer 1
62
7
70
0
10
0.000000
20
0.000000
66
1
0
VERTEX
8
Layer 1
10
323.589000
20
89.923333
70
0
0
VERTEX
8
Layer 1
10
337.589000
20
89.923333
70
0
0
VERTEX
8
Layer 1
10
337.589000
20
75.923330
70
0
0
VERTEX
8
Layer 1
10
323.589000
20
75.923330
70
0
0
VERTEX
8
Layer 1
10
323.589000
20
89.923333
70
0
0
SEQEND
8
Layer 1
0
POLYLINE
8
Layer 1
62
7
70
0
10
0.000000
20
0.000000
66
1
0
VERTEX
8
Layer 1
10
294.727000
20
23.248330
70
0
0
VERTEX
8
Layer 1
10
294.727000
20
9.248330
70
0
0
VERTEX
8
Layer 1
10
280.727000
20
9.248330
70
0
0
VERTEX
8
Layer 1
10
280.727000
20
23.248330
70
0
0
VERTEX
8
Layer 1
10
294.727000
20
23.248330
70
0
0
SEQEND
8
Layer 1
0
POLYLINE
8
Layer 1
62
7
70
0
10
0.000000
20
0.000000
66
1
0
VERTEX
8
Layer 1
10
262.620000
20
65.110330
70
0
0
VERTEX
8
Layer 1
10
262.620000
20
50.110330
70
0
0
VERTEX
8
Layer 1
10
255.620000
20
50.110330
70
0
0
VERTEX
8
Layer 1
10
255.620000
20
65.110330
70
0
0
VERTEX
8
Layer 1
10
262.620000
20
65.110330
70
0
0
SEQEND
8
Layer 1
0
POLYLINE
8
Layer 1
62
7
70
0
10
0.000000
20
0.000000
66
1
0
VERTEX
8
Layer 1
10
179.483000
20
15.010330
70
0
0
VERTEX
8
Layer 1
10
179.483000
20
30.010330
70
0
0
VERTEX
8
Layer 1
10
186.483000
20
30.010330
70
0
0
VERTEX
8
Layer 1
10
186.483000
20
15.010330
70
0
0
VERTEX
8
Layer 1
10
179.483000
20
15.010330
70
0
0
SEQEND
8
Layer 1
0
POLYLINE
8
Layer 1
62
7
70
0
10
0.000000
20
0.000000
66
1
0
VERTEX
8
Layer 1
10
223.577000
20
33.060330
70
0
0
VERTEX
8
Layer 1
10
223.577000
20
47.060330
70
0
0
VERTEX
8
Layer 1
10
237.577000
20
47.060330
70
0
0
VERTEX
8
Layer 1
10
237.577000
20
33.060330
70
0
0
VERTEX
8
Layer 1
10
223.577000
20
33.060330
70
0
0
SEQEND
8
Layer 1
0
POLYLINE
8
Layer 1
62
7
70
0
10
0.000000
20
0.000000
66
1
0
VERTEX
8
Layer 1
10
233.102000
20
52.110330
70
0
0
VERTEX
8
Layer 1
10
233.102000
20
66.110330
70
0
0
VERTEX
8
Layer 1
10
247.102000
20
66.110330
70
0
0
VERTEX
8
Layer 1
10
247.102000
20
52.110330
70
0
0
VERTEX
8
Layer 1
10
233.102000
20
52.110330
70
0
0
SEQEND
8
Layer 1
0
POLYLINE
8
Layer 1
62
7
70
0
10
0.000000
20
0.000000
66
1
0
VERTEX
8
Layer 1
10
178.045000
20
28.010330
70
0
0
VERTEX
8
Layer 1
10
178.045000
20
14.010330
70
0
0
VERTEX
8
Layer 1
10
164.045000
20
14.010330
70
0
0
VERTEX
8
Layer 1
10
164.045000
20
28.010330
70
0
0
VERTEX
8
Layer 1
10
178.045000
20
28.010330
70
0
0
SEQEND
8
Layer 1
0
POLYLINE
8
Layer 1
62
7
70
0
10
0.000000
20
0.000000
66
1
0
VERTEX
8
Layer 1
10
80.702000
20
66.110330
70
0
0
VERTEX
8
Layer 1
10
94.702000
20
66.110330
70
0
0
VERTEX
8
Layer 1
10
94.702000
20
52.110330
70
0
0
VERTEX
8
Layer 1
10
80.702000
20
52.110330
70
0
0
VERTEX
8
Layer 1
10
80.702000
20
66.110330
70
0
0
SEQEND
8
Layer 1
0
POLYLINE
8
Layer 1
62
7
70
0
10
0.000000
20
0.000000
66
1
0
VERTEX
8
Layer 1
10
28.026999
20
71.160330
70
0
0
VERTEX
8
Layer 1
10
14.026999
20
71.160330
70
0
0
VERTEX
8
Layer 1
10
14.026999
20
85.160333
70
0
0
VERTEX
8
Layer 1
10
28.026999
20
85.160333
70
0
0
VERTEX
8
Layer 1
10
28.026999
20
71.160330
70
0
0
SEQEND
8
Layer 1
0
POLYLINE
8
Layer 1
62
7
70
1
10
0.000000
20
0.000000
66
1
0
VERTEX
8
Layer 1
10
128.039000
20
85.160333
70
0
0
VERTEX
8
Layer 1
10
128.039000
20
71.160330
70
0
0
VERTEX
8
Layer 1
10
114.039000
20
71.160330
70
0
0
VERTEX
8
Layer 1
10
114.039000
20
85.160333
70
0
0
VERTEX
8
Layer 1
10
128.039000
20
85.160333
70
0
0
SEQEND
8
Layer 1
0
POLYLINE
8
Layer 1
62
7
70
0
10
0.000000
20
0.000000
66
1
0
VERTEX
8
Layer 1
10
147.377000
20
33.060330
70
0
0
VERTEX
8
Layer 1
10
147.377000
20
47.060330
70
0
0
VERTEX
8
Layer 1
10
161.377000
20
47.060330
70
0
0
VERTEX
8
Layer 1
10
161.377000
20
33.060330
70
0
0
VERTEX
8
Layer 1
10
147.377000
20
33.060330
70
0
0
SEQEND
8
Layer 1
0
POLYLINE
8
Layer 1
62
7
70
0
10
0.000000
20
0.000000
66
1
0
VERTEX
8
Layer 1
10
35.169999
20
47.060330
70
0
0
VERTEX
8
Layer 1
10
35.169999
20
33.060330
70
0
0
VERTEX
8
Layer 1
10
21.169999
20
33.060330
70
0
0
VERTEX
8
Layer 1
10
21.169999
20
47.060330
70
0
0
VERTEX
8
Layer 1
10
35.169999
20
47.060330
70
0
0
SEQEND
8
Layer 1
0
POLYLINE
8
Layer 1
62
7
70
1
10
0.000000
20
0.000000
66
1
0
VERTEX
8
Layer 1
10
261.389000
20
85.160333
70
0
0
VERTEX
8
Layer 1
10
261.389000
20
71.160330
70
0
0
VERTEX
8
Layer 1
10
247.389000
20
71.160330
70
0
0
VERTEX
8
Layer 1
10
247.389000
20
85.160333
70
0
0
VERTEX
8
Layer 1
10
261.389000
20
85.160333
70
0
0
SEQEND
8
Layer 1
0
POLYLINE
8
Layer 1
62
7
70
0
10
0.000000
20
0.000000
66
1
0
VERTEX
8
Layer 1
10
75.939000
20
85.160333
70
0
0
VERTEX
8
Layer 1
10
89.939000
20
85.160333
70
0
0
VERTEX
8
Layer 1
10
89.939000
20
71.160330
70
0
0
VERTEX
8
Layer 1
10
75.939000
20
71.160330
70
0
0
VERTEX
8
Layer 1
10
75.939000
20
85.160333
70
0
0
SEQEND
8
Layer 1
0
POLYLINE
8
Layer 1
62
7
70
0
10
0.000000
20
0.000000
66
1
0
VERTEX
8
Layer 1
10
99.752000
20
52.110330
70
0
0
VERTEX
8
Layer 1
10
99.752000
20
66.110330
70
0
0
VERTEX
8
Layer 1
10
113.752000
20
66.110330
70
0
0
VERTEX
8
Layer 1
10
113.752000
20
52.110330
70
0
0
VERTEX
8
Layer 1
10
99.752000
20
52.110330
70
0
0
SEQEND
8
Layer 1
0
POLYLINE
8
Layer 1
62
7
70
0
10
0.000000
20
0.000000
66
1
0
VERTEX
8
Layer 1
10
133.089000
20
85.160333
70
0
0
VERTEX
8
Layer 1
10
147.089000
20
85.160333
70
0
0
VERTEX
8
Layer 1
10
147.089000
20
71.160330
70
0
0
VERTEX
8
Layer 1
10
133.089000
20
71.160330
70
0
0
VERTEX
8
Layer 1
10
133.089000
20
85.160333
70
0
0
SEQEND
8
Layer 1
0
POLYLINE
8
Layer 1
62
7
70
0
10
0.000000
20
0.000000
66
1
0
VERTEX
8
Layer 1
10
43.607999
20
46.060330
70
0
0
VERTEX
8
Layer 1
10
43.607999
20
31.060330
70
0
0
VERTEX
8
Layer 1
10
36.607999
20
31.060330
70
0
0
VERTEX
8
Layer 1
10
36.607999
20
46.060330
70
0
0
VERTEX
8
Layer 1
10
43.607999
20
46.060330
70
0
0
SEQEND
8
Layer 1
0
POLYLINE
8
Layer 1
62
7
70
0
10
0.000000
20
0.000000
66
1
0
VERTEX
8
Layer 1
10
286.496000
20
50.110330
70
0
0
VERTEX
8
Layer 1
10
279.496000
20
50.110330
70
0
0
VERTEX
8
Layer 1
10
279.496000
20
65.110330
70
0
0
VERTEX
8
Layer 1
10
286.496000
20
65.110330
70
0
0
VERTEX
8
Layer 1
10
286.496000
20
50.110330
70
0
0
SEQEND
8
Layer 1
0
POLYLINE
8
Layer 1
62
7
70
0
10
0.000000
20
0.000000
66
1
0
VERTEX
8
Layer 1
10
16.407999
20
66.110330
70
0
0
VERTEX
8
Layer 1
10
30.407999
20
66.110330
70
0
0
VERTEX
8
Layer 1
10
30.407999
20
52.110330
70
0
0
VERTEX
8
Layer 1
10
16.407999
20
52.110330
70
0
0
VERTEX
8
Layer 1
10
16.407999
20
66.110330
70
0
0
SEQEND
8
Layer 1
0
POLYLINE
8
Layer 1
62
7
70
0
10
0.000000
20
0.000000
66
1
0
VERTEX
8
Layer 1
10
209.002000
20
52.110330
70
0
0
VERTEX
8
Layer 1
10
195.002000
20
52.110330
70
0
0
VERTEX
8
Layer 1
10
195.002000
20
66.110330
70
0
0
VERTEX
8
Layer 1
10
209.002000
20
66.110330
70
0
0
VERTEX
8
Layer 1
10
209.002000
20
52.110330
70
0
0
SEQEND
8
Layer 1
0
POLYLINE
8
Layer 1
62
7
70
0
10
0.000000
20
0.000000
66
1
0
VERTEX
8
Layer 1
10
228.052000
20
66.110330
70
0
0
VERTEX
8
Layer 1
10
228.052000
20
52.110330
70
0
0
VERTEX
8
Layer 1
10
214.052000
20
52.110330
70
0
0
VERTEX
8
Layer 1
10
214.052000
20
66.110330
70
0
0
VERTEX
8
Layer 1
10
228.052000
20
66.110330
70
0
0
SEQEND
8
Layer 1
0
POLYLINE
8
Layer 1
62
7
70
0
10
0.000000
20
0.000000
66
1
0
VERTEX
8
Layer 1
10
123.277000
20
33.060330
70
0
0
VERTEX
8
Layer 1
10
109.277000
20
33.060330
70
0
0
VERTEX
8
Layer 1
10
109.277000
20
47.060330
70
0
0
VERTEX
8
Layer 1
10
123.277000
20
47.060330
70
0
0
VERTEX
8
Layer 1
10
123.277000
20
33.060330
70
0
0
SEQEND
8
Layer 1
0
POLYLINE
8
Layer 1
62
7
70
0
10
0.000000
20
0.000000
66
1
0
VERTEX
8
Layer 1
10
156.902000
20
52.110330
70
0
0
VERTEX
8
Layer 1
10
156.902000
20
66.110330
70
0
0
VERTEX
8
Layer 1
10
170.902000
20
66.110330
70
0
0
VERTEX
8
Layer 1
10
170.902000
20
52.110330
70
0
0
VERTEX
8
Layer 1
10
156.902000
20
52.110330
70
0
0
SEQEND
8
Layer 1
0
POLYLINE
8
Layer 1
62
7
70
0
10
0.000000
20
0.000000
66
1
0
VERTEX
8
Layer 1
10
223.289000
20
71.160330
70
0
0
VERTEX
8
Layer 1
10
209.289000
20
71.160330
70
0
0
VERTEX
8
Layer 1
10
209.289000
20
85.160333
70
0
0
VERTEX
8
Layer 1
10
223.289000
20
85.160333
70
0
0
VERTEX
8
Layer 1
10
223.289000
20
71.160330
70
0
0
SEQEND
8
Layer 1
0
POLYLINE
8
Layer 1
62
7
70
0
10
0.000000
20
0.000000
66
1
0
VERTEX
8
Layer 1
10
11.644999
20
28.010330
70
0
0
VERTEX
8
Layer 1
10
25.644999
20
28.010330
70
0
0
VERTEX
8
Layer 1
10
25.644999
20
14.010330
70
0
0
VERTEX
8
Layer 1
10
11.644999
20
14.010330
70
0
0
VERTEX
8
Layer 1
10
11.644999
20
28.010330
70
0
0
SEQEND
8
Layer 1
0
POLYLINE
8
Layer 1
62
7
70
0
10
0.000000
20
0.000000
66
1
0
VERTEX
8
Layer 1
10
166.427000
20
47.060330
70
0
0
VERTEX
8
Layer 1
10
180.427000
20
47.060330
70
0
0
VERTEX
8
Layer 1
10
180.427000
20
33.060330
70
0
0
VERTEX
8
Layer 1
10
166.427000
20
33.060330
70
0
0
VERTEX
8
Layer 1
10
166.427000
20
47.060330
70
0
0
SEQEND
8
Layer 1
0
POLYLINE
8
Layer 1
62
7
70
0
10
0.000000
20
0.000000
66
1
0
VERTEX
8
Layer 1
10
137.852000
20
52.110330
70
0
0
VERTEX
8
Layer 1
10
137.852000
20
66.110330
70
0
0
VERTEX
8
Layer 1
10
151.852000
20
66.110330
70
0
0
VERTEX
8
Layer 1
10
151.852000
20
52.110330
70
0
0
VERTEX
8
Layer 1
10
137.852000
20
52.110330
70
0
0
SEQEND
8
Layer 1
0
POLYLINE
8
Layer 1
62
7
70
0
10
0.000000
20
0.000000
66
1
0
VERTEX
8
Layer 1
10
171.189000
20
85.160333
70
0
0
VERTEX
8
Layer 1
10
185.189000
20
85.160333
70
0
0
VERTEX
8
Layer 1
10
185.189000
20
71.160330
70
0
0
VERTEX
8
Layer 1
10
171.189000
20
71.160330
70
0
0
VERTEX
8
Layer 1
10
171.189000
20
85.160333
70
0
0
SEQEND
8
Layer 1
0
POLYLINE
8
Layer 1
62
7
70
0
10
0.000000
20
0.000000
66
1
0
VERTEX
8
Layer 1
10
108.046000
20
30.010330
70
0
0
VERTEX
8
Layer 1
10
115.046000
20
30.010330
70
0
0
VERTEX
8
Layer 1
10
115.046000
20
15.010330
70
0
0
VERTEX
8
Layer 1
10
108.046000
20
15.010330
70
0
0
VERTEX
8
Layer 1
10
108.046000
20
30.010330
70
0
0
SEQEND
8
Layer 1
0
POLYLINE
8
Layer 1
62
7
70
1
10
0.000000
20
0.000000
66
1
0
VERTEX
8
Layer 1
10
59.269999
20
28.010330
70
0
0
VERTEX
8
Layer 1
10
73.270000
20
28.010330
70
0
0
VERTEX
8
Layer 1
10
73.270000
20
14.010330
70
0
0
VERTEX
8
Layer 1
10
59.269999
20
14.010330
70
0
0
VERTEX
8
Layer 1
10
59.269999
20
28.010330
70
0
0
SEQEND
8
Layer 1
0
POLYLINE
8
Layer 1
62
7
70
0
10
0.000000
20
0.000000
66
1
0
VERTEX
8
Layer 1
10
204.527000
20
33.060330
70
0
0
VERTEX
8
Layer 1
10
204.527000
20
47.060330
70
0
0
VERTEX
8
Layer 1
10
218.527000
20
47.060330
70
0
0
VERTEX
8
Layer 1
10
218.527000
20
33.060330
70
0
0
VERTEX
8
Layer 1
10
204.527000
20
33.060330
70
0
0
SEQEND
8
Layer 1
0
POLYLINE
8
Layer 1
62
7
70
0
10
0.000000
20
0.000000
66
1
0
VERTEX
8
Layer 1
10
239.958000
20
14.010330
70
0
0
VERTEX
8
Layer 1
10
225.958000
20
14.010330
70
0
0
VERTEX
8
Layer 1
10
225.958000
20
28.010330
70
0
0
VERTEX
8
Layer 1
10
239.958000
20
28.010330
70
0
0
VERTEX
8
Layer 1
10
239.958000
20
14.010330
70
0
0
SEQEND
8
Layer 1
0
POLYLINE
8
Layer 1
62
7
70
0
10
0.000000
20
0.000000
66
1
0
VERTEX
8
Layer 1
10
264.058000
20
66.110330
70
0
0
VERTEX
8
Layer 1
10
278.058000
20
66.110330
70
0
0
VERTEX
8
Layer 1
10
278.058000
20
52.110330
70
0
0
VERTEX
8
Layer 1
10
264.058000
20
52.110330
70
0
0
VERTEX
8
Layer 1
10
264.058000
20
66.110330
70
0
0
SEQEND
8
Layer 1
0
POLYLINE
8
Layer 1
62
7
70
0
10
0.000000
20
0.000000
66
1
0
VERTEX
8
Layer 1
10
66.127000
20
47.060330
70
0
0
VERTEX
8
Layer 1
10
66.127000
20
33.060330
70
0
0
VERTEX
8
Layer 1
10
52.126999
20
33.060330
70
0
0
VERTEX
8
Layer 1
10
52.126999
20
47.060330
70
0
0
VERTEX
8
Layer 1
10
66.127000
20
47.060330
70
0
0
SEQEND
8
Layer 1
0
POLYLINE
8
Layer 1
62
7
70
1
10
0.000000
20
0.000000
66
1
0
VERTEX
8
Layer 1
10
75.652000
20
52.110330
70
0
0
VERTEX
8
Layer 1
10
61.651999
20
52.110330
70
0
0
VERTEX
8
Layer 1
10
61.651999
20
66.110330
70
0
0
VERTEX
8
Layer 1
10
75.652000
20
66.110330
70
0
0
VERTEX
8
Layer 1
10
75.652000
20
52.110330
70
0
0
SEQEND
8
Layer 1
0
POLYLINE
8
Layer 1
62
7
70
0
10
0.000000
20
0.000000
66
1
0
VERTEX
8
Layer 1
10
216.145000
20
14.010330
70
0
0
VERTEX
8
Layer 1
10
202.145000
20
14.010330
70
0
0
VERTEX
8
Layer 1
10
202.145000
20
28.010330
70
0
0
VERTEX
8
Layer 1
10
216.145000
20
28.010330
70
0
0
VERTEX
8
Layer 1
10
216.145000
20
14.010330
70
0
0
SEQEND
8
Layer 1
0
POLYLINE
8
Layer 1
62
7
70
0
10
0.000000
20
0.000000
66
1
0
VERTEX
8
Layer 1
10
228.339000
20
71.160330
70
0
0
VERTEX
8
Layer 1
10
228.339000
20
85.160333
70
0
0
VERTEX
8
Layer 1
10
242.339000
20
85.160333
70
0
0
VERTEX
8
Layer 1
10
242.339000
20
71.160330
70
0
0
VERTEX
8
Layer 1
10
228.339000
20
71.160330
70
0
0
SEQEND
8
Layer 1
0
POLYLINE
8
Layer 1
62
7
70
0
10
0.000000
20
0.000000
66
1
0
VERTEX
8
Layer 1
10
84.170000
20
30.010330
70
0
0
VERTEX
8
Layer 1
10
91.170000
20
30.010330
70
0
0
VERTEX
8
Layer 1
10
91.170000
20
15.010330
70
0
0
VERTEX
8
Layer 1
10
84.170000
20
15.010330
70
0
0
VERTEX
8
Layer 1
10
84.170000
20
30.010330
70
0
0
SEQEND
8
Layer 1
0
POLYLINE
8
Layer 1
62
7
70
0
10
0.000000
20
0.000000
66
1
0
VERTEX
8
Layer 1
10
56.601999
20
52.110330
70
0
0
VERTEX
8
Layer 1
10
42.601999
20
52.110330
70
0
0
VERTEX
8
Layer 1
10
42.601999
20
66.110330
70
0
0
VERTEX
8
Layer 1
10
56.601999
20
66.110330
70
0
0
VERTEX
8
Layer 1
10
56.601999
20
52.110330
70
0
0
SEQEND
8
Layer 1
0
POLYLINE
8
Layer 1
62
7
70
0
10
0.000000
20
0.000000
66
1
0
VERTEX
8
Layer 1
10
155.607000
20
30.010330
70
0
0
VERTEX
8
Layer 1
10
162.607000
20
30.010330
70
0
0
VERTEX
8
Layer 1
10
162.607000
20
15.010330
70
0
0
VERTEX
8
Layer 1
10
155.607000
20
15.010330
70
0
0
VERTEX
8
Layer 1
10
155.607000
20
30.010330
70
0
0
SEQEND
8
Layer 1
0
POLYLINE
8
Layer 1
62
7
70
0
10
0.000000
20
0.000000
66
1
0
VERTEX
8
Layer 1
10
108.989000
20
71.160330
70
0
0
VERTEX
8
Layer 1
10
94.989000
20
71.160330
70
0
0
VERTEX
8
Layer 1
10
94.989000
20
85.160333
70
0
0
VERTEX
8
Layer 1
10
108.989000
20
85.160333
70
0
0
VERTEX
8
Layer 1
10
108.989000
20
71.160330
70
0
0
SEQEND
8
Layer 1
0
POLYLINE
8
Layer 1
62
7
70
1
10
0.000000
20
0.000000
66
1
0
VERTEX
8
Layer 1
10
37.838999
20
71.160330
70
0
0
VERTEX
8
Layer 1
10
37.838999
20
85.160333
70
0
0
VERTEX
8
Layer 1
10
51.838999
20
85.160333
70
0
0
VERTEX
8
Layer 1
10
51.838999
20
71.160330
70
0
0
VERTEX
8
Layer 1
10
37.838999
20
71.160330
70
0
0
SEQEND
8
Layer 1
0
POLYLINE
8
Layer 1
62
7
70
0
10
0.000000
20
0.000000
66
1
0
VERTEX
8
Layer 1
10
190.239000
20
85.160333
70
0
0
VERTEX
8
Layer 1
10
204.239000
20
85.160333
70
0
0
VERTEX
8
Layer 1
10
204.239000
20
71.160330
70
0
0
VERTEX
8
Layer 1
10
190.239000
20
71.160330
70
0
0
VERTEX
8
Layer 1
10
190.239000
20
85.160333
70
0
0
SEQEND
8
Layer 1
0
POLYLINE
8
Layer 1
62
7
70
0
10
0.000000
20
0.000000
66
1
0
VERTEX
8
Layer 1
10
261.677000
20
23.248330
70
0
0
VERTEX
8
Layer 1
10
275.677000
20
23.248330
70
0
0
VERTEX
8
Layer 1
10
275.677000
20
9.248330
70
0
0
VERTEX
8
Layer 1
10
261.677000
20
9.248330
70
0
0
VERTEX
8
Layer 1
10
261.677000
20
23.248330
70
0
0
SEQEND
8
Layer 1
0
POLYLINE
8
Layer 1
62
7
70
0
10
0.000000
20
0.000000
66
1
0
VERTEX
8
Layer 1
10
280.727000
20
28.298330
70
0
0
VERTEX
8
Layer 1
10
280.727000
20
42.298330
70
0
0
VERTEX
8
Layer 1
10
294.727000
20
42.298330
70
0
0
VERTEX
8
Layer 1
10
294.727000
20
28.298330
70
0
0
VERTEX
8
Layer 1
10
280.727000
20
28.298330
70
0
0
SEQEND
8
Layer 1
0
POLYLINE
8
Layer 1
62
7
70
0
10
0.000000
20
0.000000
66
1
0
VERTEX
8
Layer 1
10
118.802000
20
66.110330
70
0
0
VERTEX
8
Layer 1
10
132.802000
20
66.110330
70
0
0
VERTEX
8
Layer 1
10
132.802000
20
52.110330
70
0
0
VERTEX
8
Layer 1
10
118.802000
20
52.110330
70
0
0
VERTEX
8
Layer 1
10
118.802000
20
66.110330
70
0
0
SEQEND
8
Layer 1
0
POLYLINE
8
Layer 1
62
7
70
0
10
0.000000
20
0.000000
66
1
0
VERTEX
8
Layer 1
10
263.770000
20
33.060330
70
0
0
VERTEX
8
Layer 1
10
249.770000
20
33.060330
70
0
0
VERTEX
8
Layer 1
10
249.770000
20
47.060330
70
0
0
VERTEX
8
Layer 1
10
263.770000
20
47.060330
70
0
0
VERTEX
8
Layer 1
10
263.770000
20
33.060330
70
0
0
SEQEND
8
Layer 1
0
POLYLINE
8
Layer 1
62
7
70
0
10
0.000000
20
0.000000
66
1
0
VERTEX
8
Layer 1
10
271.202000
20
85.160333
70
0
0
VERTEX
8
Layer 1
10
285.202000
20
85.160333
70
0
0
VERTEX
8
Layer 1
10
285.202000
20
71.160330
70
0
0
VERTEX
8
Layer 1
10
271.202000
20
71.160330
70
0
0
VERTEX
8
Layer 1
10
271.202000
20
85.160333
70
0
0
SEQEND
8
Layer 1
0
POLYLINE
8
Layer 1
62
7
70
0
10
0.000000
20
0.000000
66
1
0
VERTEX
8
Layer 1
10
189.952000
20
52.110330
70
0
0
VERTEX
8
Layer 1
10
175.952000
20
52.110330
70
0
0
VERTEX
8
Layer 1
10
175.952000
20
66.110330
70
0
0
VERTEX
8
Layer 1
10
189.952000
20
66.110330
70
0
0
VERTEX
8
Layer 1
10
189.952000
20
52.110330
70
0
0
SEQEND
8
Layer 1
0
POLYLINE
8
Layer 1
62
7
70
0
10
0.000000
20
0.000000
66
1
0
VERTEX
8
Layer 1
10
12.731999
20
31.060330
70
0
0
VERTEX
8
Layer 1
10
12.731999
20
46.060330
70
0
0
VERTEX
8
Layer 1
10
19.731999
20
46.060330
70
0
0
VERTEX
8
Layer 1
10
19.731999
20
31.060330
70
0
0
VERTEX
8
Layer 1
10
12.731999
20
31.060330
70
0
0
SEQEND
8
Layer 1
0
POLYLINE
8
Layer 1
62
7
70
0
10
0.000000
20
0.000000
66
1
0
VERTEX
8
Layer 1
10
152.139000
20
71.160330
70
0
0
VERTEX
8
Layer 1
10
152.139000
20
85.160333
70
0
0
VERTEX
8
Layer 1
10
166.139000
20
85.160333
70
0
0
VERTEX
8
Layer 1
10
166.139000
20
71.160330
70
0
0
VERTEX
8
Layer 1
10
152.139000
20
71.160330
70
0
0
SEQEND
8
Layer 1
0
POLYLINE
8
Layer 1
62
7
70
1
10
0.000000
20
0.000000
66
1
0
VERTEX
8
Layer 1
10
318.539000
20
89.923333
70
0
0
VERTEX
8
Layer 1
10
318.539000
20
75.923330
70
0
0
VERTEX
8
Layer 1
10
304.539000
20
75.923330
70
0
0
VERTEX
8
Layer 1
10
304.539000
20
89.923333
70
0
0
VERTEX
8
Layer 1
10
318.539000
20
89.923333
70
0
0
SEQEND
8
Layer 1
0
POLYLINE
8
Layer 1
62
7
70
0
10
0.000000
20
0.000000
66
1
0
VERTEX
8
Layer 1
10
142.327000
20
33.060330
70
0
0
VERTEX
8
Layer 1
10
128.327000
20
33.060330
70
0
0
VERTEX
8
Layer 1
10
128.327000
20
47.060330
70
0
0
VERTEX
8
Layer 1
10
142.327000
20
47.060330
70
0
0
VERTEX
8
Layer 1
10
142.327000
20
33.060330
70
0
0
SEQEND
8
Layer 1
0
POLYLINE
8
Layer 1
62
7
70
0
10
0.000000
20
0.000000
66
1
0
VERTEX
8
Layer 1
10
139.945000
20
14.010330
70
0
0
VERTEX
8
Layer 1
10
125.945000
20
14.010330
70
0
0
VERTEX
8
Layer 1
10
125.945000
20
28.010330
70
0
0
VERTEX
8
Layer 1
10
139.945000
20
28.010330
70
0
0
VERTEX
8
Layer 1
10
139.945000
20
14.010330
70
0
0
SEQEND
8
Layer 1
0
POLYLINE
8
Layer 1
62
7
70
0
10
0.000000
20
0.000000
66
1
0
VERTEX
8
Layer 1
10
35.457999
20
28.010330
70
0
0
VERTEX
8
Layer 1
10
49.457999
20
28.010330
70
0
0
VERTEX
8
Layer 1
10
49.457999
20
14.010330
70
0
0
VERTEX
8
Layer 1
10
35.457999
20
14.010330
70
0
0
VERTEX
8
Layer 1
10
35.457999
20
28.010330
70
0
0
SEQEND
8
Layer 1
0
POLYLINE
8
Layer 1
62
7
70
0
10
0.000000
20
0.000000
66
1
0
VERTEX
8
Layer 1
10
185.477000
20
47.060330
70
0
0
VERTEX
8
Layer 1
10
199.477000
20
47.060330
70
0
0
VERTEX
8
Layer 1
10
199.477000
20
33.060330
70
0
0
VERTEX
8
Layer 1
10
185.477000
20
33.060330
70
0
0
VERTEX
8
Layer 1
10
185.477000
20
47.060330
70
0
0
SEQEND
8
Layer 1
0
POLYLINE
8
Layer 1
62
7
70
0
10
0.000000
20
0.000000
66
1
0
VERTEX
8
Layer 1
10
90.227000
20
47.060330
70
0
0
VERTEX
8
Layer 1
10
104.227000
20
47.060330
70
0
0
VERTEX
8
Layer 1
10
104.227000
20
33.060330
70
0
0
VERTEX
8
Layer 1
10
90.227000
20
33.060330
70
0
0
VERTEX
8
Layer 1
10
90.227000
20
47.060330
70
0
0
SEQEND
8
Layer 1
0
POLYLINE
8
Layer 1
62
7
70
0
10
0.000000
20
0.000000
66
1
0
VERTEX
8
Layer 1
10
56.888999
20
71.160330
70
0
0
VERTEX
8
Layer 1
10
56.888999
20
85.160333
70
0
0
VERTEX
8
Layer 1
10
70.889000
20
85.160333
70
0
0
VERTEX
8
Layer 1
10
70.889000
20
71.160330
70
0
0
VERTEX
8
Layer 1
10
56.888999
20
71.160330
70
0
0
SEQEND
8
Layer 1
0
POLYLINE
8
Layer 1
62
7
70
0
10
0.000000
20
0.000000
66
1
0
VERTEX
8
Layer 1
10
323.589000
20
23.248330
70
0
0
VERTEX
8
Layer 1
10
337.589000
20
23.248330
70
0
0
VERTEX
8
Layer 1
10
337.589000
20
9.248330
70
0
0
VERTEX
8
Layer 1
10
323.589000
20
9.248330
70
0
0
VERTEX
8
Layer 1
10
323.589000
20
23.248330
70
0
0
SEQEND
8
Layer 1
0
POLYLINE
8
Layer 1
62
7
70
0
10
0.000000
20
0.000000
66
1
0
VERTEX
8
Layer 1
10
85.177000
20
47.060330
70
0
0
VERTEX
8
Layer 1
10
85.177000
20
33.060330
70
0
0
VERTEX
8
Layer 1
10
71.177000
20
33.060330
70
0
0
VERTEX
8
Layer 1
10
71.177000
20
47.060330
70
0
0
VERTEX
8
Layer 1
10
85.177000
20
47.060330
70
0
0
SEQEND
8
Layer 1
0
POLYLINE
8
Layer 1
62
7
70
0
10
0.000000
20
0.000000
66
1
0
VERTEX
8
Layer 1
10
92.608000
20
14.010330
70
0
0
VERTEX
8
Layer 1
10
92.608000
20
28.010330
70
0
0
VERTEX
8
Layer 1
10
106.608000
20
28.010330
70
0
0
VERTEX
8
Layer 1
10
106.608000
20
14.010330
70
0
0
VERTEX
8
Layer 1
10
92.608000
20
14.010330
70
0
0
SEQEND
8
Layer 1
0
POLYLINE
8
Layer 1
62
7
70
0
10
0.000000
20
0.000000
66
1
0
VERTEX
8
Layer 1
10
299.777000
20
9.248330
70
0
0
VERTEX
8
Layer 1
10
299.777000
20
23.248330
70
0
0
VERTEX
8
Layer 1
10
313.777000
20
23.248330
70
0
0
VERTEX
8
Layer 1
10
313.777000
20
9.248330
70
0
0
VERTEX
8
Layer 1
10
299.777000
20
9.248330
70
0
0
SEQEND
8
Layer 1
0
POLYLINE
8
Layer 1
62
7
70
0
10
0.000000
20
0.000000
66
1
0
VERTEX
8
Layer 1
10
339.821980
20
30.825330
70
0
0
VERTEX
8
Layer 1
10
339.822000
20
68.325330
70
0
0
VERTEX
8
Layer 1
10
302.322000
20
68.325330
70
0
0
VERTEX
8
Layer 1
10
302.322000
20
30.825330
70
0
0
VERTEX
8
Layer 1
10
339.821980
20
30.825330
70
0
0
SEQEND
8
Layer 1
 0 
ENDSEC
 0 
EOF