999
"DXF R12 Output" (www.mydxf.blogspot.com)
 0 
SECTION
 2 
HEADER
 9 
$ACADVER
 1 
AC1009
 9 
$EXTMIN
 10 
 0 
 20 
 0 
 9 
$EXTMAX
 10 
 8.5 
 20 
 11 
 0 
ENDSEC
 0 
SECTION
 2 
ENTITIES
0
LINE
8
Layer 1
10
110.370000
20
93.720000
11
114.070000
21
93.720000
0
LINE
8
Layer 1
10
114.070000
20
93.720000
11
114.070000
21
90.420000
0
LINE
8
Layer 1
10
114.070000
20
90.420000
11
110.370000
21
90.420000
0
LINE
8
Layer 1
10
110.370000
20
90.420000
11
110.370000
21
93.720000
0
LINE
8
Layer 1
10
114.070000
20
7.720000
11
110.370000
21
7.720000
0
LINE
8
Layer 1
10
110.370000
20
7.720000
11
110.370000
21
11.020000
0
LINE
8
Layer 1
10
110.370000
20
11.020000
11
114.070000
21
11.020000
0
LINE
8
Layer 1
10
114.070000
20
11.020000
11
114.070000
21
7.720000
0
LINE
8
Layer 1
10
89.070000
20
7.720000
11
85.370000
21
7.720000
0
LINE
8
Layer 1
10
85.370000
20
7.720000
11
85.370000
21
11.020000
0
LINE
8
Layer 1
10
85.370000
20
11.020000
11
89.070000
21
11.020000
0
LINE
8
Layer 1
10
89.070000
20
11.020000
11
89.070000
21
7.720000
0
LINE
8
Layer 1
10
239.070000
20
90.420000
11
235.370000
21
90.420000
0
LINE
8
Layer 1
10
235.370000
20
90.420000
11
235.370000
21
93.720000
0
LINE
8
Layer 1
10
235.370000
20
93.720000
11
239.070000
21
93.720000
0
LINE
8
Layer 1
10
239.070000
20
93.720000
11
239.070000
21
90.420000
0
LINE
8
Layer 1
10
264.070000
20
90.420000
11
260.370000
21
90.420000
0
LINE
8
Layer 1
10
260.370000
20
90.420000
11
260.370000
21
93.720000
0
LINE
8
Layer 1
10
260.370000
20
93.720000
11
264.070000
21
93.720000
0
LINE
8
Layer 1
10
264.070000
20
93.720000
11
264.070000
21
90.420000
0
LINE
8
Layer 1
10
289.070000
20
90.390000
11
285.370000
21
90.390000
0
LINE
8
Layer 1
10
285.370000
20
90.390000
11
285.370000
21
93.690000
0
LINE
8
Layer 1
10
285.370000
20
93.690000
11
289.070000
21
93.690000
0
LINE
8
Layer 1
10
289.070000
20
93.690000
11
289.070000
21
90.390000
0
LINE
8
Layer 1
10
185.370000
20
7.720000
11
185.370000
21
11.020000
0
LINE
8
Layer 1
10
185.370000
20
11.020000
11
189.070000
21
11.020000
0
LINE
8
Layer 1
10
189.070000
20
11.020000
11
189.070000
21
7.720000
0
LINE
8
Layer 1
10
189.070000
20
7.720000
11
185.370000
21
7.720000
0
LINE
8
Layer 1
10
189.070000
20
93.720000
11
189.070000
21
90.420000
0
LINE
8
Layer 1
10
189.070000
20
90.420000
11
185.370000
21
90.420000
0
LINE
8
Layer 1
10
185.370000
20
90.420000
11
185.370000
21
93.720000
0
LINE
8
Layer 1
10
185.370000
20
93.720000
11
189.070000
21
93.720000
0
LINE
8
Layer 1
10
164.070000
20
11.020000
11
164.070000
21
7.720000
0
LINE
8
Layer 1
10
164.070000
20
7.720000
11
160.370000
21
7.720000
0
LINE
8
Layer 1
10
160.370000
20
7.720000
11
160.370000
21
11.020000
0
LINE
8
Layer 1
10
160.370000
20
11.020000
11
164.070000
21
11.020000
0
LINE
8
Layer 1
10
139.070000
20
7.720000
11
135.370000
21
7.720000
0
LINE
8
Layer 1
10
135.370000
20
7.720000
11
135.370000
21
11.020000
0
LINE
8
Layer 1
10
135.370000
20
11.020000
11
139.070000
21
11.020000
0
LINE
8
Layer 1
10
139.070000
20
11.020000
11
139.070000
21
7.720000
0
LINE
8
Layer 1
10
85.370000
20
93.720000
11
89.070000
21
93.720000
0
LINE
8
Layer 1
10
89.070000
20
93.720000
11
89.070000
21
90.420000
0
LINE
8
Layer 1
10
89.070000
20
90.420000
11
85.370000
21
90.420000
0
LINE
8
Layer 1
10
85.370000
20
90.420000
11
85.370000
21
93.720000
0
LINE
8
Layer 1
10
14.070000
20
11.020000
11
14.070000
21
7.720000
0
LINE
8
Layer 1
10
14.070000
20
7.720000
11
10.370000
21
7.720000
0
LINE
8
Layer 1
10
10.370000
20
7.720000
11
10.370000
21
11.020000
0
LINE
8
Layer 1
10
10.370000
20
11.020000
11
14.070000
21
11.020000
0
LINE
8
Layer 1
10
39.070000
20
11.020000
11
39.070000
21
7.720000
0
LINE
8
Layer 1
10
39.070000
20
7.720000
11
35.370000
21
7.720000
0
LINE
8
Layer 1
10
35.370000
20
7.720000
11
35.370000
21
11.020000
0
LINE
8
Layer 1
10
35.370000
20
11.020000
11
39.070000
21
11.020000
0
LINE
8
Layer 1
10
239.070000
20
7.720000
11
235.370000
21
7.720000
0
LINE
8
Layer 1
10
235.370000
20
7.720000
11
235.370000
21
11.020000
0
LINE
8
Layer 1
10
235.370000
20
11.020000
11
239.070000
21
11.020000
0
LINE
8
Layer 1
10
239.070000
20
11.020000
11
239.070000
21
7.720000
0
LINE
8
Layer 1
10
39.070000
20
90.420000
11
35.370000
21
90.420000
0
LINE
8
Layer 1
10
35.370000
20
90.420000
11
35.370000
21
93.720000
0
LINE
8
Layer 1
10
35.370000
20
93.720000
11
39.070000
21
93.720000
0
LINE
8
Layer 1
10
39.070000
20
93.720000
11
39.070000
21
90.420000
0
LINE
8
Layer 1
10
60.370000
20
90.420000
11
60.370000
21
93.720000
0
LINE
8
Layer 1
10
60.370000
20
93.720000
11
64.070000
21
93.720000
0
LINE
8
Layer 1
10
64.070000
20
93.720000
11
64.070000
21
90.420000
0
LINE
8
Layer 1
10
64.070000
20
90.420000
11
60.370000
21
90.420000
0
LINE
8
Layer 1
10
210.370000
20
7.720000
11
210.370000
21
11.020000
0
LINE
8
Layer 1
10
210.370000
20
11.020000
11
214.070000
21
11.020000
0
LINE
8
Layer 1
10
214.070000
20
11.020000
11
214.070000
21
7.720000
0
LINE
8
Layer 1
10
214.070000
20
7.720000
11
210.370000
21
7.720000
0
LINE
8
Layer 1
10
14.070000
20
93.720000
11
14.070000
21
90.420000
0
LINE
8
Layer 1
10
14.070000
20
90.420000
11
10.370000
21
90.420000
0
LINE
8
Layer 1
10
10.370000
20
90.420000
11
10.370000
21
93.720000
0
LINE
8
Layer 1
10
10.370000
20
93.720000
11
14.070000
21
93.720000
0
LINE
8
Layer 1
10
164.070000
20
90.420000
11
160.370000
21
90.420000
0
LINE
8
Layer 1
10
160.370000
20
90.420000
11
160.370000
21
93.720000
0
LINE
8
Layer 1
10
160.370000
20
93.720000
11
164.070000
21
93.720000
0
LINE
8
Layer 1
10
164.070000
20
93.720000
11
164.070000
21
90.420000
0
LINE
8
Layer 1
10
135.370000
20
90.420000
11
135.370000
21
93.720000
0
LINE
8
Layer 1
10
135.370000
20
93.720000
11
139.070000
21
93.720000
0
LINE
8
Layer 1
10
139.070000
20
93.720000
11
139.070000
21
90.420000
0
LINE
8
Layer 1
10
139.070000
20
90.420000
11
135.370000
21
90.420000
0
LINE
8
Layer 1
10
64.070000
20
11.020000
11
64.070000
21
7.720000
0
LINE
8
Layer 1
10
64.070000
20
7.720000
11
60.370000
21
7.720000
0
LINE
8
Layer 1
10
60.370000
20
7.720000
11
60.370000
21
11.020000
0
LINE
8
Layer 1
10
60.370000
20
11.020000
11
64.070000
21
11.020000
0
LINE
8
Layer 1
10
210.370000
20
90.420000
11
210.370000
21
93.720000
0
LINE
8
Layer 1
10
210.370000
20
93.720000
11
214.070000
21
93.720000
0
LINE
8
Layer 1
10
214.070000
20
93.720000
11
214.070000
21
90.420000
0
LINE
8
Layer 1
10
214.070000
20
90.420000
11
210.370000
21
90.420000
0
LINE
8
Layer 1
10
346.212000
20
67.460000
11
347.301888
21
67.680032
0
LINE
8
Layer 1
10
347.301888
20
67.680032
11
348.191900
21
68.280091
0
LINE
8
Layer 1
10
348.191900
20
68.280091
11
348.791962
21
69.170103
0
LINE
8
Layer 1
10
348.791962
20
69.170103
11
349.012000
21
70.259990
0
LINE
8
Layer 1
10
349.012000
20
70.259990
11
348.791962
21
71.349877
0
LINE
8
Layer 1
10
348.791962
20
71.349877
11
348.191900
21
72.239890
0
LINE
8
Layer 1
10
348.191900
20
72.239890
11
347.301888
21
72.839952
0
LINE
8
Layer 1
10
347.301888
20
72.839952
11
346.212000
21
73.059990
0
LINE
8
Layer 1
10
346.212000
20
73.059990
11
343.912000
21
73.060000
0
LINE
8
Layer 1
10
343.912000
20
73.060000
11
343.522757
21
73.138586
0
LINE
8
Layer 1
10
343.522757
20
73.138586
11
343.204895
21
73.352894
0
LINE
8
Layer 1
10
343.204895
20
73.352894
11
342.990586
21
73.670755
0
LINE
8
Layer 1
10
342.990586
20
73.670755
11
342.912000
21
74.060000
0
LINE
8
Layer 1
10
342.912000
20
74.060000
11
342.912000
21
94.260000
0
LINE
8
Layer 1
10
342.912000
20
94.260000
11
342.833414
21
94.649245
0
LINE
8
Layer 1
10
342.833414
20
94.649245
11
342.619105
21
94.967107
0
LINE
8
Layer 1
10
342.619105
20
94.967107
11
342.301243
21
95.181415
0
LINE
8
Layer 1
10
342.301243
20
95.181415
11
341.912000
21
95.260000
0
LINE
8
Layer 1
10
341.912000
20
95.260000
11
316.712000
21
95.260000
0
LINE
8
Layer 1
10
316.712000
20
95.260000
11
316.322757
21
95.338585
0
LINE
8
Layer 1
10
316.322757
20
95.338585
11
316.004895
21
95.552893
0
LINE
8
Layer 1
10
316.004895
20
95.552893
11
315.790586
21
95.870755
0
LINE
8
Layer 1
10
315.790586
20
95.870755
11
315.712000
21
96.260000
0
LINE
8
Layer 1
10
315.712000
20
96.260000
11
315.712000
21
98.560000
0
LINE
8
Layer 1
10
315.712000
20
98.560000
11
315.491968
21
99.649887
0
LINE
8
Layer 1
10
315.491968
20
99.649887
11
314.891909
21
100.539900
0
LINE
8
Layer 1
10
314.891909
20
100.539900
11
314.001897
21
101.139962
0
LINE
8
Layer 1
10
314.001897
20
101.139962
11
312.912010
21
101.360000
0
LINE
8
Layer 1
10
312.912010
20
101.360000
11
311.822122
21
101.139962
0
LINE
8
Layer 1
10
311.822122
20
101.139962
11
310.932110
21
100.539900
0
LINE
8
Layer 1
10
310.932110
20
100.539900
11
310.332048
21
99.649887
0
LINE
8
Layer 1
10
310.332048
20
99.649887
11
310.112010
21
98.560000
0
LINE
8
Layer 1
10
310.112010
20
98.560000
11
310.112000
21
96.260000
0
LINE
8
Layer 1
10
310.112000
20
96.260000
11
310.033414
21
95.870755
0
LINE
8
Layer 1
10
310.033414
20
95.870755
11
309.819105
21
95.552894
0
LINE
8
Layer 1
10
309.819105
20
95.552894
11
309.501243
21
95.338586
0
LINE
8
Layer 1
10
309.501243
20
95.338586
11
309.112000
21
95.260000
0
LINE
8
Layer 1
10
309.112000
20
95.260000
11
231.712000
21
95.260000
0
LINE
8
Layer 1
10
231.712000
20
95.260000
11
231.322757
21
95.338585
0
LINE
8
Layer 1
10
231.322757
20
95.338585
11
231.004895
21
95.552893
0
LINE
8
Layer 1
10
231.004895
20
95.552893
11
230.790586
21
95.870755
0
LINE
8
Layer 1
10
230.790586
20
95.870755
11
230.712000
21
96.260000
0
LINE
8
Layer 1
10
230.712000
20
96.260000
11
230.712000
21
98.560000
0
LINE
8
Layer 1
10
230.712000
20
98.560000
11
230.491968
21
99.649887
0
LINE
8
Layer 1
10
230.491968
20
99.649887
11
229.891909
21
100.539900
0
LINE
8
Layer 1
10
229.891909
20
100.539900
11
229.001897
21
101.139962
0
LINE
8
Layer 1
10
229.001897
20
101.139962
11
227.912010
21
101.360000
0
LINE
8
Layer 1
10
227.912010
20
101.360000
11
226.822123
21
101.139962
0
LINE
8
Layer 1
10
226.822123
20
101.139962
11
225.932110
21
100.539900
0
LINE
8
Layer 1
10
225.932110
20
100.539900
11
225.332047
21
99.649887
0
LINE
8
Layer 1
10
225.332047
20
99.649887
11
225.112010
21
98.560000
0
LINE
8
Layer 1
10
225.112010
20
98.560000
11
225.112000
21
96.260000
0
LINE
8
Layer 1
10
225.112000
20
96.260000
11
225.033414
21
95.870755
0
LINE
8
Layer 1
10
225.033414
20
95.870755
11
224.819105
21
95.552894
0
LINE
8
Layer 1
10
224.819105
20
95.552894
11
224.501243
21
95.338586
0
LINE
8
Layer 1
10
224.501243
20
95.338586
11
224.112000
21
95.260000
0
LINE
8
Layer 1
10
224.112000
20
95.260000
11
124.950000
21
95.260000
0
LINE
8
Layer 1
10
124.950000
20
95.260000
11
124.560757
21
95.338585
0
LINE
8
Layer 1
10
124.560757
20
95.338585
11
124.242895
21
95.552893
0
LINE
8
Layer 1
10
124.242895
20
95.552893
11
124.028586
21
95.870755
0
LINE
8
Layer 1
10
124.028586
20
95.870755
11
123.950000
21
96.260000
0
LINE
8
Layer 1
10
123.950000
20
96.260000
11
123.950000
21
98.560000
0
LINE
8
Layer 1
10
123.950000
20
98.560000
11
123.729968
21
99.649887
0
LINE
8
Layer 1
10
123.729968
20
99.649887
11
123.129909
21
100.539900
0
LINE
8
Layer 1
10
123.129909
20
100.539900
11
122.239897
21
101.139962
0
LINE
8
Layer 1
10
122.239897
20
101.139962
11
121.150010
21
101.360000
0
LINE
8
Layer 1
10
121.150010
20
101.360000
11
120.060123
21
101.139962
0
LINE
8
Layer 1
10
120.060123
20
101.139962
11
119.170110
21
100.539900
0
LINE
8
Layer 1
10
119.170110
20
100.539900
11
118.570048
21
99.649887
0
LINE
8
Layer 1
10
118.570048
20
99.649887
11
118.350010
21
98.560000
0
LINE
8
Layer 1
10
118.350010
20
98.560000
11
118.350000
21
96.260000
0
LINE
8
Layer 1
10
118.350000
20
96.260000
11
118.271414
21
95.870755
0
LINE
8
Layer 1
10
118.271414
20
95.870755
11
118.057105
21
95.552894
0
LINE
8
Layer 1
10
118.057105
20
95.552894
11
117.739243
21
95.338586
0
LINE
8
Layer 1
10
117.739243
20
95.338586
11
117.350000
21
95.260000
0
LINE
8
Layer 1
10
117.350000
20
95.260000
11
39.950000
21
95.260000
0
LINE
8
Layer 1
10
39.950000
20
95.260000
11
39.560755
21
95.338585
0
LINE
8
Layer 1
10
39.560755
20
95.338585
11
39.242893
21
95.552893
0
LINE
8
Layer 1
10
39.242893
20
95.552893
11
39.028585
21
95.870755
0
LINE
8
Layer 1
10
39.028585
20
95.870755
11
38.950000
21
96.260000
0
LINE
8
Layer 1
10
38.950000
20
96.260000
11
38.950000
21
98.560000
0
LINE
8
Layer 1
10
38.950000
20
98.560000
11
38.729968
21
99.649887
0
LINE
8
Layer 1
10
38.729968
20
99.649887
11
38.129909
21
100.539900
0
LINE
8
Layer 1
10
38.129909
20
100.539900
11
37.239897
21
101.139962
0
LINE
8
Layer 1
10
37.239897
20
101.139962
11
36.150010
21
101.360000
0
LINE
8
Layer 1
10
36.150010
20
101.360000
11
35.060123
21
101.139962
0
LINE
8
Layer 1
10
35.060123
20
101.139962
11
34.170110
21
100.539900
0
LINE
8
Layer 1
10
34.170110
20
100.539900
11
33.570048
21
99.649887
0
LINE
8
Layer 1
10
33.570048
20
99.649887
11
33.350010
21
98.560000
0
LINE
8
Layer 1
10
33.350010
20
98.560000
11
33.350000
21
96.260000
0
LINE
8
Layer 1
10
33.350000
20
96.260000
11
33.271414
21
95.870755
0
LINE
8
Layer 1
10
33.271414
20
95.870755
11
33.057106
21
95.552894
0
LINE
8
Layer 1
10
33.057106
20
95.552894
11
32.739245
21
95.338586
0
LINE
8
Layer 1
10
32.739245
20
95.338586
11
32.350000
21
95.260000
0
LINE
8
Layer 1
10
32.350000
20
95.260000
11
7.150000
21
95.260000
0
LINE
8
Layer 1
10
7.150000
20
95.260000
11
6.760755
21
95.181415
0
LINE
8
Layer 1
10
6.760755
20
95.181415
11
6.442893
21
94.967107
0
LINE
8
Layer 1
10
6.442893
20
94.967107
11
6.228585
21
94.649245
0
LINE
8
Layer 1
10
6.228585
20
94.649245
11
6.150000
21
94.260000
0
LINE
8
Layer 1
10
6.150000
20
94.260000
11
6.150000
21
74.060010
0
LINE
8
Layer 1
10
6.150000
20
74.060010
11
6.071414
21
73.670765
0
LINE
8
Layer 1
10
6.071414
20
73.670765
11
5.857106
21
73.352904
0
LINE
8
Layer 1
10
5.857106
20
73.352904
11
5.539245
21
73.138596
0
LINE
8
Layer 1
10
5.539245
20
73.138596
11
5.150000
21
73.060010
0
LINE
8
Layer 1
10
5.150000
20
73.060010
11
2.850000
21
73.060000
0
LINE
8
Layer 1
10
2.850000
20
73.060000
11
1.760113
21
72.839962
0
LINE
8
Layer 1
10
1.760113
20
72.839962
11
0.870100
21
72.239900
0
LINE
8
Layer 1
10
0.870100
20
72.239900
11
0.270038
21
71.349887
0
LINE
8
Layer 1
10
0.270038
20
71.349887
11
0.050000
21
70.260000
0
LINE
8
Layer 1
10
0.050000
20
70.260000
11
0.270038
21
69.170113
0
LINE
8
Layer 1
10
0.270038
20
69.170113
11
0.870100
21
68.280101
0
LINE
8
Layer 1
10
0.870100
20
68.280101
11
1.760113
21
67.680042
0
LINE
8
Layer 1
10
1.760113
20
67.680042
11
2.850000
21
67.460010
0
LINE
8
Layer 1
10
2.850000
20
67.460010
11
5.150000
21
67.460010
0
LINE
8
Layer 1
10
5.150000
20
67.460010
11
5.539245
21
67.381425
0
LINE
8
Layer 1
10
5.539245
20
67.381425
11
5.857107
21
67.167117
0
LINE
8
Layer 1
10
5.857107
20
67.167117
11
6.071415
21
66.849255
0
LINE
8
Layer 1
10
6.071415
20
66.849255
11
6.150000
21
66.460010
0
LINE
8
Layer 1
10
6.150000
20
66.460010
11
6.150000
21
34.950010
0
LINE
8
Layer 1
10
6.150000
20
34.950010
11
6.071414
21
34.560765
0
LINE
8
Layer 1
10
6.071414
20
34.560765
11
5.857106
21
34.242904
0
LINE
8
Layer 1
10
5.857106
20
34.242904
11
5.539245
21
34.028596
0
LINE
8
Layer 1
10
5.539245
20
34.028596
11
5.150000
21
33.950010
0
LINE
8
Layer 1
10
5.150000
20
33.950010
11
2.850000
21
33.950000
0
LINE
8
Layer 1
10
2.850000
20
33.950000
11
1.760113
21
33.729962
0
LINE
8
Layer 1
10
1.760113
20
33.729962
11
0.870100
21
33.129900
0
LINE
8
Layer 1
10
0.870100
20
33.129900
11
0.270038
21
32.239887
0
LINE
8
Layer 1
10
0.270038
20
32.239887
11
0.050000
21
31.150000
0
LINE
8
Layer 1
10
0.050000
20
31.150000
11
0.270038
21
30.060113
0
LINE
8
Layer 1
10
0.270038
20
30.060113
11
0.870100
21
29.170101
0
LINE
8
Layer 1
10
0.870100
20
29.170101
11
1.760113
21
28.570042
0
LINE
8
Layer 1
10
1.760113
20
28.570042
11
2.850000
21
28.350010
0
LINE
8
Layer 1
10
2.850000
20
28.350010
11
5.150000
21
28.350010
0
LINE
8
Layer 1
10
5.150000
20
28.350010
11
5.539245
21
28.271425
0
LINE
8
Layer 1
10
5.539245
20
28.271425
11
5.857107
21
28.057117
0
LINE
8
Layer 1
10
5.857107
20
28.057117
11
6.071415
21
27.739255
0
LINE
8
Layer 1
10
6.071415
20
27.739255
11
6.150000
21
27.350010
0
LINE
8
Layer 1
10
6.150000
20
27.350010
11
6.150000
21
7.150000
0
LINE
8
Layer 1
10
6.150000
20
7.150000
11
6.228585
21
6.760755
0
LINE
8
Layer 1
10
6.228585
20
6.760755
11
6.442893
21
6.442893
0
LINE
8
Layer 1
10
6.442893
20
6.442893
11
6.760755
21
6.228585
0
LINE
8
Layer 1
10
6.760755
20
6.228585
11
7.150000
21
6.150000
0
LINE
8
Layer 1
10
7.150000
20
6.150000
11
32.350020
21
6.150000
0
LINE
8
Layer 1
10
32.350020
20
6.150000
11
32.739265
21
6.071415
0
LINE
8
Layer 1
10
32.739265
20
6.071415
11
33.057127
21
5.857107
0
LINE
8
Layer 1
10
33.057127
20
5.857107
11
33.271435
21
5.539245
0
LINE
8
Layer 1
10
33.271435
20
5.539245
11
33.350020
21
5.150000
0
LINE
8
Layer 1
10
33.350020
20
5.150000
11
33.350020
21
2.850000
0
LINE
8
Layer 1
10
33.350020
20
2.850000
11
33.570052
21
1.760112
0
LINE
8
Layer 1
10
33.570052
20
1.760112
11
34.170111
21
0.870100
0
LINE
8
Layer 1
10
34.170111
20
0.870100
11
35.060123
21
0.270037
0
LINE
8
Layer 1
10
35.060123
20
0.270037
11
36.150010
21
0.050000
0
LINE
8
Layer 1
10
36.150010
20
0.050000
11
37.239897
21
0.270037
0
LINE
8
Layer 1
10
37.239897
20
0.270037
11
38.129910
21
0.870100
0
LINE
8
Layer 1
10
38.129910
20
0.870100
11
38.729973
21
1.760112
0
LINE
8
Layer 1
10
38.729973
20
1.760112
11
38.950010
21
2.850000
0
LINE
8
Layer 1
10
38.950010
20
2.850000
11
38.950020
21
5.150000
0
LINE
8
Layer 1
10
38.950020
20
5.150000
11
39.028606
21
5.539245
0
LINE
8
Layer 1
10
39.028606
20
5.539245
11
39.242914
21
5.857106
0
LINE
8
Layer 1
10
39.242914
20
5.857106
11
39.560775
21
6.071414
0
LINE
8
Layer 1
10
39.560775
20
6.071414
11
39.950020
21
6.150000
0
LINE
8
Layer 1
10
39.950020
20
6.150000
11
117.350020
21
6.150000
0
LINE
8
Layer 1
10
117.350020
20
6.150000
11
117.739263
21
6.071415
0
LINE
8
Layer 1
10
117.739263
20
6.071415
11
118.057125
21
5.857107
0
LINE
8
Layer 1
10
118.057125
20
5.857107
11
118.271434
21
5.539245
0
LINE
8
Layer 1
10
118.271434
20
5.539245
11
118.350020
21
5.150000
0
LINE
8
Layer 1
10
118.350020
20
5.150000
11
118.350020
21
2.850000
0
LINE
8
Layer 1
10
118.350020
20
2.850000
11
118.570052
21
1.760112
0
LINE
8
Layer 1
10
118.570052
20
1.760112
11
119.170111
21
0.870100
0
LINE
8
Layer 1
10
119.170111
20
0.870100
11
120.060123
21
0.270037
0
LINE
8
Layer 1
10
120.060123
20
0.270037
11
121.150010
21
0.050000
0
LINE
8
Layer 1
10
121.150010
20
0.050000
11
122.239897
21
0.270037
0
LINE
8
Layer 1
10
122.239897
20
0.270037
11
123.129910
21
0.870100
0
LINE
8
Layer 1
10
123.129910
20
0.870100
11
123.729972
21
1.760112
0
LINE
8
Layer 1
10
123.729972
20
1.760112
11
123.950010
21
2.850000
0
LINE
8
Layer 1
10
123.950010
20
2.850000
11
123.950020
21
5.150000
0
LINE
8
Layer 1
10
123.950020
20
5.150000
11
124.028606
21
5.539245
0
LINE
8
Layer 1
10
124.028606
20
5.539245
11
124.242915
21
5.857106
0
LINE
8
Layer 1
10
124.242915
20
5.857106
11
124.560777
21
6.071414
0
LINE
8
Layer 1
10
124.560777
20
6.071414
11
124.950020
21
6.150000
0
LINE
8
Layer 1
10
124.950020
20
6.150000
11
224.112020
21
6.150000
0
LINE
8
Layer 1
10
224.112020
20
6.150000
11
224.501263
21
6.071415
0
LINE
8
Layer 1
10
224.501263
20
6.071415
11
224.819125
21
5.857107
0
LINE
8
Layer 1
10
224.819125
20
5.857107
11
225.033434
21
5.539245
0
LINE
8
Layer 1
10
225.033434
20
5.539245
11
225.112020
21
5.150000
0
LINE
8
Layer 1
10
225.112020
20
5.150000
11
225.112020
21
2.850000
0
LINE
8
Layer 1
10
225.112020
20
2.850000
11
225.332052
21
1.760112
0
LINE
8
Layer 1
10
225.332052
20
1.760112
11
225.932111
21
0.870100
0
LINE
8
Layer 1
10
225.932111
20
0.870100
11
226.822123
21
0.270037
0
LINE
8
Layer 1
10
226.822123
20
0.270037
11
227.912010
21
0.050000
0
LINE
8
Layer 1
10
227.912010
20
0.050000
11
229.001898
21
0.270037
0
LINE
8
Layer 1
10
229.001898
20
0.270037
11
229.891910
21
0.870100
0
LINE
8
Layer 1
10
229.891910
20
0.870100
11
230.491973
21
1.760112
0
LINE
8
Layer 1
10
230.491973
20
1.760112
11
230.712010
21
2.850000
0
LINE
8
Layer 1
10
230.712010
20
2.850000
11
230.712020
21
5.150000
0
LINE
8
Layer 1
10
230.712020
20
5.150000
11
230.790606
21
5.539245
0
LINE
8
Layer 1
10
230.790606
20
5.539245
11
231.004915
21
5.857106
0
LINE
8
Layer 1
10
231.004915
20
5.857106
11
231.322777
21
6.071414
0
LINE
8
Layer 1
10
231.322777
20
6.071414
11
231.712020
21
6.150000
0
LINE
8
Layer 1
10
231.712020
20
6.150000
11
309.112020
21
6.150000
0
LINE
8
Layer 1
10
309.112020
20
6.150000
11
309.501263
21
6.071415
0
LINE
8
Layer 1
10
309.501263
20
6.071415
11
309.819125
21
5.857107
0
LINE
8
Layer 1
10
309.819125
20
5.857107
11
310.033434
21
5.539245
0
LINE
8
Layer 1
10
310.033434
20
5.539245
11
310.112020
21
5.150000
0
LINE
8
Layer 1
10
310.112020
20
5.150000
11
310.112020
21
2.850000
0
LINE
8
Layer 1
10
310.112020
20
2.850000
11
310.332052
21
1.760112
0
LINE
8
Layer 1
10
310.332052
20
1.760112
11
310.932111
21
0.870100
0
LINE
8
Layer 1
10
310.932111
20
0.870100
11
311.822123
21
0.270037
0
LINE
8
Layer 1
10
311.822123
20
0.270037
11
312.912010
21
0.050000
0
LINE
8
Layer 1
10
312.912010
20
0.050000
11
314.001898
21
0.270037
0
LINE
8
Layer 1
10
314.001898
20
0.270037
11
314.891910
21
0.870100
0
LINE
8
Layer 1
10
314.891910
20
0.870100
11
315.491972
21
1.760112
0
LINE
8
Layer 1
10
315.491972
20
1.760112
11
315.712010
21
2.850000
0
LINE
8
Layer 1
10
315.712010
20
2.850000
11
315.712020
21
5.150000
0
LINE
8
Layer 1
10
315.712020
20
5.150000
11
315.790606
21
5.539245
0
LINE
8
Layer 1
10
315.790606
20
5.539245
11
316.004915
21
5.857106
0
LINE
8
Layer 1
10
316.004915
20
5.857106
11
316.322777
21
6.071414
0
LINE
8
Layer 1
10
316.322777
20
6.071414
11
316.712020
21
6.150000
0
LINE
8
Layer 1
10
316.712020
20
6.150000
11
341.912000
21
6.150000
0
LINE
8
Layer 1
10
341.912000
20
6.150000
11
342.301243
21
6.228585
0
LINE
8
Layer 1
10
342.301243
20
6.228585
11
342.619105
21
6.442893
0
LINE
8
Layer 1
10
342.619105
20
6.442893
11
342.833414
21
6.760755
0
LINE
8
Layer 1
10
342.833414
20
6.760755
11
342.912000
21
7.150000
0
LINE
8
Layer 1
10
342.912000
20
7.150000
11
342.912000
21
27.350010
0
LINE
8
Layer 1
10
342.912000
20
27.350010
11
342.990586
21
27.739255
0
LINE
8
Layer 1
10
342.990586
20
27.739255
11
343.204895
21
28.057117
0
LINE
8
Layer 1
10
343.204895
20
28.057117
11
343.522757
21
28.271425
0
LINE
8
Layer 1
10
343.522757
20
28.271425
11
343.912000
21
28.350010
0
LINE
8
Layer 1
10
343.912000
20
28.350010
11
346.212000
21
28.350010
0
LINE
8
Layer 1
10
346.212000
20
28.350010
11
347.301888
21
28.570042
0
LINE
8
Layer 1
10
347.301888
20
28.570042
11
348.191900
21
29.170101
0
LINE
8
Layer 1
10
348.191900
20
29.170101
11
348.791962
21
30.060113
0
LINE
8
Layer 1
10
348.791962
20
30.060113
11
349.012000
21
31.150000
0
LINE
8
Layer 1
10
349.012000
20
31.150000
11
348.791962
21
32.239887
0
LINE
8
Layer 1
10
348.791962
20
32.239887
11
348.191900
21
33.129900
0
LINE
8
Layer 1
10
348.191900
20
33.129900
11
347.301888
21
33.729962
0
LINE
8
Layer 1
10
347.301888
20
33.729962
11
346.212000
21
33.950000
0
LINE
8
Layer 1
10
346.212000
20
33.950000
11
343.912000
21
33.950010
0
LINE
8
Layer 1
10
343.912000
20
33.950010
11
343.522757
21
34.028596
0
LINE
8
Layer 1
10
343.522757
20
34.028596
11
343.204895
21
34.242904
0
LINE
8
Layer 1
10
343.204895
20
34.242904
11
342.990586
21
34.560765
0
LINE
8
Layer 1
10
342.990586
20
34.560765
11
342.912000
21
34.950010
0
LINE
8
Layer 1
10
342.912000
20
34.950010
11
342.912000
21
66.460000
0
LINE
8
Layer 1
10
342.912000
20
66.460000
11
342.990586
21
66.849245
0
LINE
8
Layer 1
10
342.990586
20
66.849245
11
343.204895
21
67.167107
0
LINE
8
Layer 1
10
343.204895
20
67.167107
11
343.522757
21
67.381415
0
LINE
8
Layer 1
10
343.522757
20
67.381415
11
343.912000
21
67.460000
0
LINE
8
Layer 1
10
343.912000
20
67.460000
11
346.212000
21
67.460000
0
LINE
8
Layer 1
10
324.689000
20
91.023000
11
338.689000
21
91.023000
0
LINE
8
Layer 1
10
338.689000
20
91.023000
11
338.689000
21
77.023000
0
LINE
8
Layer 1
10
338.689000
20
77.023000
11
324.689000
21
77.023000
0
LINE
8
Layer 1
10
324.689000
20
77.023000
11
324.689000
21
91.023000
0
LINE
8
Layer 1
10
295.827000
20
24.348000
11
295.827000
21
10.348000
0
LINE
8
Layer 1
10
295.827000
20
10.348000
11
281.827000
21
10.348000
0
LINE
8
Layer 1
10
281.827000
20
10.348000
11
281.827000
21
24.348000
0
LINE
8
Layer 1
10
281.827000
20
24.348000
11
295.827000
21
24.348000
0
LINE
8
Layer 1
10
263.720000
20
66.210000
11
263.720000
21
51.210000
0
LINE
8
Layer 1
10
263.720000
20
51.210000
11
256.720000
21
51.210000
0
LINE
8
Layer 1
10
256.720000
20
51.210000
11
256.720000
21
66.210000
0
LINE
8
Layer 1
10
256.720000
20
66.210000
11
263.720000
21
66.210000
0
LINE
8
Layer 1
10
180.583000
20
16.110000
11
180.583000
21
31.110000
0
LINE
8
Layer 1
10
180.583000
20
31.110000
11
187.583000
21
31.110000
0
LINE
8
Layer 1
10
187.583000
20
31.110000
11
187.583000
21
16.110000
0
LINE
8
Layer 1
10
187.583000
20
16.110000
11
180.583000
21
16.110000
0
LINE
8
Layer 1
10
224.677000
20
34.160000
11
224.677000
21
48.160000
0
LINE
8
Layer 1
10
224.677000
20
48.160000
11
238.677000
21
48.160000
0
LINE
8
Layer 1
10
238.677000
20
48.160000
11
238.677000
21
34.160000
0
LINE
8
Layer 1
10
238.677000
20
34.160000
11
224.677000
21
34.160000
0
LINE
8
Layer 1
10
234.202000
20
53.210000
11
234.202000
21
67.210000
0
LINE
8
Layer 1
10
234.202000
20
67.210000
11
248.202000
21
67.210000
0
LINE
8
Layer 1
10
248.202000
20
67.210000
11
248.202000
21
53.210000
0
LINE
8
Layer 1
10
248.202000
20
53.210000
11
234.202000
21
53.210000
0
LINE
8
Layer 1
10
179.145000
20
29.110000
11
179.145000
21
15.110000
0
LINE
8
Layer 1
10
179.145000
20
15.110000
11
165.145000
21
15.110000
0
LINE
8
Layer 1
10
165.145000
20
15.110000
11
165.145000
21
29.110000
0
LINE
8
Layer 1
10
165.145000
20
29.110000
11
179.145000
21
29.110000
0
LINE
8
Layer 1
10
81.802000
20
67.210000
11
95.802000
21
67.210000
0
LINE
8
Layer 1
10
95.802000
20
67.210000
11
95.802000
21
53.210000
0
LINE
8
Layer 1
10
95.802000
20
53.210000
11
81.802000
21
53.210000
0
LINE
8
Layer 1
10
81.802000
20
53.210000
11
81.802000
21
67.210000
0
LINE
8
Layer 1
10
29.127000
20
72.260000
11
15.127000
21
72.260000
0
LINE
8
Layer 1
10
15.127000
20
72.260000
11
15.127000
21
86.260000
0
LINE
8
Layer 1
10
15.127000
20
86.260000
11
29.127000
21
86.260000
0
LINE
8
Layer 1
10
29.127000
20
86.260000
11
29.127000
21
72.260000
0
LINE
8
Layer 1
10
129.139000
20
86.260000
11
129.139000
21
72.260000
0
LINE
8
Layer 1
10
129.139000
20
72.260000
11
115.139000
21
72.260000
0
LINE
8
Layer 1
10
115.139000
20
72.260000
11
115.139000
21
86.260000
0
LINE
8
Layer 1
10
115.139000
20
86.260000
11
129.139000
21
86.260000
0
LINE
8
Layer 1
10
148.477000
20
34.160000
11
148.477000
21
48.160000
0
LINE
8
Layer 1
10
148.477000
20
48.160000
11
162.477000
21
48.160000
0
LINE
8
Layer 1
10
162.477000
20
48.160000
11
162.477000
21
34.160000
0
LINE
8
Layer 1
10
162.477000
20
34.160000
11
148.477000
21
34.160000
0
LINE
8
Layer 1
10
36.270000
20
48.160000
11
36.270000
21
34.160000
0
LINE
8
Layer 1
10
36.270000
20
34.160000
11
22.270000
21
34.160000
0
LINE
8
Layer 1
10
22.270000
20
34.160000
11
22.270000
21
48.160000
0
LINE
8
Layer 1
10
22.270000
20
48.160000
11
36.270000
21
48.160000
0
LINE
8
Layer 1
10
262.489000
20
86.260000
11
262.489000
21
72.260000
0
LINE
8
Layer 1
10
262.489000
20
72.260000
11
248.489000
21
72.260000
0
LINE
8
Layer 1
10
248.489000
20
72.260000
11
248.489000
21
86.260000
0
LINE
8
Layer 1
10
248.489000
20
86.260000
11
262.489000
21
86.260000
0
LINE
8
Layer 1
10
77.039000
20
86.260000
11
91.039000
21
86.260000
0
LINE
8
Layer 1
10
91.039000
20
86.260000
11
91.039000
21
72.260000
0
LINE
8
Layer 1
10
91.039000
20
72.260000
11
77.039000
21
72.260000
0
LINE
8
Layer 1
10
77.039000
20
72.260000
11
77.039000
21
86.260000
0
LINE
8
Layer 1
10
100.852000
20
53.210000
11
100.852000
21
67.210000
0
LINE
8
Layer 1
10
100.852000
20
67.210000
11
114.852000
21
67.210000
0
LINE
8
Layer 1
10
114.852000
20
67.210000
11
114.852000
21
53.210000
0
LINE
8
Layer 1
10
114.852000
20
53.210000
11
100.852000
21
53.210000
0
LINE
8
Layer 1
10
134.189000
20
86.260000
11
148.189000
21
86.260000
0
LINE
8
Layer 1
10
148.189000
20
86.260000
11
148.189000
21
72.260000
0
LINE
8
Layer 1
10
148.189000
20
72.260000
11
134.189000
21
72.260000
0
LINE
8
Layer 1
10
134.189000
20
72.260000
11
134.189000
21
86.260000
0
LINE
8
Layer 1
10
44.708000
20
47.160000
11
44.708000
21
32.160000
0
LINE
8
Layer 1
10
44.708000
20
32.160000
11
37.708000
21
32.160000
0
LINE
8
Layer 1
10
37.708000
20
32.160000
11
37.708000
21
47.160000
0
LINE
8
Layer 1
10
37.708000
20
47.160000
11
44.708000
21
47.160000
0
LINE
8
Layer 1
10
287.596000
20
51.210000
11
280.596000
21
51.210000
0
LINE
8
Layer 1
10
280.596000
20
51.210000
11
280.596000
21
66.210000
0
LINE
8
Layer 1
10
280.596000
20
66.210000
11
287.596000
21
66.210000
0
LINE
8
Layer 1
10
287.596000
20
66.210000
11
287.596000
21
51.210000
0
LINE
8
Layer 1
10
17.508000
20
67.210000
11
31.508000
21
67.210000
0
LINE
8
Layer 1
10
31.508000
20
67.210000
11
31.508000
21
53.210000
0
LINE
8
Layer 1
10
31.508000
20
53.210000
11
17.508000
21
53.210000
0
LINE
8
Layer 1
10
17.508000
20
53.210000
11
17.508000
21
67.210000
0
LINE
8
Layer 1
10
210.102000
20
53.210000
11
196.102000
21
53.210000
0
LINE
8
Layer 1
10
196.102000
20
53.210000
11
196.102000
21
67.210000
0
LINE
8
Layer 1
10
196.102000
20
67.210000
11
210.102000
21
67.210000
0
LINE
8
Layer 1
10
210.102000
20
67.210000
11
210.102000
21
53.210000
0
LINE
8
Layer 1
10
229.152000
20
67.210000
11
229.152000
21
53.210000
0
LINE
8
Layer 1
10
229.152000
20
53.210000
11
215.152000
21
53.210000
0
LINE
8
Layer 1
10
215.152000
20
53.210000
11
215.152000
21
67.210000
0
LINE
8
Layer 1
10
215.152000
20
67.210000
11
229.152000
21
67.210000
0
LINE
8
Layer 1
10
124.377000
20
34.160000
11
110.377000
21
34.160000
0
LINE
8
Layer 1
10
110.377000
20
34.160000
11
110.377000
21
48.160000
0
LINE
8
Layer 1
10
110.377000
20
48.160000
11
124.377000
21
48.160000
0
LINE
8
Layer 1
10
124.377000
20
48.160000
11
124.377000
21
34.160000
0
LINE
8
Layer 1
10
158.002000
20
53.210000
11
158.002000
21
67.210000
0
LINE
8
Layer 1
10
158.002000
20
67.210000
11
172.002000
21
67.210000
0
LINE
8
Layer 1
10
172.002000
20
67.210000
11
172.002000
21
53.210000
0
LINE
8
Layer 1
10
172.002000
20
53.210000
11
158.002000
21
53.210000
0
LINE
8
Layer 1
10
224.389000
20
72.260000
11
210.389000
21
72.260000
0
LINE
8
Layer 1
10
210.389000
20
72.260000
11
210.389000
21
86.260000
0
LINE
8
Layer 1
10
210.389000
20
86.260000
11
224.389000
21
86.260000
0
LINE
8
Layer 1
10
224.389000
20
86.260000
11
224.389000
21
72.260000
0
LINE
8
Layer 1
10
12.745000
20
29.110000
11
26.745000
21
29.110000
0
LINE
8
Layer 1
10
26.745000
20
29.110000
11
26.745000
21
15.110000
0
LINE
8
Layer 1
10
26.745000
20
15.110000
11
12.745000
21
15.110000
0
LINE
8
Layer 1
10
12.745000
20
15.110000
11
12.745000
21
29.110000
0
LINE
8
Layer 1
10
167.527000
20
48.160000
11
181.527000
21
48.160000
0
LINE
8
Layer 1
10
181.527000
20
48.160000
11
181.527000
21
34.160000
0
LINE
8
Layer 1
10
181.527000
20
34.160000
11
167.527000
21
34.160000
0
LINE
8
Layer 1
10
167.527000
20
34.160000
11
167.527000
21
48.160000
0
LINE
8
Layer 1
10
138.952000
20
53.210000
11
138.952000
21
67.210000
0
LINE
8
Layer 1
10
138.952000
20
67.210000
11
152.952000
21
67.210000
0
LINE
8
Layer 1
10
152.952000
20
67.210000
11
152.952000
21
53.210000
0
LINE
8
Layer 1
10
152.952000
20
53.210000
11
138.952000
21
53.210000
0
LINE
8
Layer 1
10
172.289000
20
86.260000
11
186.289000
21
86.260000
0
LINE
8
Layer 1
10
186.289000
20
86.260000
11
186.289000
21
72.260000
0
LINE
8
Layer 1
10
186.289000
20
72.260000
11
172.289000
21
72.260000
0
LINE
8
Layer 1
10
172.289000
20
72.260000
11
172.289000
21
86.260000
0
LINE
8
Layer 1
10
109.146000
20
31.110000
11
116.146000
21
31.110000
0
LINE
8
Layer 1
10
116.146000
20
31.110000
11
116.146000
21
16.110000
0
LINE
8
Layer 1
10
116.146000
20
16.110000
11
109.146000
21
16.110000
0
LINE
8
Layer 1
10
109.146000
20
16.110000
11
109.146000
21
31.110000
0
LINE
8
Layer 1
10
60.370000
20
29.110000
11
74.370000
21
29.110000
0
LINE
8
Layer 1
10
74.370000
20
29.110000
11
74.370000
21
15.110000
0
LINE
8
Layer 1
10
74.370000
20
15.110000
11
60.370000
21
15.110000
0
LINE
8
Layer 1
10
60.370000
20
15.110000
11
60.370000
21
29.110000
0
LINE
8
Layer 1
10
205.627000
20
34.160000
11
205.627000
21
48.160000
0
LINE
8
Layer 1
10
205.627000
20
48.160000
11
219.627000
21
48.160000
0
LINE
8
Layer 1
10
219.627000
20
48.160000
11
219.627000
21
34.160000
0
LINE
8
Layer 1
10
219.627000
20
34.160000
11
205.627000
21
34.160000
0
LINE
8
Layer 1
10
241.058000
20
15.110000
11
227.058000
21
15.110000
0
LINE
8
Layer 1
10
227.058000
20
15.110000
11
227.058000
21
29.110000
0
LINE
8
Layer 1
10
227.058000
20
29.110000
11
241.058000
21
29.110000
0
LINE
8
Layer 1
10
241.058000
20
29.110000
11
241.058000
21
15.110000
0
LINE
8
Layer 1
10
265.158000
20
67.210000
11
279.158000
21
67.210000
0
LINE
8
Layer 1
10
279.158000
20
67.210000
11
279.158000
21
53.210000
0
LINE
8
Layer 1
10
279.158000
20
53.210000
11
265.158000
21
53.210000
0
LINE
8
Layer 1
10
265.158000
20
53.210000
11
265.158000
21
67.210000
0
LINE
8
Layer 1
10
67.227000
20
48.160000
11
67.227000
21
34.160000
0
LINE
8
Layer 1
10
67.227000
20
34.160000
11
53.227000
21
34.160000
0
LINE
8
Layer 1
10
53.227000
20
34.160000
11
53.227000
21
48.160000
0
LINE
8
Layer 1
10
53.227000
20
48.160000
11
67.227000
21
48.160000
0
LINE
8
Layer 1
10
76.752000
20
53.210000
11
62.752000
21
53.210000
0
LINE
8
Layer 1
10
62.752000
20
53.210000
11
62.752000
21
67.210000
0
LINE
8
Layer 1
10
62.752000
20
67.210000
11
76.752000
21
67.210000
0
LINE
8
Layer 1
10
76.752000
20
67.210000
11
76.752000
21
53.210000
0
LINE
8
Layer 1
10
217.245000
20
15.110000
11
203.245000
21
15.110000
0
LINE
8
Layer 1
10
203.245000
20
15.110000
11
203.245000
21
29.110000
0
LINE
8
Layer 1
10
203.245000
20
29.110000
11
217.245000
21
29.110000
0
LINE
8
Layer 1
10
217.245000
20
29.110000
11
217.245000
21
15.110000
0
LINE
8
Layer 1
10
229.439000
20
72.260000
11
229.439000
21
86.260000
0
LINE
8
Layer 1
10
229.439000
20
86.260000
11
243.439000
21
86.260000
0
LINE
8
Layer 1
10
243.439000
20
86.260000
11
243.439000
21
72.260000
0
LINE
8
Layer 1
10
243.439000
20
72.260000
11
229.439000
21
72.260000
0
LINE
8
Layer 1
10
85.270000
20
31.110000
11
92.270000
21
31.110000
0
LINE
8
Layer 1
10
92.270000
20
31.110000
11
92.270000
21
16.110000
0
LINE
8
Layer 1
10
92.270000
20
16.110000
11
85.270000
21
16.110000
0
LINE
8
Layer 1
10
85.270000
20
16.110000
11
85.270000
21
31.110000
0
LINE
8
Layer 1
10
57.702000
20
53.210000
11
43.702000
21
53.210000
0
LINE
8
Layer 1
10
43.702000
20
53.210000
11
43.702000
21
67.210000
0
LINE
8
Layer 1
10
43.702000
20
67.210000
11
57.702000
21
67.210000
0
LINE
8
Layer 1
10
57.702000
20
67.210000
11
57.702000
21
53.210000
0
LINE
8
Layer 1
10
156.707000
20
31.110000
11
163.707000
21
31.110000
0
LINE
8
Layer 1
10
163.707000
20
31.110000
11
163.707000
21
16.110000
0
LINE
8
Layer 1
10
163.707000
20
16.110000
11
156.707000
21
16.110000
0
LINE
8
Layer 1
10
156.707000
20
16.110000
11
156.707000
21
31.110000
0
LINE
8
Layer 1
10
110.089000
20
72.260000
11
96.089000
21
72.260000
0
LINE
8
Layer 1
10
96.089000
20
72.260000
11
96.089000
21
86.260000
0
LINE
8
Layer 1
10
96.089000
20
86.260000
11
110.089000
21
86.260000
0
LINE
8
Layer 1
10
110.089000
20
86.260000
11
110.089000
21
72.260000
0
LINE
8
Layer 1
10
38.939000
20
72.260000
11
38.939000
21
86.260000
0
LINE
8
Layer 1
10
38.939000
20
86.260000
11
52.939000
21
86.260000
0
LINE
8
Layer 1
10
52.939000
20
86.260000
11
52.939000
21
72.260000
0
LINE
8
Layer 1
10
52.939000
20
72.260000
11
38.939000
21
72.260000
0
LINE
8
Layer 1
10
191.339000
20
86.260000
11
205.339000
21
86.260000
0
LINE
8
Layer 1
10
205.339000
20
86.260000
11
205.339000
21
72.260000
0
LINE
8
Layer 1
10
205.339000
20
72.260000
11
191.339000
21
72.260000
0
LINE
8
Layer 1
10
191.339000
20
72.260000
11
191.339000
21
86.260000
0
LINE
8
Layer 1
10
262.777000
20
24.348000
11
276.777000
21
24.348000
0
LINE
8
Layer 1
10
276.777000
20
24.348000
11
276.777000
21
10.348000
0
LINE
8
Layer 1
10
276.777000
20
10.348000
11
262.777000
21
10.348000
0
LINE
8
Layer 1
10
262.777000
20
10.348000
11
262.777000
21
24.348000
0
LINE
8
Layer 1
10
281.827000
20
29.398000
11
281.827000
21
43.398000
0
LINE
8
Layer 1
10
281.827000
20
43.398000
11
295.827000
21
43.398000
0
LINE
8
Layer 1
10
295.827000
20
43.398000
11
295.827000
21
29.398000
0
LINE
8
Layer 1
10
295.827000
20
29.398000
11
281.827000
21
29.398000
0
LINE
8
Layer 1
10
119.902000
20
67.210000
11
133.902000
21
67.210000
0
LINE
8
Layer 1
10
133.902000
20
67.210000
11
133.902000
21
53.210000
0
LINE
8
Layer 1
10
133.902000
20
53.210000
11
119.902000
21
53.210000
0
LINE
8
Layer 1
10
119.902000
20
53.210000
11
119.902000
21
67.210000
0
LINE
8
Layer 1
10
264.870000
20
34.160000
11
250.870000
21
34.160000
0
LINE
8
Layer 1
10
250.870000
20
34.160000
11
250.870000
21
48.160000
0
LINE
8
Layer 1
10
250.870000
20
48.160000
11
264.870000
21
48.160000
0
LINE
8
Layer 1
10
264.870000
20
48.160000
11
264.870000
21
34.160000
0
LINE
8
Layer 1
10
272.302000
20
86.260000
11
286.302000
21
86.260000
0
LINE
8
Layer 1
10
286.302000
20
86.260000
11
286.302000
21
72.260000
0
LINE
8
Layer 1
10
286.302000
20
72.260000
11
272.302000
21
72.260000
0
LINE
8
Layer 1
10
272.302000
20
72.260000
11
272.302000
21
86.260000
0
LINE
8
Layer 1
10
191.052000
20
53.210000
11
177.052000
21
53.210000
0
LINE
8
Layer 1
10
177.052000
20
53.210000
11
177.052000
21
67.210000
0
LINE
8
Layer 1
10
177.052000
20
67.210000
11
191.052000
21
67.210000
0
LINE
8
Layer 1
10
191.052000
20
67.210000
11
191.052000
21
53.210000
0
LINE
8
Layer 1
10
13.832000
20
32.160000
11
13.832000
21
47.160000
0
LINE
8
Layer 1
10
13.832000
20
47.160000
11
20.832000
21
47.160000
0
LINE
8
Layer 1
10
20.832000
20
47.160000
11
20.832000
21
32.160000
0
LINE
8
Layer 1
10
20.832000
20
32.160000
11
13.832000
21
32.160000
0
LINE
8
Layer 1
10
153.239000
20
72.260000
11
153.239000
21
86.260000
0
LINE
8
Layer 1
10
153.239000
20
86.260000
11
167.239000
21
86.260000
0
LINE
8
Layer 1
10
167.239000
20
86.260000
11
167.239000
21
72.260000
0
LINE
8
Layer 1
10
167.239000
20
72.260000
11
153.239000
21
72.260000
0
LINE
8
Layer 1
10
319.639000
20
91.023000
11
319.639000
21
77.023000
0
LINE
8
Layer 1
10
319.639000
20
77.023000
11
305.639000
21
77.023000
0
LINE
8
Layer 1
10
305.639000
20
77.023000
11
305.639000
21
91.023000
0
LINE
8
Layer 1
10
305.639000
20
91.023000
11
319.639000
21
91.023000
0
LINE
8
Layer 1
10
143.427000
20
34.160000
11
129.427000
21
34.160000
0
LINE
8
Layer 1
10
129.427000
20
34.160000
11
129.427000
21
48.160000
0
LINE
8
Layer 1
10
129.427000
20
48.160000
11
143.427000
21
48.160000
0
LINE
8
Layer 1
10
143.427000
20
48.160000
11
143.427000
21
34.160000
0
LINE
8
Layer 1
10
141.045000
20
15.110000
11
127.045000
21
15.110000
0
LINE
8
Layer 1
10
127.045000
20
15.110000
11
127.045000
21
29.110000
0
LINE
8
Layer 1
10
127.045000
20
29.110000
11
141.045000
21
29.110000
0
LINE
8
Layer 1
10
141.045000
20
29.110000
11
141.045000
21
15.110000
0
LINE
8
Layer 1
10
36.558000
20
29.110000
11
50.558000
21
29.110000
0
LINE
8
Layer 1
10
50.558000
20
29.110000
11
50.558000
21
15.110000
0
LINE
8
Layer 1
10
50.558000
20
15.110000
11
36.558000
21
15.110000
0
LINE
8
Layer 1
10
36.558000
20
15.110000
11
36.558000
21
29.110000
0
LINE
8
Layer 1
10
186.577000
20
48.160000
11
200.577000
21
48.160000
0
LINE
8
Layer 1
10
200.577000
20
48.160000
11
200.577000
21
34.160000
0
LINE
8
Layer 1
10
200.577000
20
34.160000
11
186.577000
21
34.160000
0
LINE
8
Layer 1
10
186.577000
20
34.160000
11
186.577000
21
48.160000
0
LINE
8
Layer 1
10
91.327000
20
48.160000
11
105.327000
21
48.160000
0
LINE
8
Layer 1
10
105.327000
20
48.160000
11
105.327000
21
34.160000
0
LINE
8
Layer 1
10
105.327000
20
34.160000
11
91.327000
21
34.160000
0
LINE
8
Layer 1
10
91.327000
20
34.160000
11
91.327000
21
48.160000
0
LINE
8
Layer 1
10
57.989000
20
72.260000
11
57.989000
21
86.260000
0
LINE
8
Layer 1
10
57.989000
20
86.260000
11
71.989000
21
86.260000
0
LINE
8
Layer 1
10
71.989000
20
86.260000
11
71.989000
21
72.260000
0
LINE
8
Layer 1
10
71.989000
20
72.260000
11
57.989000
21
72.260000
0
LINE
8
Layer 1
10
324.689000
20
24.348000
11
338.689000
21
24.348000
0
LINE
8
Layer 1
10
338.689000
20
24.348000
11
338.689000
21
10.348000
0
LINE
8
Layer 1
10
338.689000
20
10.348000
11
324.689000
21
10.348000
0
LINE
8
Layer 1
10
324.689000
20
10.348000
11
324.689000
21
24.348000
0
LINE
8
Layer 1
10
86.277000
20
48.160000
11
86.277000
21
34.160000
0
LINE
8
Layer 1
10
86.277000
20
34.160000
11
72.277000
21
34.160000
0
LINE
8
Layer 1
10
72.277000
20
34.160000
11
72.277000
21
48.160000
0
LINE
8
Layer 1
10
72.277000
20
48.160000
11
86.277000
21
48.160000
0
LINE
8
Layer 1
10
93.708000
20
15.110000
11
93.708000
21
29.110000
0
LINE
8
Layer 1
10
93.708000
20
29.110000
11
107.708000
21
29.110000
0
LINE
8
Layer 1
10
107.708000
20
29.110000
11
107.708000
21
15.110000
0
LINE
8
Layer 1
10
107.708000
20
15.110000
11
93.708000
21
15.110000
0
LINE
8
Layer 1
10
300.877000
20
10.348000
11
300.877000
21
24.348000
0
LINE
8
Layer 1
10
300.877000
20
24.348000
11
314.877000
21
24.348000
0
LINE
8
Layer 1
10
314.877000
20
24.348000
11
314.877000
21
10.348000
0
LINE
8
Layer 1
10
314.877000
20
10.348000
11
300.877000
21
10.348000
0
LINE
8
Layer 1
10
340.921980
20
31.925000
11
340.922000
21
69.425000
0
LINE
8
Layer 1
10
340.922000
20
69.425000
11
303.422000
21
69.425000
0
LINE
8
Layer 1
10
303.422000
20
69.425000
11
303.422000
21
31.925000
0
LINE
8
Layer 1
10
303.422000
20
31.925000
11
340.921980
21
31.925000
 0 
ENDSEC
 0 
EOF