%TF.GenerationSoftware,KiCad,Pcbnew,8.0.2*%
%TF.CreationDate,2025-04-04T21:26:55+09:00*%
%TF.ProjectId,laser-keyboard,6c617365-722d-46b6-9579-626f6172642e,rev?*%
%TF.SameCoordinates,Original*%
%TF.FileFunction,Soldermask,Bot*%
%TF.FilePolarity,Negative*%
%FSLAX46Y46*%
G04 Gerber Fmt 4.6, Leading zero omitted, Abs format (unit mm)*
G04 Created by KiCad (PCBNEW 8.0.2) date 2025-04-04 21:26:55*
%MOMM*%
%LPD*%
G01*
G04 APERTURE LIST*
G04 Aperture macros list*
%AMRoundRect*
0 Rectangle with rounded corners*
0 $1 Rounding radius*
0 $2 $3 $4 $5 $6 $7 $8 $9 X,Y pos of 4 corners*
0 Add a 4 corners polygon primitive as box body*
4,1,4,$2,$3,$4,$5,$6,$7,$8,$9,$2,$3,0*
0 Add four circle primitives for the rounded corners*
1,1,$1+$1,$2,$3*
1,1,$1+$1,$4,$5*
1,1,$1+$1,$6,$7*
1,1,$1+$1,$8,$9*
0 Add four rect primitives between the rounded corners*
20,1,$1+$1,$2,$3,$4,$5,0*
20,1,$1+$1,$4,$5,$6,$7,0*
20,1,$1+$1,$6,$7,$8,$9,0*
20,1,$1+$1,$8,$9,$2,$3,0*%
G04 Aperture macros list end*
%ADD10C,1.750000*%
%ADD11C,3.000000*%
%ADD12C,3.987800*%
%ADD13R,2.550000X2.500000*%
%ADD14R,1.800000X0.820000*%
%ADD15R,2.000000X2.000000*%
%ADD16C,2.000000*%
%ADD17R,2.500000X3.000000*%
%ADD18C,3.048000*%
%ADD19C,0.787400*%
%ADD20RoundRect,0.250000X0.325000X0.650000X-0.325000X0.650000X-0.325000X-0.650000X0.325000X-0.650000X0*%
%ADD21R,1.200000X0.900000*%
%ADD22RoundRect,0.250000X-0.625000X0.312500X-0.625000X-0.312500X0.625000X-0.312500X0.625000X0.312500X0*%
%ADD23RoundRect,0.250000X0.625000X-0.312500X0.625000X0.312500X-0.625000X0.312500X-0.625000X-0.312500X0*%
%ADD24RoundRect,0.250000X0.312500X0.625000X-0.312500X0.625000X-0.312500X-0.625000X0.312500X-0.625000X0*%
%ADD25RoundRect,0.250000X-0.650000X0.325000X-0.650000X-0.325000X0.650000X-0.325000X0.650000X0.325000X0*%
%ADD26C,1.300000*%
%ADD27RoundRect,0.062500X0.475000X0.062500X-0.475000X0.062500X-0.475000X-0.062500X0.475000X-0.062500X0*%
%ADD28RoundRect,0.062500X0.062500X0.475000X-0.062500X0.475000X-0.062500X-0.475000X0.062500X-0.475000X0*%
%ADD29R,5.200000X5.200000*%
%ADD30RoundRect,0.250000X0.650000X-0.325000X0.650000X0.325000X-0.650000X0.325000X-0.650000X-0.325000X0*%
%ADD31RoundRect,0.150000X-0.150000X0.512500X-0.150000X-0.512500X0.150000X-0.512500X0.150000X0.512500X0*%
%ADD32R,0.609000X0.250000*%
%ADD33R,0.609000X0.380000*%
%ADD34R,1.200000X1.400000*%
%ADD35R,0.600000X2.000000*%
%ADD36R,2.500000X2.200000*%
%ADD37C,0.650000*%
%ADD38R,0.600000X1.450000*%
%ADD39R,0.300000X1.450000*%
%ADD40O,1.000000X1.600000*%
%ADD41O,1.000000X2.100000*%
%ADD42R,1.000000X0.750000*%
%ADD43RoundRect,0.250000X-0.312500X-0.625000X0.312500X-0.625000X0.312500X0.625000X-0.312500X0.625000X0*%
%ADD44RoundRect,0.150000X0.200000X-0.150000X0.200000X0.150000X-0.200000X0.150000X-0.200000X-0.150000X0*%
%ADD45RoundRect,0.250000X-0.625000X0.375000X-0.625000X-0.375000X0.625000X-0.375000X0.625000X0.375000X0*%
%ADD46RoundRect,0.150000X-0.512500X-0.150000X0.512500X-0.150000X0.512500X0.150000X-0.512500X0.150000X0*%
G04 APERTURE END LIST*
D10*
%TO.C,SW04_2*%
X136145000Y-244860000D03*
D11*
X137415000Y-242320000D03*
D12*
X141225000Y-244860000D03*
D11*
X143765000Y-239780000D03*
D10*
X146305000Y-244860000D03*
D13*
X134140000Y-242320000D03*
X147067000Y-239780000D03*
%TD*%
D10*
%TO.C,SW07_7*%
X290920000Y-225810000D03*
D11*
X292190000Y-223270000D03*
D12*
X296000000Y-225810000D03*
D11*
X298540000Y-220730000D03*
D10*
X301080000Y-225810000D03*
D13*
X288915000Y-223270000D03*
X301842000Y-220730000D03*
%TD*%
D10*
%TO.C,SW01_3*%
X162360000Y-187690000D03*
D11*
X163630000Y-185150000D03*
D12*
X167440000Y-187690000D03*
D11*
X169980000Y-182610000D03*
D10*
X172520000Y-187690000D03*
D13*
X160355000Y-185150000D03*
X173282000Y-182610000D03*
%TD*%
D10*
%TO.C,SW08_3*%
X405245000Y-249604800D03*
D11*
X406515000Y-247064800D03*
D12*
X410325000Y-249604800D03*
D11*
X412865000Y-244524800D03*
D10*
X415405000Y-249604800D03*
D13*
X403240000Y-247064800D03*
X416167000Y-244524800D03*
%TD*%
D14*
%TO.C,LED4*%
X331220000Y-174150000D03*
X331220000Y-175650000D03*
X336220000Y-175650000D03*
X336220000Y-174150000D03*
%TD*%
D10*
%TO.C,SW08_5*%
X350490000Y-244850000D03*
D11*
X351760000Y-242310000D03*
D12*
X355570000Y-244850000D03*
D11*
X358110000Y-239770000D03*
D10*
X360650000Y-244850000D03*
D13*
X348485000Y-242310000D03*
X361412000Y-239770000D03*
%TD*%
D15*
%TO.C,SW08_1*%
X450680000Y-257100000D03*
D16*
X455680000Y-257100000D03*
X453180000Y-257100000D03*
D17*
X447580000Y-249600000D03*
X458780000Y-249600000D03*
D16*
X450680000Y-242600000D03*
X455680000Y-242600000D03*
%TD*%
D12*
%TO.C,SW08_7*%
X281712000Y-236585000D03*
D18*
X281712000Y-251825000D03*
D10*
X288570000Y-244840000D03*
D11*
X289840000Y-242300000D03*
D12*
X293650000Y-244840000D03*
D11*
X296190000Y-239760000D03*
D10*
X298730000Y-244840000D03*
D12*
X305588000Y-236585000D03*
D18*
X305588000Y-251825000D03*
D13*
X286565000Y-242300000D03*
X299492000Y-239760000D03*
%TD*%
D10*
%TO.C,SW04_3*%
X159975000Y-244854800D03*
D11*
X161245000Y-242314800D03*
D12*
X165055000Y-244854800D03*
D11*
X167595000Y-239774800D03*
D10*
X170135000Y-244854800D03*
D13*
X157970000Y-242314800D03*
X170897000Y-239774800D03*
%TD*%
D14*
%TO.C,LED15*%
X181220000Y-256850000D03*
X181220000Y-258350000D03*
X186220000Y-258350000D03*
X186220000Y-256850000D03*
%TD*%
D10*
%TO.C,SW06_8*%
X281415000Y-206744800D03*
D11*
X282685000Y-204204800D03*
D12*
X286495000Y-206744800D03*
D11*
X289035000Y-201664800D03*
D10*
X291575000Y-206744800D03*
D13*
X279410000Y-204204800D03*
X292337000Y-201664800D03*
%TD*%
D10*
%TO.C,SW07_3*%
X374250000Y-225840000D03*
D11*
X375520000Y-223300000D03*
D12*
X379330000Y-225840000D03*
D11*
X381870000Y-220760000D03*
D10*
X384410000Y-225840000D03*
D13*
X372245000Y-223300000D03*
X385172000Y-220760000D03*
%TD*%
D10*
%TO.C,SW03_3*%
X176645000Y-225804800D03*
D11*
X177915000Y-223264800D03*
D12*
X181725000Y-225804800D03*
D11*
X184265000Y-220724800D03*
D10*
X186805000Y-225804800D03*
D13*
X174640000Y-223264800D03*
X187567000Y-220724800D03*
%TD*%
D10*
%TO.C,SW05_1*%
X448100000Y-182930000D03*
D11*
X449370000Y-180390000D03*
D12*
X453180000Y-182930000D03*
D11*
X455720000Y-177850000D03*
D10*
X458260000Y-182930000D03*
D13*
X446095000Y-180390000D03*
X459022000Y-177850000D03*
%TD*%
D14*
%TO.C,LED7*%
X256220000Y-174150000D03*
X256220000Y-175650000D03*
X261220000Y-175650000D03*
X261220000Y-174150000D03*
%TD*%
D10*
%TO.C,SW04_7*%
X250470000Y-244840000D03*
D11*
X251740000Y-242300000D03*
D12*
X255550000Y-244840000D03*
D11*
X258090000Y-239760000D03*
D10*
X260630000Y-244840000D03*
D13*
X248465000Y-242300000D03*
X261392000Y-239760000D03*
%TD*%
D10*
%TO.C,SW02_4*%
X186160000Y-206740000D03*
D11*
X187430000Y-204200000D03*
D12*
X191240000Y-206740000D03*
D11*
X193780000Y-201660000D03*
D10*
X196320000Y-206740000D03*
D13*
X184155000Y-204200000D03*
X197082000Y-201660000D03*
%TD*%
D18*
%TO.C,SW06_2*%
X381722000Y-199795050D03*
D12*
X381722000Y-215035050D03*
D10*
X388580000Y-206780050D03*
D11*
X389850000Y-204240050D03*
D12*
X393660000Y-206780050D03*
D11*
X396200000Y-201700050D03*
D10*
X398740000Y-206780050D03*
D18*
X405598000Y-199795050D03*
D12*
X405598000Y-215035050D03*
D13*
X386575000Y-204240050D03*
X399502000Y-201700050D03*
%TD*%
D10*
%TO.C,SW07_8*%
X271890000Y-225800000D03*
D11*
X273160000Y-223260000D03*
D12*
X276970000Y-225800000D03*
D11*
X279510000Y-220720000D03*
D10*
X282050000Y-225800000D03*
D13*
X269885000Y-223260000D03*
X282812000Y-220720000D03*
%TD*%
D10*
%TO.C,SW05_4*%
X352850000Y-187710000D03*
D11*
X354120000Y-185170000D03*
D12*
X357930000Y-187710000D03*
D11*
X360470000Y-182630000D03*
D10*
X363010000Y-187710000D03*
D13*
X350845000Y-185170000D03*
X363772000Y-182630000D03*
%TD*%
D14*
%TO.C,LED6*%
X281220000Y-174150000D03*
X281220000Y-175650000D03*
X286220000Y-175650000D03*
X286220000Y-174150000D03*
%TD*%
D10*
%TO.C,SW01_7*%
X238550000Y-187700000D03*
D11*
X239820000Y-185160000D03*
D12*
X243630000Y-187700000D03*
D11*
X246170000Y-182620000D03*
D10*
X248710000Y-187700000D03*
D13*
X236545000Y-185160000D03*
X249472000Y-182620000D03*
%TD*%
D14*
%TO.C,LED12*%
X131220000Y-174150000D03*
X131220000Y-175650000D03*
X136220000Y-175650000D03*
X136220000Y-174150000D03*
%TD*%
D10*
%TO.C,SW03_6*%
X233810000Y-225800000D03*
D11*
X235080000Y-223260000D03*
D12*
X238890000Y-225800000D03*
D11*
X241430000Y-220720000D03*
D10*
X243970000Y-225800000D03*
D13*
X231805000Y-223260000D03*
X244732000Y-220720000D03*
%TD*%
D14*
%TO.C,LED21*%
X331220000Y-256850000D03*
X331220000Y-258350000D03*
X336220000Y-258350000D03*
X336220000Y-256850000D03*
%TD*%
D10*
%TO.C,SW05_8*%
X276650000Y-187690000D03*
D11*
X277920000Y-185150000D03*
D12*
X281730000Y-187690000D03*
D11*
X284270000Y-182610000D03*
D10*
X286810000Y-187690000D03*
D13*
X274645000Y-185150000D03*
X287572000Y-182610000D03*
%TD*%
D14*
%TO.C,LED10*%
X181220000Y-174150000D03*
X181220000Y-175650000D03*
X186220000Y-175650000D03*
X186220000Y-174150000D03*
%TD*%
D10*
%TO.C,SW06_4*%
X357620000Y-206760000D03*
D11*
X358890000Y-204220000D03*
D12*
X362700000Y-206760000D03*
D11*
X365240000Y-201680000D03*
D10*
X367780000Y-206760000D03*
D13*
X355615000Y-204220000D03*
X368542000Y-201680000D03*
%TD*%
D10*
%TO.C,SW05_7*%
X295685000Y-187694800D03*
D11*
X296955000Y-185154800D03*
D12*
X300765000Y-187694800D03*
D11*
X303305000Y-182614800D03*
D10*
X305845000Y-187694800D03*
D13*
X293680000Y-185154800D03*
X306607000Y-182614800D03*
%TD*%
D14*
%TO.C,LED11*%
X156220000Y-174150000D03*
X156220000Y-175650000D03*
X161220000Y-175650000D03*
X161220000Y-174150000D03*
%TD*%
%TO.C,LED22*%
X356220000Y-256850000D03*
X356220000Y-258350000D03*
X361220000Y-258350000D03*
X361220000Y-256850000D03*
%TD*%
D10*
%TO.C,SW07_5*%
X329045000Y-225804800D03*
D11*
X330315000Y-223264800D03*
D12*
X334125000Y-225804800D03*
D11*
X336665000Y-220724800D03*
D10*
X339205000Y-225804800D03*
D13*
X327040000Y-223264800D03*
X339967000Y-220724800D03*
%TD*%
D14*
%TO.C,LED14*%
X156220000Y-256850000D03*
X156220000Y-258350000D03*
X161220000Y-258350000D03*
X161220000Y-256850000D03*
%TD*%
D10*
%TO.C,SW03_5*%
X214750000Y-225810000D03*
D11*
X216020000Y-223270000D03*
D12*
X219830000Y-225810000D03*
D11*
X222370000Y-220730000D03*
D10*
X224910000Y-225810000D03*
D13*
X212745000Y-223270000D03*
X225672000Y-220730000D03*
%TD*%
D10*
%TO.C,SW07_4*%
X348085000Y-225784800D03*
D11*
X349355000Y-223244800D03*
D12*
X353165000Y-225784800D03*
D11*
X355705000Y-220704800D03*
D10*
X358245000Y-225784800D03*
D13*
X346080000Y-223244800D03*
X359007000Y-220704800D03*
%TD*%
D14*
%TO.C,LED13*%
X131220000Y-256850000D03*
X131220000Y-258350000D03*
X136220000Y-258350000D03*
X136220000Y-256850000D03*
%TD*%
D10*
%TO.C,SW02_6*%
X224270000Y-206750000D03*
D11*
X225540000Y-204210000D03*
D12*
X229350000Y-206750000D03*
D11*
X231890000Y-201670000D03*
D10*
X234430000Y-206750000D03*
D13*
X222265000Y-204210000D03*
X235192000Y-201670000D03*
%TD*%
D10*
%TO.C,SW07_2*%
X405225000Y-230564800D03*
D11*
X406495000Y-228024800D03*
D12*
X410305000Y-230564800D03*
D11*
X412845000Y-225484800D03*
D10*
X415385000Y-230564800D03*
D13*
X403220000Y-228024800D03*
X416147000Y-225484800D03*
%TD*%
D14*
%TO.C,LED9*%
X206220000Y-174150000D03*
X206220000Y-175650000D03*
X211220000Y-175650000D03*
X211220000Y-174150000D03*
%TD*%
%TO.C,LED18*%
X256220000Y-256850000D03*
X256220000Y-258350000D03*
X261220000Y-258350000D03*
X261220000Y-256850000D03*
%TD*%
D10*
%TO.C,SW05_2*%
X395720000Y-187690000D03*
D11*
X396990000Y-185150000D03*
D12*
X400800000Y-187690000D03*
D11*
X403340000Y-182610000D03*
D10*
X405880000Y-187690000D03*
D13*
X393715000Y-185150000D03*
X406642000Y-182610000D03*
%TD*%
D10*
%TO.C,SW03_7*%
X252860000Y-225800000D03*
D11*
X254130000Y-223260000D03*
D12*
X257940000Y-225800000D03*
D11*
X260480000Y-220720000D03*
D10*
X263020000Y-225800000D03*
D13*
X250855000Y-223260000D03*
X263782000Y-220720000D03*
%TD*%
D10*
%TO.C,SW05_6*%
X314765000Y-187704800D03*
D11*
X316035000Y-185164800D03*
D12*
X319845000Y-187704800D03*
D11*
X322385000Y-182624800D03*
D10*
X324925000Y-187704800D03*
D13*
X312760000Y-185164800D03*
X325687000Y-182624800D03*
%TD*%
D10*
%TO.C,SW06_5*%
X338565000Y-206754800D03*
D11*
X339835000Y-204214800D03*
D12*
X343645000Y-206754800D03*
D11*
X346185000Y-201674800D03*
D10*
X348725000Y-206754800D03*
D13*
X336560000Y-204214800D03*
X349487000Y-201674800D03*
%TD*%
D10*
%TO.C,SW01_5*%
X200455000Y-187704800D03*
D11*
X201725000Y-185164800D03*
D12*
X205535000Y-187704800D03*
D11*
X208075000Y-182624800D03*
D10*
X210615000Y-187704800D03*
D13*
X198450000Y-185164800D03*
X211377000Y-182624800D03*
%TD*%
D10*
%TO.C,SW04_4*%
X183770000Y-244840000D03*
D11*
X185040000Y-242300000D03*
D12*
X188850000Y-244840000D03*
D11*
X191390000Y-239760000D03*
D10*
X193930000Y-244840000D03*
D13*
X181765000Y-242300000D03*
X194692000Y-239760000D03*
%TD*%
D19*
%TO.C,REF\u002A\u002A*%
X293850000Y-167216000D03*
X295120000Y-167216000D03*
X296390000Y-167216000D03*
X297660000Y-167216000D03*
X298930000Y-167216000D03*
%TD*%
D10*
%TO.C,SW08_4*%
X386185000Y-249594800D03*
D11*
X387455000Y-247054800D03*
D12*
X391265000Y-249594800D03*
D11*
X393805000Y-244514800D03*
D10*
X396345000Y-249594800D03*
D13*
X384180000Y-247054800D03*
X397107000Y-244514800D03*
%TD*%
D10*
%TO.C,SW05_5*%
X333795000Y-187704800D03*
D11*
X335065000Y-185164800D03*
D12*
X338875000Y-187704800D03*
D11*
X341415000Y-182624800D03*
D10*
X343955000Y-187704800D03*
D13*
X331790000Y-185164800D03*
X344717000Y-182624800D03*
%TD*%
D14*
%TO.C,LED19*%
X281220000Y-256850000D03*
X281220000Y-258350000D03*
X286220000Y-258350000D03*
X286220000Y-256850000D03*
%TD*%
D10*
%TO.C,SW02_5*%
X205220000Y-206750000D03*
D11*
X206490000Y-204210000D03*
D12*
X210300000Y-206750000D03*
D11*
X212840000Y-201670000D03*
D10*
X215380000Y-206750000D03*
D13*
X203215000Y-204210000D03*
X216142000Y-201670000D03*
%TD*%
D10*
%TO.C,SW01_4*%
X181400000Y-187710000D03*
D11*
X182670000Y-185170000D03*
D12*
X186480000Y-187710000D03*
D11*
X189020000Y-182630000D03*
D10*
X191560000Y-187710000D03*
D13*
X179395000Y-185170000D03*
X192322000Y-182630000D03*
%TD*%
D10*
%TO.C,SW02_7*%
X243315000Y-206744800D03*
D11*
X244585000Y-204204800D03*
D12*
X248395000Y-206744800D03*
D11*
X250935000Y-201664800D03*
D10*
X253475000Y-206744800D03*
D13*
X241310000Y-204204800D03*
X254237000Y-201664800D03*
%TD*%
D10*
%TO.C,SW06_6*%
X319520000Y-206760000D03*
D11*
X320790000Y-204220000D03*
D12*
X324600000Y-206760000D03*
D11*
X327140000Y-201680000D03*
D10*
X329680000Y-206760000D03*
D13*
X317515000Y-204220000D03*
X330442000Y-201680000D03*
%TD*%
D14*
%TO.C,LED5*%
X306220000Y-174150000D03*
X306220000Y-175650000D03*
X311220000Y-175650000D03*
X311220000Y-174150000D03*
%TD*%
%TO.C,LED20*%
X306220000Y-256850000D03*
X306220000Y-258350000D03*
X311220000Y-258350000D03*
X311220000Y-256850000D03*
%TD*%
D10*
%TO.C,SW01_6*%
X219510000Y-187710000D03*
D11*
X220780000Y-185170000D03*
D12*
X224590000Y-187710000D03*
D11*
X227130000Y-182630000D03*
D10*
X229670000Y-187710000D03*
D13*
X217505000Y-185170000D03*
X230432000Y-182630000D03*
%TD*%
D14*
%TO.C,LED1*%
X406220000Y-174180000D03*
X406220000Y-175680000D03*
X411220000Y-175680000D03*
X411220000Y-174180000D03*
%TD*%
D10*
%TO.C,SW08_6*%
X326675000Y-244874800D03*
D11*
X327945000Y-242334800D03*
D12*
X331755000Y-244874800D03*
D11*
X334295000Y-239794800D03*
D10*
X336835000Y-244874800D03*
D13*
X324670000Y-242334800D03*
X337597000Y-239794800D03*
%TD*%
D10*
%TO.C,SW08_2*%
X424305000Y-249604800D03*
D11*
X425575000Y-247064800D03*
D12*
X429385000Y-249604800D03*
D11*
X431925000Y-244524800D03*
D10*
X434465000Y-249604800D03*
D13*
X422300000Y-247064800D03*
X435227000Y-244524800D03*
%TD*%
D14*
%TO.C,LED2*%
X381220000Y-174150000D03*
X381220000Y-175650000D03*
X386220000Y-175650000D03*
X386220000Y-174150000D03*
%TD*%
D10*
%TO.C,SW05_3*%
X371925000Y-187694800D03*
D11*
X373195000Y-185154800D03*
D12*
X377005000Y-187694800D03*
D11*
X379545000Y-182614800D03*
D10*
X382085000Y-187694800D03*
D13*
X369920000Y-185154800D03*
X382847000Y-182614800D03*
%TD*%
D10*
%TO.C,SW02_8*%
X262360000Y-206740000D03*
D11*
X263630000Y-204200000D03*
D12*
X267440000Y-206740000D03*
D11*
X269980000Y-201660000D03*
D10*
X272520000Y-206740000D03*
D13*
X260355000Y-204200000D03*
X273282000Y-201660000D03*
%TD*%
D14*
%TO.C,LED3*%
X356220000Y-174150000D03*
X356220000Y-175650000D03*
X361220000Y-175650000D03*
X361220000Y-174150000D03*
%TD*%
D10*
%TO.C,SW06_7*%
X300460000Y-206750000D03*
D11*
X301730000Y-204210000D03*
D12*
X305540000Y-206750000D03*
D11*
X308080000Y-201670000D03*
D10*
X310620000Y-206750000D03*
D13*
X298455000Y-204210000D03*
X311382000Y-201670000D03*
%TD*%
D10*
%TO.C,SW02_2*%
X140920000Y-206740000D03*
D11*
X142190000Y-204200000D03*
D12*
X146000000Y-206740000D03*
D11*
X148540000Y-201660000D03*
D10*
X151080000Y-206740000D03*
D13*
X138915000Y-204200000D03*
X151842000Y-201660000D03*
%TD*%
D10*
%TO.C,SW02_3*%
X167130000Y-206770000D03*
D11*
X168400000Y-204230000D03*
D12*
X172210000Y-206770000D03*
D11*
X174750000Y-201690000D03*
D10*
X177290000Y-206770000D03*
D13*
X165125000Y-204230000D03*
X178052000Y-201690000D03*
%TD*%
D10*
%TO.C,SW01_2*%
X138550000Y-187690000D03*
D11*
X139820000Y-185150000D03*
D12*
X143630000Y-187690000D03*
D11*
X146170000Y-182610000D03*
D10*
X148710000Y-187690000D03*
D13*
X136545000Y-185150000D03*
X149472000Y-182610000D03*
%TD*%
D12*
%TO.C,SW04_5*%
X210242000Y-236605000D03*
D18*
X210242000Y-251845000D03*
D10*
X217100000Y-244860000D03*
D11*
X218370000Y-242320000D03*
D12*
X222180000Y-244860000D03*
D11*
X224720000Y-239780000D03*
D10*
X227260000Y-244860000D03*
D12*
X234118000Y-236605000D03*
D18*
X234118000Y-251845000D03*
D13*
X215095000Y-242320000D03*
X228022000Y-239780000D03*
%TD*%
D10*
%TO.C,SW03_4*%
X195695000Y-225814800D03*
D11*
X196965000Y-223274800D03*
D12*
X200775000Y-225814800D03*
D11*
X203315000Y-220734800D03*
D10*
X205855000Y-225814800D03*
D13*
X193690000Y-223274800D03*
X206617000Y-220734800D03*
%TD*%
D14*
%TO.C,LED16*%
X206220000Y-256850000D03*
X206220000Y-258350000D03*
X211220000Y-258350000D03*
X211220000Y-256850000D03*
%TD*%
D10*
%TO.C,SW07_6*%
X310000000Y-225810000D03*
D11*
X311270000Y-223270000D03*
D12*
X315080000Y-225810000D03*
D11*
X317620000Y-220730000D03*
D10*
X320160000Y-225810000D03*
D13*
X307995000Y-223270000D03*
X320922000Y-220730000D03*
%TD*%
D14*
%TO.C,LED17*%
X231220000Y-256850000D03*
X231220000Y-258350000D03*
X236220000Y-258350000D03*
X236220000Y-256850000D03*
%TD*%
D18*
%TO.C,SW03_2*%
X138812000Y-218825050D03*
D12*
X138812000Y-234065050D03*
D10*
X145670000Y-225810050D03*
D11*
X146940000Y-223270050D03*
D12*
X150750000Y-225810050D03*
D11*
X153290000Y-220730050D03*
D10*
X155830000Y-225810050D03*
D18*
X162688000Y-218825050D03*
D12*
X162688000Y-234065050D03*
D13*
X143665000Y-223270050D03*
X156592000Y-220730050D03*
%TD*%
D10*
%TO.C,SW01_8*%
X257610000Y-187700000D03*
D11*
X258880000Y-185160000D03*
D12*
X262690000Y-187700000D03*
D11*
X265230000Y-182620000D03*
D10*
X267770000Y-187700000D03*
D13*
X255605000Y-185160000D03*
X268532000Y-182620000D03*
%TD*%
D19*
%TO.C,REF\u002A\u002A*%
X293830000Y-171134850D03*
X295100000Y-171134850D03*
X296370000Y-171134850D03*
X297640000Y-171134850D03*
X298910000Y-171134850D03*
%TD*%
D10*
%TO.C,SW06_1*%
X429055000Y-182934800D03*
D11*
X430325000Y-180394800D03*
D12*
X434135000Y-182934800D03*
D11*
X436675000Y-177854800D03*
D10*
X439215000Y-182934800D03*
D13*
X427050000Y-180394800D03*
X439977000Y-177854800D03*
%TD*%
D14*
%TO.C,LED8*%
X231220000Y-174150000D03*
X231220000Y-175650000D03*
X236220000Y-175650000D03*
X236220000Y-174150000D03*
%TD*%
D20*
%TO.C,C19*%
X435785000Y-221260000D03*
X432835000Y-221260000D03*
%TD*%
D21*
%TO.C,D05_1*%
X459020000Y-189250000D03*
X459020000Y-185950000D03*
%TD*%
%TO.C,D07_6*%
X320920000Y-232120000D03*
X320920000Y-228820000D03*
%TD*%
D22*
%TO.C,R1*%
X281730000Y-243967500D03*
X281730000Y-246892500D03*
%TD*%
D21*
%TO.C,D07_3*%
X385210000Y-232120000D03*
X385210000Y-228820000D03*
%TD*%
%TO.C,D08_3*%
X416170000Y-255930000D03*
X416170000Y-252630000D03*
%TD*%
%TO.C,D02_4*%
X197090000Y-213060000D03*
X197090000Y-209760000D03*
%TD*%
%TO.C,D06_5*%
X349490000Y-213060000D03*
X349490000Y-209760000D03*
%TD*%
%TO.C,D02_3*%
X178040000Y-213060000D03*
X178040000Y-209760000D03*
%TD*%
%TO.C,D01_6*%
X230430000Y-194010000D03*
X230430000Y-190710000D03*
%TD*%
D23*
%TO.C,DR3*%
X306325303Y-160123585D03*
X306325303Y-157198585D03*
%TD*%
D21*
%TO.C,D04_5*%
X228050000Y-251160000D03*
X228050000Y-247860000D03*
%TD*%
%TO.C,D02_7*%
X254230000Y-213060000D03*
X254230000Y-209760000D03*
%TD*%
%TO.C,D08_5*%
X361390000Y-251160000D03*
X361390000Y-247860000D03*
%TD*%
%TO.C,D05_3*%
X382830000Y-194010000D03*
X382830000Y-190710000D03*
%TD*%
D24*
%TO.C,R3*%
X271882500Y-252810000D03*
X268957500Y-252810000D03*
%TD*%
D21*
%TO.C,D01_2*%
X149460000Y-194010000D03*
X149460000Y-190710000D03*
%TD*%
%TO.C,D07_4*%
X359020000Y-232110000D03*
X359020000Y-228810000D03*
%TD*%
D20*
%TO.C,C18*%
X430855000Y-221270000D03*
X427905000Y-221270000D03*
%TD*%
D21*
%TO.C,D07_2*%
X416170000Y-236870000D03*
X416170000Y-233570000D03*
%TD*%
%TO.C,D03_5*%
X225670000Y-232110000D03*
X225670000Y-228810000D03*
%TD*%
%TO.C,D02_2*%
X151850000Y-213060000D03*
X151850000Y-209760000D03*
%TD*%
D25*
%TO.C,C7*%
X246630000Y-245850000D03*
X246630000Y-248800000D03*
%TD*%
D21*
%TO.C,D04_4*%
X194710000Y-251160000D03*
X194710000Y-247860000D03*
%TD*%
D26*
%TO.C,U4*%
X438320000Y-221640000D03*
X438320000Y-219860000D03*
X438320000Y-218080000D03*
X438320000Y-216300000D03*
X438320000Y-214520000D03*
X438320000Y-212740000D03*
X438320000Y-210960000D03*
X438320000Y-209180000D03*
X449020000Y-208290000D03*
X449020000Y-210070000D03*
X449020000Y-211850000D03*
X449020000Y-213630000D03*
X449020000Y-215410000D03*
X449020000Y-217190000D03*
X449020000Y-218970000D03*
X449020000Y-220750000D03*
%TD*%
D23*
%TO.C,DR2*%
X306325303Y-155453585D03*
X306325303Y-152528585D03*
%TD*%
D24*
%TO.C,R7*%
X430892500Y-211410000D03*
X427967500Y-211410000D03*
%TD*%
D25*
%TO.C,C20*%
X442400000Y-231425000D03*
X442400000Y-234375000D03*
%TD*%
%TO.C,C11*%
X439900000Y-231415000D03*
X439900000Y-234365000D03*
%TD*%
D21*
%TO.C,D07_8*%
X282820000Y-232110000D03*
X282820000Y-228810000D03*
%TD*%
D20*
%TO.C,C10*%
X445205000Y-229290000D03*
X442255000Y-229290000D03*
%TD*%
D21*
%TO.C,D03_2*%
X156600000Y-232110000D03*
X156600000Y-228810000D03*
%TD*%
%TO.C,D08_2*%
X435220000Y-255930000D03*
X435220000Y-252630000D03*
%TD*%
D24*
%TO.C,R6*%
X440192500Y-226850000D03*
X437267500Y-226850000D03*
%TD*%
D23*
%TO.C,R10*%
X451230000Y-223872500D03*
X451230000Y-220947500D03*
%TD*%
D24*
%TO.C,R5*%
X445162500Y-226860000D03*
X442237500Y-226860000D03*
%TD*%
D21*
%TO.C,D01_8*%
X268520000Y-194010000D03*
X268520000Y-190710000D03*
%TD*%
%TO.C,D05_4*%
X363780000Y-194010000D03*
X363780000Y-190710000D03*
%TD*%
D20*
%TO.C,C21*%
X430875000Y-218760000D03*
X427925000Y-218760000D03*
%TD*%
D27*
%TO.C,U1*%
X273527500Y-236950000D03*
X273527500Y-237450000D03*
X273527500Y-237950000D03*
X273527500Y-238450000D03*
X273527500Y-238950000D03*
X273527500Y-239450000D03*
X273527500Y-239950000D03*
X273527500Y-240450000D03*
X273527500Y-240950000D03*
X273527500Y-241450000D03*
X273527500Y-241950000D03*
D28*
X272690000Y-242787500D03*
X272190000Y-242787500D03*
X271690000Y-242787500D03*
X271190000Y-242787500D03*
X270690000Y-242787500D03*
X270190000Y-242787500D03*
X269690000Y-242787500D03*
X269190000Y-242787500D03*
X268690000Y-242787500D03*
X268190000Y-242787500D03*
X267690000Y-242787500D03*
D27*
X266852500Y-241950000D03*
X266852500Y-241450000D03*
X266852500Y-240950000D03*
X266852500Y-240450000D03*
X266852500Y-239950000D03*
X266852500Y-239450000D03*
X266852500Y-238950000D03*
X266852500Y-238450000D03*
X266852500Y-237950000D03*
X266852500Y-237450000D03*
X266852500Y-236950000D03*
D28*
X267690000Y-236112500D03*
X268190000Y-236112500D03*
X268690000Y-236112500D03*
X269190000Y-236112500D03*
X269690000Y-236112500D03*
X270190000Y-236112500D03*
X270690000Y-236112500D03*
X271190000Y-236112500D03*
X271690000Y-236112500D03*
X272190000Y-236112500D03*
X272690000Y-236112500D03*
D29*
X270190000Y-239450000D03*
%TD*%
D30*
%TO.C,C13*%
X239480000Y-253540000D03*
X239480000Y-250590000D03*
%TD*%
D21*
%TO.C,D02_8*%
X273290000Y-213050000D03*
X273290000Y-209750000D03*
%TD*%
%TO.C,D01_7*%
X249480000Y-194010000D03*
X249480000Y-190710000D03*
%TD*%
D20*
%TO.C,C16*%
X435775000Y-218830000D03*
X432825000Y-218830000D03*
%TD*%
%TO.C,C14*%
X430875000Y-213830000D03*
X427925000Y-213830000D03*
%TD*%
D30*
%TO.C,C12*%
X241850000Y-253540000D03*
X241850000Y-250590000D03*
%TD*%
D20*
%TO.C,C2*%
X277920000Y-249190000D03*
X274970000Y-249190000D03*
%TD*%
D31*
%TO.C,U5*%
X428490000Y-206082500D03*
X429440000Y-206082500D03*
X430390000Y-206082500D03*
X430390000Y-208357500D03*
X428490000Y-208357500D03*
%TD*%
D21*
%TO.C,D06_2*%
X399500000Y-213070000D03*
X399500000Y-209770000D03*
%TD*%
D30*
%TO.C,C9*%
X244220000Y-253540000D03*
X244220000Y-250590000D03*
%TD*%
D21*
%TO.C,D08_7*%
X301800000Y-250240000D03*
X301800000Y-246940000D03*
%TD*%
%TO.C,D05_6*%
X325680000Y-194010000D03*
X325680000Y-190710000D03*
%TD*%
D22*
%TO.C,R2*%
X279400000Y-243947500D03*
X279400000Y-246872500D03*
%TD*%
D21*
%TO.C,D05_7*%
X306620000Y-194010000D03*
X306620000Y-190710000D03*
%TD*%
D32*
%TO.C,DU1*%
X303580053Y-159898585D03*
X303580053Y-159398585D03*
D33*
X303580053Y-158898585D03*
D32*
X303580053Y-158398585D03*
X303580053Y-157898585D03*
X304410053Y-157898585D03*
X304410053Y-158398585D03*
D33*
X304410053Y-158898585D03*
D32*
X304410053Y-159398585D03*
X304410053Y-159898585D03*
%TD*%
D22*
%TO.C,R4*%
X287770000Y-248067500D03*
X287770000Y-250992500D03*
%TD*%
D21*
%TO.C,D04_3*%
X170890000Y-251160000D03*
X170890000Y-247860000D03*
%TD*%
D34*
%TO.C,Y1*%
X271208000Y-246967000D03*
X271208000Y-249167000D03*
X269458000Y-249167000D03*
X269458000Y-246967000D03*
%TD*%
D21*
%TO.C,D07_7*%
X301870000Y-232100000D03*
X301870000Y-228800000D03*
%TD*%
D35*
%TO.C,J1*%
X293120000Y-258685000D03*
X294120000Y-258685000D03*
X295120000Y-258685000D03*
X296120000Y-258685000D03*
D36*
X298770000Y-256445000D03*
X290470000Y-256445000D03*
%TD*%
D21*
%TO.C,D06_1*%
X439980000Y-189240000D03*
X439980000Y-185940000D03*
%TD*%
D37*
%TO.C,DJ1*%
X293730053Y-155663585D03*
X299510053Y-155663585D03*
D38*
X293370053Y-157108585D03*
X294170053Y-157108585D03*
D39*
X295370053Y-157108585D03*
X296370053Y-157108585D03*
X296870053Y-157108585D03*
X297870053Y-157108585D03*
D38*
X299070053Y-157108585D03*
X299870053Y-157108585D03*
X299870053Y-157108585D03*
X299070053Y-157108585D03*
D39*
X298370053Y-157108585D03*
X297370053Y-157108585D03*
X295870053Y-157108585D03*
X294870053Y-157108585D03*
D38*
X294170053Y-157108585D03*
X293370053Y-157108585D03*
D40*
X292300053Y-152013585D03*
D41*
X292300053Y-156193585D03*
D40*
X300940053Y-152013585D03*
D41*
X300940053Y-156193585D03*
%TD*%
D21*
%TO.C,D03_7*%
X263770000Y-232110000D03*
X263770000Y-228810000D03*
%TD*%
%TO.C,D01_3*%
X173280000Y-194010000D03*
X173280000Y-190710000D03*
%TD*%
%TO.C,D07_5*%
X339960000Y-232120000D03*
X339960000Y-228820000D03*
%TD*%
%TO.C,D08_1*%
X459030000Y-255920000D03*
X459030000Y-252620000D03*
%TD*%
D25*
%TO.C,C6*%
X244220000Y-245850000D03*
X244220000Y-248800000D03*
%TD*%
D42*
%TO.C,RESET_SW1*%
X311410000Y-250105000D03*
X317410000Y-250105000D03*
X311410000Y-246355000D03*
X317410000Y-246355000D03*
%TD*%
D21*
%TO.C,D03_6*%
X244710000Y-232110000D03*
X244710000Y-228810000D03*
%TD*%
%TO.C,D02_5*%
X216140000Y-213060000D03*
X216140000Y-209760000D03*
%TD*%
%TO.C,D04_2*%
X147080000Y-251160000D03*
X147080000Y-247860000D03*
%TD*%
%TO.C,D03_4*%
X206610000Y-232110000D03*
X206610000Y-228810000D03*
%TD*%
D43*
%TO.C,R8*%
X432987500Y-208660000D03*
X435912500Y-208660000D03*
%TD*%
D20*
%TO.C,C15*%
X430875000Y-216330000D03*
X427925000Y-216330000D03*
%TD*%
D25*
%TO.C,C17*%
X444880000Y-231425000D03*
X444880000Y-234375000D03*
%TD*%
D21*
%TO.C,D08_6*%
X337580000Y-251180000D03*
X337580000Y-247880000D03*
%TD*%
%TO.C,D05_5*%
X344730000Y-194010000D03*
X344730000Y-190710000D03*
%TD*%
%TO.C,D06_7*%
X311390000Y-213060000D03*
X311390000Y-209760000D03*
%TD*%
%TO.C,D02_6*%
X235190000Y-213060000D03*
X235190000Y-209760000D03*
%TD*%
%TO.C,D05_8*%
X287580000Y-194010000D03*
X287580000Y-190710000D03*
%TD*%
D30*
%TO.C,C8*%
X246630000Y-253540000D03*
X246630000Y-250590000D03*
%TD*%
D21*
%TO.C,D06_6*%
X330440000Y-213060000D03*
X330440000Y-209760000D03*
%TD*%
%TO.C,D06_8*%
X292340000Y-213060000D03*
X292340000Y-209760000D03*
%TD*%
%TO.C,D01_4*%
X192320000Y-194010000D03*
X192320000Y-190710000D03*
%TD*%
D25*
%TO.C,C1*%
X266300000Y-246945000D03*
X266300000Y-249895000D03*
%TD*%
D21*
%TO.C,D01_5*%
X211380000Y-194010000D03*
X211380000Y-190710000D03*
%TD*%
%TO.C,D03_3*%
X187560000Y-232110000D03*
X187560000Y-228810000D03*
%TD*%
D23*
%TO.C,DR1*%
X289700053Y-160223585D03*
X289700053Y-157298585D03*
%TD*%
D44*
%TO.C,DESDD1*%
X304055303Y-153958585D03*
X304055303Y-155358585D03*
%TD*%
D21*
%TO.C,D08_4*%
X397110000Y-255920000D03*
X397110000Y-252620000D03*
%TD*%
D35*
%TO.C,DJ2*%
X298230053Y-160393585D03*
X297230053Y-160393585D03*
X296230053Y-160393585D03*
X295230053Y-160393585D03*
D36*
X292580053Y-162633585D03*
X300880053Y-162633585D03*
%TD*%
D30*
%TO.C,DC1*%
X286630053Y-160198585D03*
X286630053Y-157248585D03*
%TD*%
D45*
%TO.C,DF1*%
X289700053Y-152598585D03*
X289700053Y-155398585D03*
%TD*%
D25*
%TO.C,C5*%
X241850000Y-245850000D03*
X241850000Y-248800000D03*
%TD*%
D20*
%TO.C,C3*%
X277955000Y-251710000D03*
X275005000Y-251710000D03*
%TD*%
D22*
%TO.C,R9*%
X434900000Y-211337500D03*
X434900000Y-214262500D03*
%TD*%
D25*
%TO.C,C4*%
X239475000Y-245870000D03*
X239475000Y-248820000D03*
%TD*%
D46*
%TO.C,U3*%
X430790000Y-226550000D03*
X430790000Y-225600000D03*
X430790000Y-224650000D03*
X433065000Y-224650000D03*
X433065000Y-226550000D03*
%TD*%
D21*
%TO.C,D04_7*%
X261380000Y-251160000D03*
X261380000Y-247860000D03*
%TD*%
%TO.C,D05_2*%
X406640000Y-194000000D03*
X406640000Y-190700000D03*
%TD*%
%TO.C,D06_4*%
X368550000Y-213060000D03*
X368550000Y-209760000D03*
%TD*%
M02*
