M48
; DRILL file {KiCad 8.0.2} date 2025-04-04T00:03:36+0900
; FORMAT={-:-/ absolute / inch / decimal}
; #@! TF.CreationDate,2025-04-04T00:03:36+09:00
; #@! TF.GenerationSoftware,Kicad,Pcbnew,8.0.2
; #@! TF.FileFunction,NonPlated,1,2,NPTH
FMAT,2
INCH
; #@! TA.AperFunction,NonPlated,NPTH,ComponentDrill
T1C0.0256
; #@! TA.AperFunction,NonPlated,NPTH,ComponentDrill
T2C0.0310
; #@! TA.AperFunction,NonPlated,NPTH,ComponentDrill
T3C0.0689
; #@! TA.AperFunction,NonPlated,NPTH,ComponentDrill
T4C0.1181
; #@! TA.AperFunction,NonPlated,NPTH,ComponentDrill
T5C0.1200
; #@! TA.AperFunction,NonPlated,NPTH,ComponentDrill
T6C0.1570
%
G90
G05
T1
X11.5642Y-6.1285
X11.7917Y-6.1285
T2
X11.5681Y-6.7376
X11.5689Y-6.5833
X11.6181Y-6.7376
X11.6189Y-6.5833
X11.6681Y-6.7376
X11.6689Y-6.5833
X11.7181Y-6.7376
X11.7189Y-6.5833
X11.7681Y-6.7376
X11.7689Y-6.5833
T3
X5.36Y-9.6402
X5.4547Y-7.3894
X5.548Y-8.1394
X5.735Y-8.8902
X5.76Y-9.6402
X5.8547Y-7.3894
X5.948Y-8.1394
X6.135Y-8.8902
X6.2982Y-9.64
X6.3921Y-7.3894
X6.5799Y-8.1406
X6.6982Y-9.64
X6.7921Y-7.3894
X6.9545Y-8.89
X6.9799Y-8.1406
X7.1417Y-7.3902
X7.235Y-9.6394
X7.3291Y-8.1394
X7.3545Y-8.89
X7.5417Y-7.3902
X7.635Y-9.6394
X7.7045Y-8.8903
X7.7291Y-8.1394
X7.8919Y-7.39
X8.0795Y-8.1398
X8.1045Y-8.8903
X8.2919Y-7.39
X8.4547Y-8.8902
X8.4795Y-8.1398
X8.5472Y-9.6402
X8.6421Y-7.3902
X8.8295Y-8.1398
X8.8547Y-8.8902
X8.9472Y-9.6402
X9.0421Y-7.3902
X9.2051Y-8.8898
X9.2295Y-8.1398
X9.3917Y-7.3898
X9.5793Y-8.1396
X9.6051Y-8.8898
X9.7917Y-7.3898
X9.861Y-9.6394
X9.9551Y-8.8898
X9.9793Y-8.1396
X10.1421Y-7.3898
X10.261Y-9.6394
X10.3291Y-8.1394
X10.3551Y-8.8898
X10.5421Y-7.3898
X10.7043Y-8.8898
X10.7291Y-8.1394
X10.8917Y-7.3894
X11.0793Y-8.1396
X11.1043Y-8.8898
X11.2917Y-7.3894
X11.361Y-9.6394
X11.4535Y-8.8902
X11.4793Y-8.1396
X11.6411Y-7.3896
X11.761Y-9.6394
X11.8291Y-8.1398
X11.8535Y-8.8902
X12.0411Y-7.3896
X12.2047Y-8.8902
X12.2291Y-8.1398
X12.3923Y-7.39
X12.5795Y-8.1402
X12.6047Y-8.8902
X12.7923Y-7.39
X12.8612Y-9.6407
X12.9545Y-8.89
X12.9795Y-8.1402
X13.1415Y-7.39
X13.2612Y-9.6407
X13.3293Y-8.14
X13.3545Y-8.89
X13.5415Y-7.39
X13.7041Y-8.8892
X13.7293Y-8.14
X13.7988Y-9.6398
X13.8917Y-7.3902
X14.0795Y-8.1402
X14.1041Y-8.8892
X14.1988Y-9.6398
X14.2917Y-7.3902
X14.4795Y-8.1402
X14.6427Y-7.3896
X14.7343Y-8.8913
X15.0427Y-7.3896
X15.1343Y-8.8913
X15.2041Y-9.8266
X15.2984Y-8.1409
X15.5795Y-7.3894
X15.6041Y-9.8266
X15.6984Y-8.1409
X15.9537Y-9.0774
X15.9545Y-9.827
X15.9795Y-7.3894
X16.3537Y-9.0774
X16.3545Y-9.827
X16.7049Y-9.827
X16.8919Y-7.2022
X17.1049Y-9.827
X17.2919Y-7.2022
X17.6417Y-7.202
X18.0417Y-7.202
T4
X5.41Y-9.5402
X5.5047Y-7.2894
X5.598Y-8.0394
X5.66Y-9.4402
X5.7547Y-7.1894
X5.785Y-8.7902
X5.848Y-7.9394
X6.035Y-8.6902
X6.3482Y-9.54
X6.4421Y-7.2894
X6.5982Y-9.44
X6.6299Y-8.0406
X6.6921Y-7.1894
X6.8799Y-7.9406
X7.0045Y-8.79
X7.1917Y-7.2902
X7.2545Y-8.69
X7.285Y-9.5394
X7.3791Y-8.0394
X7.4417Y-7.1902
X7.535Y-9.4394
X7.6291Y-7.9394
X7.7545Y-8.7903
X7.9419Y-7.29
X8.0045Y-8.6903
X8.1295Y-8.0398
X8.1919Y-7.19
X8.3795Y-7.9398
X8.5047Y-8.7902
X8.5972Y-9.5402
X8.6921Y-7.2902
X8.7547Y-8.6902
X8.8472Y-9.4402
X8.8795Y-8.0398
X8.9421Y-7.1902
X9.1295Y-7.9398
X9.2551Y-8.7898
X9.4417Y-7.2898
X9.5051Y-8.6898
X9.6293Y-8.0396
X9.6917Y-7.1898
X9.8793Y-7.9396
X9.911Y-9.5394
X10.0051Y-8.7898
X10.161Y-9.4394
X10.1921Y-7.2898
X10.2551Y-8.6898
X10.3791Y-8.0394
X10.4421Y-7.1898
X10.6291Y-7.9394
X10.7543Y-8.7898
X10.9417Y-7.2894
X11.0043Y-8.6898
X11.1293Y-8.0396
X11.1917Y-7.1894
X11.3793Y-7.9396
X11.411Y-9.5394
X11.5035Y-8.7902
X11.661Y-9.4394
X11.6911Y-7.2896
X11.7535Y-8.6902
X11.8791Y-8.0398
X11.9411Y-7.1896
X12.1291Y-7.9398
X12.2547Y-8.7902
X12.4423Y-7.29
X12.5047Y-8.6902
X12.6295Y-8.0402
X12.6923Y-7.19
X12.8795Y-7.9402
X12.9112Y-9.5407
X13.0045Y-8.79
X13.1612Y-9.4407
X13.1915Y-7.29
X13.2545Y-8.69
X13.3793Y-8.04
X13.4415Y-7.19
X13.6293Y-7.94
X13.7541Y-8.7892
X13.8488Y-9.5398
X13.9417Y-7.2902
X14.0041Y-8.6892
X14.0988Y-9.4398
X14.1295Y-8.0402
X14.1917Y-7.1902
X14.3795Y-7.9402
X14.6927Y-7.2896
X14.7843Y-8.7913
X14.9427Y-7.1896
X15.0343Y-8.6913
X15.2541Y-9.7266
X15.3484Y-8.0409
X15.5041Y-9.6266
X15.5984Y-7.9409
X15.6295Y-7.2894
X15.8795Y-7.1894
X16.0037Y-8.9774
X16.0045Y-9.727
X16.2537Y-8.8774
X16.2545Y-9.627
X16.7549Y-9.727
X16.9419Y-7.1022
X17.0049Y-9.627
X17.1919Y-7.0022
X17.6917Y-7.102
X17.9417Y-7.002
T5
X5.465Y-8.6152
X6.405Y-8.6152
X8.2772Y-9.9152
X9.2172Y-9.9152
X11.091Y-9.9144
X12.031Y-9.9144
X15.0284Y-7.8659
X15.9684Y-7.8659
T6
X5.465Y-9.2152
X5.56Y-9.6402
X5.6547Y-7.3894
X5.748Y-8.1394
X5.935Y-8.8902
X6.405Y-9.2152
X6.4982Y-9.64
X6.5921Y-7.3894
X6.7799Y-8.1406
X7.1545Y-8.89
X7.3417Y-7.3902
X7.435Y-9.6394
X7.5291Y-8.1394
X7.9045Y-8.8903
X8.0919Y-7.39
X8.2772Y-9.3152
X8.2795Y-8.1398
X8.6547Y-8.8902
X8.7472Y-9.6402
X8.8421Y-7.3902
X9.0295Y-8.1398
X9.2172Y-9.3152
X9.4051Y-8.8898
X9.5917Y-7.3898
X9.7793Y-8.1396
X10.061Y-9.6394
X10.1551Y-8.8898
X10.3421Y-7.3898
X10.5291Y-8.1394
X10.9043Y-8.8898
X11.091Y-9.3144
X11.0917Y-7.3894
X11.2793Y-8.1396
X11.561Y-9.6394
X11.6535Y-8.8902
X11.8411Y-7.3896
X12.0291Y-8.1398
X12.031Y-9.3144
X12.4047Y-8.8902
X12.5923Y-7.39
X12.7795Y-8.1402
X13.0612Y-9.6407
X13.1545Y-8.89
X13.3415Y-7.39
X13.5293Y-8.14
X13.9041Y-8.8892
X13.9988Y-9.6398
X14.0917Y-7.3902
X14.2795Y-8.1402
X14.8427Y-7.3896
X14.9343Y-8.8913
X15.0284Y-8.4659
X15.4041Y-9.8266
X15.4984Y-8.1409
X15.7795Y-7.3894
X15.9684Y-8.4659
X16.1537Y-9.0774
X16.1545Y-9.827
X16.9049Y-9.827
X17.0919Y-7.2022
X17.8417Y-7.202
M30
