M48
; DRILL file {KiCad 8.0.2} date 2025-04-04T21:26:59+0900
; FORMAT={-:-/ absolute / inch / decimal}
; #@! TF.CreationDate,2025-04-04T21:26:59+09:00
; #@! TF.GenerationSoftware,Kicad,Pcbnew,8.0.2
; #@! TF.FileFunction,Plated,1,2,PTH
FMAT,2
INCH
; #@! TA.AperFunction,Plated,PTH,ViaDrill
T1C0.0118
; #@! TA.AperFunction,Plated,PTH,ComponentDrill
T2C0.0236
; #@! TA.AperFunction,Plated,PTH,ComponentDrill
T3C0.0276
; #@! TA.AperFunction,Plated,PTH,ComponentDrill
T4C0.0394
; #@! TA.AperFunction,Plated,PTH,ComponentDrill
T5C0.0787
%
G90
G05
T1
X5.2811Y-9.9004
X5.3169Y-10.0181
X5.3854Y-10.2295
X5.3953Y-10.0717
X6.1169Y-9.4917
X6.1445Y-10.2067
X6.2992Y-7.3646
X6.2992Y-7.8075
X6.4091Y-10.1114
X6.7476Y-8.715
X7.0587Y-9.5016
X7.063Y-7.3618
X7.1146Y-10.2063
X7.1583Y-7.948
X7.3453Y-10.0787
X7.5449Y-8.7094
X7.8138Y-7.3713
X7.8984Y-7.9732
X8.113Y-10.202
X8.2988Y-8.7161
X8.3236Y-10.0724
X8.3933Y-9.4811
X8.5516Y-7.363
X8.6346Y-8.2693
X8.7988Y-7.6382
X9.0346Y-8.7949
X9.0906Y-10.2067
X9.3126Y-10.0728
X9.3138Y-7.3705
X9.3906Y-7.9024
X9.7846Y-8.7051
X9.7854Y-9.361
X9.8913Y-8.3882
X10.0646Y-7.3862
X10.0736Y-10.2067
X10.1567Y-8.2079
X10.2472Y-9.7579
X10.2693Y-9.1382
X10.2898Y-10.072
X10.2925Y-9.8524
X10.3949Y-9.3882
X10.3949Y-9.4197
X10.399Y-9.357
X10.4013Y-9.4542
X10.4106Y-9.5323
X10.4106Y-9.7783
X10.4226Y-9.4774
X10.4303Y-9.3524
X10.4579Y-9.491
X10.4579Y-9.7783
X10.4587Y-9.3287
X10.4652Y-9.5216
X10.5079Y-9.611
X10.5079Y-9.6526
X10.5102Y-9.2815
X10.5202Y-9.6816
X10.5445Y-8.7098
X10.6083Y-8.8587
X10.6138Y-9.6311
X10.6961Y-9.2508
X10.7083Y-9.6201
X10.7208Y-9.6995
X10.7208Y-9.7467
X10.737Y-9.2256
X10.7465Y-9.6584
X10.7496Y-9.1669
X10.7949Y-9.2508
X10.8087Y-9.5349
X10.8283Y-9.5103
X10.8321Y-9.629
X10.8448Y-7.7236
X10.8535Y-9.6797
X10.8578Y-9.55
X10.8579Y-9.6024
X10.8642Y-9.1925
X10.8656Y-9.4565
X10.8669Y-9.3165
X10.8736Y-9.7039
X10.897Y-9.7993
X10.8972Y-9.7327
X10.9208Y-9.6799
X10.9284Y-9.728
X10.9414Y-9.656
X10.9999Y-9.5466
X11.0Y-9.4799
X11.0235Y-9.502
X11.0496Y-10.2051
X11.2705Y-9.4315
X11.2709Y-8.922
X11.2823Y-10.0736
X11.3276Y-10.1382
X11.4776Y-10.1945
X11.5157Y-9.8626
X11.5157Y-9.9346
X11.5161Y-9.9012
X11.5165Y-9.8299
X11.526Y-6.2343
X11.5402Y-10.0374
X11.5429Y-6.3383
X11.5634Y-7.3795
X11.5638Y-9.9012
X11.5638Y-9.9346
X11.6209Y-9.9248
X11.6406Y-7.9142
X11.6563Y-9.9248
X11.6819Y-10.0126
X11.7153Y-6.3677
X11.7232Y-6.1354
X11.7431Y-6.085
X11.791Y-6.0377
X11.9091Y-6.2173
X11.9398Y-6.1189
X11.9449Y-6.173
X11.9484Y-6.3205
X12.0181Y-8.7335
X12.0484Y-10.2213
X12.2673Y-10.0752
X12.3138Y-7.361
X12.4189Y-7.9594
X12.4646Y-10.1724
X12.5717Y-10.052
X12.5933Y-9.9102
X12.6126Y-9.8134
X12.6732Y-9.4524
X12.902Y-8.6094
X13.0268Y-10.2067
X13.0598Y-7.365
X13.152Y-7.9421
X13.2579Y-10.0756
X13.522Y-8.7488
X13.7134Y-9.4634
X13.8126Y-7.3823
X13.9126Y-8.0169
X14.2268Y-10.0722
X14.315Y-9.9118
X14.3563Y-9.8283
X14.3626Y-9.8646
X14.4323Y-9.8283
X14.5705Y-7.4
X14.6575Y-8.6165
X14.9281Y-9.4014
X14.976Y-9.4492
X15.0071Y-9.6555
X15.176Y-9.1866
X15.2193Y-7.937
X15.222Y-8.35
X15.2283Y-9.1634
X15.2528Y-8.6335
X15.4661Y-7.4118
X15.874Y-9.622
X16.2342Y-7.9161
X16.2343Y-7.5461
X16.2618Y-7.6126
X16.3193Y-7.613
X16.4795Y-7.8374
X16.5862Y-7.8315
X16.5913Y-9.4638
X16.5929Y-9.4256
X16.6024Y-9.3955
X16.6496Y-9.4638
X16.65Y-9.3957
X16.7272Y-7.1028
X16.848Y-8.2591
X16.914Y-8.8997
X16.9218Y-8.2592
X17.2398Y-9.1941
X17.2827Y-9.1563
X17.3217Y-7.6122
X17.3217Y-7.6614
X17.3626Y-9.3957
X17.4338Y-9.3957
X17.5854Y-9.0228
X17.6654Y-9.9862
X17.7004Y-9.8996
X17.7134Y-9.9823
X17.7283Y-8.1728
X17.7437Y-10.0472
X17.8417Y-10.0417
X18.0831Y-8.3425
X18.1224Y-8.4821
T3
X17.2567Y-8.2354
X17.2567Y-8.3055
X17.2567Y-8.3756
X17.2567Y-8.4457
X17.2567Y-8.5157
X17.2567Y-8.5858
X17.2567Y-8.6559
X17.2567Y-8.726
X17.678Y-8.2004
X17.678Y-8.2705
X17.678Y-8.3406
X17.678Y-8.4106
X17.678Y-8.4807
X17.678Y-8.5508
X17.678Y-8.6209
X17.678Y-8.6909
T4
X17.7433Y-9.5512
X17.7433Y-10.122
X17.8417Y-10.122
X17.9402Y-9.5512
X17.9402Y-10.122
T2
G00X11.5079Y-5.973
M15
G01X11.5079Y-5.9966
M16
G05
G00X11.5079Y-6.1277
M15
G01X11.5079Y-6.171
M16
G05
G00X11.848Y-5.973
M15
G01X11.848Y-5.9966
M16
G05
G00X11.848Y-6.1277
M15
G01X11.848Y-6.171
M16
G05
T5
G00X17.6213Y-9.8366
M15
G01X17.6213Y-9.8169
M16
G05
G00X18.0622Y-9.8366
M15
G01X18.0622Y-9.8169
M16
G05
M30
